<svg id="OBJECTS" xmlns="http://www.w3.org/2000/svg" xmlns:xlink="http://www.w3.org/1999/xlink" viewBox="0 0 368.5 352.35"><defs><style>.cls-1,.cls-51,.cls-57{fill:none;}.cls-2{fill:#fd9a0a;}.cls-3{fill:#fdcd0a;}.cls-4{fill:#fdff0a;}.cls-5{fill:#fdc10a;}.cls-6{fill:#fc9609;}.cls-7{fill:#fc8909;}.cls-8{clip-path:url(#clip-path);}.cls-9{fill:#fd550a;}.cls-10{clip-path:url(#clip-path-2);}.cls-11{fill:#8100c8;}.cls-12{fill:#aa33e3;}.cls-13{fill:#fddb4b;}.cls-14{fill:#023ba2;}.cls-15{fill:#0259b2;}.cls-16{fill:#fb3a68;}.cls-17{fill:#094c92;}.cls-18{fill:#09387a;}.cls-19{fill:#fde783;}.cls-20{fill:#009d8c;}.cls-21{fill:#007377;}.cls-22{fill:#e23200;}.cls-23{fill:#ecffff;}.cls-24{fill:#fc7009;}.cls-25{fill:#00dbff;}.cls-26{fill:#a6b6f7;}.cls-27{fill:#4f669f;}.cls-28{fill:#7d96db;}.cls-29{fill:#dcebff;}.cls-30{fill:#004fb6;}.cls-31{fill:#001a65;}.cls-32{fill:#00258f;}.cls-33{fill:#009aff;}.cls-34{fill:#00316f;}.cls-35{fill:#ec1e59;}.cls-36{fill:#860023;}.cls-37{fill:#c4013a;}.cls-38{fill:#0083ff;}.cls-39{fill:#009eff;}.cls-40{fill:#0041dd;}.cls-41{fill:#c6d7ff;}.cls-42{fill:#eaf5ff;}.cls-43{fill:#ffb000;}.cls-44{fill:#00081e;}.cls-45{fill:#bae5ff;}.cls-46{fill:#dfffff;}.cls-47{fill:#fe1211;}.cls-48{fill:#a7d1ff;}.cls-49{fill:#d80011;}.cls-50{fill:#990009;}.cls-51{stroke:#fe1211;stroke-width:3px;}.cls-51,.cls-57{stroke-linecap:round;stroke-linejoin:round;}.cls-52{fill:#0c1860;}.cls-53{fill:#0c187f;}.cls-54{fill:#0c0f44;}.cls-55{fill:#0c002e;}.cls-56{fill:#0c256d;}.cls-57{stroke:#fda00a;stroke-width:4px;}.cls-58{fill:#fda00a;}</style><clipPath id="clip-path" transform="translate(-79.18 -75.1)"><path class="cls-1" d="M258,204.08c-15.89,0-28.77,6-28.77,13.32s12.88,13.32,28.77,13.32,28.77-6,28.77-13.32S273.92,204.08,258,204.08Z"/></clipPath><clipPath id="clip-path-2" transform="translate(-79.18 -75.1)"><path class="cls-1" d="M256.86,144.8c-30.13-2.18-27.6,65.24-27.6,72.6s12.88,13.32,28.77,13.32,28.77-6,28.77-13.32S300.2,147.94,256.86,144.8Z"/></clipPath></defs><title>clock</title><path class="cls-2" d="M83.61,352.59l31-18.47a5.72,5.72,0,0,0,2.78-4.9V128.78a1.12,1.12,0,0,0-1.7-1l-33.4,19.92a6.29,6.29,0,0,0-3.06,5.39v197A2.93,2.93,0,0,0,83.61,352.59Z" transform="translate(-79.18 -75.1)"/><path class="cls-2" d="M80.59,352.57l1.58.89s.2-1-.55-1.15l-.74-.17Z" transform="translate(-79.18 -75.1)"/><path class="cls-2" d="M116.73,127.77l1.4.79s.51.82-.63.64-.86.27-1.15-.19l-.29-.46" transform="translate(-79.18 -75.1)"/><path class="cls-3" d="M85,353.38,116,334.91a5.71,5.71,0,0,0,2.79-4.91V129.56a1.13,1.13,0,0,0-1.71-1L83.65,148.51a6.29,6.29,0,0,0-3.06,5.4v197A2.93,2.93,0,0,0,85,353.38Z" transform="translate(-79.18 -75.1)"/><polygon class="cls-4" points="27.3 72.61 39.56 65.29 39.56 61.21 27.3 68.53 27.3 72.61"/><polygon class="cls-4" points="27.3 101.76 39.56 94.44 39.56 90.36 27.3 97.68 27.3 101.76"/><polygon class="cls-4" points="34.18 75.11 39.56 71.9 39.56 70.11 34.18 73.32 34.18 75.11"/><polygon class="cls-4" points="34.18 81.86 39.56 78.65 39.56 76.86 34.18 80.07 34.18 81.86"/><polygon class="cls-4" points="34.18 88.61 39.56 85.4 39.56 83.61 34.18 86.82 34.18 88.61"/><polygon class="cls-4" points="27.3 131.5 39.56 124.18 39.56 120.1 27.3 127.41 27.3 131.5"/><polygon class="cls-4" points="34.18 104.85 39.56 101.64 39.56 99.85 34.18 103.06 34.18 104.85"/><polygon class="cls-4" points="34.18 111.6 39.56 108.39 39.56 106.6 34.18 109.81 34.18 111.6"/><polygon class="cls-4" points="34.18 118.35 39.56 115.14 39.56 113.35 34.18 116.56 34.18 118.35"/><polygon class="cls-4" points="27.3 161.23 39.56 153.92 39.56 149.84 27.3 157.15 27.3 161.23"/><polygon class="cls-4" points="34.18 134.59 39.56 131.37 39.56 129.58 34.18 132.79 34.18 134.59"/><polygon class="cls-4" points="34.18 141.34 39.56 138.13 39.56 136.34 34.18 139.54 34.18 141.34"/><polygon class="cls-4" points="34.18 148.09 39.56 144.88 39.56 143.09 34.18 146.29 34.18 148.09"/><polygon class="cls-4" points="27.3 190.97 39.56 183.65 39.56 179.57 27.3 186.89 27.3 190.97"/><polygon class="cls-4" points="34.18 164.32 39.56 161.11 39.56 159.32 34.18 162.53 34.18 164.32"/><polygon class="cls-4" points="34.18 171.07 39.56 167.86 39.56 166.07 34.18 169.28 34.18 171.07"/><polygon class="cls-4" points="34.18 177.82 39.56 174.61 39.56 172.82 34.18 176.03 34.18 177.82"/><polygon class="cls-4" points="27.3 220.71 39.56 213.39 39.56 209.31 27.3 216.62 27.3 220.71"/><polygon class="cls-4" points="34.18 194.06 39.56 190.85 39.56 189.06 34.18 192.27 34.18 194.06"/><polygon class="cls-4" points="34.18 200.81 39.56 197.6 39.56 195.81 34.18 199.02 34.18 200.81"/><polygon class="cls-4" points="34.18 207.56 39.56 204.35 39.56 202.56 34.18 205.77 34.18 207.56"/><polygon class="cls-4" points="27.3 250.44 39.56 243.13 39.56 239.05 27.3 246.36 27.3 250.44"/><polygon class="cls-4" points="34.18 223.8 39.56 220.59 39.56 218.79 34.18 222 34.18 223.8"/><polygon class="cls-4" points="34.18 230.55 39.56 227.34 39.56 225.55 34.18 228.76 34.18 230.55"/><polygon class="cls-4" points="34.18 237.3 39.56 234.09 39.56 232.3 34.18 235.51 34.18 237.3"/><path class="cls-5" d="M83.65,148.51l8-4.76V349.43L85,353.38a2.93,2.93,0,0,1-4.43-2.52v-197A6.29,6.29,0,0,1,83.65,148.51Z" transform="translate(-79.18 -75.1)"/><path class="cls-3" d="M265.91,215.32l-15.45-.85h-14l-13.74,2.93v92.83c0,9,15.81,16.35,35.32,16.35s35.32-7.32,35.32-16.35V217.4Z" transform="translate(-79.18 -75.1)"/><path class="cls-6" d="M258,233.75c-19.51,0-35.32-7.32-35.32-16.35v8.31h0v.12c0,9,15.81,16.35,35.32,16.35,19.23,0,34.86-7.12,35.3-16h0v-8.8C293.35,226.43,277.54,233.75,258,233.75Z" transform="translate(-79.18 -75.1)"/><path class="cls-6" d="M258,256.64c-19.51,0-35.32-7.33-35.32-16.35v8.31h0v.11c0,9,15.81,16.36,35.32,16.36,19.23,0,34.86-7.13,35.3-16h0v-8.79C293.35,249.31,277.54,256.64,258,256.64Z" transform="translate(-79.18 -75.1)"/><path class="cls-6" d="M258,279.52c-19.51,0-35.32-7.32-35.32-16.35v8.31h0v.11c0,9,15.81,16.35,35.32,16.35,19.23,0,34.86-7.12,35.3-16h0v-8.8C293.35,272.2,277.54,279.52,258,279.52Z" transform="translate(-79.18 -75.1)"/><path class="cls-6" d="M258,302.41c-19.51,0-35.32-7.32-35.32-16.35v8.31h0v.12c0,9,15.81,16.35,35.32,16.35,19.23,0,34.86-7.12,35.3-16l0,0v-8.79C293.35,295.09,277.54,302.41,258,302.41Z" transform="translate(-79.18 -75.1)"/><path class="cls-3" d="M222.71,217.4c0,9,15.81,16.35,35.32,16.35s35.32-7.32,35.32-16.35S277.54,201,258,201,222.71,208.37,222.71,217.4Z" transform="translate(-79.18 -75.1)"/><path class="cls-7" d="M258,204.08c-15.89,0-28.77,6-28.77,13.32s12.88,13.32,28.77,13.32,28.77-6,28.77-13.32S273.92,204.08,258,204.08Z" transform="translate(-79.18 -75.1)"/><g class="cls-8"><path class="cls-9" d="M229.26,223.75c0,7.36,12.88,13.32,28.77,13.32s28.77-6,28.77-13.32S273.92,210.43,258,210.43,229.26,216.39,229.26,223.75Z" transform="translate(-79.18 -75.1)"/></g><g class="cls-10"><polyline class="cls-11" points="182.01 140.53 182.01 88.77 184.29 88.28 186.62 88.28 189.19 88.42 193.75 88.77 193.75 170.29 189.52 166.35"/><path class="cls-12" d="M272.94,163.38l-.68.62-.26-.2-3.63-.28-2.57-.14h-2.32l-1.06.23a3.27,3.27,0,0,0-.41.28c-.51,0-.82-.64-.82-.64v2h0s0,0,0,0c0,1.5,2.63,2.71,5.87,2.71s5.87-1.21,5.87-2.71v0h0Z" transform="translate(-79.18 -75.1)"/><path class="cls-13" d="M261.19,163.38c0,1.5,2.63,2.72,5.87,2.72s5.87-1.22,5.87-2.72-2.63-8-5.87-8S261.19,161.88,261.19,163.38Z" transform="translate(-79.18 -75.1)"/><path class="cls-11" d="M266.91,156.94h0a1,1,0,0,1-1-1v-2.78a1,1,0,0,1,1-1h0a1,1,0,0,1,1,1v2.78A1,1,0,0,1,266.91,156.94Z" transform="translate(-79.18 -75.1)"/><polyline class="cls-14" points="195.88 179.22 195.88 127.45 198.16 126.96 200.49 126.96 203.06 127.11 207.62 127.45 207.62 179.22 203.39 180.16"/><path class="cls-15" d="M286.8,202.06l-.68.63a3,3,0,0,0-.26-.21l-3.62-.28-2.57-.14h-2.33l-1,.23a4.38,4.38,0,0,0-.42.28c-.5,0-.81-.64-.81-.64v2h0v0c0,1.5,2.63,2.72,5.87,2.72s5.87-1.22,5.87-2.72v0h0Z" transform="translate(-79.18 -75.1)"/><path class="cls-13" d="M275.06,202.06c0,1.5,2.63,2.72,5.87,2.72s5.87-1.22,5.87-2.72-2.63-8-5.87-8S275.06,200.56,275.06,202.06Z" transform="translate(-79.18 -75.1)"/><path class="cls-14" d="M280.78,195.62h0a1,1,0,0,1-1-1v-2.78a1,1,0,0,1,1-1h0a1,1,0,0,1,1,1v2.78A1,1,0,0,1,280.78,195.62Z" transform="translate(-79.18 -75.1)"/><polyline class="cls-16" points="154.58 155.15 154.58 103.38 156.87 102.89 159.19 102.89 161.76 103.04 166.32 103.38 166.32 155.15 162.09 156.09"/><path class="cls-6" d="M245.51,178l-.68.63-.26-.21-3.63-.28-2.56-.14h-2.33l-1.06.23a4.85,4.85,0,0,0-.41.28c-.51,0-.82-.64-.82-.64v2h0v0c0,1.5,2.63,2.72,5.87,2.72s5.87-1.22,5.87-2.72v0h0Z" transform="translate(-79.18 -75.1)"/><path class="cls-13" d="M233.76,178c0,1.5,2.63,2.72,5.87,2.72s5.87-1.22,5.87-2.72-2.62-8-5.87-8S233.76,176.49,233.76,178Z" transform="translate(-79.18 -75.1)"/><path class="cls-16" d="M239.49,171.55h0a1,1,0,0,1-1-1v-2.78a1,1,0,0,1,1-1h0a1,1,0,0,1,1,1v2.78A1,1,0,0,1,239.49,171.55Z" transform="translate(-79.18 -75.1)"/><polyline class="cls-17" points="161.71 177.17 161.71 125.4 163.99 124.91 166.32 124.91 168.89 125.05 173.45 125.4 173.45 177.17 169.22 178.11"/><path class="cls-18" d="M252.63,200l-.68.62a1.79,1.79,0,0,0-.26-.2l-3.62-.28L245.5,200h-2.33l-1,.23a4.38,4.38,0,0,0-.42.28c-.5,0-.81-.64-.81-.64v2h0v0c0,1.5,2.63,2.72,5.87,2.72s5.87-1.22,5.87-2.72v0h0Z" transform="translate(-79.18 -75.1)"/><path class="cls-19" d="M240.89,200c0,1.5,2.63,2.72,5.87,2.72s5.87-1.22,5.87-2.72-2.63-8-5.87-8S240.89,198.51,240.89,200Z" transform="translate(-79.18 -75.1)"/><path class="cls-17" d="M246.61,193.57h0a1,1,0,0,1-1-1v-2.78a1,1,0,0,1,1-1h0a1,1,0,0,1,1,1v2.78A1,1,0,0,1,246.61,193.57Z" transform="translate(-79.18 -75.1)"/><polyline class="cls-20" points="174.68 170.65 174.68 118.88 176.97 118.39 179.29 118.39 181.86 118.54 186.42 118.88 186.42 170.65 182.19 171.59"/><path class="cls-21" d="M265.61,193.49l-.68.63-.26-.21-3.63-.28-2.56-.14h-2.33l-1.06.23a3.27,3.27,0,0,0-.41.28c-.51,0-.82-.64-.82-.64v2h0v0c0,1.5,2.63,2.72,5.88,2.72s5.86-1.22,5.86-2.72v0h0Z" transform="translate(-79.18 -75.1)"/><path class="cls-13" d="M253.86,193.49c0,1.5,2.63,2.72,5.88,2.72s5.86-1.22,5.86-2.72-2.62-8-5.86-8S253.86,192,253.86,193.49Z" transform="translate(-79.18 -75.1)"/><path class="cls-20" d="M259.59,187.05h0a1,1,0,0,1-1-1v-2.78a1,1,0,0,1,1-1h0a1,1,0,0,1,1,1V186A1,1,0,0,1,259.59,187.05Z" transform="translate(-79.18 -75.1)"/></g><path class="cls-6" d="M247,324.31s9.22,12.6,0,22.44l-80.3,46L168,379.64l-.69-8.73Z" transform="translate(-79.18 -75.1)"/><polygon class="cls-22" points="28.6 279.46 35.9 276.95 89.05 306.45 86.12 314.42 28.6 279.46"/><polygon class="cls-23" points="87.54 310.44 31.65 278.55 31.65 261.49 65.66 268.72 80.81 274.3 87.54 279.35 83.2 289.59 88.25 301.67 87.54 310.44"/><path class="cls-24" d="M107.78,354.56l57.39,33.08a17.81,17.81,0,0,0-.57-14.05l-56.82-32.75v-4.25l59.56,34.32.25.44c.22.39,5.4,9.68,0,19.76l-.9,1.68-58.94-34Z" transform="translate(-79.18 -75.1)"/><polygon class="cls-25" points="11.11 281.39 31.65 268.7 31.65 273.29 52.42 285.55 36.28 295.9 11.11 281.39"/><polygon class="cls-16" points="19.78 277.12 31.65 269.79 31.65 272.44 43.65 279.52 34.32 285.5 19.78 277.12"/><polygon class="cls-3" points="28.6 261.49 110.36 214.48 167.84 249.21 88.16 295.81 28.6 261.49"/><path class="cls-26" d="M166.72,366.76,168,353.61l-.69-8.72L247,298.29s9.22,12.6,0,22.44" transform="translate(-79.18 -75.1)"/><polygon class="cls-27" points="28.6 253.44 35.9 250.93 89.05 280.43 86.12 288.4 28.6 253.44"/><polygon class="cls-23" points="87.54 284.41 31.65 252.53 31.65 235.46 65.66 242.69 80.81 248.27 87.54 253.32 83.2 263.56 88.25 275.64 87.54 284.41"/><path class="cls-28" d="M107.78,328.54l57.39,33.07a17.78,17.78,0,0,0-.57-14l-56.82-32.75v-4.26l59.56,34.33.25.43c.22.39,5.4,9.68,0,19.76l-.9,1.68-58.94-34Z" transform="translate(-79.18 -75.1)"/><polygon class="cls-29" points="28.6 235.46 110.36 188.46 167.84 223.19 88.16 269.79 28.6 235.46"/><path class="cls-30" d="M247,272.26s9.22,12.6,0,22.44l-80.3,46L168,327.59l-.69-8.72Z" transform="translate(-79.18 -75.1)"/><polygon class="cls-31" points="28.6 227.41 35.9 224.91 89.05 254.4 86.12 262.37 28.6 227.41"/><polygon class="cls-23" points="87.54 258.39 31.65 226.5 31.65 209.44 65.66 216.67 80.81 222.25 87.54 227.3 83.2 237.54 88.25 249.62 87.54 258.39"/><path class="cls-32" d="M107.78,302.51l57.39,33.08a17.81,17.81,0,0,0-.57-14l-56.82-32.75v-4.25l59.56,34.33.25.43c.22.39,5.4,9.68,0,19.76l-.9,1.68-58.94-34Z" transform="translate(-79.18 -75.1)"/><polygon class="cls-33" points="28.6 209.44 110.36 162.43 167.84 197.16 88.16 243.77 28.6 209.44"/><polygon class="cls-25" points="61.58 222.54 128.19 184.58 152.75 199.09 86.75 237.04 61.58 222.54"/><ellipse class="cls-34" cx="178.85" cy="344.18" rx="16.96" ry="8.17"/><ellipse class="cls-34" cx="224.87" cy="343.96" rx="6.72" ry="3.24"/><path class="cls-35" d="M270.61,410.35s-10.26,11.78-21.89,5l-62.63-68.16,13.12-1.62,8.35-2.6Z" transform="translate(-79.18 -75.1)"/><polygon class="cls-36" points="131.18 206.13 135.24 212.7 118.2 271.05 109.78 269.95 131.18 206.13"/><polygon class="cls-23" points="113.98 270.45 132.75 208.91 149.39 205.14 149.84 239.91 147.75 255.91 144.31 263.59 133.36 261.62 122.69 269.21 113.98 270.45"/><path class="cls-37" d="M210.36,281.23l-19.59,63.28a17.83,17.83,0,0,0,13.58-3.66l19.39-62.65,4.16-.94-20.34,65.67-.36.34c-.33.3-8.25,7.41-19.27,4.39l-1.84-.51,20.12-65Z" transform="translate(-79.18 -75.1)"/><polygon class="cls-16" points="148.71 202.16 212.61 271.53 191.43 335.25 128.38 267.83 148.71 202.16"/><polygon class="cls-3" points="147.57 224.21 170.31 250.18 156.85 292.07 134.32 267.01 147.57 224.21"/><polygon class="cls-33" points="177.38 245.09 186.52 255.45 181.41 271.36 172.34 261.36 177.38 245.09"/><path class="cls-38" d="M222.63,112.48l-.69-1.59-15.41-9.06-.88-.52-.29-.17h0c-6.9-3.66-16.18-2.91-26.39,3.15-21.28,12.62-38.53,43.45-38.53,68.86,0,12.08,3.89,20.75,10.26,25.17h0l.12.07c.66.46,13.86,8.4,14.58,8.76l2.73-1.21,3.64,2.4c5.57.44,12-1.23,18.84-5.29,21.28-12.62,38.53-43.45,38.53-68.87C229.12,124.74,226.73,117.36,222.63,112.48Zm-32,69.76c-11.65,6.91-21.1,1.23-21.1-12.68s9.45-30.79,21.1-37.7,21.1-1.24,21.1,12.68S202.24,175.33,190.59,182.24Z" transform="translate(-79.18 -75.1)"/><path class="cls-39" d="M167.87,112.81l20.86,12.76L190,121.2l-18.67-11.47C170.16,110.7,169,111.74,167.87,112.81Z" transform="translate(-79.18 -75.1)"/><path class="cls-39" d="M190.61,182.23h0c-11.65,6.91-21.1,1.23-21.1-12.68,0-.1,0-.21,0-.31l-26-16a71,71,0,0,0-3.08,19.89c0,.48,0,.94,0,1.4l48.28,29.53c.62-.33,1.24-.66,1.86-1a66,66,0,0,0,14.47-11.95Z" transform="translate(-79.18 -75.1)"/><path class="cls-39" d="M172.38,146.63l1.27-4.36L154,130.16c-.78,1.25-1.54,2.52-2.26,3.82Z" transform="translate(-79.18 -75.1)"/><path class="cls-39" d="M170.31,162.14a48.16,48.16,0,0,1,3.15-9.63l-23.82-14.65a94.3,94.3,0,0,0-4,9.18Z" transform="translate(-79.18 -75.1)"/><path class="cls-40" d="M194.57,113.4C173.38,126.17,156,156.86,156,182.27s17.25,35.78,38.53,23.16S233.24,162,233.1,136.56,215.55,100.77,194.57,113.4Zm0,71.21c-11.65,6.91-21.09,1.23-21.09-12.68s9.44-30.8,21.09-37.71,21.1-1.23,21.1,12.68S206.22,177.7,194.57,184.61Z" transform="translate(-79.18 -75.1)"/><path class="cls-41" d="M225.73,140.94c0-20.55-13.95-28.94-31.16-18.73s-31.15,35.14-31.15,55.69,14,28.93,31.15,18.72S225.73,161.48,225.73,140.94Z" transform="translate(-79.18 -75.1)"/><path class="cls-42" d="M223.48,142.27c0-19.06-12.95-26.84-28.91-17.37s-28.9,32.6-28.9,51.66,12.94,26.84,28.9,17.37S223.48,161.33,223.48,142.27Z" transform="translate(-79.18 -75.1)"/><path class="cls-43" d="M200.49,136l-4.31-4.34a1.69,1.69,0,0,0-2.72.46l-4.56,9.6a1,1,0,0,0,1.43,1.35l.9-.5v16l6.52-3.58V139l2.51-1.38A1,1,0,0,0,200.49,136Z" transform="translate(-79.18 -75.1)"/><path class="cls-39" d="M209.48,169.69l-13.66-9.42-1.3,1.88,13.67,9.42a1.14,1.14,0,0,0,1.58-.3h0A1.13,1.13,0,0,0,209.48,169.69Z" transform="translate(-79.18 -75.1)"/><path class="cls-44" d="M200.24,156.24c0-3.73-2.54-5.26-5.67-3.4A13,13,0,0,0,188.91,163c0,3.73,2.54,5.26,5.66,3.4A13,13,0,0,0,200.24,156.24Z" transform="translate(-79.18 -75.1)"/><path class="cls-43" d="M197.62,157.79c0-2-1.36-2.83-3.05-1.83a7,7,0,0,0-3,5.45c0,2,1.36,2.83,3,1.83A7,7,0,0,0,197.62,157.79Z" transform="translate(-79.18 -75.1)"/><path class="cls-40" d="M196.49,158.46c0-1.26-.86-1.77-1.92-1.15a4.41,4.41,0,0,0-1.91,3.42c0,1.26.86,1.78,1.91,1.15A4.36,4.36,0,0,0,196.49,158.46Z" transform="translate(-79.18 -75.1)"/><polygon class="cls-45" points="339.47 208.83 337.97 209.7 221.17 139.81 219.67 5.28 221.17 4.42 339.47 73.43 339.47 208.83"/><polygon class="cls-46" points="337.97 209.7 219.67 140.68 219.67 5.28 337.97 74.29 337.97 209.7"/><polygon class="cls-47" points="337.97 93.02 219.67 24 219.67 5.28 337.97 74.29 337.97 93.02"/><polygon class="cls-48" points="308.88 99.91 294.09 90.92 294.09 72.19 308.88 81.18 308.88 99.91"/><polygon class="cls-48" points="332.9 113.92 318.11 104.93 318.11 86.21 332.9 95.19 332.9 113.92"/><polygon class="cls-48" points="285.77 87.57 270.99 78.58 270.99 59.86 285.77 68.84 285.77 87.57"/><polygon class="cls-48" points="262.28 74.46 247.49 65.47 247.49 46.75 262.28 55.73 262.28 74.46"/><polygon class="cls-48" points="239.04 61.61 224.25 52.62 224.25 33.9 239.04 42.88 239.04 61.61"/><polygon class="cls-48" points="308.88 126.56 294.09 117.57 294.09 98.84 308.88 107.83 308.88 126.56"/><polygon class="cls-48" points="332.9 140.57 318.11 131.58 318.11 112.86 332.9 121.84 332.9 140.57"/><polygon class="cls-48" points="285.77 114.22 270.99 105.23 270.99 86.51 285.77 95.5 285.77 114.22"/><polygon class="cls-48" points="262.28 101.11 247.49 92.12 247.49 73.4 262.28 82.38 262.28 101.11"/><polygon class="cls-48" points="239.04 88.26 224.25 79.27 224.25 60.55 239.04 69.53 239.04 88.26"/><polygon class="cls-48" points="308.88 153.21 294.09 144.22 294.09 125.5 308.88 134.48 308.88 153.21"/><polygon class="cls-48" points="332.9 167.22 318.11 158.23 318.11 139.51 332.9 148.49 332.9 167.22"/><polygon class="cls-48" points="285.77 140.88 270.99 131.89 270.99 113.16 285.77 122.15 285.77 140.88"/><polygon class="cls-48" points="262.28 127.76 247.49 118.77 247.49 100.05 262.28 109.03 262.28 127.76"/><polygon class="cls-48" points="239.04 114.91 224.25 105.92 224.25 87.2 239.04 96.18 239.04 114.91"/><polygon class="cls-48" points="308.88 179.86 294.09 170.87 294.09 152.15 308.88 161.13 308.88 179.86"/><polygon class="cls-48" points="332.9 193.87 318.11 184.88 318.11 166.16 332.9 175.15 332.9 193.87"/><polygon class="cls-48" points="285.77 167.53 270.99 158.54 270.99 139.81 285.77 148.8 285.77 167.53"/><polygon class="cls-48" points="262.28 154.41 247.49 145.43 247.49 126.7 262.28 135.69 262.28 154.41"/><polygon class="cls-48" points="239.04 141.56 224.25 132.57 224.25 113.85 239.04 122.83 239.04 141.56"/><path class="cls-49" d="M410,151.68c0,1.94-1.24,2.75-2.78,1.81a6.71,6.71,0,0,1-2.77-5.21c0-1.94,1.24-2.75,2.77-1.81A6.68,6.68,0,0,1,410,151.68Z" transform="translate(-79.18 -75.1)"/><path class="cls-50" d="M409.31,151.26c0,1.47-.94,2.08-2.1,1.37a5.07,5.07,0,0,1-2.1-3.94c0-1.46.94-2.08,2.1-1.37A5.08,5.08,0,0,1,409.31,151.26Z" transform="translate(-79.18 -75.1)"/><path class="cls-48" d="M407.44,147.47c-.82.87-1.7,1.2-2.35.8-.34-.2-.76-.91-.76-2.32a12.73,12.73,0,0,1,5.06-9.51,3.34,3.34,0,0,1,1.64-.62.86.86,0,0,1,.41.09c.34.19.75.91.75,2.32a12.1,12.1,0,0,1-1.62,5.59l3.59,2.09a16.31,16.31,0,0,0,2.19-7.68c0-2.78-1.06-5-2.92-6-1.05-.58-3.28-1.26-6.29.67-3.91,2.51-7,8.23-7,13,0,2.78,1.07,5,2.92,6a5.14,5.14,0,0,0,2.42.6,6.89,6.89,0,0,0,3.8-1.27,4.51,4.51,0,0,0-.53-2.16A4.4,4.4,0,0,0,407.44,147.47Z" transform="translate(-79.18 -75.1)"/><path class="cls-49" d="M375.84,131.71c0,1.94-1.24,2.75-2.77,1.81a6.69,6.69,0,0,1-2.78-5.21c0-1.94,1.24-2.75,2.78-1.81A6.71,6.71,0,0,1,375.84,131.71Z" transform="translate(-79.18 -75.1)"/><path class="cls-50" d="M375.17,131.29c0,1.47-.94,2.08-2.1,1.37a5.05,5.05,0,0,1-2.1-3.94c0-1.46.94-2.08,2.1-1.37A5.08,5.08,0,0,1,375.17,131.29Z" transform="translate(-79.18 -75.1)"/><path class="cls-48" d="M373.29,127.5c-.82.87-1.69,1.2-2.35.8-.34-.2-.75-.91-.75-2.32a12.72,12.72,0,0,1,5.05-9.51,3.34,3.34,0,0,1,1.64-.62.86.86,0,0,1,.41.09c.35.19.75.91.75,2.33a12.2,12.2,0,0,1-1.61,5.58l3.58,2.09a16.2,16.2,0,0,0,2.2-7.67c0-2.79-1.07-5-2.93-6-1-.58-3.27-1.26-6.29.68-3.91,2.5-7,8.22-7,13,0,2.78,1.07,5,2.93,6a5,5,0,0,0,2.41.6,6.94,6.94,0,0,0,3.81-1.27,4.66,4.66,0,0,0-.53-2.16A4.37,4.37,0,0,0,373.29,127.5Z" transform="translate(-79.18 -75.1)"/><path class="cls-49" d="M341.92,112c0,1.94-1.25,2.75-2.78,1.81a6.69,6.69,0,0,1-2.78-5.21c0-1.94,1.24-2.75,2.78-1.81A6.72,6.72,0,0,1,341.92,112Z" transform="translate(-79.18 -75.1)"/><path class="cls-50" d="M341.24,111.54c0,1.47-.94,2.09-2.1,1.38A5.08,5.08,0,0,1,337,109c0-1.47.94-2.09,2.1-1.38A5.08,5.08,0,0,1,341.24,111.54Z" transform="translate(-79.18 -75.1)"/><path class="cls-48" d="M339.36,107.76c-.82.86-1.69,1.19-2.34.79-.34-.2-.76-.91-.76-2.32a12.72,12.72,0,0,1,5.05-9.51A3.4,3.4,0,0,1,343,96.1a.84.84,0,0,1,.4.09c.35.19.76.92.76,2.33a12.07,12.07,0,0,1-1.62,5.58l3.58,2.09a16.2,16.2,0,0,0,2.2-7.67c0-2.79-1.07-5-2.92-6-1.06-.58-3.28-1.26-6.3.68-3.9,2.5-7,8.22-7,13,0,2.78,1.06,5,2.92,6a5,5,0,0,0,2.41.6,6.91,6.91,0,0,0,3.81-1.27,4.66,4.66,0,0,0-.53-2.16A4.29,4.29,0,0,0,339.36,107.76Z" transform="translate(-79.18 -75.1)"/><path class="cls-49" d="M313.05,95.12c0,1.94-1.24,2.75-2.77,1.81a6.68,6.68,0,0,1-2.78-5.21c0-1.94,1.24-2.75,2.78-1.81A6.71,6.71,0,0,1,313.05,95.12Z" transform="translate(-79.18 -75.1)"/><path class="cls-50" d="M312.38,94.71c0,1.46-.94,2.08-2.1,1.37a5.08,5.08,0,0,1-2.1-3.94c0-1.47.94-2.08,2.1-1.37A5.07,5.07,0,0,1,312.38,94.71Z" transform="translate(-79.18 -75.1)"/><path class="cls-48" d="M310.5,90.92c-.82.86-1.69,1.19-2.35.8-.34-.21-.75-.92-.75-2.33a12.72,12.72,0,0,1,5.05-9.51,3.31,3.31,0,0,1,1.64-.61.75.75,0,0,1,.41.09c.35.19.75.91.75,2.32a12.17,12.17,0,0,1-1.61,5.58l3.58,2.09a16.2,16.2,0,0,0,2.2-7.67c0-2.78-1.07-5-2.93-6-1.05-.57-3.27-1.26-6.29.68-3.91,2.51-7,8.22-7,13,0,2.79,1.07,5,2.93,6a5,5,0,0,0,2.41.6,7,7,0,0,0,3.81-1.26,4.69,4.69,0,0,0-.53-2.17A4.29,4.29,0,0,0,310.5,90.92Z" transform="translate(-79.18 -75.1)"/><line class="cls-51" x1="227.09" y1="39.24" x2="236.34" y2="56.05"/><line class="cls-51" x1="236.34" y1="44.5" x2="226.96" y2="50.98"/><line class="cls-51" x1="250.32" y1="52.14" x2="259.57" y2="68.95"/><line class="cls-51" x1="259.57" y1="57.41" x2="250.19" y2="63.88"/><path class="cls-52" d="M416.85,330.77h0V300.56H391c-24.74-11.46-59.39-11.61-81.68,0h-19v22.82c-1.18,10.43,5.53,21.39,19.93,29.71,25.54,14.74,65.61,15.6,89.5,1.91C411.26,348.43,416.9,339.7,416.85,330.77Z" transform="translate(-79.18 -75.1)"/><path class="cls-53" d="M408.21,348.85V300.56H391v58.57a62.24,62.24,0,0,0,8.79-4.12A44,44,0,0,0,408.21,348.85Z" transform="translate(-79.18 -75.1)"/><path class="cls-53" d="M378.37,362.74v-64.4h-8.61v65.74Q374.16,363.6,378.37,362.74Z" transform="translate(-79.18 -75.1)"/><rect class="cls-52" x="345.2" y="354.41" width="16.68" height="16.68" transform="translate(-232.13 281.14) rotate(-45)"/><polygon class="cls-54" points="368.5 213.31 272.34 268.51 180.23 215.32 180.23 209.44 276.38 160.13 368.5 207.43 368.5 213.31"/><polygon class="cls-55" points="272.34 268.51 368.5 213.31 368.5 207.43 349.87 197.86 272.34 197.86 272.34 268.51"/><polygon class="cls-56" points="368.5 207.43 272.34 262.62 180.23 209.44 276.38 154.24 368.5 207.43"/><ellipse class="cls-52" cx="274.36" cy="208.43" rx="8.08" ry="5.21"/><circle class="cls-3" cx="353.55" cy="277.52" r="8.08" transform="translate(-116.88 423.65) rotate(-67.62)"/><polyline class="cls-57" points="279.57 206.89 320.46 235 320.46 291.55"/><rect class="cls-58" x="319.98" y="296.43" width="0.88" height="7.58" rx="0.38" ry="0.38"/><rect class="cls-58" x="321.91" y="296.43" width="0.88" height="7.58" rx="0.38" ry="0.38"/><rect class="cls-58" x="323.52" y="294.5" width="0.88" height="7.58" rx="0.38" ry="0.38"/><rect class="cls-58" x="397.24" y="371.53" width="0.88" height="7.58" rx="0.38" ry="0.38" transform="translate(716.17 675.53) rotate(180)"/><rect class="cls-58" x="395.62" y="369.6" width="0.88" height="7.58" rx="0.38" ry="0.38" transform="translate(712.95 671.68) rotate(180)"/><path class="cls-3" d="M395.62,369.6a4,4,0,1,0,4-4A4,4,0,0,0,395.62,369.6Z" transform="translate(-79.18 -75.1)"/><polyline class="cls-16" points="218.23 342.1 218.23 270.79 220.81 270.23 223.44 270.23 226.35 270.39 231.5 270.79 231.5 342.1 226.72 343.17"/><path class="cls-6" d="M310.69,345.33l-.77.71-.29-.24-4.1-.31-2.9-.16H300l-1.2.26a5.52,5.52,0,0,0-.47.32c-.57,0-.91-.72-.91-.72v2.23h0v.05c0,1.69,3,3.07,6.63,3.07s6.63-1.38,6.63-3.07v-.05h0Z" transform="translate(-79.18 -75.1)"/><path class="cls-16" d="M310.69,416.53l-.77.7-.29-.23-4.1-.31-2.9-.16H300l-1.2.26a5.52,5.52,0,0,0-.47.32c-.57,0-.91-.72-.91-.72v2.23h0v0c0,1.7,3,3.08,6.63,3.08s6.63-1.38,6.63-3.08v0h0Z" transform="translate(-79.18 -75.1)"/><path class="cls-13" d="M297.42,345.33c0,1.7,3,3.07,6.63,3.07s6.63-1.37,6.63-3.07-3-9-6.63-9S297.42,343.64,297.42,345.33Z" transform="translate(-79.18 -75.1)"/><path class="cls-16" d="M303.88,338.05h0a1.15,1.15,0,0,1-1.15-1.14v-3.14a1.15,1.15,0,0,1,1.15-1.15h0a1.15,1.15,0,0,1,1.15,1.15v3.14A1.15,1.15,0,0,1,303.88,338.05Z" transform="translate(-79.18 -75.1)"/></svg>