<svg id="Objects" xmlns="http://www.w3.org/2000/svg" viewBox="0 0 142.59 180.79"><defs><style>.cls-1{fill:#002850;}.cls-2{fill:#004069;}.cls-3{fill:#f2ba49;}.cls-4{fill:#ffd34d;}</style></defs><title>medal</title><polygon class="cls-1" points="51.63 54.54 9.78 161.4 43.14 149.14 59.29 180.79 101.14 73.93 51.63 54.54"/><polygon class="cls-2" points="83.4 54.54 125.25 161.4 91.89 149.14 75.73 180.79 33.89 73.93 83.4 54.54"/><path class="cls-3" d="M215.89,582.35h0a6.4,6.4,0,0,1-1.41-8.9,6.42,6.42,0,0,0-3.2-9.83,6.43,6.43,0,0,1-4.09-8h0a6.42,6.42,0,0,0-6.08-8.36,6.41,6.41,0,0,1-6.37-6.38,6.42,6.42,0,0,0-8.37-6.07,6.42,6.42,0,0,1-8-4.1,6.42,6.42,0,0,0-9.83-3.19,6.42,6.42,0,0,1-8.91-1.41,6.43,6.43,0,0,0-10.34,0,6.41,6.41,0,0,1-8.9,1.41,6.42,6.42,0,0,0-9.83,3.19,6.42,6.42,0,0,1-8,4.1h0a6.42,6.42,0,0,0-8.36,6.07,6.42,6.42,0,0,1-6.38,6.38,6.42,6.42,0,0,0-6.07,8.36h0a6.42,6.42,0,0,1-4.1,8,6.42,6.42,0,0,0-3.19,9.83,6.41,6.41,0,0,1-1.41,8.9h0a6.43,6.43,0,0,0,0,10.34,6.42,6.42,0,0,1,1.41,8.91,6.42,6.42,0,0,0,3.19,9.83,6.42,6.42,0,0,1,4.1,8,6.42,6.42,0,0,0,6.07,8.37,6.41,6.41,0,0,1,6.38,6.37,6.42,6.42,0,0,0,8.36,6.08h0a6.43,6.43,0,0,1,8,4.09,6.42,6.42,0,0,0,9.83,3.2,6.4,6.4,0,0,1,8.9,1.41h0a6.43,6.43,0,0,0,10.34,0h0a6.42,6.42,0,0,1,8.91-1.41,6.42,6.42,0,0,0,9.83-3.2,6.42,6.42,0,0,1,8-4.09,6.42,6.42,0,0,0,8.37-6.08,6.41,6.41,0,0,1,6.37-6.37,6.42,6.42,0,0,0,6.08-8.37,6.42,6.42,0,0,1,4.09-8,6.42,6.42,0,0,0,3.2-9.83,6.42,6.42,0,0,1,1.41-8.91h0A6.43,6.43,0,0,0,215.89,582.35Z" transform="translate(-86.92 -523.46)"/><circle class="cls-4" cx="67.51" cy="64.07" r="53.6"/><path class="cls-3" d="M154.43,633.24a45.72,45.72,0,1,1,45.72-45.72A45.77,45.77,0,0,1,154.43,633.24Zm0-87.89a42.18,42.18,0,1,0,42.18,42.17A42.22,42.22,0,0,0,154.43,545.35Z" transform="translate(-86.92 -523.46)"/><rect class="cls-3" x="43.64" y="50.47" width="47.74" height="3.54"/><rect class="cls-3" x="43.64" y="62.29" width="47.74" height="3.54"/><rect class="cls-3" x="43.64" y="74.12" width="47.74" height="3.54"/><polygon class="cls-3" points="8.47 15.91 8.47 10.47 5.45 10.47 5.45 15.91 0 15.91 0 18.93 5.45 18.93 5.45 24.38 8.47 24.38 8.47 18.93 13.91 18.93 13.91 15.91 8.47 15.91"/><polygon class="cls-4" points="138.28 37.54 138.28 33.23 135.89 33.23 135.89 37.54 131.58 37.54 131.58 39.93 135.89 39.93 135.89 44.24 138.28 44.24 138.28 39.93 142.59 39.93 142.59 37.54 138.28 37.54"/><circle class="cls-4" cx="123.33" cy="117.92" r="4.5"/><path class="cls-4" d="M102.87,640a3.09,3.09,0,1,1-3.09-3.09A3.09,3.09,0,0,1,102.87,640Z" transform="translate(-86.92 -523.46)"/><path class="cls-3" d="M97.93,626.46a4.78,4.78,0,1,1-4.78-4.78A4.78,4.78,0,0,1,97.93,626.46Z" transform="translate(-86.92 -523.46)"/><path class="cls-3" d="M218.76,547.82a3.3,3.3,0,1,1-3.29-3.3A3.29,3.29,0,0,1,218.76,547.82Z" transform="translate(-86.92 -523.46)"/></svg>