<svg xmlns="http://www.w3.org/2000/svg" viewBox="0 0 170.96 229.55"><defs><style>.cls-1{isolation:isolate;}.cls-2{fill:#ababab;}.cls-3{fill:#656a6d;}.cls-4{fill:#6a7172;}.cls-5{fill:#949494;}.cls-6{fill:#4a5354;}.cls-7{fill:#657173;}.cls-8{fill:#ba6900;}.cls-9{fill:#de9a23;}.cls-10{fill:#f87f12;}.cls-11{fill:#5c4800;}.cls-12{fill:#bfaa50;}.cls-13{fill:#dbb524;}.cls-14{fill:#806500;}.cls-15{fill:#b39015;}.cls-16{fill:#83d7ff;}.cls-17{fill:#68bce5;}.cls-18{fill:#77cbf4;}.cls-19{fill:#60b4dd;}.cls-20{fill:#c6ffff;}.cls-21{fill:#1f749c;}.cls-22{fill:#3185ae;}.cls-23{fill:#4297bf;}.cls-24{fill:#d4ffff;}.cls-25{fill:#a7fbff;}.cls-26{fill:#7bcff8;}.cls-27{fill:#1a6e97;}.cls-28{fill:#5fb3dc;}.cls-29{fill:#5bafd8;}.cls-30{fill:#4ea2cb;}.cls-31{fill:#51a5cd;}.cls-32{fill:#378bb4;}.cls-33{fill:#89deff;}.cls-34{fill:#3f93bc;}.cls-35{fill:#075b84;}.cls-36{fill:#c7ffff;}.cls-37{fill:#70c4ed;}.cls-38{fill:#9ff3ff;}.cls-39{fill:#6cc0e9;}.cls-40{fill:#57abd4;}.cls-41{fill:#c0ffff;}.cls-42{fill:#a1f5ff;}.cls-43{fill:#7cd0f9;}.cls-44{fill:#89ddff;}.cls-45{fill:#3488b1;}.cls-46{fill:#1e729b;}.cls-47{fill:#21759e;}.cls-48{fill:#499dc5;}.cls-49{fill:#5aaed7;}.cls-50{fill:#006497;}.cls-51{fill:#79cdf6;}.cls-52{fill:#c1ffff;}.cls-53{fill:#95eaff;}.cls-54{fill:#36bdf0;}.cls-55{fill:#48cfff;}.cls-56{fill:#0073a6;}.cls-57{fill:#32baed;}.cls-58{fill:#006c9f;}.cls-59{fill:#078ec1;}.cls-60{fill:#0083b6;}.cls-61{fill:#0c93c6;}.cls-62{fill:#19a0d3;}.cls-63{fill:#1299cc;}.cls-64{fill:#41c8fb;}.cls-65{fill:#53dbff;}.cls-66{fill:#34bbee;}.cls-67{fill:#bfffe8;mix-blend-mode:darken;}.cls-68{fill:#1b1b1b;}.cls-69{fill:#2a2a2a;}.cls-70{fill:#242424;}.cls-71{fill:#333;}.cls-72{fill:#636363;}.cls-73{fill:#8e8e8e;}.cls-74{fill:#909090;}.cls-75{fill:#7c7c7c;}.cls-76{fill:#999;}.cls-77{fill:#afafaf;}.cls-78{fill:#007376;}.cls-79{fill:#14749e;}.cls-80{fill:#006969;}.cls-81{fill:#3e3e3e;}.cls-82{fill:#d42626;}.cls-83{fill:#c21d1d;}.cls-84{fill:#e63a3a;}.cls-85{fill:none;}.cls-86{fill:#d18d6d;}.cls-87{fill:#c77752;}.cls-88{fill:#deb08a;}.cls-89{fill:#f0b88f;}.cls-90{fill:#df9876;}.cls-91{fill:#4f2900;}.cls-92{fill:#f8cfb3;}.cls-93{fill:#bd2c2b;mix-blend-mode:multiply;}.cls-94{fill:#02577d;}</style></defs><title>virtual</title><g class="cls-1"><g id="Layer_1" data-name="Layer 1"><polygon class="cls-2" points="8.01 135.94 14.24 138.81 14.24 182.47 8.01 179.76 8.01 135.94"/><polygon class="cls-3" points="18.8 136.77 14.24 138.81 14.24 182.47 18.8 180.48 18.8 136.77"/><polygon class="cls-2" points="45.83 119.4 52.05 122.27 52.05 165.93 45.83 163.22 45.83 119.4"/><polygon class="cls-3" points="56.62 120.23 52.05 122.27 52.05 165.93 56.62 163.94 56.62 120.23"/><polygon class="cls-4" points="108.84 221.78 145.89 205.54 145.89 179.87 108.84 196.1 108.84 221.78"/><polygon class="cls-5" points="108.84 196.1 145.89 179.87 120.92 168.87 83.88 185.11 108.84 196.1"/><polygon class="cls-6" points="83.88 185.11 108.84 196.1 108.84 221.78 83.88 210.84 83.88 185.11"/><polygon class="cls-7" points="85.64 187.54 107.08 196.98 107.08 203.07 85.64 193.68 85.64 187.54"/><polygon class="cls-6" points="94.47 194.02 94.47 195.49 98.92 197.44 98.92 196.5 99.91 196.5 99.91 197.87 99.91 198.55 99.91 198.58 99.59 198.41 93.49 195.75 93.49 195.59 93.49 195.06 93.49 194.02 94.47 194.02"/><polygon class="cls-8" points="97.94 196.67 99.91 195.81 99.91 196.5 97.94 197.36 97.94 196.67"/><polygon class="cls-8" points="92.5 194.29 94.47 193.44 94.47 194.12 92.5 194.98 92.5 194.29"/><polygon class="cls-9" points="94.05 193.25 94.47 193.44 92.9 194.11 97.94 196.31 99.51 195.64 99.91 195.81 97.94 196.67 92.08 194.11 94.05 193.25"/><polygon class="cls-10" points="92.08 194.8 97.94 197.36 97.94 196.67 92.08 194.11 92.08 194.8"/><polygon class="cls-7" points="85.64 194.73 107.08 204.17 107.08 210.26 85.64 200.87 85.64 194.73"/><polygon class="cls-6" points="94.47 201.21 94.47 202.68 98.92 204.63 98.92 203.69 99.91 203.69 99.91 205.06 99.91 205.74 99.91 205.77 99.59 205.6 93.49 202.94 93.49 202.78 93.49 202.25 93.49 201.21 94.47 201.21"/><polygon class="cls-8" points="97.94 203.86 99.91 203 99.91 203.69 97.94 204.55 97.94 203.86"/><polygon class="cls-8" points="92.5 201.48 94.47 200.63 94.47 201.31 92.5 202.17 92.5 201.48"/><polygon class="cls-9" points="94.05 200.44 94.47 200.63 92.9 201.3 97.94 203.5 99.51 202.83 99.91 203 97.94 203.86 92.08 201.3 94.05 200.44"/><polygon class="cls-10" points="92.08 201.98 97.94 204.55 97.94 203.86 92.08 201.3 92.08 201.98"/><polygon class="cls-7" points="85.64 201.91 107.08 211.36 107.08 217.45 85.64 208.06 85.64 201.91"/><polygon class="cls-6" points="94.47 208.4 94.47 209.87 98.92 211.81 98.92 210.88 99.91 210.88 99.91 212.24 99.91 212.93 99.91 212.96 99.59 212.79 93.49 210.12 93.49 209.97 93.49 209.44 93.49 208.4 94.47 208.4"/><polygon class="cls-8" points="97.94 211.05 99.91 210.19 99.91 210.88 97.94 211.73 97.94 211.05"/><polygon class="cls-8" points="92.5 208.67 94.47 207.81 94.47 208.5 92.5 209.36 92.5 208.67"/><polygon class="cls-9" points="94.05 207.63 94.47 207.81 92.9 208.49 97.94 210.69 99.51 210.02 99.91 210.19 97.94 211.05 92.08 208.49 94.05 207.63"/><polygon class="cls-10" points="92.08 209.17 97.94 211.73 97.94 211.05 92.08 208.49 92.08 209.17"/><polygon class="cls-2" points="149.58 164.87 155.81 167.73 155.81 211.39 149.58 208.68 149.58 164.87"/><polygon class="cls-11" points="117.89 196.56 154.94 180.33 154.94 166.82 117.89 170.89 117.89 196.56"/><polygon class="cls-12" points="16.52 137.79 117.89 170.89 117.89 196.56 16.52 152.21 16.52 137.79"/><polygon class="cls-3" points="160.37 165.69 155.81 167.73 155.81 211.39 160.37 209.4 160.37 165.69"/><polygon class="cls-2" points="111.77 181.41 118 184.27 118 227.93 111.77 225.22 111.77 181.41"/><polygon class="cls-3" points="122.56 182.24 118 184.27 118 227.93 122.56 225.94 122.56 182.24"/><polygon class="cls-13" points="170.96 167.24 170.96 171.24 122.56 192.48 0.79 138.97 0.79 135.06 49.93 113.48 170.96 167.24"/><polygon class="cls-14" points="122.55 192.47 170.95 171.25 170.95 167.37 122.55 188.59 122.55 192.47"/><polygon class="cls-15" points="122.56 188.6 122.56 192.48 0.79 138.97 0.79 135.09 122.56 188.6"/><polygon class="cls-15" points="86.83 139.97 80.55 137.22 84.78 135.35 91.06 138.11 86.83 139.97"/><polygon class="cls-15" points="76.12 135.33 69.84 132.58 74.07 130.72 80.35 133.47 76.12 135.33"/><polygon class="cls-15" points="65.42 130.69 59.14 127.94 63.37 126.08 69.65 128.83 65.42 130.69"/><polygon class="cls-16" points="63.8 51.39 40.31 61.68 40.31 47.63 63.8 37.34 63.8 51.39"/><polygon class="cls-17" points="63.8 51.39 53.17 56.04 63.8 45.04 63.8 51.39"/><polygon class="cls-18" points="122.1 100.27 150.72 112.88 150.72 138.55 122.1 126.01 122.1 100.27"/><polygon class="cls-19" points="146.68 114.79 126.14 105.74 126.14 124.37 146.68 133.37 146.68 114.79"/><path class="cls-18" d="M311.85,318.2l.07,0v.08l20.47,8.84V308.32l-20.47-8.84v.08l-.07,0Zm10.8-4-1.07-.46v-1.28l1.07.46Zm.13-1.22,1.07.46v1.28l-1.07-.46Zm-1.33.7-1.07-.46v-1.28l1.07.46Zm-1.2-.52-1.07-.46V311.4l1.07.46Zm-1.07-1.9V310l1.07.46v1.28Zm1.2-.75,1.07.46v1.27l-1.07-.46Zm1.2.52,1.07.46v1.27l-1.07-.46Zm1.2.51,1.07.46v1.28l-1.07-.46Zm1.2.52,1.07.46v1.28l-1.07-.46Zm1.07,1.9v1.27l-1.07-.46v-1.27Zm0,1.44v1.27l-1.07-.46v-1.27Zm-1.2.75-1.07-.46v-1.27l1.07.46Zm-1.2-.52-1.07-.46v-1.27l1.07.46Zm-1.2-.51-1.07-.46v-1.28l1.07.46Zm-1.2-.52-1.07-.46v-1.28l1.07.46Zm-1.2-.52-1.07-.46v-1.28l1.07.46Zm-1.07-1.9v-1.27l1.07.46v1.27Zm0-1.43v-1.28l1.07.46v1.28Zm0-1.44V308l1.07.46v1.28Zm1.2-.76,1.07.46v1.28l-1.07-.46Zm1.2.52,1.07.46v1.28l-1.07-.46Zm1.2.52,1.07.46v1.27l-1.07-.46Zm1.2.52,1.07.46v1.27l-1.07-.46Zm1.2.52,1.07.46v1.27l-1.07-.46Zm1.2.51,1.07.46v1.28l-1.07-.46Zm1.07,1.9v1.28l-1.07-.46v-1.28Zm0,1.44v1.27l-1.07-.46V314Zm0,1.43v1.28l-1.07-.46v-1.28Zm0,1.44v1.28l-1.07-.46v-1.28Zm-1.2.76-1.07-.46v-1.28l1.07.46Zm-1.2-.52-1.07-.46v-1.28l1.07.46Zm-1.2-.52-1.07-.46V315.3l1.07.47Zm-1.2-.52-1.07-.46v-1.27l1.07.46Zm-1.2-.52-1.07-.46v-1.27l1.07.46Zm-1.2-.51L318,315v-1.28l1.07.46Zm-1.2-.52-1.07-.46v-1.28l1.07.46Zm-1.07-1.9V311.8l1.07.46v1.27Zm0-1.44v-1.27l1.07.46v1.27Zm0-1.43v-1.28l1.07.46v1.28Zm0-1.44v-1.27l1.07.46v1.27Zm0-1.44v-1.27l1.07.46v1.28Zm1.2-.75,1.07.46v1.27l-1.07-.46Zm1.2.52,1.07.46v1.27l-1.07-.46Zm1.2.51,1.07.46v1.28l-1.07-.46Zm1.2.52,1.07.46v1.28l-1.07-.46Zm1.2.52,1.07.46v1.28l-1.07-.46Zm1.2.52,1.07.46v1.28l-1.07-.46Zm1.2.52,1.07.46v1.27l-1.07-.46Zm1.2.52,1.07.46v1.27l-1.07-.46Zm1.07,1.89v1.28l-1.07-.46v-1.28Zm0,1.44v1.28l-1.07-.47v-1.27Zm0,1.44v1.27l-1.07-.46v-1.27Zm0,1.43v1.28l-1.07-.46v-1.28Zm0,1.44v1.27l-1.07-.46v-1.27Zm0,1.44v1.27l-1.07-.46v-1.28Zm-1.2.75-1.07-.46V318.3l1.07.46Zm-1.2-.52-1.07-.46v-1.27l1.07.46Zm-1.2-.51-1.07-.46v-1.28l1.07.46Zm-1.2-.52-1.07-.46v-1.28l1.07.46Zm-1.2-.52-1.07-.46v-1.28l1.07.46Zm-1.2-.52-1.07-.46V315.7l1.07.47Zm-1.2-.52-1.07-.46v-1.27l1.07.46Zm-1.2-.52-1.07-.46v-1.27l1.07.46Zm-1.2-.51-1.07-.46v-1.28l1.07.46Zm-1.07-1.9v-1.28l1.07.46v1.28Zm0-1.44v-1.27l1.07.46V313Zm0-1.43v-1.28l1.07.46v1.28Zm0-1.44V308.4l1.07.46v1.28Zm0-1.44V307l1.07.46v1.27Zm0-1.43v-1.28l1.07.46v1.28Zm0-1.44v-1.28l1.07.46v1.28Zm1.2-.76,1.07.46v1.28l-1.07-.46Zm1.2.52,1.07.46v1.28l-1.07-.46Zm1.2.52,1.07.46v1.28l-1.07-.46Zm1.2.52,1.07.46v1.27l-1.07-.46Zm1.2.52,1.07.46v1.27l-1.07-.46Zm1.2.51,1.07.47v1.27l-1.07-.46Zm1.2.52,1.07.46v1.28L324,309Zm1.2.52,1.07.46V310l-1.07-.46Zm1.2.52,1.07.46v1.28l-1.07-.46Zm1.2.52,1.07.46V311l-1.07-.46Zm1.07,1.9v1.27l-1.07-.46v-1.28Zm0,1.43v1.28l-1.07-.46v-1.28Zm0,1.44v1.27l-1.07-.46v-1.27Zm0,1.43v1.28l-1.07-.46V315Zm0,1.44v1.28l-1.07-.46v-1.28Zm0,1.44v1.27l-1.07-.46V317.9Zm0,1.43v1.28l-1.07-.46v-1.28Zm0,1.44v1.28l-1.07-.46v-1.28Zm-1.2.76-1.07-.46v-1.28l1.07.46Zm-1.2-.52-1.07-.46v-1.28l1.07.46Zm-1.2-.52-1.07-.46v-1.28l1.07.46Zm-1.2-.52-1.07-.46V318.7l1.07.46Zm-1.2-.52-1.07-.46v-1.27l1.07.46Zm-1.2-.51-1.07-.46v-1.28l1.07.46Zm-1.2-.52-1.07-.46v-1.28l1.07.46Zm-1.2-.52L318,317.9v-1.28l1.07.46Zm-1.2-.52-1.07-.46V316.1l1.07.46Zm-1.2-.52-1.07-.46v-1.27l1.07.46Zm-1.2-.52-1.07-.46v-1.27l1.07.46Zm-1.07-1.89v-1.28l1.07.46v1.28Zm0-1.44v-1.28l1.07.46v1.28Zm0-1.44v-1.27l1.07.46v1.27Zm0-1.43v-1.28l1.07.46v1.28Zm0-1.44v-1.27l1.07.46v1.27Zm0-1.44v-1.27l1.07.46v1.27Zm0-1.43V305l1.07.46v1.28Zm0-1.44v-1.27l1.07.46v1.27Zm0-1.43v-1.28l1.07.46v1.28Zm1.2-.76,1.07.46v1.27l-1.07-.46Zm1.2.52,1.07.46v1.27l-1.07-.46Zm1.2.51,1.07.46v1.28L318,305Zm1.2.52,1.07.46V306l-1.07-.46Zm1.2.52,1.07.46v1.28l-1.07-.46Zm1.2.52,1.07.46V307l-1.07-.46Zm1.2.52,1.07.46v1.27l-1.07-.46Zm1.2.52,1.07.46V308l-1.07-.46Zm1.2.51,1.07.47v1.27l-1.07-.46Zm1.2.52,1.07.46v1.28l-1.07-.46Zm1.2.52,1.07.46v1.28l-1.07-.46Zm1.2.52,1.07.46v1.28l-1.07-.46Zm1.07,1.9v1.27l-1.07-.46V309.8Zm0,1.43V313l-1.07-.46v-1.28Zm0,1.44v1.28l-1.07-.46v-1.28Zm0,1.44v1.27l-1.07-.46v-1.27Zm0,1.43v1.28l-1.07-.46v-1.28Zm0,1.44v1.27l-1.07-.46V317Zm0,1.44v1.27l-1.07-.46v-1.27Zm0,1.43v1.28l-1.07-.46v-1.28Zm0,1.44V323l-1.07-.46v-1.27Zm0,1.43v1.28l-1.07-.46v-1.28Zm-1.2.76-1.07-.46v-1.27l1.07.46Zm-1.2-.52-1.07-.46v-1.27l1.07.46Zm-1.2-.51-1.07-.46v-1.28l1.07.46Zm-1.2-.52-1.07-.46v-1.28l1.07.46Zm-1.2-.52-1.07-.46v-1.28l1.07.46Zm-1.2-.52-1.07-.46v-1.28l1.07.46Zm-1.2-.52-1.07-.46V319.1l1.07.46Zm-1.2-.52-1.07-.46v-1.27l1.07.46Zm-1.2-.51-1.07-.47v-1.27l1.07.46Zm-1.2-.52-1.07-.46v-1.28l1.07.46Zm-1.2-.52-1.07-.46V317l1.07.46Zm-1.2-.52-1.07-.46V316.5l1.07.46Zm-1.2-.52-1.07-.46V316l1.07.46Zm-1.07-1.89v-1.28l1.07.46v1.28Zm0-1.44v-1.28l1.07.46v1.28Zm0-1.44v-1.27l1.07.46v1.27Zm0-1.43v-1.28l1.07.46V312Zm0-1.44V308.8l1.07.46v1.28Zm0-1.44v-1.27l1.07.46v1.27Zm0-1.43v-1.28l1.07.46v1.28Zm0-1.44v-1.28l1.07.46v1.28Zm0-1.44v-1.27l1.07.46v1.27Zm0-1.43v-1.28l1.07.46v1.28Zm0-1.44v-1.28l1.07.46v1.28Zm1.2-.76,1.07.46v1.28l-1.07-.46Zm1.2.52,1.07.46V303l-1.07-.46Zm1.2.52,1.07.46v1.28l-1.07-.46Zm1.2.52,1.07.46V304l-1.07-.46Zm1.2.52,1.07.46v1.27l-1.07-.46Zm1.2.52,1.07.46V305l-1.07-.46Zm1.2.51,1.07.46v1.28l-1.07-.46Zm1.2.52,1.07.46v1.28l-1.07-.46Zm1.2.52,1.07.46v1.28l-1.07-.46Zm1.2.52,1.07.46v1.27l-1.07-.46Zm1.2.52,1.07.46v1.27l-1.07-.46Zm1.2.52,1.07.46v1.27l-1.07-.46Zm1.2.51,1.07.46v1.28l-1.07-.46Zm1.2.52,1.07.46v1.28l-1.07-.46Zm1.07,1.9v1.27l-1.07-.46v-1.27Zm0,1.44v1.27l-1.07-.46v-1.27Zm0,1.43v1.28L330,313v-1.28Zm0,1.44v1.27l-1.07-.46v-1.27Zm0,1.43v1.28L330,315.9v-1.28Zm0,1.44v1.28l-1.07-.46v-1.28Zm0,1.44v1.27l-1.07-.46V317.5Zm0,1.43v1.28l-1.07-.46v-1.28Zm0,1.44v1.28l-1.07-.46v-1.28Zm0,1.44v1.27l-1.07-.46v-1.27Zm0,1.43V325l-1.07-.46v-1.28Zm0,1.44v1.28L330,326v-1.27Zm-1.2.76-1.07-.46v-1.28l1.07.46Zm-1.2-.52-1.07-.46v-1.28l1.07.46Zm-1.2-.52-1.07-.46v-1.28l1.07.46Zm-1.2-.52-1.07-.46v-1.27l1.07.46Zm-1.2-.52-1.07-.46v-1.27l1.07.46Zm-1.2-.51-1.07-.47v-1.27l1.07.46Zm-1.2-.52-1.07-.46v-1.28l1.07.46Zm-1.2-.52-1.07-.46v-1.28l1.07.46Zm-1.2-.52-1.07-.46V320l1.07.46Zm-1.2-.52-1.07-.46V319.5l1.07.46Zm-1.2-.52-1.07-.46V319l1.07.46Zm-1.2-.51-1.07-.47v-1.27l1.07.46Zm-1.2-.52-1.07-.46v-1.28l1.07.46Zm-1.2-.52-1.07-.46v-1.28l1.07.46Zm-1.2-.52-1.07-.46V316.9l1.07.46Zm-1.07-1.9v-1.27l1.07.46v1.27Zm0-1.43V314l1.07.46v1.28Zm0-1.44v-1.28l1.07.46v1.28Zm0-1.44v-1.27l1.07.46v1.27Zm0-1.43v-1.28l1.07.46v1.28Zm0-1.44v-1.27l1.07.46V310Zm0-1.44v-1.27l1.07.46v1.27Zm0-1.43v-1.28l1.07.46v1.28Zm0-1.44V304l1.07.46v1.27Zm0-1.44v-1.27l1.07.46v1.28Zm0-1.43V301.1l1.07.46v1.28Zm0-1.44v-1.27l1.07.46v1.27Zm20.27,8.76-1.06-.46V308l1.06.46Zm0,1.43-1.06-.46V309.4l1.06.46Zm0,1.44-1.06-.46v-1.28l1.06.46Zm0,1.44-1.06-.46v-1.28l1.06.46Zm0,1.43-1.06-.46v-1.27l1.06.46Zm0,1.44-1.06-.46v-1.28l1.06.46Zm0,1.44-1.06-.47v-1.27l1.06.46Zm0,1.43-1.06-.46V318l1.06.46Zm0,1.44-1.06-.46v-1.28l1.06.46Zm0,1.43-1.06-.46v-1.27l1.06.46Zm0,1.44-1.06-.46v-1.28l1.06.47Zm0,1.44-1.06-.46v-1.28l1.06.46Zm0,1.43-1.06-.46V325.2l1.06.46Z" transform="translate(-185.71 -193.79)"/><polygon class="cls-20" points="126.68 106.05 128.54 108.13 127.86 108.26 129.76 113.75 131.26 113.07 132.32 117.54 132.61 118.76 132.69 119.1 132.75 119.05 133.24 118.55 134.56 117.23 136.5 120.91 136.95 121.78 138.54 124.8 138.77 124.66 139.32 124.32 142.2 122.53 146.67 132.58 146.67 133.36 146.24 133.18 145.11 130.64 142.05 123.77 139.7 125.24 139.15 125.58 138.46 126.01 136.42 122.13 135.96 121.26 134.55 118.59 133.62 119.52 133.13 120.02 132.41 120.74 132.11 119.52 131.82 118.3 130.88 114.32 129.49 114.95 127.22 108.39 126.68 108.49 126.68 106.05"/><polygon class="cls-21" points="115.71 76.3 85.84 61.51 85.84 54.07 115.71 68.87 115.71 76.3"/><polygon class="cls-22" points="115.29 75.63 86.26 61.25 86.26 54.74 115.29 69.12 115.29 75.63"/><polygon class="cls-23" points="115.29 71.86 86.26 57.48 86.26 54.74 115.29 69.12 115.29 71.86"/><path class="cls-24" d="M282.08,259.49v-2.64l.54.27.08,0s.05,0,.06,0l.05.05a.16.16,0,0,1,0,.07l.79,1.73.08.18c0,.07,0,.13.08.19a.75.75,0,0,1,.07-.12.39.39,0,0,1,.08-.1l.79-.94,0,0h.05l.06,0,.08,0,.54.27v2.63l-.62-.31v-1.51a2,2,0,0,1,0-.24l-.81,1a.12.12,0,0,1-.1,0,.34.34,0,0,1-.15,0l-.09,0a.4.4,0,0,1-.15-.1.71.71,0,0,1-.1-.14l-.81-1.77c0,.05,0,.09,0,.14v1.63Z" transform="translate(-185.71 -193.79)"/><path class="cls-24" d="M285.75,261.31l1.18-2.05.73.36,1.18,3.22-.55-.27a.58.58,0,0,1-.15-.11,1,1,0,0,1-.08-.14l-.18-.55-1.16-.58-.18.38a.19.19,0,0,1-.09.05.27.27,0,0,1-.14,0Zm1.13-.45.84.42-.29-.87c0-.05,0-.12-.06-.19a1.68,1.68,0,0,1-.07-.24c0,.06-.05.12-.07.17l-.07.13Z" transform="translate(-185.71 -193.79)"/><path class="cls-24" d="M288.4,260l.62.31a1,1,0,0,1,.15.11,1,1,0,0,1,.08.14l.44,1c0,.08.07.15.09.22s.06.13.08.19l.07-.12.1-.12.43-.55,0,0,.05,0h.07l.08,0,.63.31-1.11,1.09v1l-.71-.35v-1Z" transform="translate(-185.71 -193.79)"/><polygon class="cls-25" points="115.71 98.79 85.84 84 85.84 61.51 115.71 76.3 115.71 98.79"/><polygon class="cls-26" points="115.71 76.89 85.84 62.09 85.84 61.51 115.71 76.3 115.71 76.89"/><path class="cls-27" d="M278.68,262.56l.57-.13.32.16v1.32l.3.15v.25l-1-.52v-.24l.35.17v-.79a.49.49,0,0,1,0-.12l-.21.05h-.06l-.05,0,0,0,0,0Z" transform="translate(-185.71 -193.79)"/><path class="cls-27" d="M278.63,266.28v-.1a.14.14,0,0,1,0-.06.07.07,0,0,1,.05,0l.52-.2a.33.33,0,0,0,.12-.05l.08-.06a.35.35,0,0,0,.05-.08.36.36,0,0,0,0-.1.31.31,0,0,0-.05-.17.42.42,0,0,0-.16-.13.34.34,0,0,0-.15,0,.1.1,0,0,0-.08.06s0,.05-.07.05a.28.28,0,0,1-.12-.05l-.2-.14a.24.24,0,0,1,.07-.16.29.29,0,0,1,.14-.08.46.46,0,0,1,.2,0,.84.84,0,0,1,.23.09,1,1,0,0,1,.24.15.85.85,0,0,1,.19.19.82.82,0,0,1,.12.2.79.79,0,0,1,0,.2.33.33,0,0,1,0,.15.39.39,0,0,1-.08.1.41.41,0,0,1-.11.07l-.14.06-.35.14.13,0,.13.05.34.17a.39.39,0,0,1,.1.08.17.17,0,0,1,0,.1v.19Z" transform="translate(-185.71 -193.79)"/><path class="cls-27" d="M278.62,268.46l.17,0a.21.21,0,0,1,.12.05.14.14,0,0,1,.08.09,1,1,0,0,0,.12.19l.15.11.12,0h.08a.1.1,0,0,0,0,0,.14.14,0,0,0,0-.06.31.31,0,0,0,0-.1.14.14,0,0,0-.05-.09.36.36,0,0,0-.11-.1l-.21-.13v-.22l.18.08h.11s.05,0,.05,0a.19.19,0,0,0,0-.08.27.27,0,0,0-.06-.17.39.39,0,0,0-.15-.13.22.22,0,0,0-.15,0,.1.1,0,0,0-.08.06.08.08,0,0,1-.07,0,.19.19,0,0,1-.12-.05l-.21-.13a.38.38,0,0,1,.08-.17.39.39,0,0,1,.14-.08.7.7,0,0,1,.2,0l.23.09a1,1,0,0,1,.24.15.94.94,0,0,1,.17.18.58.58,0,0,1,.11.18.39.39,0,0,1,0,.18.37.37,0,0,1,0,.12.13.13,0,0,1-.05.07.11.11,0,0,1-.08,0,.26.26,0,0,1-.12,0,.68.68,0,0,1,.31.51.29.29,0,0,1-.06.19.22.22,0,0,1-.14.08.47.47,0,0,1-.2,0,.59.59,0,0,1-.24-.09,1,1,0,0,1-.23-.13,1,1,0,0,1-.18-.17.9.9,0,0,1-.14-.2A.87.87,0,0,1,278.62,268.46Z" transform="translate(-185.71 -193.79)"/><path class="cls-27" d="M278.55,270.83l.84-.56.41.2v1l.18.09v.19s0,0,0,0,0,0,0,0l-.11-.05V272l-.38-.19v-.36l-.73-.36-.06-.05a.13.13,0,0,1,0-.07Zm.41.18.46.23v-.41a.25.25,0,0,1,0-.08.25.25,0,0,1,0-.08Z" transform="translate(-185.71 -193.79)"/><path class="cls-27" d="M278.63,273.87l.12-.08h.1a.18.18,0,0,1,.07,0l.07.08.1.08a.32.32,0,0,0,.13.08.43.43,0,0,0,.13.05.15.15,0,0,0,.09,0,.1.1,0,0,0,.05-.06.34.34,0,0,0,0-.1.31.31,0,0,0-.07-.21.6.6,0,0,0-.21-.17.85.85,0,0,0-.24-.08l-.24-.17.15-.71.93.46v.13a.11.11,0,0,1,0,.06l0,0h-.07l-.11-.05-.43-.21-.05.23.1,0,.09,0a1.53,1.53,0,0,1,.25.16,1.17,1.17,0,0,1,.19.2.71.71,0,0,1,.11.21.52.52,0,0,1,0,.21.43.43,0,0,1-.05.21.27.27,0,0,1-.15.1.32.32,0,0,1-.22,0,.73.73,0,0,1-.28-.1,1.4,1.4,0,0,1-.17-.09l-.15-.12-.13-.13Z" transform="translate(-185.71 -193.79)"/><path class="cls-27" d="M278.63,276.1a.42.42,0,0,1,.21-.37l.41-.28a.11.11,0,0,1,.08,0,.24.24,0,0,1,.13,0l.34.17-.54.28h0l0,0,.1,0,.1,0,.19.13a1,1,0,0,1,.18.17,1.13,1.13,0,0,1,.12.21.69.69,0,0,1,.05.24.35.35,0,0,1-.05.18.26.26,0,0,1-.14.11.46.46,0,0,1-.21,0,.85.85,0,0,1-.27-.09,1.27,1.27,0,0,1-.27-.18,1,1,0,0,1-.2-.21.85.85,0,0,1-.13-.25A.69.69,0,0,1,278.63,276.1Zm.37.23a.43.43,0,0,0,0,.11.54.54,0,0,0,.05.11.38.38,0,0,0,.09.09.36.36,0,0,0,.12.08l.11,0h.09l.06-.06a.2.2,0,0,0,0-.09.5.5,0,0,0,0-.12.3.3,0,0,0-.06-.11l-.09-.09-.12-.08a.23.23,0,0,0-.11,0,.11.11,0,0,0-.08,0l-.06.05A.3.3,0,0,0,279,276.33Z" transform="translate(-185.71 -193.79)"/><path class="cls-27" d="M278.65,277.88v-.21l1.28.63v.14a.22.22,0,0,1,0,.09l0,.05-.64.85-.07,0-.13,0-.28-.14.65-.81.06-.06.06,0-.8-.4,0,0,0,0,0,0S278.65,277.89,278.65,277.88Z" transform="translate(-185.71 -193.79)"/><path class="cls-28" d="M274.07,261.32l.09-.08,0,0,.06,0,.06,0,.06.06.07.06a.41.41,0,0,0,.11.07l.07,0h.05s0,0,0,0a0,0,0,0,0,0,0,.13.13,0,0,0,0-.07l-.06-.07-.1-.08-.11-.08-.11-.1-.1-.11a.54.54,0,0,1-.07-.13.32.32,0,0,1,0-.14.16.16,0,0,1,0-.12.15.15,0,0,1,.09-.06h.16a1,1,0,0,1,.23.09l.14.07.12.1.11.09.08.1L275,261h-.07l-.06,0-.06-.05-.07-.06-.09-.05a.24.24,0,0,0-.12,0,0,0,0,0,0,0,.05.08.08,0,0,0,0,.07l.07.07.09.08.11.08.12.1.1.11a.41.41,0,0,1,.07.11.68.68,0,0,1,0,.14.25.25,0,0,1,0,.13.16.16,0,0,1-.11.07.34.34,0,0,1-.17,0,.72.72,0,0,1-.24-.09l-.13-.07-.13-.1-.12-.1Z" transform="translate(-185.71 -193.79)"/><path class="cls-28" d="M273.66,263.82V262.7l.24.12a.22.22,0,0,1,.09.1l0,.07.07,0h.16l.1,0a.62.62,0,0,1,.2.15.82.82,0,0,1,.12.2.16.16,0,0,1,.08-.05h.1l.11,0,.12.05a1,1,0,0,1,.2.13,1,1,0,0,1,.14.15.76.76,0,0,1,.09.18.64.64,0,0,1,0,.2v.71l-.39-.19v-.72a.25.25,0,0,0-.17-.25.13.13,0,0,0-.13,0s0,0,0,.1v.71l-.39-.19v-.71a.25.25,0,0,0,0-.16.34.34,0,0,0-.13-.1.19.19,0,0,0-.1,0H274V264Z" transform="translate(-185.71 -193.79)"/><path class="cls-28" d="M273.6,265.26l.31.15.07,0s0,0,0,.06l.13.57,0,.12a.5.5,0,0,1,0,.12.36.36,0,0,0,0-.09l0-.09.16-.42a.05.05,0,0,1,0,0,.07.07,0,0,1,.06,0l.17.09a.13.13,0,0,1,.07.05.21.21,0,0,1,0,.06l.16.58,0,.13a.56.56,0,0,0,0,.12.29.29,0,0,1,0-.09l0-.1.14-.43s0,0,0,0l.06,0,.3.14-.41.92-.31-.15,0,0,0-.05-.18-.65,0-.09s0-.05,0-.08a.14.14,0,0,1,0,.06.14.14,0,0,0,0,.07l-.19.46s0,0-.08,0l-.3-.15Z" transform="translate(-185.71 -193.79)"/><path class="cls-28" d="M274.14,268.28v-.13l.21.07.07-.24s0,0,.09,0l.2.1v.33l.32.16v.23l-.32-.16v.56a.14.14,0,0,0,0,.07.09.09,0,0,0,.06.06h.08s0,0,0,0,0,0,0,0l0,0,.12.21a.34.34,0,0,1-.17,0,.89.89,0,0,1-.19-.07.62.62,0,0,1-.16-.1.49.49,0,0,1-.12-.13.37.37,0,0,1-.07-.14.32.32,0,0,1,0-.14v-.58l-.11-.06a.1.1,0,0,1,0,0A.14.14,0,0,1,274.14,268.28Z" transform="translate(-185.71 -193.79)"/><path class="cls-28" d="M273.43,270.52v-.13l.2.07.08-.24s0,0,.08,0l.21.1v.33l.32.16V271l-.32-.16v.56a.1.1,0,0,0,0,.07l.06.06h.1l0,0a.05.05,0,0,1,0,0l.12.21a.5.5,0,0,1-.17,0l-.19-.07a.64.64,0,0,1-.16-.11l-.12-.12a1,1,0,0,1-.08-.14.77.77,0,0,1,0-.15v-.58l-.11-.05a.1.1,0,0,1-.05,0A.07.07,0,0,1,273.43,270.52Z" transform="translate(-185.71 -193.79)"/><path class="cls-28" d="M274.49,272v-1.62l.38.19v.6a.38.38,0,0,1,.15,0,.63.63,0,0,1,.2.06l.19.13a1.07,1.07,0,0,1,.14.16.89.89,0,0,1,.08.17.63.63,0,0,1,0,.19v.71l-.39-.19v-.72a.28.28,0,0,0,0-.15.36.36,0,0,0-.13-.11.27.27,0,0,0-.12,0h-.11v.8Z" transform="translate(-185.71 -193.79)"/><path class="cls-28" d="M274.2,273.47v-.14l.18.09v-.06a.25.25,0,0,1,0-.16.14.14,0,0,1,.1-.08.28.28,0,0,1,.16,0,.74.74,0,0,1,.22.08l.09.05.08.05v.16a0,0,0,0,1,0,0H275l-.09,0h-.07s0,0,0,0a.17.17,0,0,0,0,.08v.06l.3.15V274l-.29-.14v.88l-.39-.19v-.88l-.08,0a.22.22,0,0,1-.07-.06A.11.11,0,0,1,274.2,273.47Z" transform="translate(-185.71 -193.79)"/><path class="cls-28" d="M274.07,276.85l.09-.08,0,0,.06,0,.06,0,.06.06.07.07.11.06.07,0s0,0,.05,0h0s0,0,0,0a.09.09,0,0,0,0-.06s0-.05-.06-.08l-.1-.07-.11-.09a1.56,1.56,0,0,1-.21-.21.75.75,0,0,1-.07-.12.4.4,0,0,1,0-.15.16.16,0,0,1,0-.12.15.15,0,0,1,.09-.06h.16l.23.09.14.08.12.09a.52.52,0,0,1,.11.1l.08.09-.09.08h0l0,0-.06,0-.06-.06-.07-.06-.09-.05a.15.15,0,0,0-.12,0s0,0,0,.05a.07.07,0,0,0,0,.06l.07.07.09.08a.48.48,0,0,1,.11.09l.12.09.1.11a.75.75,0,0,1,.07.12.51.51,0,0,1,0,.13.29.29,0,0,1,0,.14.2.2,0,0,1-.11.06.32.32,0,0,1-.17,0l-.24-.09a.57.57,0,0,1-.13-.08l-.13-.09-.12-.1Z" transform="translate(-185.71 -193.79)"/><path class="cls-27" d="M282.75,265.29a.36.36,0,0,1,0-.11.12.12,0,0,1,.06-.08.19.19,0,0,1,.09,0h.14a.87.87,0,0,1-.18-.22.53.53,0,0,1-.06-.24.24.24,0,0,1,0-.15.19.19,0,0,1,.12-.07.31.31,0,0,1,.19,0,.79.79,0,0,1,.23.08,1,1,0,0,1,.24.15l.18.18a.53.53,0,0,1,.12.2.45.45,0,0,1,.05.19.19.19,0,0,1-.24.22l.14.13a1,1,0,0,1,.09.13.49.49,0,0,1,.06.13.62.62,0,0,1,0,.13.29.29,0,0,1,0,.17.22.22,0,0,1-.14.08.47.47,0,0,1-.2,0,1.22,1.22,0,0,1-.27-.09l-.26-.17a2,2,0,0,1-.21-.19,1,1,0,0,1-.13-.22A.54.54,0,0,1,282.75,265.29Zm.4.19a.29.29,0,0,0,0,.09.3.3,0,0,0,0,.1l.08.08a.41.41,0,0,0,.11.07.21.21,0,0,0,.12,0,.08.08,0,0,0,.07,0,.1.1,0,0,0,.05,0,.22.22,0,0,0,0-.08.31.31,0,0,0,0-.1.25.25,0,0,0,0-.09l-.08-.09a.35.35,0,0,0-.12-.07.31.31,0,0,0-.12-.05h-.07a.07.07,0,0,0,0,.05A.29.29,0,0,0,283.15,265.48Zm0-.68a.19.19,0,0,0,0,.08l0,.09.07.08a.26.26,0,0,0,.1.07l.11,0a.06.06,0,0,0,.06,0,.1.1,0,0,0,0-.05s0,0,0-.08a.31.31,0,0,0,0-.08.11.11,0,0,0,0-.07l-.07-.08a.33.33,0,0,0-.1-.06l-.1,0h-.06a.1.1,0,0,0,0,.05S283.19,264.78,283.19,264.8Z" transform="translate(-185.71 -193.79)"/><path class="cls-27" d="M282.76,267.27a.36.36,0,0,1,0-.19.32.32,0,0,1,.13-.1.48.48,0,0,1,.21,0,.9.9,0,0,1,.26.09,1.17,1.17,0,0,1,.26.17.89.89,0,0,1,.32.43.69.69,0,0,1,0,.24.49.49,0,0,1-.06.25.52.52,0,0,1-.14.16l-.39.28a.11.11,0,0,1-.08,0,.19.19,0,0,1-.12,0l-.36-.17.58-.31,0,0,0,0-.12,0a.42.42,0,0,1-.14-.06.87.87,0,0,1-.18-.11l-.16-.16a.82.82,0,0,1-.12-.2A.57.57,0,0,1,282.76,267.27Zm.39.16a.38.38,0,0,0,.25.36.23.23,0,0,0,.19,0s.06-.06.06-.13a.37.37,0,0,0,0-.11l-.06-.1-.08-.09-.11-.06-.1,0h-.08a.12.12,0,0,0,0,.05A.19.19,0,0,0,283.15,267.43Z" transform="translate(-185.71 -193.79)"/><path class="cls-27" d="M282.08,269.42l.57-.13.32.16v1.33l.3.14v.25l-1-.51v-.25l.35.17v-.91l-.2.05h-.06l-.05,0s0,0,0,0l0,0Z" transform="translate(-185.71 -193.79)"/><path class="cls-27" d="M283.45,270.48a1.06,1.06,0,0,1,.05-.34.44.44,0,0,1,.14-.18.38.38,0,0,1,.22,0,.73.73,0,0,1,.26.09.8.8,0,0,1,.27.18.88.88,0,0,1,.22.25,1.15,1.15,0,0,1,.14.32,1.58,1.58,0,0,1,.05.38,1,1,0,0,1-.05.33.3.3,0,0,1-.14.18.38.38,0,0,1-.22.05.85.85,0,0,1-.27-.09,1.51,1.51,0,0,1-.26-.18,1,1,0,0,1-.22-.25,1.83,1.83,0,0,1-.14-.32A1.58,1.58,0,0,1,283.45,270.48Zm.4.19a1.14,1.14,0,0,0,0,.28.47.47,0,0,0,.06.19.41.41,0,0,0,.08.13l.1.07.11,0a.12.12,0,0,0,.09,0,.53.53,0,0,0,.06-.13,1.57,1.57,0,0,0,0-.25,2,2,0,0,0,0-.28c0-.08,0-.14-.06-.2a.62.62,0,0,0-.09-.12.34.34,0,0,0-.11-.07.17.17,0,0,0-.1,0,.09.09,0,0,0-.08,0,.2.2,0,0,0-.06.13A.85.85,0,0,0,283.85,270.67Z" transform="translate(-185.71 -193.79)"/><path class="cls-27" d="M282.08,272l.57-.13.32.16v1.32l.3.15v.25l-1-.52V273l.35.17v-.91l-.2.05h-.06l-.05,0,0,0,0,0Z" transform="translate(-185.71 -193.79)"/><path class="cls-27" d="M283.53,272.72l.57-.12.32.15v1.33l.29.15v.25l-1-.52v-.24l.35.17V273l-.2,0h-.06l0,0,0,0,0,0Z" transform="translate(-185.71 -193.79)"/><path class="cls-27" d="M282.08,274.6l.57-.13.32.16V276l.3.15v.25l-1-.52v-.24l.35.17v-.91l-.2,0h-.06l-.05,0,0,0,0,0Z" transform="translate(-185.71 -193.79)"/><path class="cls-27" d="M283.48,276.45v-.1s0-.05,0-.06,0,0,.06,0l.52-.2.12-.05a.27.27,0,0,0,.08-.07l.05-.07a.37.37,0,0,0,0-.11.26.26,0,0,0-.05-.17.3.3,0,0,0-.16-.12.27.27,0,0,0-.14,0,.1.1,0,0,0-.08.06s0,0-.07,0a.33.33,0,0,1-.12-.06l-.21-.13a.38.38,0,0,1,.08-.17.23.23,0,0,1,.14-.07.41.41,0,0,1,.19,0,.85.85,0,0,1,.24.08,1.43,1.43,0,0,1,.24.16l.19.18a.71.71,0,0,1,.11.21.48.48,0,0,1,0,.2.34.34,0,0,1,0,.15.39.39,0,0,1-.08.1.41.41,0,0,1-.11.07l-.14.06-.36.14.14,0,.12.05.34.17a.21.21,0,0,1,.1.08.12.12,0,0,1,0,.09v.2Z" transform="translate(-185.71 -193.79)"/><path class="cls-27" d="M282.08,277.18l.57-.12.32.15v1.33l.3.15v.25l-1-.52v-.24l.35.17v-.91l-.2.05h-.06l-.05,0,0,0,0,0Z" transform="translate(-185.71 -193.79)"/><path class="cls-27" d="M283.46,278.63l.17,0,.13.05a.22.22,0,0,1,.08.09.78.78,0,0,0,.12.19.44.44,0,0,0,.15.12l.11,0h.08l.05-.05a.14.14,0,0,0,0-.07s0-.06,0-.09a.2.2,0,0,0-.05-.09.38.38,0,0,0-.11-.11l-.22-.12v-.22a.76.76,0,0,0,.19.07.26.26,0,0,0,.11,0,.07.07,0,0,0,.05,0,.19.19,0,0,0,0-.08.26.26,0,0,0,0-.17.35.35,0,0,0-.16-.13.19.19,0,0,0-.14,0,.08.08,0,0,0-.08.06.08.08,0,0,1-.07,0,.28.28,0,0,1-.12-.05l-.21-.13a.34.34,0,0,1,.08-.17.25.25,0,0,1,.14-.08.41.41,0,0,1,.19,0l.24.09a1,1,0,0,1,.41.33.87.87,0,0,1,.11.18.59.59,0,0,1,0,.17.44.44,0,0,1,0,.13.18.18,0,0,1-.05.07.14.14,0,0,1-.09,0h-.11a.67.67,0,0,1,.3.5.3.3,0,0,1-.05.2.22.22,0,0,1-.14.08.46.46,0,0,1-.2,0,1.17,1.17,0,0,1-.24-.09,1.38,1.38,0,0,1-.24-.14l-.18-.16a.86.86,0,0,1-.13-.2A1.33,1.33,0,0,1,283.46,278.63Z" transform="translate(-185.71 -193.79)"/><path class="cls-27" d="M282.08,279.77l.57-.12.32.15v1.33l.3.15v.24l-1-.51v-.24l.35.17V280l-.2,0h-.06l-.05,0,0,0,0,0Z" transform="translate(-185.71 -193.79)"/><path class="cls-27" d="M283.4,281l.84-.56.4.2v1l.19.1v.19s0,0,0,0,0,0-.05,0l-.12,0v.36l-.37-.19v-.36l-.73-.36a.18.18,0,0,1-.07-.05.13.13,0,0,1,0-.07Zm.4.19.47.23v-.49a.22.22,0,0,0,0-.08Z" transform="translate(-185.71 -193.79)"/><path class="cls-27" d="M286.75,266.55l.57-.12.32.15v1.33l.3.15v.25l-1-.52v-.24l.35.17v-.91l-.2.05H287l-.05,0,0,0,0,0Z" transform="translate(-185.71 -193.79)"/><path class="cls-27" d="M288.15,268.23l.12-.08h.1a.19.19,0,0,1,.07.06l.07.07.09.08a.57.57,0,0,0,.13.08l.14.05a.15.15,0,0,0,.09,0,.09.09,0,0,0,0-.06.18.18,0,0,0,0-.1.36.36,0,0,0-.07-.22.78.78,0,0,0-.22-.16.75.75,0,0,0-.24-.08l-.24-.17.16-.71.93.46v.13s0,.05,0,.06l0,0h-.07a.3.3,0,0,1-.11,0l-.43-.21-.05.23.1,0,.09,0a1.53,1.53,0,0,1,.25.16l.19.2a1.06,1.06,0,0,1,.11.21.78.78,0,0,1,0,.21.43.43,0,0,1-.05.21.33.33,0,0,1-.15.11.41.41,0,0,1-.22,0,.9.9,0,0,1-.28-.09l-.17-.1-.15-.12-.13-.13Z" transform="translate(-185.71 -193.79)"/><path class="cls-27" d="M286.75,269.14l.57-.13.32.16v1.33l.3.15v.24l-1-.51v-.24l.35.17v-.91l-.2,0H287l-.05,0,0,0,0,0Z" transform="translate(-185.71 -193.79)"/><path class="cls-27" d="M288.15,270.46a.42.42,0,0,1,.21-.37l.41-.28a.1.1,0,0,1,.08,0,.19.19,0,0,1,.12,0l.35.17-.54.28h0l0,0,.09,0,.11,0,.19.13a.91.91,0,0,1,.17.17,2.39,2.39,0,0,1,.13.21.67.67,0,0,1,0,.24.34.34,0,0,1,0,.18.3.3,0,0,1-.14.11.48.48,0,0,1-.21,0,.85.85,0,0,1-.27-.09,1.27,1.27,0,0,1-.27-.18,1.39,1.39,0,0,1-.21-.21,1.41,1.41,0,0,1-.13-.24A.77.77,0,0,1,288.15,270.46Zm.37.23a.43.43,0,0,0,0,.11.27.27,0,0,0,0,.11l.08.09.12.08.12,0H289s0,0,.05-.06a.12.12,0,0,0,0-.09.5.5,0,0,0,0-.12l-.06-.11-.09-.09-.12-.08-.11,0a.11.11,0,0,0-.08,0,.1.1,0,0,0-.06,0A.3.3,0,0,0,288.52,270.69Z" transform="translate(-185.71 -193.79)"/><path class="cls-27" d="M286.75,271.73l.57-.13.32.16v1.33l.3.15v.24l-1-.51v-.25l.35.18V272l-.2,0s0,0-.06,0l-.05,0,0,0,0,0Z" transform="translate(-185.71 -193.79)"/><path class="cls-27" d="M288.17,272.24V272l1.28.63v.14a.2.2,0,0,1,0,.09l0,.05-.63.85-.07,0-.13,0-.28-.14.65-.81.05-.06.07,0-.8-.4,0,0,0,0a.05.05,0,0,1,0,0A0,0,0,0,1,288.17,272.24Z" transform="translate(-185.71 -193.79)"/><path class="cls-27" d="M286.75,274.32l.57-.13.32.16v1.33l.3.15v.24l-1-.51v-.25l.35.18v-.91l-.2,0H287l-.05,0,0,0,0,0Z" transform="translate(-185.71 -193.79)"/><path class="cls-27" d="M288.17,274.83v-.21l1.28.63v.14a.2.2,0,0,1,0,.09l0,0-.63.84a.12.12,0,0,1-.07.05l-.13,0-.28-.15.65-.8.05-.06.07,0-.8-.39,0,0,0,0,0,0A0,0,0,0,1,288.17,274.83Z" transform="translate(-185.71 -193.79)"/><path class="cls-27" d="M286.75,276.91l.57-.13.32.16v1.33l.3.15v.24l-1-.51v-.25l.35.18v-.92l-.2,0H287l-.05,0,0,0,0,0Z" transform="translate(-185.71 -193.79)"/><path class="cls-27" d="M288.15,278.32a.45.45,0,0,1,0-.12.2.2,0,0,1,.06-.07.25.25,0,0,1,.09,0h.15a.67.67,0,0,1-.19-.23.46.46,0,0,1-.06-.23.25.25,0,0,1,.05-.15.21.21,0,0,1,.12-.08.54.54,0,0,1,.18,0l.24.09a1.14,1.14,0,0,1,.23.15,1.09,1.09,0,0,1,.19.18,1,1,0,0,1,.12.19.48.48,0,0,1,0,.2.2.2,0,0,1-.24.22l.14.13a1.13,1.13,0,0,1,.1.13.69.69,0,0,1,.05.13.59.59,0,0,1,0,.13.29.29,0,0,1-.05.17.2.2,0,0,1-.13.08.51.51,0,0,1-.21,0,1.06,1.06,0,0,1-.26-.1,1.2,1.2,0,0,1-.27-.16,1,1,0,0,1-.2-.2,1.28,1.28,0,0,1-.14-.21A.52.52,0,0,1,288.15,278.32Zm.4.19a.28.28,0,0,0,0,.09.41.41,0,0,0,.05.09l.07.09.12.07a.3.3,0,0,0,.11,0,.11.11,0,0,0,.08,0,.07.07,0,0,0,0-.05.15.15,0,0,0,0-.08.29.29,0,0,0,0-.09.18.18,0,0,0,0-.1l-.07-.08-.12-.08-.12,0h-.08a.1.1,0,0,0,0,.05A.22.22,0,0,0,288.55,278.51Zm0-.68v.08a.36.36,0,0,0,0,.09l.06.08a.52.52,0,0,0,.11.07l.1,0H289s0,0,0-.06a.15.15,0,0,0,0-.07.22.22,0,0,0,0-.08.59.59,0,0,0,0-.08l-.06-.07-.1-.07-.1,0h-.07s0,0,0,0A.15.15,0,0,0,288.59,277.83Z" transform="translate(-185.71 -193.79)"/><path class="cls-27" d="M286.75,279.5l.57-.13.32.16v1.33l.3.14v.25l-1-.51v-.25l.35.17v-.91l-.2.05H287l-.05,0,0,0,0,0Z" transform="translate(-185.71 -193.79)"/><path class="cls-27" d="M288.15,280.29a.35.35,0,0,1,.05-.18.22.22,0,0,1,.13-.1.33.33,0,0,1,.2,0,1.08,1.08,0,0,1,.26.08,1.78,1.78,0,0,1,.27.17,1.8,1.8,0,0,1,.19.21.76.76,0,0,1,.13.23.67.67,0,0,1,0,.24.54.54,0,0,1-.05.24.46.46,0,0,1-.15.16l-.39.29h-.08l-.12,0-.36-.18.58-.3,0,0,0,0-.12,0-.14-.06-.18-.11a.87.87,0,0,1-.16-.17,1.18,1.18,0,0,1-.11-.19A.64.64,0,0,1,288.15,280.29Zm.39.17a.4.4,0,0,0,.25.36.23.23,0,0,0,.19,0s.07-.07.07-.14a.52.52,0,0,0,0-.11.41.41,0,0,0,0-.09l-.09-.09-.1-.07-.11,0h-.08a.1.1,0,0,0,0,.05A.11.11,0,0,0,288.54,280.46Z" transform="translate(-185.71 -193.79)"/><path class="cls-27" d="M286.7,283.23v-.11a.14.14,0,0,1,0-.06.07.07,0,0,1,0,0l.52-.2a.33.33,0,0,0,.12-.05l.08-.06a.35.35,0,0,0,.05-.08.3.3,0,0,0,0-.1.34.34,0,0,0-.05-.17.53.53,0,0,0-.16-.13.22.22,0,0,0-.15,0,.08.08,0,0,0-.08.05s0,.05-.07.05a.28.28,0,0,1-.12-.05l-.2-.14a.26.26,0,0,1,.07-.16.29.29,0,0,1,.14-.08.46.46,0,0,1,.2,0l.23.09a1,1,0,0,1,.24.15.85.85,0,0,1,.19.19.82.82,0,0,1,.12.2.78.78,0,0,1,0,.21.32.32,0,0,1,0,.14.39.39,0,0,1-.08.1l-.11.08-.14,0-.35.14.13,0,.13.05.34.17a.39.39,0,0,1,.1.08.19.19,0,0,1,0,.1v.19Z" transform="translate(-185.71 -193.79)"/><path class="cls-27" d="M288.12,283.14a1,1,0,0,1,.05-.33.44.44,0,0,1,.14-.18.31.31,0,0,1,.22,0,1,1,0,0,1,.26.08,1,1,0,0,1,.27.19.88.88,0,0,1,.22.25,1,1,0,0,1,.14.32,1.58,1.58,0,0,1,.05.38,1,1,0,0,1-.05.33.3.3,0,0,1-.14.18.31.31,0,0,1-.22,0,.63.63,0,0,1-.27-.08,1.51,1.51,0,0,1-.26-.18,1,1,0,0,1-.22-.25,1.83,1.83,0,0,1-.14-.32A1.6,1.6,0,0,1,288.12,283.14Zm.4.2a1.14,1.14,0,0,0,0,.28.47.47,0,0,0,.06.19.57.57,0,0,0,.08.13l.1.07.11,0s.06,0,.09,0a.53.53,0,0,0,.06-.13,1.61,1.61,0,0,0,0-.26,2,2,0,0,0,0-.27c0-.08,0-.14-.06-.2l-.09-.12a.34.34,0,0,0-.11-.07.17.17,0,0,0-.1,0,.09.09,0,0,0-.08,0,.2.2,0,0,0-.06.13A.81.81,0,0,0,288.52,283.34Z" transform="translate(-185.71 -193.79)"/><path class="cls-27" d="M291.43,268.87l.57-.12.32.15v1.33l.3.15v.25l-1-.52v-.24l.35.17v-.79a.49.49,0,0,1,0-.12l-.21.05h-.05s0,0-.05,0l-.05,0a.05.05,0,0,1,0,0Z" transform="translate(-185.71 -193.79)"/><path class="cls-27" d="M292.83,270.55l.12-.08h.1a.13.13,0,0,1,.07.06.46.46,0,0,1,.07.07l.1.08a.32.32,0,0,0,.13.08.43.43,0,0,0,.13.05.13.13,0,0,0,.09,0,.1.1,0,0,0,.05-.06.34.34,0,0,0,0-.1.36.36,0,0,0-.07-.22.72.72,0,0,0-.21-.16.85.85,0,0,0-.24-.08l-.24-.17.15-.71.93.46v.13a.11.11,0,0,1,0,.06l0,0h-.07a.3.3,0,0,1-.11,0l-.43-.21-.05.23.1,0,.09,0a1.2,1.2,0,0,1,.25.16.89.89,0,0,1,.19.2.71.71,0,0,1,.11.21.52.52,0,0,1,0,.21.43.43,0,0,1,0,.21.35.35,0,0,1-.15.11.54.54,0,0,1-.22,0,1.28,1.28,0,0,1-.28-.09l-.17-.1-.15-.12-.13-.13Z" transform="translate(-185.71 -193.79)"/><path class="cls-27" d="M291.38,272.6v-.11a.08.08,0,0,1,0-.05.07.07,0,0,1,.05,0l.53-.2.11-.05a.19.19,0,0,0,.08-.07.14.14,0,0,0,.05-.08.25.25,0,0,0,0-.1.34.34,0,0,0-.05-.17.4.4,0,0,0-.16-.12.34.34,0,0,0-.15,0,.12.12,0,0,0-.08.06.06.06,0,0,1-.07,0,.19.19,0,0,1-.12-.05l-.2-.13a.38.38,0,0,1,.07-.17.35.35,0,0,1,.15-.07.42.42,0,0,1,.19,0,.79.79,0,0,1,.23.08l.25.16.18.18a1.13,1.13,0,0,1,.12.21.48.48,0,0,1,0,.2.33.33,0,0,1,0,.15.25.25,0,0,1-.08.1.41.41,0,0,1-.11.07l-.14.06-.35.14.13,0,.13.05.34.17a.39.39,0,0,1,.1.08.16.16,0,0,1,0,.09v.2Z" transform="translate(-185.71 -193.79)"/><path class="cls-27" d="M292.88,272.18l.57-.13.32.16v1.33l.3.15v.24l-1-.51v-.25l.35.18v-.91l-.2,0h-.06l-.05,0,0,0,0,0Z" transform="translate(-185.71 -193.79)"/><path class="cls-27" d="M291.38,275.19v-.11a.14.14,0,0,1,0-.06.09.09,0,0,1,.05,0l.53-.2.11-.05a.19.19,0,0,0,.08-.07.14.14,0,0,0,.05-.08.3.3,0,0,0,0-.1.34.34,0,0,0-.05-.17.4.4,0,0,0-.16-.12.24.24,0,0,0-.15,0,.12.12,0,0,0-.08.06.07.07,0,0,1-.07,0,.19.19,0,0,1-.12-.05l-.2-.13a.38.38,0,0,1,.07-.17.26.26,0,0,1,.15-.07.42.42,0,0,1,.19,0,.79.79,0,0,1,.23.08l.25.16.18.18a1.13,1.13,0,0,1,.12.21.48.48,0,0,1,0,.2.33.33,0,0,1,0,.15.25.25,0,0,1-.08.1.41.41,0,0,1-.11.07l-.14.06-.35.14.13,0,.13.05.34.17a.25.25,0,0,1,.1.08.16.16,0,0,1,0,.09v.19Z" transform="translate(-185.71 -193.79)"/><path class="cls-27" d="M292.83,275.91v-.11a.14.14,0,0,1,0-.06.1.1,0,0,1,0,0l.52-.19.12-.06.08-.06a.22.22,0,0,0,.05-.08.3.3,0,0,0,0-.1.34.34,0,0,0-.05-.17.53.53,0,0,0-.16-.13.22.22,0,0,0-.15,0,.1.1,0,0,0-.08.06.08.08,0,0,1-.07,0,.28.28,0,0,1-.12-.05l-.2-.13a.27.27,0,0,1,.07-.17.39.39,0,0,1,.14-.08.7.7,0,0,1,.2,0l.23.09a1.4,1.4,0,0,1,.24.15.85.85,0,0,1,.19.19,1.06,1.06,0,0,1,.12.2.78.78,0,0,1,0,.21.32.32,0,0,1,0,.14.27.27,0,0,1-.08.1l-.11.08-.14.06-.35.13.13,0,.13.06.34.16a.39.39,0,0,1,.1.08.22.22,0,0,1,0,.1v.19Z" transform="translate(-185.71 -193.79)"/><path class="cls-27" d="M291.38,277.78v-.11a.14.14,0,0,1,0-.06.05.05,0,0,1,.05,0l.53-.2.11-.05a.29.29,0,0,0,.08-.07.14.14,0,0,0,.05-.08.3.3,0,0,0,0-.1.34.34,0,0,0-.05-.17.53.53,0,0,0-.16-.13.22.22,0,0,0-.15,0,.12.12,0,0,0-.08.06.07.07,0,0,1-.07,0,.19.19,0,0,1-.12-.05l-.2-.13a.38.38,0,0,1,.07-.17.26.26,0,0,1,.15-.07.4.4,0,0,1,.19,0l.23.09.25.16a1,1,0,0,1,.18.18.88.88,0,0,1,.12.21.45.45,0,0,1,0,.2.33.33,0,0,1,0,.15.35.35,0,0,1-.08.1l-.11.07-.14.06-.35.14.13,0,.13.05.34.17a.25.25,0,0,1,.1.08.16.16,0,0,1,0,.09v.19Z" transform="translate(-185.71 -193.79)"/><path class="cls-27" d="M292.82,278.09l.17,0a.31.31,0,0,1,.12.05.22.22,0,0,1,.08.09,1,1,0,0,0,.12.19.72.72,0,0,0,.15.11.34.34,0,0,0,.12,0h.08l0,0a.19.19,0,0,0,0-.07.34.34,0,0,0,0-.1.23.23,0,0,0,0-.09l-.12-.1a1,1,0,0,0-.21-.12v-.23l.18.08a.23.23,0,0,0,.11,0,0,0,0,0,0,.05,0,.15.15,0,0,0,0-.08.29.29,0,0,0-.06-.17.31.31,0,0,0-.15-.12.34.34,0,0,0-.15,0,.1.1,0,0,0-.08.06s0,.05-.07.05a.28.28,0,0,1-.12-.05l-.2-.14a.29.29,0,0,1,.07-.17.37.37,0,0,1,.14-.07.46.46,0,0,1,.2,0,.79.79,0,0,1,.23.08l.24.15a.94.94,0,0,1,.17.18.52.52,0,0,1,.11.19.38.38,0,0,1,0,.17.37.37,0,0,1,0,.12.16.16,0,0,1-.05.08l-.08,0h-.12a.68.68,0,0,1,.31.5.27.27,0,0,1-.06.19.23.23,0,0,1-.14.09.47.47,0,0,1-.2,0l-.24-.09a1.54,1.54,0,0,1-.23-.14.93.93,0,0,1-.18-.16,1,1,0,0,1-.14-.21A.94.94,0,0,1,292.82,278.09Z" transform="translate(-185.71 -193.79)"/><path class="cls-27" d="M291.38,280.37v-.11a.14.14,0,0,1,0-.06.1.1,0,0,1,.05,0L292,280l.11-.06.08-.06a.14.14,0,0,0,.05-.08.3.3,0,0,0,0-.1.34.34,0,0,0-.05-.17.53.53,0,0,0-.16-.13.22.22,0,0,0-.15,0,.12.12,0,0,0-.08.06.07.07,0,0,1-.07,0,.28.28,0,0,1-.12-.05l-.2-.13a.38.38,0,0,1,.07-.17.36.36,0,0,1,.15-.08.64.64,0,0,1,.19,0l.23.09.25.15a1.57,1.57,0,0,1,.18.19,1.06,1.06,0,0,1,.12.2.52.52,0,0,1,0,.21.29.29,0,0,1,0,.14.28.28,0,0,1-.08.11l-.11.07-.14.06-.35.14.13,0,.13.05.34.16.1.08a.22.22,0,0,1,0,.1V281Z" transform="translate(-185.71 -193.79)"/><path class="cls-27" d="M292.75,280.45l.84-.56.41.2v1l.18.09v.19s0,0,0,0h-.05l-.11-.06v.36l-.38-.18v-.36l-.73-.37a.13.13,0,0,1-.06-.05s0,0,0-.06Zm.4.18.47.24v-.41a.22.22,0,0,1,0-.08.28.28,0,0,1,0-.09Z" transform="translate(-185.71 -193.79)"/><path class="cls-27" d="M291.38,283v-.11a.14.14,0,0,1,0-.06.1.1,0,0,1,.05,0l.53-.19.11-.06.08-.06a.18.18,0,0,0,.05-.08.3.3,0,0,0,0-.1.34.34,0,0,0-.05-.17A.53.53,0,0,0,292,282a.22.22,0,0,0-.15,0s-.06,0-.08.06a.07.07,0,0,1-.07,0,.28.28,0,0,1-.12,0l-.2-.13a.34.34,0,0,1,.07-.17.28.28,0,0,1,.15-.08.64.64,0,0,1,.19,0l.23.09a2.07,2.07,0,0,1,.25.15,1.07,1.07,0,0,1,.18.19,1.06,1.06,0,0,1,.12.2.52.52,0,0,1,0,.21.32.32,0,0,1,0,.14.2.2,0,0,1-.08.1l-.11.08-.14.05-.35.14.13,0,.13.06.34.16a.39.39,0,0,1,.1.08.19.19,0,0,1,0,.1v.19Z" transform="translate(-185.71 -193.79)"/><path class="cls-27" d="M292.83,283.49l.12-.08H293l.05,0a.18.18,0,0,1,.07.05l.07.07.1.09.13.08a.38.38,0,0,0,.13,0,.13.13,0,0,0,.09,0,.1.1,0,0,0,.05-.06.31.31,0,0,0,0-.1.31.31,0,0,0-.07-.21.6.6,0,0,0-.21-.17.8.8,0,0,0-.24-.07l-.24-.18.15-.71.93.46v.14a.07.07,0,0,1,0,.05s0,0,0,0h-.07l-.11,0-.43-.22-.05.23.1,0,.09,0a.92.92,0,0,1,.25.17.85.85,0,0,1,.19.19.65.65,0,0,1,.11.22.52.52,0,0,1,0,.21.39.39,0,0,1,0,.2.28.28,0,0,1-.15.11.52.52,0,0,1-.22,0,1.37,1.37,0,0,1-.28-.1l-.17-.1-.15-.12-.13-.13Z" transform="translate(-185.71 -193.79)"/><path class="cls-27" d="M291.38,285.55v-.11a.14.14,0,0,1,0-.06.1.1,0,0,1,.05,0l.53-.2.11-.05a.28.28,0,0,0,.08-.06.18.18,0,0,0,.05-.08.3.3,0,0,0,0-.1.34.34,0,0,0-.05-.17.53.53,0,0,0-.16-.13.22.22,0,0,0-.15,0,.09.09,0,0,0-.08.05.06.06,0,0,1-.07.05.28.28,0,0,1-.12-.05l-.2-.14a.34.34,0,0,1,.07-.16.28.28,0,0,1,.15-.08.42.42,0,0,1,.19,0l.23.09a1.28,1.28,0,0,1,.25.15,1.07,1.07,0,0,1,.18.19.82.82,0,0,1,.12.2.52.52,0,0,1,0,.21.32.32,0,0,1,0,.14.25.25,0,0,1-.08.1l-.11.08-.14.05-.35.14.13,0,.13.05.34.17a.39.39,0,0,1,.1.08.19.19,0,0,1,0,.1v.19Z" transform="translate(-185.71 -193.79)"/><path class="cls-27" d="M292.83,285.72a.43.43,0,0,1,.21-.37l.41-.28h.08a.38.38,0,0,1,.13,0l.34.17-.54.29h0l.1,0,.1,0a1,1,0,0,1,.19.12,1,1,0,0,1,.18.18.72.72,0,0,1,.12.21.59.59,0,0,1,0,.23.36.36,0,0,1,0,.19.24.24,0,0,1-.14.1.33.33,0,0,1-.2,0,.83.83,0,0,1-.28-.09,1.78,1.78,0,0,1-.27-.17,1.45,1.45,0,0,1-.21-.22,1.34,1.34,0,0,1-.12-.24A.74.74,0,0,1,292.83,285.72Zm.37.23a.36.36,0,0,0,0,.11.37.37,0,0,0,0,.11.28.28,0,0,0,.09.1.35.35,0,0,0,.12.07.25.25,0,0,0,.11,0h.09l.06-.05a.29.29,0,0,0,0-.09.5.5,0,0,0,0-.12.24.24,0,0,0-.06-.11.43.43,0,0,0-.09-.1l-.12-.07a.25.25,0,0,0-.11,0h-.08a.17.17,0,0,0-.06.06A.2.2,0,0,0,293.2,286Z" transform="translate(-185.71 -193.79)"/><path class="cls-27" d="M296.2,272.4v-.11a.13.13,0,0,1,0-.06.09.09,0,0,1,.06,0l.52-.19.12-.06.08-.06a.22.22,0,0,0,.05-.08.31.31,0,0,0,0-.1.26.26,0,0,0-.05-.17.43.43,0,0,0-.16-.13.2.2,0,0,0-.14,0s-.07,0-.08.06a.09.09,0,0,1-.07,0,.28.28,0,0,1-.12-.05l-.21-.13a.27.27,0,0,1,.08-.17.32.32,0,0,1,.14-.08.64.64,0,0,1,.19,0l.23.09a1.5,1.5,0,0,1,.25.15,1.07,1.07,0,0,1,.18.19,1.06,1.06,0,0,1,.12.2.52.52,0,0,1,0,.21.29.29,0,0,1,0,.14.18.18,0,0,1-.07.1.36.36,0,0,1-.12.08l-.13.06-.36.13.14,0,.12.06.34.16a.27.27,0,0,1,.1.08.21.21,0,0,1,0,.1V273Z" transform="translate(-185.71 -193.79)"/><path class="cls-27" d="M297.64,272.66a.43.43,0,0,1,0-.11.13.13,0,0,1,0-.07.18.18,0,0,1,.1,0,.34.34,0,0,1,.14,0,.76.76,0,0,1-.18-.23.46.46,0,0,1-.06-.23.24.24,0,0,1,0-.15.2.2,0,0,1,.12-.08h.19a.84.84,0,0,1,.23.09,1,1,0,0,1,.24.15.77.77,0,0,1,.18.18.67.67,0,0,1,.12.19.49.49,0,0,1,.05.2.21.21,0,0,1-.06.17.22.22,0,0,1-.19.05.64.64,0,0,1,.15.13.6.6,0,0,1,.09.13.75.75,0,0,1,.06.13.57.57,0,0,1,0,.13.29.29,0,0,1,0,.17.22.22,0,0,1-.14.08.47.47,0,0,1-.2,0,1.3,1.3,0,0,1-.27-.1,2.26,2.26,0,0,1-.26-.16,1.34,1.34,0,0,1-.21-.2,1.2,1.2,0,0,1-.13-.21A.54.54,0,0,1,297.64,272.66Zm.4.2a.29.29,0,0,0,0,.09.36.36,0,0,0,0,.09l.08.09a.41.41,0,0,0,.11.07.34.34,0,0,0,.12,0h.07a.08.08,0,0,0,0-.05.19.19,0,0,0,0-.08.28.28,0,0,0,0-.09.3.3,0,0,0,0-.1.6.6,0,0,0-.08-.08l-.12-.08a.28.28,0,0,0-.12,0h-.07a.07.07,0,0,0,0,0A.2.2,0,0,0,298,272.86Zm0-.68a.25.25,0,0,0,0,.08.32.32,0,0,0,0,.09l.07.08.1.07.11,0h.06a.13.13,0,0,0,0-.06s0,0,0-.07a.24.24,0,0,0,0-.08s0-.05,0-.08a.46.46,0,0,0-.07-.07l-.1-.07-.1,0h-.06l0,0A.15.15,0,0,0,298.08,272.18Z" transform="translate(-185.71 -193.79)"/><path class="cls-27" d="M296.2,275v-.11a.13.13,0,0,1,0-.06.09.09,0,0,1,.06,0l.52-.19.12-.06.08-.06a.35.35,0,0,0,.05-.08.31.31,0,0,0,0-.1.26.26,0,0,0-.05-.17.43.43,0,0,0-.16-.13.2.2,0,0,0-.14,0,.08.08,0,0,0-.08.06.09.09,0,0,1-.07,0,.28.28,0,0,1-.12-.05l-.21-.13a.27.27,0,0,1,.08-.17.25.25,0,0,1,.14-.08.42.42,0,0,1,.19,0l.23.09a1.5,1.5,0,0,1,.25.15,1.07,1.07,0,0,1,.18.19,1.06,1.06,0,0,1,.12.2.52.52,0,0,1,0,.21.32.32,0,0,1,0,.14.18.18,0,0,1-.07.1.36.36,0,0,1-.12.08l-.13.05-.36.14.14,0,.12.06.34.16a.27.27,0,0,1,.1.08.21.21,0,0,1,0,.1v.19Z" transform="translate(-185.71 -193.79)"/><path class="cls-27" d="M297.65,274.64a.34.34,0,0,1,0-.18.26.26,0,0,1,.13-.1.44.44,0,0,1,.2,0,1.22,1.22,0,0,1,.27.09,1.67,1.67,0,0,1,.26.17,1.94,1.94,0,0,1,.2.21,1,1,0,0,1,.12.23.68.68,0,0,1,.05.23.44.44,0,0,1-.06.25.36.36,0,0,1-.14.16l-.39.29h-.08a.28.28,0,0,1-.12,0l-.36-.18.57-.3,0,0,0,0-.13,0-.13-.06-.18-.11a.87.87,0,0,1-.16-.17.76.76,0,0,1-.12-.19A.62.62,0,0,1,297.65,274.64Zm.38.17a.41.41,0,0,0,.26.36.23.23,0,0,0,.19,0s.06-.07.06-.14a.22.22,0,0,0,0-.11l0-.1-.08-.08a.41.41,0,0,0-.11-.07l-.1,0h-.08a.12.12,0,0,0-.05.05A.19.19,0,0,0,298,274.81Z" transform="translate(-185.71 -193.79)"/><path class="cls-27" d="M296.18,277.16l.17,0a.29.29,0,0,1,.13.05.23.23,0,0,1,.08.09,1,1,0,0,0,.12.19.42.42,0,0,0,.15.11.3.3,0,0,0,.11,0H297a.1.1,0,0,0,.05,0,.19.19,0,0,0,0-.07s0-.07,0-.1a.2.2,0,0,0-.05-.09.36.36,0,0,0-.11-.1,1.08,1.08,0,0,0-.22-.12v-.23a.87.87,0,0,0,.19.08.22.22,0,0,0,.11,0s0,0,.05,0a.19.19,0,0,0,0-.08.26.26,0,0,0-.05-.17.43.43,0,0,0-.16-.13.25.25,0,0,0-.14,0,.1.1,0,0,0-.08.06.1.1,0,0,1-.07.05.22.22,0,0,1-.12-.06l-.21-.13a.3.3,0,0,1,.08-.17.23.23,0,0,1,.14-.07.41.41,0,0,1,.19,0,.79.79,0,0,1,.23.08l.24.15a1.53,1.53,0,0,1,.18.18.87.87,0,0,1,.11.18.62.62,0,0,1,0,.18.41.41,0,0,1,0,.12.22.22,0,0,1-.05.08l-.09,0h-.11a.65.65,0,0,1,.3.5.33.33,0,0,1-.05.19.23.23,0,0,1-.14.09.69.69,0,0,1-.2,0l-.25-.09-.23-.14a1,1,0,0,1-.18-.17,1,1,0,0,1-.14-.2A1.33,1.33,0,0,1,296.18,277.16Z" transform="translate(-185.71 -193.79)"/><path class="cls-27" d="M297.62,277.49a1,1,0,0,1,.05-.33.37.37,0,0,1,.14-.18.3.3,0,0,1,.21,0,1.14,1.14,0,0,1,.27.08,1.27,1.27,0,0,1,.27.18,1.33,1.33,0,0,1,.21.26,1.35,1.35,0,0,1,.15.32,1.52,1.52,0,0,1,.05.38,1,1,0,0,1-.05.33.35.35,0,0,1-.15.18.3.3,0,0,1-.21,0,.63.63,0,0,1-.27-.08,1.27,1.27,0,0,1-.27-.18,1.33,1.33,0,0,1-.21-.26,1.09,1.09,0,0,1-.14-.31A1.6,1.6,0,0,1,297.62,277.49Zm.4.2a2.16,2.16,0,0,0,0,.28c0,.07,0,.14.06.19l.09.12a.35.35,0,0,0,.1.08l.1,0s.06,0,.09,0a.23.23,0,0,0,.06-.13.88.88,0,0,0,0-.26,1.06,1.06,0,0,0,0-.27.52.52,0,0,0-.06-.2.62.62,0,0,0-.09-.12.3.3,0,0,0-.1-.07.19.19,0,0,0-.1,0,.12.12,0,0,0-.09,0,.4.4,0,0,0-.06.13A1.47,1.47,0,0,0,298,277.69Z" transform="translate(-185.71 -193.79)"/><path class="cls-27" d="M296.18,279.75l.17,0a.21.21,0,0,1,.13.05.18.18,0,0,1,.08.09,1,1,0,0,0,.12.19.58.58,0,0,0,.15.11l.11,0H297a.1.1,0,0,0,.05,0,.19.19,0,0,0,0-.07s0-.07,0-.1A.2.2,0,0,0,297,280a.36.36,0,0,0-.11-.1,1.08,1.08,0,0,0-.22-.12v-.23l.19.08H297s0,0,.05,0a.19.19,0,0,0,0-.08.26.26,0,0,0-.05-.17.43.43,0,0,0-.16-.13.19.19,0,0,0-.14,0,.1.1,0,0,0-.08.06.1.1,0,0,1-.07.05.33.33,0,0,1-.12-.06l-.21-.13a.3.3,0,0,1,.08-.17.23.23,0,0,1,.14-.07h.19l.23.09.24.15.18.18a.87.87,0,0,1,.11.18.62.62,0,0,1,0,.18.41.41,0,0,1,0,.12.13.13,0,0,1-.05.07.14.14,0,0,1-.09,0h-.11a.64.64,0,0,1,.3.5.36.36,0,0,1-.05.19.22.22,0,0,1-.14.08.45.45,0,0,1-.2,0l-.25-.09-.23-.14a1,1,0,0,1-.18-.17,1,1,0,0,1-.14-.2A1.33,1.33,0,0,1,296.18,279.75Z" transform="translate(-185.71 -193.79)"/><path class="cls-27" d="M297.69,279.74l.57-.13.32.16v1.33l.3.15v.24l-1-.51v-.25l.35.18v-.79s0-.08,0-.12l-.21,0h-.05l-.05,0-.05,0,0,0Z" transform="translate(-185.71 -193.79)"/><polygon class="cls-29" points="138.77 70.35 157.93 78.75 157.93 67.29 138.77 58.9 138.77 70.35"/><polygon class="cls-30" points="138.77 70.35 147.44 74.15 138.77 65.17 138.77 70.35"/><polygon class="cls-31" points="46.67 98.13 23.19 108.42 23.19 94.37 46.67 84.08 46.67 98.13"/><polygon class="cls-32" points="46.67 98.13 36.05 102.78 46.67 91.78 46.67 98.13"/><polygon class="cls-33" points="93.11 127.71 86.83 124.95 91.06 123.09 97.34 125.84 93.11 127.71"/><polygon class="cls-34" points="93.11 142.72 86.83 139.97 86.83 124.95 93.11 127.71 93.11 142.72"/><polygon class="cls-35" points="97.34 125.84 97.34 140.86 93.11 142.72 93.11 127.71 97.34 125.84"/><polygon class="cls-33" points="82.4 119.93 76.12 117.18 80.35 115.32 86.63 118.07 82.4 119.93"/><polygon class="cls-34" points="82.4 138.08 76.12 135.33 76.12 117.18 82.4 119.93 82.4 138.08"/><polygon class="cls-35" points="86.63 118.07 86.63 136.22 82.4 138.08 82.4 119.93 86.63 118.07"/><polygon class="cls-24" points="71.69 109.25 65.42 106.5 69.65 104.64 75.92 107.39 71.69 109.25"/><polygon class="cls-36" points="71.69 133.44 65.42 130.69 65.42 106.5 71.69 109.25 71.69 133.44"/><polygon class="cls-37" points="75.92 107.39 75.92 131.58 71.69 133.44 71.69 109.25 75.92 107.39"/><polygon class="cls-38" points="93.11 125.75 86.83 123 91.06 121.13 97.34 123.88 93.11 125.75"/><polygon class="cls-39" points="93.11 126.77 86.83 124.02 86.83 123 93.11 125.75 93.11 126.77"/><polygon class="cls-40" points="97.34 123.88 97.34 124.91 93.11 126.77 93.11 125.75 97.34 123.88"/><polygon class="cls-41" points="82.4 117.97 76.12 115.22 80.35 113.36 86.63 116.11 82.4 117.97"/><polygon class="cls-42" points="82.4 119 76.12 116.25 76.12 115.22 82.4 117.97 82.4 119"/><polygon class="cls-43" points="86.63 116.11 86.63 117.14 82.4 119 82.4 117.97 86.63 116.11"/><polygon class="cls-44" points="71.69 107.29 65.42 104.54 69.65 102.68 75.92 105.43 71.69 107.29"/><polygon class="cls-45" points="71.69 108.32 65.42 105.57 65.42 104.54 71.69 107.29 71.69 108.32"/><polygon class="cls-46" points="75.92 105.43 75.92 106.45 71.69 108.32 71.69 107.29 75.92 105.43"/><polygon class="cls-47" points="97.85 122.48 93.52 118.38 94.61 116.11 102.08 119.19 102.08 120.61 97.85 122.48"/><polygon class="cls-48" points="97.85 122.48 89.87 118.19 89.87 116.77 97.85 121.05 97.85 122.48"/><polygon class="cls-26" points="89.87 118.19 82.4 112.73 82.4 111.3 89.87 116.77 89.87 118.19"/><polygon class="cls-49" points="82.4 112.73 71.69 102.05 71.69 100.62 82.4 111.3 82.4 112.73"/><polygon class="cls-50" points="71.69 102.05 65.42 99.3 69.65 97.43 71.69 100.62 71.69 102.05"/><polygon class="cls-50" points="71.5 96.69 71.5 95.27 62.64 94.74 62.64 96.16 64.03 100.05 71.5 96.69"/><polygon class="cls-51" points="97.85 121.05 89.87 116.77 94.1 114.91 102.08 119.19 97.85 121.05"/><polygon class="cls-52" points="89.87 116.77 82.4 111.3 86.63 109.44 94.1 114.91 89.87 116.77"/><polygon class="cls-53" points="82.4 111.3 71.69 100.62 75.92 98.76 86.63 109.44 82.4 111.3"/><polygon class="cls-54" points="71.69 100.62 65.42 97.87 69.65 96.01 75.92 98.76 71.69 100.62"/><polygon class="cls-54" points="71.5 95.27 62.64 94.74 64.03 98.62 71.5 95.27"/><path class="cls-15" d="M285.18,360.29l4.6-9.48-17.88.69C272.47,354.29,273.46,356.8,285.18,360.29Z" transform="translate(-185.71 -193.79)"/><path class="cls-15" d="M299,338.88c-10.11,0-20.54,4.88-20.54,9.21a4.06,4.06,0,0,0,.08.69l9.6,4.34.53,2c-1-.22,8.91,4.37,8.91,4.37,10.11,0,17.48-7.07,17.48-11.4S309.07,338.88,299,338.88Z" transform="translate(-185.71 -193.79)"/><polygon class="cls-50" points="119.61 152.77 101.72 153.56 101.72 159.37 119.61 158.58 119.61 152.77"/><path class="cls-55" d="M288.37,349.22c-.09-.12-.19-.24-.27-.36C288.18,349,288.28,349.1,288.37,349.22Z" transform="translate(-185.71 -193.79)"/><path class="cls-55" d="M287.53,347.7a2.42,2.42,0,0,1-.1-.36A2.42,2.42,0,0,0,287.53,347.7Z" transform="translate(-185.71 -193.79)"/><path class="cls-55" d="M289.41,350.26c.15.12.3.24.46.35C289.71,350.5,289.56,350.38,289.41,350.26Z" transform="translate(-185.71 -193.79)"/><path class="cls-55" d="M287.79,348.36c-.06-.12-.1-.24-.15-.36C287.69,348.12,287.73,348.24,287.79,348.36Z" transform="translate(-185.71 -193.79)"/><path class="cls-55" d="M292,351.85a14.88,14.88,0,0,1-1.86-1.07A14.88,14.88,0,0,0,292,351.85Z" transform="translate(-185.71 -193.79)"/><path class="cls-55" d="M289.36,350.21a7,7,0,0,1-.78-.75A7,7,0,0,0,289.36,350.21Z" transform="translate(-185.71 -193.79)"/><path class="cls-55" d="M294.57,352.89a21.79,21.79,0,0,1-2.42-1A21.79,21.79,0,0,0,294.57,352.89Z" transform="translate(-185.71 -193.79)"/><path class="cls-56" d="M290.94,362.21h0l.16-12.15H280.82v5.09C280.82,358.24,284.84,360.93,290.94,362.21Z" transform="translate(-185.71 -193.79)"/><path class="cls-57" d="M290.94,356.4l7.76-7-17.88.69C281.39,352.85,285.36,355.21,290.94,356.4Z" transform="translate(-185.71 -193.79)"/><path class="cls-58" d="M280.92,350.43l5.1,2.29a.81.81,0,0,0,.83-.36h0c.23-.3.24-.63,0-.73L283.19,350l-2.37.09A2.24,2.24,0,0,0,280.92,350.43Z" transform="translate(-185.71 -193.79)"/><polygon class="cls-59" points="113 155.59 105.24 162.61 105.24 168.42 113 161.4 113 155.59"/><path class="cls-60" d="M297.55,359.49c.64.15,1.33.26,2,.38l.82.1c.21,0,.41.06.63.07a5.23,5.23,0,0,0,.68.07c.57.07,1.17.1,1.76.13l.78,0,1.36,0,1.37,0c.26,0,.52,0,.76,0,.61,0,1.17-.06,1.74-.13a5.85,5.85,0,0,0,.72-.07,6.18,6.18,0,0,0,.62-.07l.82-.1c.7-.1,1.39-.23,2-.38.35-.07.7-.15,1-.24.64-.16,1.26-.32,1.85-.52a5.45,5.45,0,0,0,.61-.2c.49-.17,1-.35,1.4-.54.2-.09.41-.17.61-.27a16.64,16.64,0,0,0,1.69-.92l.41-.29a10.26,10.26,0,0,0,.84-.66,6.84,6.84,0,0,0,.66-.66c.15-.18.28-.35.41-.52a5.33,5.33,0,0,0,.33-.55l0-.1a2,2,0,0,0,.12-.29l.07-.16a3.41,3.41,0,0,0,.19-1.14v-5.08a3.34,3.34,0,0,0-.14-.94l-26.26,7.27Z" transform="translate(-185.71 -193.79)"/><path class="cls-54" d="M305.65,338.81c-10.11,0-18.3,3.51-18.3,7.84a3.25,3.25,0,0,0,.08.69l17.88-.69-7.76,7a56.46,56.46,0,0,0,8.1.82c10.1,0,18.3-3.52,18.3-7.85S315.75,338.81,305.65,338.81Z" transform="translate(-185.71 -193.79)"/><path class="cls-61" d="M287.38,352.37l-.12-19h-1.67l.11,19c0,.2.37.36.83.36h0C287,352.73,287.37,352.57,287.38,352.37Z" transform="translate(-185.71 -193.79)"/><path class="cls-58" d="M286.53,352.73l-.07-19.39h-.87l.11,19C285.7,352.57,286.07,352.73,286.53,352.73Z" transform="translate(-185.71 -193.79)"/><path class="cls-62" d="M283.51,333.25V334c0,.46.62.85,1.52,1l.3.06h.22l.1,0h1.15l.1,0h.22l.3-.06.15,0,.28-.08.09,0,.21-.08.09,0a2,2,0,0,0,.25-.14l.06,0,.12-.1.1-.09.06-.08a.56.56,0,0,1,.05-.08v0s0,0,0,0v0a.55.55,0,0,0,0-.17v-.76c0-.39-.45-.74-1.15-.95l-.25-.06-.12,0a5.61,5.61,0,0,0-1.2-.12,5.51,5.51,0,0,0-1.19.12C284.13,332.4,283.51,332.79,283.51,333.25Z" transform="translate(-185.71 -193.79)"/><path class="cls-63" d="M285,332.21h0v2.86h0c-.9-.19-1.52-.58-1.52-1v-.76C283.51,332.79,284.13,332.4,285,332.21Z" transform="translate(-185.71 -193.79)"/><path class="cls-64" d="M286.64,332.13a6,6,0,0,1,.78.08l.12,0,.25.06c.7.21,1.15.56,1.15.95V334a.55.55,0,0,1,0,.17h0l0,.05h0l-.05.09-.06.08-.1.09-.12.1-.06,0a1.59,1.59,0,0,1-.26.14l-.08,0-.21.08-.09,0-.28.08-.15,0-.3.06h-.22l-.1,0h-.16Z" transform="translate(-185.71 -193.79)"/><path class="cls-65" d="M288.11,332.46c.48.21.83.47.83.79V334a.55.55,0,0,1,0,.17h0l0,.05h0l-.05.09-.06.08-.1.09-.12.1-.06,0a1.59,1.59,0,0,1-.26.14l-.08,0,0,0Z" transform="translate(-185.71 -193.79)"/><path class="cls-66" d="M283.52,333.15c0-.65,1.22-1.17,2.72-1.17s2.73.52,2.73,1.17-1.22,1.17-2.73,1.17S283.52,333.79,283.52,333.15Z" transform="translate(-185.71 -193.79)"/><path class="cls-67" d="M200.69,326.44l.5.22v.57l150.52,65.48V259.27L201.19,193.79v.56l-.5-.21Zm79.43-27.08L272.28,296v-9l7.84,3.41Zm1-8.61,7.83,3.41v9l-7.83-3.41Zm-9.82,4.77-7.83-3.41v-9l7.83,3.41Zm-8.82-3.83-7.84-3.41v-9l7.84,3.41Zm-7.84-13.59v-9l7.84,3.41v9Zm8.83-5.2,7.83,3.41v9l-7.83-3.41Zm8.82,3.84,7.84,3.41v9l-7.84-3.41Zm8.83,3.84,7.83,3.41v9l-7.83-3.41Zm8.82,3.84,7.84,3.41v9l-7.84-3.41ZM297.77,298v9l-7.84-3.41v-9Zm0,10.18v9l-7.84-3.41v-9Zm-8.83,5.2L281.11,310v-9l7.83,3.41Zm-8.82-3.84-7.84-3.41v-9l7.84,3.41Zm-8.83-3.84-7.83-3.41v-9l7.83,3.41Zm-8.82-3.84-7.84-3.41v-9l7.84,3.41ZM253.64,298l-7.83-3.41v-9l7.83,3.4Zm-7.83-13.58v-9l7.83,3.41v9Zm0-10.18v-9l7.83,3.41v9Zm0-10.18v-9l7.83,3.41v9Zm8.82-5.2,7.84,3.41v9l-7.84-3.41Zm8.83,3.84,7.83,3.41v9l-7.83-3.41Zm8.82,3.84,7.84,3.41v9l-7.84-3.41Zm8.83,3.84,7.83,3.41v9l-7.83-3.41Zm8.82,3.84,7.84,3.41v9l-7.84-3.41Zm8.83,3.84,7.83,3.41v9l-7.83-3.41Zm7.83,13.59v9l-7.83-3.41v-9Zm0,10.17v9l-7.83-3.41v-9Zm0,10.18v9l-7.83-3.41v-9Zm0,10.18v9l-7.83-3.4v-9Zm-8.82,5.2L289.93,324v-9l7.84,3.41Zm-8.83-3.84-7.83-3.41v-9l7.83,3.41Zm-8.82-3.84-7.84-3.41v-9l7.84,3.41Zm-8.83-3.84-7.83-3.41v-9l7.83,3.41ZM262.47,312l-7.84-3.41v-9l7.84,3.41Zm-8.83-3.84-7.83-3.41v-9l7.83,3.41Zm-8.82-3.84L237,301v-9l7.84,3.41ZM237,290.77v-9l7.84,3.41v9Zm0-10.17v-9l7.84,3.41v9Zm0-10.18v-9l7.84,3.41v9Zm0-10.18v-9l7.84,3.4v9Zm0-10.17v-9l7.84,3.41v9Zm8.83-5.2,7.83,3.41v9l-7.83-3.41Zm8.82,3.84,7.84,3.4v9l-7.84-3.41Zm8.83,3.83,7.83,3.41v9l-7.83-3.41Zm8.82,3.84,7.84,3.41v9l-7.84-3.41Zm8.83,3.84,7.83,3.41v9l-7.83-3.41Zm8.82,3.84,7.84,3.41v9l-7.84-3.41Zm8.83,3.84,7.83,3.41v9l-7.83-3.41Zm8.82,3.84,7.84,3.41v9l-7.84-3.41Zm7.84,13.59v9L307.58,291v-9Zm0,10.17v9l-7.84-3.41v-9Zm0,10.18v9l-7.84-3.41v-9Zm0,10.18v9l-7.84-3.41v-9Zm0,10.18v9l-7.84-3.41v-9Zm0,10.17v9l-7.84-3.41v-9Zm-8.83,5.2L298.76,338v-9l7.83,3.4Zm-8.82-3.84-7.84-3.41v-9l7.84,3.41Zm-8.83-3.83-7.83-3.41v-9l7.83,3.41Zm-8.82-3.85-7.84-3.41v-9l7.84,3.41Zm-8.83-3.83-7.83-3.41v-9l7.83,3.41Zm-8.82-3.84-7.84-3.41v-9l7.84,3.41Zm-8.83-3.84L245.81,315v-9l7.83,3.41Zm-8.82-3.84L237,311.13v-9l7.84,3.41ZM236,310.7l-7.83-3.41v-9l7.83,3.41Zm-7.83-13.59v-9l7.83,3.4v9Zm0-10.17v-9l7.83,3.41v9Zm0-10.18v-9l7.83,3.41v9Zm0-10.18v-9L236,261v9Zm0-10.18v-9l7.83,3.41v9Zm0-10.17v-9L236,240.6v9Zm0-10.18v-9l7.83,3.41v9Zm8.82-5.2,7.84,3.41v9L237,239.89Zm8.83,3.84,7.83,3.41v9l-7.83-3.41Zm8.82,3.84,7.84,3.41v9l-7.84-3.41Zm8.83,3.84,7.83,3.41v9l-7.83-3.41Zm8.82,3.84,7.84,3.41v9l-7.84-3.4Zm8.83,3.84,7.83,3.41v9l-7.83-3.41Zm8.82,3.83,7.84,3.41v9l-7.84-3.41Zm8.83,3.84,7.83,3.41v9l-7.83-3.41Zm8.82,3.84,7.84,3.41v9l-7.84-3.41Zm8.83,3.84,7.83,3.41v9l-7.83-3.41ZM324.24,279v9l-7.83-3.41v-9Zm0,10.18v9l-7.83-3.41v-9Zm0,10.17v9L316.41,305v-9Zm0,10.18v9l-7.83-3.41v-9Zm0,10.18v9l-7.83-3.41v-9Zm0,10.18v9l-7.83-3.41v-9Zm0,10.17v9l-7.83-3.41v-9Zm0,10.18v9l-7.83-3.41v-9Zm-8.82,5.2L307.58,352v-9l7.84,3.41Zm-8.83-3.84-7.83-3.41v-9l7.83,3.41Zm-8.82-3.84-7.84-3.41v-9l7.84,3.41Zm-8.83-3.84-7.83-3.41v-9l7.83,3.41Zm-8.82-3.84-7.84-3.41v-9l7.84,3.41Zm-8.83-3.84-7.83-3.41v-9l7.83,3.41Zm-8.82-3.84L254.63,329v-9l7.84,3.41Zm-8.83-3.83-7.83-3.41v-9l7.83,3.41Zm-8.82-3.85-7.84-3.4v-9l7.84,3.41ZM236,320.88l-7.83-3.41v-9l7.83,3.41ZM227.17,317l-7.84-3.41v-9l7.84,3.41Zm-7.84-13.59v-9l7.84,3.41v9Zm0-10.18v-9l7.84,3.41v9Zm0-10.17v-9l7.84,3.41v9Zm0-10.18v-9l7.84,3.41v9Zm0-10.18v-9l7.84,3.4v9Zm0-10.17v-9l7.84,3.41v9Zm0-10.18v-9l7.84,3.41v9Zm0-10.18v-9l7.84,3.41v9Zm0-10.18v-9l7.84,3.41v9Zm8.83-5.19,7.83,3.4v9l-7.83-3.41Zm8.82,3.83,7.84,3.41v9L237,229.71Zm8.83,3.84,7.83,3.41v9l-7.83-3.41Zm8.82,3.84,7.84,3.41v9l-7.84-3.41Zm8.83,3.84,7.83,3.41v9l-7.83-3.41Zm8.82,3.84,7.84,3.41v9l-7.84-3.41Zm8.83,3.84,7.83,3.41v9l-7.83-3.41Zm8.82,3.84,7.84,3.41v9l-7.84-3.41Zm8.83,3.84,7.83,3.41v9l-7.83-3.41Zm8.82,3.84,7.84,3.41v9l-7.84-3.41Zm8.83,3.84,7.83,3.41v9l-7.83-3.41Zm8.82,3.83,7.84,3.41v9l-7.84-3.41Zm7.84,13.59v9l-7.84-3.41v-9Zm0,10.18v9l-7.84-3.4v-9Zm0,10.18v9l-7.84-3.41v-9Zm0,10.17v9l-7.84-3.41v-9Zm0,10.18v9L325.23,319v-9Zm0,10.18v9l-7.84-3.41v-9Zm0,10.18v9l-7.84-3.41v-9Zm0,10.17v9l-7.84-3.41v-9Zm0,10.18v9l-7.84-3.41v-9Zm0,10.18v9l-7.84-3.41v-9Zm-8.83,5.19L316.41,366v-9l7.83,3.41Zm-8.82-3.83-7.84-3.41v-9l7.84,3.41Zm-8.83-3.84-7.83-3.41v-9l7.83,3.41Zm-8.82-3.84-7.84-3.41v-9l7.84,3.41Zm-8.83-3.84-7.83-3.41v-9l7.83,3.41Zm-8.82-3.84-7.84-3.41v-9l7.84,3.41Zm-8.83-3.84L263.46,343v-9l7.83,3.41Zm-8.82-3.84-7.84-3.41v-9l7.84,3.41Zm-8.83-3.84-7.83-3.41v-9l7.83,3.41Zm-8.82-3.84L237,331.48v-9l7.84,3.41ZM236,331.05l-7.83-3.41v-9L236,322Zm-8.82-3.84-7.84-3.4v-9l7.84,3.41Zm-8.83-3.83L210.51,320v-9l7.83,3.41Zm-7.83-13.59v-9l7.83,3.41v9Zm0-10.18v-9l7.83,3.4v9Zm0-10.17v-9l7.83,3.41v9Zm0-10.18v-9l7.83,3.41v9Zm0-10.18v-9l7.83,3.41v9Zm0-10.18v-9l7.83,3.41v9Zm0-10.17v-9l7.83,3.41v9Zm0-10.18v-9l7.83,3.41v9Zm0-10.18v-9l7.83,3.41v9Zm0-10.17v-9l7.83,3.41v9Zm0-10.18v-9l7.83,3.41v9Zm8.82-5.2,7.84,3.41v9l-7.84-3.4Zm8.83,3.84,7.83,3.41v9l-7.83-3.41ZM237,210.5l7.84,3.41v9L237,219.53Zm8.83,3.84,7.83,3.4v9l-7.83-3.41Zm8.82,3.83,7.84,3.41v9l-7.84-3.41Zm8.83,3.84,7.83,3.41v9l-7.83-3.41Zm8.82,3.84,7.84,3.41v9l-7.84-3.41Zm8.83,3.84,7.83,3.41v9l-7.83-3.41Zm8.82,3.84,7.84,3.41v9l-7.84-3.41Zm8.83,3.84,7.83,3.41v9l-7.83-3.41Zm8.82,3.84,7.84,3.41v9l-7.84-3.41Zm8.83,3.84,7.83,3.41v9l-7.83-3.41Zm8.82,3.84,7.84,3.41v9l-7.84-3.41Zm8.83,3.84,7.83,3.41v9l-7.83-3.41Zm7.83,13.58v9l-7.83-3.41v-9Zm0,10.18v9l-7.83-3.41v-9Zm0,10.18v9l-7.83-3.41v-9Zm0,10.18v9l-7.83-3.41v-9Zm0,10.17v9l-7.83-3.41v-9Zm0,10.18v9l-7.83-3.41v-9Zm0,10.18v9L334.06,333v-9Zm0,10.17v9l-7.83-3.41v-9Zm0,10.18v9l-7.83-3.41v-9Zm0,10.18v9l-7.83-3.41v-9Zm0,10.18v9l-7.83-3.41v-9Zm0,10.17v9l-7.83-3.41v-9Zm-8.82,5.2-7.84-3.41v-9l7.84,3.4Zm-8.83-3.84-7.83-3.41v-9l7.83,3.4Zm-8.82-3.84-7.84-3.41v-9l7.84,3.4Zm-8.83-3.84-7.83-3.41v-9l7.83,3.41Zm-8.82-3.84-7.84-3.4v-9l7.84,3.41Zm-8.83-3.83-7.83-3.41v-9l7.83,3.41Zm-8.82-3.84L272.28,357v-9l7.84,3.41Zm-8.83-3.84-7.83-3.41v-9l7.83,3.41Zm-8.82-3.84-7.84-3.41v-9l7.84,3.41Zm-8.83-3.84-7.83-3.41v-9l7.83,3.41Zm-8.82-3.84L237,341.66v-9l7.84,3.41ZM236,341.23l-7.83-3.41v-9l7.83,3.41Zm-8.82-3.84L219.33,334v-9l7.84,3.4Zm-8.83-3.84-7.83-3.41v-9l7.83,3.41Zm-8.82-3.84-7.84-3.4v-9l7.84,3.41Zm-7.84-13.58v-9l7.84,3.41v9Zm0-10.18v-9l7.84,3.41v9Zm0-10.18v-9l7.84,3.41v9Zm0-10.17v-9l7.84,3.41v9Zm0-10.18v-9l7.84,3.41v9Zm0-10.18v-9l7.84,3.41v9Zm0-10.18v-9l7.84,3.4v9Zm0-10.17v-9l7.84,3.41v9Zm0-10.18v-9l7.84,3.41v9Zm0-10.18v-9l7.84,3.41v9Zm0-10.17v-9l7.84,3.41v9Zm0-10.18v-9l7.84,3.41v9Zm149,64.83-7.84-3.41v-9l7.84,3.4Zm0,10.18-7.84-3.41v-9l7.84,3.41Zm0,10.18L342.88,286v-9l7.84,3.41Zm0,10.17-7.84-3.4v-9l7.84,3.41Zm0,10.18-7.84-3.41v-9l7.84,3.41Zm0,10.18-7.84-3.41v-9l7.84,3.41Zm0,10.18-7.84-3.41v-9l7.84,3.41Zm0,10.17-7.84-3.41v-9l7.84,3.41Zm0,10.18L342.88,347v-9l7.84,3.41Zm0,10.18-7.84-3.41v-9l7.84,3.41Zm0,10.17-7.84-3.4v-9l7.84,3.41Zm0,10.18-7.84-3.41v-9l7.84,3.41Zm0,10.18-7.84-3.41v-9l7.84,3.41Z" transform="translate(-185.71 -193.79)"/><path class="cls-68" d="M241.9,409.16c0,.11,0,.22-.05.34a5.37,5.37,0,0,0,0,1.06c.06.69-.22,1.77.49,2.33,1.59,1.26,5.54.45,7.38,0a3.22,3.22,0,0,0,.79-.29c.45-.27.53-.68,1-1a3.94,3.94,0,0,1,1.34-.46c.46-.08.85-.29,1.3-.38a4.09,4.09,0,0,1,.93,0c.62,0,1.28,0,1.91-.08,2-.17,5.45-1,6.67-2.32a2.94,2.94,0,0,0,.53-2.9c-.53-1.74-4.43-1.6-6.32-1.57s-4.74.22-6.45-.62c-1.44-.7-4,1.55-4.87,2.18a7.75,7.75,0,0,1-2.73,1.84A2.19,2.19,0,0,0,241.9,409.16Z" transform="translate(-185.71 -193.79)"/><path class="cls-69" d="M257.86,403.87c1.89,0,5.79-.17,6.32,1.57a3.06,3.06,0,0,1,.14,1c-.08.08-1.57,1.4-5.76,1.33s-5.13-.67-5.13-.67-1.67-.11-1.55-1.38a6.22,6.22,0,0,0-.37-2.39C253.23,404.08,256,403.9,257.86,403.87Z" transform="translate(-185.71 -193.79)"/><path class="cls-68" d="M233.15,393.74a5,5,0,0,1,2.14,0c2.88.73,2.09,3.63.38,4.88a7.41,7.41,0,0,0-1.88,2.18c-.38.62-.33,1.3-.71,1.94-.72,1.24-2.39,1.85-4.12,1.91a9.78,9.78,0,0,1-3.42-.5,2.54,2.54,0,0,1-1.69-1.33,1.44,1.44,0,0,1-.1-.5,13.27,13.27,0,0,1,.06-2.52c.14-1.11,2.19-.62,3-1.35a13.9,13.9,0,0,1,2.16-1.69c.73-.42,1-1.21,1.58-1.75a5.21,5.21,0,0,1,2.51-1.23Z" transform="translate(-185.71 -193.79)"/><path class="cls-70" d="M224.76,384.22c-.25-1.12-3.91-.5-3.87-1.65s-.91-1.54-1.26-2.74c-.44-1.46-3.14-6.29-3-7.82.1-.9,7.3-.89,8.45-1.14a4.13,4.13,0,0,1,2,.26,34.27,34.27,0,0,1,6.5,2.53c1.81,1,1.63,2.74,1.78,4.38.09,1.1.15,2.21.18,3.31a76.65,76.65,0,0,1-.17,7.73,78.41,78.41,0,0,1-1.69,11.46c-.11.49,0,.88-.59,1.12a7.1,7.1,0,0,1-1.61.35,10.19,10.19,0,0,1-5.38-.41c-1-.42-2.1-.92-3.14-1.28,0-.67-.08-1.32,0-2a49,49,0,0,1,.65-5.22C224.18,390.19,225.41,387.19,224.76,384.22Z" transform="translate(-185.71 -193.79)"/><path class="cls-71" d="M225.78,372.91a5.74,5.74,0,0,1,1.31,0c1.42.11,4.69.2,5.79,1,.91.62.53,2.24.55,3.19a10.73,10.73,0,0,0,.14,1.7c.15.75.47,1.47.63,2.22a10.46,10.46,0,0,1,.06,3.16c-.09,1.22-.19,2.43-.28,3.64-.08.95-.15,1.9-.32,2.85a31.33,31.33,0,0,1-2.2,6.5c-.4.93-.79,1.87-1.19,2.8-.08.2-.81,2.26-1.05,2.25a8.37,8.37,0,0,1-3.07-.55c-.83-.35-3.09-.84-3.25-1.64-.07-.39.48-.62.61-.93a7.81,7.81,0,0,0,.35-2.08c.17-1.48.35-2.95.53-4.43a10.1,10.1,0,0,1,.9-3.63,8.53,8.53,0,0,0,.86-1.67,4.3,4.3,0,0,0,0-1.82,72.65,72.65,0,0,0-1.85-8c-.3-1.08-9.27-1.7-9-2.8.14-.53,9.23-1.12,9.8-1.45A2.06,2.06,0,0,1,225.78,372.91Z" transform="translate(-185.71 -193.79)"/><polygon class="cls-72" points="8.72 211.68 49.49 229.55 54.52 227.33 54.52 225.67 8.72 210.02 8.72 211.68"/><polygon class="cls-72" points="54.52 211.68 13.75 229.55 8.72 227.33 8.72 225.67 54.52 210.02 54.52 211.68"/><polygon class="cls-73" points="8.72 210.02 49.49 227.88 54.52 225.67 13.75 207.8 8.72 210.02"/><polygon class="cls-74" points="54.52 210.02 13.75 227.88 8.72 225.67 49.49 207.8 54.52 210.02"/><path class="cls-72" d="M208.17,410h.38a6.26,6.26,0,0,1,3.39-2.23c4.09-1.37,9.82-1,12.8.73a3.89,3.89,0,0,1,1.54,1.5h.22v.84h0c0,1.26-1.27,2.52-3.75,3.35-4.09,1.37-9.82,1-12.8-.73a2.93,2.93,0,0,1-1.71-2.27c0-.11-.05-.35-.05-.35Z" transform="translate(-185.71 -193.79)"/><path class="cls-75" d="M209.93,412.34c-3-1.77-2.08-4.32,2-5.69s9.82-1,12.8.73,2.08,4.32-2,5.69S212.91,414.11,209.93,412.34Z" transform="translate(-185.71 -193.79)"/><path class="cls-76" d="M213.77,393.83v16h0a1.12,1.12,0,0,0,.66,1,4.23,4.23,0,0,0,1.64.52,5.93,5.93,0,0,0,1.64.08,6.57,6.57,0,0,0,1.7-.3c.24-.09.43-.17.62-.26.59-.34.89-.75.83-1.15V393.83Z" transform="translate(-185.71 -193.79)"/><path class="cls-77" d="M217.73,391v20.44a6.57,6.57,0,0,0,1.7-.3c.24-.09.43-.17.62-.26V391Z" transform="translate(-185.71 -193.79)"/><path class="cls-75" d="M213.77,390.34v19.51h0a1.12,1.12,0,0,0,.66,1,4.23,4.23,0,0,0,1.64.52v-21Z" transform="translate(-185.71 -193.79)"/><path class="cls-78" d="M209.75,381.7a7,7,0,0,1,3.17.49l21.77,9.58.13,0,1-.42a7,7,0,0,1,3,.42h0a1.8,1.8,0,0,1,1.07,1.15l-1.34.6s.06,0,0,0l-.09,0-.3-.17a7.6,7.6,0,0,0-2.3-.18l-.17.06-.83.36-21.31,9.34-1.57-.7-24.29-10.79v-1.86Z" transform="translate(-185.71 -193.79)"/><path class="cls-79" d="M187.65,389.57l25.86,11.49,21.31-9.34,1-.42a7,7,0,0,1,3,.42l-25.88-11.39a7,7,0,0,0-3.17-.49L190,388.54Z" transform="translate(-185.71 -193.79)"/><path class="cls-80" d="M234.64,391.75l1.14-.45a7,7,0,0,1,3,.42h0a1.8,1.8,0,0,1,1.07,1.15l-1.34.6s.06,0,0,0l-.09,0-.3-.17a7.6,7.6,0,0,0-2.3-.18l-.17.06-.83.36-21.31,9.34v-1.86Z" transform="translate(-185.71 -193.79)"/><path class="cls-81" d="M247.25,379.85a9.35,9.35,0,0,0-2.51-.21,78.63,78.63,0,0,0-9.82,1.22c-3.86.79-7.9.92-11.85,1.35-3.4.36-7.18-1-10.48-1.72-2.75-.59-5.24-1.37-8.08-1.1a23.42,23.42,0,0,0-5.6.92c-1.74.61-3.25,1.84-3.32,3.29a10.6,10.6,0,0,0,.55,3.78c1.52,4,8.52,6.71,13.07,8.37a18,18,0,0,0,7.54,1.48c3.42-.28,6-1.67,9-2.6,3.52-1.08,7-2.21,10.39-3.5.88-.33,3.49-1.55,4.32-.77.51.48-.19,3.22-.1,3.95.33,2.52.62,5.05,1,7.58.3,2-.48,4.22.55,6.13.53,1,2,1.33,3.22,1.62a10.42,10.42,0,0,0,7.3-1.3c1-.57.19-2.06.28-2.85a30.52,30.52,0,0,0,.1-4.49c-.17-5.13-.37-10.25-.44-15.36C252.38,382.72,251.12,380.64,247.25,379.85Z" transform="translate(-185.71 -193.79)"/><path class="cls-70" d="M198.91,380.31a18.78,18.78,0,0,1,4.48-.82,6.28,6.28,0,0,1,1.75,2.47,29.59,29.59,0,0,1,.71,3.71,10.26,10.26,0,0,0,5,6.29c5.68,3.31,13.59,2.05,19.39-.5,1.95-.86,3.72-2,5.87-2.53a10.93,10.93,0,0,1,4.34-.13,2.4,2.4,0,0,1,1.57.74,1.52,1.52,0,0,1,.18.86,128.76,128.76,0,0,0,1,14.4c.19,1.52.48,3,.68,4.51a3.2,3.2,0,0,1-2-1.29c-1-1.91-.25-4.15-.55-6.13-.38-2.53-.67-5.06-1-7.58-.09-.73.61-3.47.1-3.95-.83-.78-3.44.44-4.32.77-3.4,1.29-6.87,2.42-10.39,3.5-3,.93-5.62,2.32-9,2.6a18,18,0,0,1-7.54-1.48c-4.55-1.66-11.55-4.36-13.07-8.37a10.6,10.6,0,0,1-.55-3.78C195.66,382.15,197.17,380.92,198.91,380.31Z" transform="translate(-185.71 -193.79)"/><path class="cls-82" d="M205.4,346.39s-3-1-5.19.44a5.51,5.51,0,0,0-2.47,3.2,53,53,0,0,0-1.8,5.33c-.87,3.8,2.64,22.38,3.67,26.17.65,2.41,8.38-11.25,8.81-12,1.31-2.26-4.79-11.21-3.88-13.58C205,354.7,208.4,347.05,205.4,346.39Z" transform="translate(-185.71 -193.79)"/><path class="cls-83" d="M197.88,349.58a4.81,4.81,0,0,1,2.33-2.75c2.2-1.43,5.19-.44,5.19-.44.68.15,1,.88,1,2a25.81,25.81,0,0,1-4.08-.34,6.81,6.81,0,0,0-3.84,1.12C198.26,349.27,198.08,349.44,197.88,349.58Z" transform="translate(-185.71 -193.79)"/><path class="cls-84" d="M211.88,345.48a9,9,0,0,0-3.55,0c-3.23.36-6.43,1.52-7.58,2.66-1.87,1.84-6.08,6.1-3.21,15.83a42.75,42.75,0,0,1,.83,17.8c-.21.75-.61,3.76-.2,4.44,1.07,1.83,5,2.8,7.36,3.17,8.57,1.33,13.94,1.2,15.15.8,0,0-.09-15.81.8-19.39a44.59,44.59,0,0,1,2-5.71,69.63,69.63,0,0,0,2.63-6.47c.47-1.62.58-3.25-1.1-4.49-1.35-1-3.13-1.58-4.56-2.51a51.74,51.74,0,0,1-3.95-3.36A16.37,16.37,0,0,0,211.88,345.48Z" transform="translate(-185.71 -193.79)"/><path class="cls-85" d="M220.65,356l.17.24-2.39-1.4a3.61,3.61,0,0,1,1.28.39C220,355.49,220.34,355.74,220.65,356Z" transform="translate(-185.71 -193.79)"/><path class="cls-82" d="M208.33,345.46a9,9,0,0,1,3.55,0,16.37,16.37,0,0,1,4.64,2.75,51.74,51.74,0,0,0,3.95,3.36c1.43.93,3.21,1.52,4.56,2.51,1.68,1.24,1.57,2.87,1.1,4.49a65.69,65.69,0,0,1-1.89,6.49c-.77,1.88-.23,5.26-.72,7.2-.9,3.58,1.33,16.29,1.28,16.37-.56.88-2.9,2-6.65,1.77.07-.86.88-13.54.62-15.23a32.59,32.59,0,0,1,.11-9.81,23.16,23.16,0,0,1,1-5c.45-1.17,1.36-2.23,1.16-3.52a1.9,1.9,0,0,0-.24-.62l.37.22c-.17-.16-.36-.31-.54-.46a2.86,2.86,0,0,0-.94-.77c-4.92-3.77-11.71-5.85-18.51-7.48A16.67,16.67,0,0,1,208.33,345.46Z" transform="translate(-185.71 -193.79)"/><path class="cls-86" d="M206,350.08a5.35,5.35,0,0,0,.47.29,7.37,7.37,0,0,0,1.71.77,8.45,8.45,0,0,0,1.6.23c1.24.1,3.46.62,4.5.07a29.17,29.17,0,0,0,2.87-1.74c.08-.06,1.76-1.29,1.64-1.36a26.78,26.78,0,0,0-5-2.47,12.05,12.05,0,0,0-5.5-.41c-.54.64-1,1.3-1.51,2a11.76,11.76,0,0,0-1.26,1.74C205.41,349.54,205.66,349.83,206,350.08Z" transform="translate(-185.71 -193.79)"/><path class="cls-87" d="M213.16,348.57c0-.91-.19-1.81-.11-2.72,0-.07,0-.13,0-.19.25.07.51.12.74.21a26.78,26.78,0,0,1,5,2.47c.08.05-1,.92-1.08,1-.6.45-1.24.86-1.9,1.26a3.22,3.22,0,0,1-2.38.6C212.42,350.79,213.16,349.24,213.16,348.57Z" transform="translate(-185.71 -193.79)"/><path class="cls-88" d="M205.13,346.3c-.06-.8-.11-1.61-.17-2.42,0,0,11.72-2.35,12.57.93l0,2.76c0,.08-.43.31-.5.35a15.92,15.92,0,0,1-1.5.88c-.33.17-.67.33-1,.49a7.39,7.39,0,0,0-1.08.44c-.58.36,0,1.16-.67,1.52a6.53,6.53,0,0,1-3.29.11,21.26,21.26,0,0,1-3.58-1c-1-.34-1.29-.64-.94-1.41A5.58,5.58,0,0,0,205.13,346.3Z" transform="translate(-185.71 -193.79)"/><path class="cls-87" d="M217.53,344.81l0,2.76a10.74,10.74,0,0,1-4.35,2.9c.06-.42,0-1.47,0-1.9,0-.91-.19-1.81-.11-2.72a7.88,7.88,0,0,1,1-2.56C215.78,343.3,217.23,343.66,217.53,344.81Z" transform="translate(-185.71 -193.79)"/><path class="cls-89" d="M204.72,345.63a11.17,11.17,0,0,0,2.86,1.58,26.69,26.69,0,0,0,4.13.61c1.55.15,0-1.23,1.34-2,.1-.06,5.65-5.87,4.37-8.79a2.44,2.44,0,0,0-.39-.65,3.18,3.18,0,0,0-.42-.5c-2.07-2.29-7-3.81-9.4-3.68A5.85,5.85,0,0,0,203,334.4a8.49,8.49,0,0,0-1.17,1.82,1.25,1.25,0,0,0-.1.27,10.64,10.64,0,0,0,.16,4.49c.23,1.59.3,2.88,1.92,4l.85.59Z" transform="translate(-185.71 -193.79)"/><path class="cls-90" d="M202.16,335.18s0,0,.06,0a5.51,5.51,0,0,0,1.59.37,24.49,24.49,0,0,0,4.59.23,5.14,5.14,0,0,1,2.21,0,3.36,3.36,0,0,1,1.25,1,3.59,3.59,0,0,1,.31.62c.31.75-.52,1.4-.54,2.21s1.28,1.71,1.33,2.5a6.62,6.62,0,0,0,.51,1.77,4.53,4.53,0,0,1-.25,2.7c.27-.76,2.27.48,2.9.46a5.39,5.39,0,0,0,3.17-.85c.58-.45.88-2.75,1.15-3.34a13,13,0,0,0,1.43-8,1.07,1.07,0,0,0-.24-.63,1.68,1.68,0,0,0-.81-.41,12.63,12.63,0,0,0-4.42-.27c-1.26.07-2.43-.67-3.69-.92a18.21,18.21,0,0,0-3.22-.32,15.39,15.39,0,0,0-4.24.42c-.44.13-1.15.22-1.82.36a8.68,8.68,0,0,0-1.18,1.82A1.42,1.42,0,0,0,202.16,335.18Z" transform="translate(-185.71 -193.79)"/><path class="cls-91" d="M206.3,346.44a13.66,13.66,0,0,0,7,.52,3.73,3.73,0,0,0,.44-3.14c-.3-1.32-1.34-2.51-1.1-3.9a1.86,1.86,0,0,1,1.71-1.62c1.61-.13,2.37.28,2.46,1.59a15.62,15.62,0,0,1-.39,3.74c.79-.2,1.56-.31,2.35-.56l.14-.07a.28.28,0,0,0,.07-.17c.08-.83.1-1.69.26-2.51a7.34,7.34,0,0,1,.69-1.48c.59-1.36,1.87-2.53,2.27-3.92.45-1.58.65-3.77-.5-5.11-1.74-2-5.31-3.18-8.51-3a15.24,15.24,0,0,0-9.1,3.09c-2,1.51-2.45,3.84-2.64,5.9a18,18,0,0,0,.56,5.65,14.06,14.06,0,0,0,.77,2.08A5.36,5.36,0,0,0,206.3,346.44Z" transform="translate(-185.71 -193.79)"/><path class="cls-92" d="M246.71,371.33a2.15,2.15,0,0,0,2,.36c1-.31,2.62-.78,4.19-1.11,2.64-.56,4.18-.72,3.6-1.76a11,11,0,0,0-1.26-1.71,1.94,1.94,0,0,0-1.43-.61,5.22,5.22,0,0,0-1.07.13,23.94,23.94,0,0,1-2.4.44c.05,0,.21-.38.23-.42a.76.76,0,0,0,.15-.49c0-.33-.47-.52-.87-.45a1.65,1.65,0,0,0-1,.72l-.65.73a3.4,3.4,0,0,1-2.7,1.49C244.13,368.81,245.64,370.38,246.71,371.33Z" transform="translate(-185.71 -193.79)"/><path class="cls-82" d="M245.69,367.64l-7.9.87a10,10,0,0,1-2.9-.5,2.63,2.63,0,0,1-.64-.18,1.66,1.66,0,0,1-.63-.66,14.09,14.09,0,0,1-.8-1.35c-.28-.55-.48-1.12-.72-1.69a22.7,22.7,0,0,0-2.21-3.78,37.44,37.44,0,0,0-2.38-3.17c-.83-1-1.42-2-3.06-2.15a8.37,8.37,0,0,0-2.5.09,4.13,4.13,0,0,0-2,1,5.81,5.81,0,0,0-1.19,3.38,17.2,17.2,0,0,0,1.86,6,10.86,10.86,0,0,0,1.18,1.47,47,47,0,0,0,6,5.93c1.14.9,2.49,2.31,4.28,2.19,2.68-.18,15.66-1.67,15.66-1.67s2.77-1.6,1.95-3.73S245.69,367.64,245.69,367.64Z" transform="translate(-185.71 -193.79)"/><path class="cls-93" d="M227.71,373a47,47,0,0,1-6-5.93,10.86,10.86,0,0,1-1.18-1.47,9.31,9.31,0,0,1-.9-2c-.72-2-1.64-3.27-.35-6.54.38.12,2.92.76,5.6,5,1.15,1.79,3.87,5.8,4.87,7.66a5.75,5.75,0,0,0,5,3.06c2.21-.15,12.66-1.26,14.89-1.57h0a4.6,4.6,0,0,1-1.95,2.3h0l-.06,0s-5.07.58-9.53,1.06c-2.67.29-5.13.54-6.13.61C230.2,375.29,228.85,373.88,227.71,373Z" transform="translate(-185.71 -193.79)"/><path class="cls-77" d="M197.3,402.79a.67.67,0,0,0,.17.08,3,3,0,0,0,1.92.1l7.87-2.83-1.85-.83-2.55-1.13-5.2,2,0,0c-.29.08-.44.26-.42.5C197.34,401.25,196.28,402.37,197.3,402.79Z" transform="translate(-185.71 -193.79)"/><path class="cls-76" d="M197.3,402.79a.67.67,0,0,0,.17.08,3,3,0,0,0,1.92.1l7.87-2.83-1.85-.83-7.26,2.57a.19.19,0,0,1-.23-.05C197.71,402.17,197.09,402.58,197.3,402.79Z" transform="translate(-185.71 -193.79)"/><path class="cls-80" d="M187.29,368.61l1.78-.79h0a3.7,3.7,0,0,1,3.08-.07L212,376.47c2.9,1.28,4.69,3.63,4.69,6.18v6.41a2.14,2.14,0,0,1-1.31,1.84h0l-.12,0-.11.05L213,392l-1.42-1.3-19.09-8.36c-2.91-1.27-4.71-3.63-4.71-6.19v-6.45a1.8,1.8,0,0,1,.1-.57Z" transform="translate(-185.71 -193.79)"/><path class="cls-94" d="M190.13,368.66l19.8,8.72c2.91,1.28,4.69,3.64,4.69,6.19V390c0,1.72-2.45,2.79-4.41,1.93l-19.79-8.66c-2.92-1.28-4.71-3.64-4.71-6.19v-6.46C185.71,368.87,188.16,367.8,190.13,368.66Z" transform="translate(-185.71 -193.79)"/><path class="cls-76" d="M196.12,384.55v17.09h0a.41.41,0,0,0,0,.16.91.91,0,0,0,.43.7,2.89,2.89,0,0,0,1.3.52,5.06,5.06,0,0,0,1.23,0,4.92,4.92,0,0,0,.77-.24c.62-.28.94-.68,1-1.1a.44.44,0,0,0,0-.16V384.73s0,0,0-.05c0-.23-.15-.44-.45-.65a3.13,3.13,0,0,0-1.28-.47,4.76,4.76,0,0,0-.66-.06,2.18,2.18,0,0,0-.57,0,3.17,3.17,0,0,0-.79.15c-.53.18-.85.42-.94.71A.27.27,0,0,0,196.12,384.55Z" transform="translate(-185.71 -193.79)"/><path class="cls-77" d="M199.12,383.56V403a4.92,4.92,0,0,0,.77-.24c.62-.28.94-.68,1-1.1v-17c0-.23-.15-.44-.45-.65A3.13,3.13,0,0,0,199.12,383.56Z" transform="translate(-185.71 -193.79)"/><path class="cls-75" d="M196.16,384.37V401.8a.91.91,0,0,0,.43.7,2.89,2.89,0,0,0,1.3.52V383.51a3.17,3.17,0,0,0-.79.15C196.57,383.84,196.25,384.08,196.16,384.37Z" transform="translate(-185.71 -193.79)"/><path class="cls-75" d="M196.12,384.55a.72.72,0,0,0,0,.22,1.21,1.21,0,0,0,.41.49,3.18,3.18,0,0,0,1.32.47,5.63,5.63,0,0,0,1.23,0,4.38,4.38,0,0,0,.77-.15c.6-.19.91-.5,1-.82a.13.13,0,0,0,0-.08s0,0,0-.05c0-.23-.15-.44-.45-.65a3.13,3.13,0,0,0-1.28-.47,4.76,4.76,0,0,0-.66-.06,2.18,2.18,0,0,0-.57,0,3.17,3.17,0,0,0-.79.15c-.53.18-.85.42-.94.71A.27.27,0,0,0,196.12,384.55Z" transform="translate(-185.71 -193.79)"/><path class="cls-77" d="M196.59,384.57a.71.71,0,0,0,.36.57,3.46,3.46,0,0,0,2.67.29c.51-.16.78-.44.78-.72a.06.06,0,0,0,0,0,.67.67,0,0,0-.36-.52,3,3,0,0,0-1.56-.43,3.26,3.26,0,0,0-1.1.13C196.86,384,196.59,384.28,196.59,384.57Z" transform="translate(-185.71 -193.79)"/></g></g></svg>