<svg xmlns="http://www.w3.org/2000/svg" viewBox="0 0 443.53 363.14"><defs><style>.cls-1{fill:#ffe5d2;}.cls-2{fill:#fff;}.cls-3{fill:#f97a5d;}.cls-4{fill:#d5d3d3;}.cls-5{fill:#f4f3f3;}.cls-6{fill:#6e5395;}.cls-7{fill:#e0a584;}.cls-8{fill:#1d262d;}.cls-9{fill:#2c373f;}.cls-10{fill:#ffc5b1;}.cls-11{fill:#f4b19f;}.cls-12{fill:#eda091;}.cls-13{fill:#5d4484;}</style></defs><title>bolsas</title><g id="BACKGROUND"><path class="cls-1" d="M189,368.14c23.64,3,47.49,3.49,71.29,4.4,10.91.42,21.61-.08,31.68,3.83,9.43,3.67,17,11,26.69,14.18,7.55,2.44,15.7,2.36,23.59,1.46A119.66,119.66,0,0,0,447,254.62c-2.83-18.43-11.3-35.6-13.34-54.17-2.14-19.62,5.35-36.73,10.09-55.39A142.32,142.32,0,0,0,448,105.15c-.28-7.73-1.25-15.65-4.9-22.47-9.94-18.51-35-22-55.89-19.92A195.65,195.65,0,0,0,312.75,85.9c-18,9.92-35.78,24.37-56.41,28.29-23.26,4.42-41.26-11.53-62.19-18.8-47.1-16.36-104,15.78-124.74,58.52C43.77,206.68,46.69,293,94.68,332.16,120.82,353.5,154.52,363.58,188,368Z" transform="translate(-26.95 -50.48)"/></g><g id="OBJECTS"><path class="cls-2" d="M380.69,302.71a6.08,6.08,0,0,1,1.21,1.77,30.35,30.35,0,0,1,2.33,5.35,48.65,48.65,0,0,1,2,19.07,95.82,95.82,0,0,1-3.68,18.81c-1.37,4.69-2.38,7.54-2.55,7.5s.49-3,1.61-7.75a124.57,124.57,0,0,0,3.25-18.66,54,54,0,0,0-1.6-18.69C382,305.46,380.47,302.82,380.69,302.71Z" transform="translate(-26.95 -50.48)"/><path class="cls-2" d="M385.32,265.1a16.16,16.16,0,0,1,1.57,2.87c.93,1.88,2.24,4.63,3.78,8a183.37,183.37,0,0,1,10.19,27.56,105.4,105.4,0,0,1,3,15.95,78.72,78.72,0,0,1,.3,13.26,58.75,58.75,0,0,1-1.18,8.85,13.16,13.16,0,0,1-.89,3.15c-.26-.05.87-4.59,1.1-12.05a99.91,99.91,0,0,0-3.65-28.8,225.62,225.62,0,0,0-9.75-27.53c-1.42-3.47-2.58-6.28-3.38-8.22A14.46,14.46,0,0,1,385.32,265.1Z" transform="translate(-26.95 -50.48)"/><path class="cls-2" d="M214,309.24c.16.17-1.4,1.66-3.42,4.42-.5.69-1.05,1.45-1.56,2.32s-1,1.79-1.58,2.77a42.07,42.07,0,0,0-2.69,6.8,43.05,43.05,0,0,0-1.34,7.19c-.06,1.12-.16,2.19-.13,3.19s0,1.94.08,2.79c.25,3.41.78,5.5.55,5.56s-1-2-1.51-5.46a24.07,24.07,0,0,1-.26-2.87c-.08-1,0-2.14,0-3.31a34.32,34.32,0,0,1,4.17-14.48,31.67,31.67,0,0,1,1.75-2.81,24.37,24.37,0,0,1,1.74-2.29C212.07,310.37,213.88,309.13,214,309.24Z" transform="translate(-26.95 -50.48)"/><path class="cls-2" d="M217.63,321.28c.11.19-.76.85-1.89,2.12a17.31,17.31,0,0,0-1.77,2.38,18.71,18.71,0,0,0-1.55,3.27,19.07,19.07,0,0,0-.8,3.53,17.91,17.91,0,0,0-.07,3c.11,1.7.39,2.76.18,2.83s-.76-.91-1.14-2.7a12.67,12.67,0,0,1-.23-3.21,15.38,15.38,0,0,1,.76-3.87,15.61,15.61,0,0,1,1.79-3.51,12.81,12.81,0,0,1,2.15-2.38C216.47,321.52,217.55,321.14,217.63,321.28Z" transform="translate(-26.95 -50.48)"/><path class="cls-2" d="M166.86,209.08c.08-.06.69.54,1.75,1.7.53.57,1.16,1.29,1.83,2.17s1.49,1.86,2.26,3l1.24,1.82c.42.63.81,1.33,1.24,2,.88,1.4,1.67,3,2.53,4.62a75.18,75.18,0,0,1,4.4,11.22,76.07,76.07,0,0,1,2.4,11.82c.18,1.84.37,3.59.39,5.24,0,.83.08,1.62.06,2.39s0,1.5-.05,2.2c0,1.4-.15,2.66-.24,3.76a26.31,26.31,0,0,1-.36,2.83,8.56,8.56,0,0,1-.54,2.37c-.25,0,.21-3.45.17-9,0-.69,0-1.41,0-2.16s-.09-1.54-.14-2.35c-.06-1.62-.3-3.34-.5-5.15a85.91,85.91,0,0,0-2.47-11.58A84.06,84.06,0,0,0,176.57,225c-.82-1.63-1.55-3.2-2.38-4.6-.4-.7-.76-1.4-1.15-2s-.78-1.26-1.15-1.84C168.92,211.86,166.68,209.24,166.86,209.08Z" transform="translate(-26.95 -50.48)"/><path class="cls-2" d="M182.42,215.52c.12-.11,1.7,1.37,3.7,4.21a40.21,40.21,0,0,1,3.11,5.26,43.18,43.18,0,0,1,4.23,14.32,40.35,40.35,0,0,1,.25,6.1c-.14,3.48-.66,5.58-.82,5.55s0-2.15-.15-5.55a55.5,55.5,0,0,0-.53-5.94,50.93,50.93,0,0,0-4.12-13.93,55.51,55.51,0,0,0-2.78-5.28C183.55,217.35,182.25,215.66,182.42,215.52Z" transform="translate(-26.95 -50.48)"/><polygon id="_Caminho_" data-name="&lt;Caminho&gt;" class="cls-3" points="100.99 277.46 99.8 275.02 66.5 300.46 81.03 323.99 114.17 296.04 100.99 277.46"/><polygon id="_Caminho_2" data-name="&lt;Caminho&gt;" class="cls-4" points="67.89 301 80.66 323.07 81.47 322.7 70.11 302.07 67.89 301"/><path id="_Caminho_3" data-name="&lt;Caminho&gt;" class="cls-5" d="M127.29,327.46l-32.44,24s.13.51.94.83a2.6,2.6,0,0,0,1.27.24l34.1-23.34a10.48,10.48,0,0,1-2.68-1A7.73,7.73,0,0,0,127.29,327.46Z" transform="translate(-26.95 -50.48)"/><path id="_Caminho_4" data-name="&lt;Caminho&gt;" class="cls-3" d="M132,328.27,96.45,352,108,373.9l1.87,3,35.54-26.31-6-9c-2.25-3.38-6.66-11.34-6.9-11.85A11.63,11.63,0,0,1,132,328.27Z" transform="translate(-26.95 -50.48)"/><polygon id="_Caminho_5" data-name="&lt;Caminho&gt;" class="cls-6" points="398.19 113.87 399.19 111.82 427.15 133.18 414.96 152.94 387.13 129.48 398.19 113.87"/><polygon id="_Caminho_6" data-name="&lt;Caminho&gt;" class="cls-4" points="425.98 133.64 415.27 152.17 414.58 151.87 424.13 134.54 425.98 133.64"/><path id="_Caminho_7" data-name="&lt;Caminho&gt;" class="cls-5" d="M425.7,164l27.24,20.17a1.22,1.22,0,0,1-.79.7,2.17,2.17,0,0,1-1.07.2l-28.64-19.6a8.53,8.53,0,0,0,2.25-.83A6.32,6.32,0,0,1,425.7,164Z" transform="translate(-26.95 -50.48)"/><path id="_Caminho_8" data-name="&lt;Caminho&gt;" class="cls-6" d="M421.74,164.63l29.85,19.94-9.69,18.37-1.57,2.55L410.48,183.4s3.15-4.7,5-7.53,5.6-9.52,5.8-9.94A10.65,10.65,0,0,0,421.74,164.63Z" transform="translate(-26.95 -50.48)"/><path class="cls-3" d="M88.19,125.91a3.19,3.19,0,0,0-1,3.89c1,2.44,5.68,9.67,11.93,9.42.26,0-7.87-13.31-7.87-13.31Z" transform="translate(-26.95 -50.48)"/><path class="cls-6" d="M78.63,259.12s-7.82-7-10.32-5.73c-3.06,1.52-20.56,18.67-19.88,26.75.28,3.31,4.13.48,11-6.64a15.35,15.35,0,0,1,15.51-4.07Z" transform="translate(-26.95 -50.48)"/><path class="cls-6" d="M97.62,270.9l-9.44-5.66s-24.46,22.93-20.64,26c2.9,2.32,4.61.24,11.47-6.88s15.56-3,15.56-3Z" transform="translate(-26.95 -50.48)"/><polygon class="cls-7" points="128.32 144.96 130.09 170.09 90.8 159.85 128.32 144.96"/><path class="cls-8" d="M117.76,211.2s34.36,2.17,38.94.64c0,0,6.72,66-5.23,73.1s-38.77-3.31-38.77-3.31l7.24-14.23,15.61-1V241l-1.12.26Z" transform="translate(-26.95 -50.48)"/><path class="cls-9" d="M74.68,256.21s-8.64,3.56-5.85,12.2c0,0,29.51,23.14,43.87,17.8,8-3,16.68-25.81,22.73-45.31l21.27-29.06s-10,.5-13.38.49c-6.4,0-25.56-1.13-25.56-1.13s-10,52.38-13.58,53.65S74.68,256.21,74.68,256.21Z" transform="translate(-26.95 -50.48)"/><path class="cls-10" d="M125.77,145.51s20.59-19.32,24.15-24.41S161.11,99,170.52,91.86l-4.58-9.66s2.8-1.53,4.58,2.54c0,0,6.61-13.22,8.13-13S175.6,82,175.6,82s6.36-9.16,8.14-8.9-4.58,10.29-4.58,10.29,7.12-8.26,8.14-7.24-5.6,7.24-5.6,7.24,7.12-4.09,7.88-2.74-7.11,4.9-7.11,4.9-.77,5.85-5.6,8.4c0,0-9.56,25.84-18.21,34.23L130.89,157Z" transform="translate(-26.95 -50.48)"/><path class="cls-10" d="M101.18,155.53s-19.51,20.41-24.63,23.92-22.23,11-29.43,20.32L37.5,195.1S36,197.89,40,199.7c0,0-13.28,6.49-13,8s10.19-3,10.19-3-9.21,6.28-9,8.06,10.33-4.48,10.33-4.48-8.32,7-7.31,8.06,7.29-5.52,7.29-5.52-4.16,7.08-2.81,7.85,5-7.07,5-7.07,5.85-.71,8.44-5.51c0,0,24.48-9.74,33-18.31l30.46-21.58Z" transform="translate(-26.95 -50.48)"/><path class="cls-2" d="M108.5,147.39l-9.87,9.66,2.5,10.89s9.72,23.35,11.19,29c2.29,8.86-1.41,22.36-1.41,22.36s16.49-1.37,31.49-1.87,19.9-5.35,19.9-5.35-13-43.31-22-55.42-12.25-15.89-12.25-15.89l-13.22,2.89Z" transform="translate(-26.95 -50.48)"/><path class="cls-2" d="M137.46,155.27l10.29-6.57s1.57-7-10.83-15.34l-14.55,9.11Z" transform="translate(-26.95 -50.48)"/><path class="cls-2" d="M100.71,156.29c-5.64.79-15.94,15.08-17.09,15.05,0,0,7.25,11.83,13,12.22C96.61,183.56,121.89,153.32,100.71,156.29Z" transform="translate(-26.95 -50.48)"/><path class="cls-10" d="M120.61,147s-8.2-6.12-7.91-8.56c.07-.62,1.2-1.62,1.5-2.5,1.59-4.77-6.07-17.05-10.78-19.64-3.7-2-2.08-2.22-9.87,2.41s-3.36,12.64.13,16.78c3.29,3.92,7,5.6,10.44,5.88l4.82,10.7Z" transform="translate(-26.95 -50.48)"/><path class="cls-10" d="M105.82,155.49c-1.55-3.8,1.39-8.59,6.56-10.7s10.62-.74,12.17,3.06-3.65,9.52-6.56,10.7S107.37,159.29,105.82,155.49Z" transform="translate(-26.95 -50.48)"/><path class="cls-10" d="M93.68,135.48s-2.66-.14-3,1.63,4.87,1.77,6.79.44Z" transform="translate(-26.95 -50.48)"/><path class="cls-3" d="M95,137.11c-.5-3.2-3.91-5.58-3.74-8.7,1.63,0,2.68-2,1.94-3.74-.29-.68-.79-1.27-1.11-1.94s-.4-1.55.09-1.92a1.59,1.59,0,0,1,.84-.24c2.42-.25,6.57.47,8.81-.35s4.4-2.32,4.17-4.92c-.19-2.27-2.19-4.11-4-5.49-1-.8-4.06-2.88-5.19-2.69-1.74.29-2.16,2.6-2.28,4.53a3,3,0,0,0-4.06,0,8.54,8.54,0,0,0-2,3.87,8.83,8.83,0,0,1-2,3.9c-1,.89-2.5,1.56-2.3,3.08.24,1.81,2.6,2.45,3.7,4-.27-.37-.5,2-.35,2.45.47,1.23,1.63,2.05,2.47,3C91.76,133.91,92.63,135.94,95,137.11Z" transform="translate(-26.95 -50.48)"/><path class="cls-2" d="M109.85,129.79l-6,3.13S111.07,138.2,109.85,129.79Z" transform="translate(-26.95 -50.48)"/><path class="cls-11" d="M101.52,131c.33.63-.16,1.54-1.09,2s-2,.38-2.29-.25.16-1.53,1.09-2S101.19,130.4,101.52,131Z" transform="translate(-26.95 -50.48)"/><path class="cls-11" d="M110.36,125c.34.63-.15,1.54-1.09,2s-2,.38-2.29-.25.16-1.53,1.09-2S110,124.36,110.36,125Z" transform="translate(-26.95 -50.48)"/><path class="cls-3" d="M105.63,129.57s.08-.19.34-.38a6.53,6.53,0,0,0,1-.74c.32-.34.44-1,0-1.14s-1.09.41-1.75,1l-.49.41a1.13,1.13,0,0,1-.8.3,1.83,1.83,0,0,1-1.13-.8,5.66,5.66,0,0,1-.94-1.82c-.32-1.13-.18-1.86-.1-1.85s.15.69.56,1.69a6.25,6.25,0,0,0,1,1.58c.22.27.5.52.7.52s.15,0,.3-.15l.48-.41c.34-.26.63-.54,1-.79a1.61,1.61,0,0,1,1.37-.25,1,1,0,0,1,.72,1.13,1.68,1.68,0,0,1-.5,1,4.26,4.26,0,0,1-1.23.64C105.81,129.54,105.66,129.61,105.63,129.57Z" transform="translate(-26.95 -50.48)"/><path class="cls-12" d="M104.12,141.36s3.87,0,6-1.27a9,9,0,0,1-5.32,2.74Z" transform="translate(-26.95 -50.48)"/><path class="cls-9" d="M105.8,124c0,.19-.58.25-1.15.5s-1,.58-1.16.47.11-.78.89-1.1S105.85,123.86,105.8,124Z" transform="translate(-26.95 -50.48)"/><path class="cls-9" d="M98.23,129c-.15-.11.08-.73.64-1.35s1.28-.85,1.35-.67-.35.57-.85,1.13S98.39,129.12,98.23,129Z" transform="translate(-26.95 -50.48)"/><path class="cls-3" d="M95.29,128c-.31-.23-.55-1.22.64-2.56s2.56-1.13,2.73-.75-.28.91-1.34,2.11S95.63,128.3,95.29,128Z" transform="translate(-26.95 -50.48)"/><path class="cls-3" d="M101.65,122.77c-.17-.32,0-1.27,1.58-1.92s2.63.07,2.62.46-.6.65-2,1.25S101.84,123.12,101.65,122.77Z" transform="translate(-26.95 -50.48)"/><path class="cls-6" d="M434,132.15c.11.1-1.57,2-5,4a30.39,30.39,0,0,1-30.21.22c-3.51-2-5.22-3.87-5.12-4s2.06,1.39,5.57,3.11a32.31,32.31,0,0,0,29.29-.22C431.93,133.57,433.82,132,434,132.15Z" transform="translate(-26.95 -50.48)"/><path class="cls-6" d="M396,129.3c-.09.21-1.95-.56-5.08-1.26a53.38,53.38,0,0,0-5.56-.91c-2.12-.24-4.45-.42-6.92-.6s-4.84-.37-7-.64a44.27,44.27,0,0,1-5.67-1c-3.19-.84-5-1.82-4.93-2s2,.44,5.14,1c1.58.3,3.48.53,5.6.74s4.47.36,6.94.53,4.85.4,7,.71a40.17,40.17,0,0,1,5.64,1.23C394.32,128.06,396.06,129.17,396,129.3Z" transform="translate(-26.95 -50.48)"/><path class="cls-6" d="M358.34,88.69c5.94-1.26,12.08-.17,18.07.83s12.19,1.89,18,.29C405,86.91,413,76.24,424,76.32c4.51,0,8.76,2,13.15,3,5.46,1.27,11.14,1.13,16.67,2s11.24,3.13,14.36,7.78c3.71,5.52,2.69,13.3-1.2,18.69s-10.12,8.67-16.5,10.53c-4.45,1.3-9.19,2-13,4.63s-6.44,6.81-10.07,9.78c-9.11,7.45-23.29,5.32-32.69-1.75-2.37-1.78-4.56-3.84-7.22-5.14-10.8-5.28-26.34,1.72-35.64-7.9C342.36,108.18,343.71,91.8,358.34,88.69Z" transform="translate(-26.95 -50.48)"/><path class="cls-11" d="M355.38,277.92s9.9,21.22,11.05,17.29.78-13.36.16-14.71-4.67-7.3-4.67-7.3Z" transform="translate(-26.95 -50.48)"/><path class="cls-10" d="M427,106.37c.91,1.17.3-.09,1.34,1.61,4.31-.16,7.2-3.8,7.2-3.8s6.84.18,6.77-1-6.56-.77-6.56-.77,6.85-2.15,6.48-3.23-8.29,2.35-8.29,2.35,8-4.95,6.8-5.75-8.86,3.54-8.86,3.54,6.68-5.49,5.68-6.2-10.26,6.44-10.26,6.44c.13-3.52-2.39-3.39-2.39-3.39l.11,8.57A15.19,15.19,0,0,1,427,106.37Z" transform="translate(-26.95 -50.48)"/><path class="cls-10" d="M325.55,67.56c-1.47.27-.33-.24-2.23.34-3.12-3-2.71-7.65-2.71-7.65s-5.23-4.41-4.37-5.27,5.42,3.78,5.42,3.78S318,52.6,319,52.05s4.63,7.26,4.63,7.26-2.68-9-1.27-8.82S326.6,59,326.6,59s-1.35-8.53-.13-8.4,3.4,11.63,3.4,11.63c2.23-2.72,4-1,4-1l-5.66,6.21A22.35,22.35,0,0,0,325.55,67.56Z" transform="translate(-26.95 -50.48)"/><path class="cls-10" d="M361.05,103.38c-1.89-.31-6.47,2.73-8.76,7.69a12.33,12.33,0,0,0-.69,10.1c.69,2.13,2.14,2.39,2.47,3.34.41,1.21-.95,5-.95,5l5.4,2.19c.36-2.61.75-5.23,3.41-6.37a27,27,0,0,0,3-1.23c2.53-1.45,3.88-4.62,4.92-7.22C370.63,114.94,365.8,104.16,361.05,103.38Z" transform="translate(-26.95 -50.48)"/><path class="cls-11" d="M354.62,177.06l-9.05-3.63s-26.86,49.82-26.75,63.64,36.89,41.49,36.89,41.49l6.21-5.36s-11.36-19.8-17.43-26.79S354.62,177.06,354.62,177.06Z" transform="translate(-26.95 -50.48)"/><path class="cls-10" d="M399.57,233.81s19.95-9.47,15.94-10.3-13.39.31-14.68,1-6.89,5.25-6.89,5.25Z" transform="translate(-26.95 -50.48)"/><path class="cls-10" d="M363.51,176.63l-13.73,5s-13.73,60.41-8.49,69.9,20,3.21,40.94-8.24l17.57-9.59-5.86-3.9s-20.45,4-26.19,8c0,0,3-8.49,7-20.48S381.49,193.11,363.51,176.63Z" transform="translate(-26.95 -50.48)"/><path class="cls-10" d="M346.61,135.47c0-4,1.29-6.92,5.31-6.92s9.56,1.41,9.56,5.42-3.16,10.54-7.18,10.54S346.61,139.49,346.61,135.47Z" transform="translate(-26.95 -50.48)"/><path class="cls-10" d="M349.78,128s-12.48-13.51-15-26.74-6.74-34.71-6.74-34.71l-4.74,1.37s-2.25,29.34,0,33.84,13.22,34.41,16.57,42.27Z" transform="translate(-26.95 -50.48)"/><path class="cls-10" d="M363.19,138.51s1-4.21,16.74-9.92,45.57-24.22,45.57-24.22l3,3.4s-16.18,18.69-25.59,22-29.41,16.2-31.47,17.24C368.3,148.54,368.34,150.51,363.19,138.51Z" transform="translate(-26.95 -50.48)"/><path class="cls-9" d="M349.78,128s-12.68,4.11-12.68,23.4c0,0,0,26.43,3,31.24a26.58,26.58,0,0,0,10.91,0c6.36-1.3,12.5-6,12.5-6l10-29.95-1.19-14L358.73,130s3.89,18.18-10.18,10.37c-2.74-1.52,4-11.84,4-11.84Z" transform="translate(-26.95 -50.48)"/><path class="cls-9" d="M339.05,143.67l-6.25-13s.9-7.89,12.37-10.73c0,0,1.16,4,2.43,5.51s5,3.13,5,3.13Z" transform="translate(-26.95 -50.48)"/><path class="cls-9" d="M362.68,148.9l19.87-4.07s3.45-7.16-4.74-15.67c0,0-15.5.93-17.51,1.1s-.62,1.69-.62,1.69Z" transform="translate(-26.95 -50.48)"/><path class="cls-9" d="M340.06,176.18s-18.79,34.75-21.9,41c0,0,55.45,25.47,78-5.19,0,0-12.8-27.1-32.6-37.41h0L355,172l-14.58,4" transform="translate(-26.95 -50.48)"/><path class="cls-10" d="M369.12,116.55s2.14-2.14,3.46-.66-4.78,3.62-4.78,3.62Z" transform="translate(-26.95 -50.48)"/><path class="cls-6" d="M408.28,87.35a7.07,7.07,0,0,1-2.38.81,32.92,32.92,0,0,1-6.82.78A67.36,67.36,0,0,1,389,88.23c-3.78-.5-7.89-1.24-12.21-1.71a46.72,46.72,0,0,0-12.13,0,27.11,27.11,0,0,0-9.28,3.19,20.84,20.84,0,0,0-5.16,4.18c-1,1.19-1.51,2-1.62,1.88a6.41,6.41,0,0,1,1.2-2.22,18.44,18.44,0,0,1,5.08-4.67,26.64,26.64,0,0,1,9.57-3.61,44.72,44.72,0,0,1,12.49-.17c4.39.48,8.5,1.26,12.24,1.82a79.17,79.17,0,0,0,9.95,1C404.78,88.13,408.23,87.12,408.28,87.35Z" transform="translate(-26.95 -50.48)"/><path class="cls-3" d="M358.22,115.34c0,.08-.62.14-1.55-.17a2,2,0,0,1-.75-.42,1.26,1.26,0,0,1-.32-.45,1,1,0,0,1,0-.78s0-.15.09-.16h.18a1.1,1.1,0,0,1,.39,0,3.5,3.5,0,0,0,.5,0,4.42,4.42,0,0,0,.94-.1,3.81,3.81,0,0,0,2.56-2c.41-.78.44-1.37.55-1.36s.23.62-.11,1.56a4,4,0,0,1-.95,1.46,3.88,3.88,0,0,1-1.9,1,3.93,3.93,0,0,1-1.12.1,3.63,3.63,0,0,1-.48-.06c-.07,0-.06,0-.07,0s0,0,0,0a.73.73,0,0,0,.15.25,1.73,1.73,0,0,0,.54.37C357.66,115.12,358.23,115.23,358.22,115.34Z" transform="translate(-26.95 -50.48)"/><path class="cls-2" d="M353.76,115.57l7.32,2.88S354.65,122.89,353.76,115.57Z" transform="translate(-26.95 -50.48)"/><path class="cls-11" d="M364.21,117c-.26.5-1.07.58-1.8.2s-1.12-1.1-.86-1.6,1.06-.58,1.8-.19S364.47,116.46,364.21,117Z" transform="translate(-26.95 -50.48)"/><path class="cls-11" d="M356,112.62c-.22.51-1,.66-1.78.33s-1.2-1-1-1.52,1-.66,1.78-.33S356.26,112.11,356,112.62Z" transform="translate(-26.95 -50.48)"/><path class="cls-12" d="M353.33,123.59s2.56,2.15,5.24,1.46c0,0-.92,1.39-4.48.88A2.54,2.54,0,0,0,353.33,123.59Z" transform="translate(-26.95 -50.48)"/><path class="cls-9" d="M363.5,112.36a.58.58,0,1,1-.57-.58A.57.57,0,0,1,363.5,112.36Z" transform="translate(-26.95 -50.48)"/><circle class="cls-9" cx="331.23" cy="60.16" r="0.58"/><path class="cls-6" d="M365.37,110.81c-.18.08-.53-.34-1.05-.68s-1-.51-1-.71.71-.33,1.41.14S365.55,110.76,365.37,110.81Z" transform="translate(-26.95 -50.48)"/><path class="cls-6" d="M357,108c0-.18.61-.41,1.45-.39s1.47.43,1.39.6-.67.1-1.42.09S357,108.2,357,108Z" transform="translate(-26.95 -50.48)"/><path class="cls-9" d="M359.62,286.54s3,10.81,6.19,9.93.78-16,.78-16l-3.14-5S366.4,300.79,359.62,286.54Z" transform="translate(-26.95 -50.48)"/><path class="cls-9" d="M398,226.62a9.8,9.8,0,0,1,4.9-2.81c2.69-.41,12.28-1.55,13.69-.27s-7.78,5.55-7.78,5.55,3.2-2,1.88-2.8C408.35,225,398,226.62,398,226.62Z" transform="translate(-26.95 -50.48)"/><polygon class="cls-9" points="367.25 179.03 370.26 185.13 371.9 184.22 367.89 178.21 367.25 179.03"/><polygon class="cls-9" points="333.66 220.27 326.29 226.92 328.47 228.74 334.66 222 333.66 220.27"/><path class="cls-9" d="M206.45,204.59c-2.1-5.2-2.9-11-6-15.65-4.5-6.7-13.15-10-16.81-17.23a22.15,22.15,0,0,1-2.05-10c0-6.79,2-14,7.24-18.31,6-4.95,15-4.89,22.11-1.56s12.43,9.37,17,15.68,8.59,13.08,13.93,18.77c4,4.21,8.64,7.85,11.62,12.8,8.17,13.58-.23,30.76-14.65,35.66C226.15,229.08,210.83,215.47,206.45,204.59Z" transform="translate(-26.95 -50.48)"/><path class="cls-10" d="M188.4,300.36c1.26,1-.11.32,1.71,1.51-.4,4.55-4.62,7.43-4.62,7.43s-.18,7.25-1.53,7.1-.49-7-.49-7-2.77,7.14-3.95,6.69,3.08-8.66,3.08-8.66-6,8.2-6.78,6.91,4.43-9.2,4.43-9.2-6.47,6.78-7.2,5.68,7.72-10.53,7.72-10.53c-3.91,0-3.64-2.7-3.64-2.7l9.53.56A16.34,16.34,0,0,0,188.4,300.36Z" transform="translate(-26.95 -50.48)"/><path class="cls-10" d="M279.41,163.53c1.63.29.36-.25,2.48.37,3.47-3.16,3-8.12,3-8.12s5.83-4.67,4.86-5.59-6,4-6,4,4.12-6.53,3-7.12-5.16,7.7-5.16,7.7,3-9.55,1.41-9.35-4.76,9-4.76,9,1.5-9.05.15-8.91-3.54,12-3.54,12c-3.19-2.6-5.43-.93-5.43-.93l7,6.84A25.37,25.37,0,0,1,279.41,163.53Z" transform="translate(-26.95 -50.48)"/><path class="cls-10" d="M239.53,203.16c2.94-.46,11.93,5.36,9.64,17.19a40.41,40.41,0,0,1-1.81,4.08c-.41,1.15,2.77,5.34,2.77,5.34l-8.2,2.62c-.35-2.48.24-6.1-2.42-7.18a28.5,28.5,0,0,1-3-1.17c-2.52-1.38-3.87-4.4-4.91-6.87a15,15,0,0,1-1.34-5.84C230.32,206.29,234.79,203.9,239.53,203.16Z" transform="translate(-26.95 -50.48)"/><path class="cls-10" d="M256,235.55c0-4.26-1.35-5.88-5.82-5.88s-10.36,1.62-10.36,5.88,3.15,9.58,7.62,9.58S256,239.81,256,235.55Z" transform="translate(-26.95 -50.48)"/><path class="cls-10" d="M252.43,227.6s13.9-14.32,16.68-28.35,7.5-36.8,7.5-36.8l5.28,1.45s2.5,31.11,0,35.88-16.68,37.85-16.4,46.33Z" transform="translate(-26.95 -50.48)"/><path class="cls-10" d="M227.67,234.54s-4.73.79-11.95,17.21-29.46,47-29.46,47l3.62,3.33s21.67-16.15,25.84-25.95,9.45-22,11.95-21.44S240.73,240.63,227.67,234.54Z" transform="translate(-26.95 -50.48)"/><path class="cls-3" d="M264.86,248.29l6.47-17.85s-1-8.38-13.76-11.38l-7.24,10.42Z" transform="translate(-26.95 -50.48)"/><path class="cls-3" d="M229.83,233.17s-7.64.64-13.82,14.23c0,0,6.8,9.39,11.78,9.71C227.79,257.11,246.27,241.31,229.83,233.17Z" transform="translate(-26.95 -50.48)"/><path class="cls-10" d="M250.79,394.29s-11,22.5-12.3,18.34-.86-14.18-.17-15.6,5.2-7.74,5.2-7.74Z" transform="translate(-26.95 -50.48)"/><path class="cls-13" d="M251.64,287.34l10.07-3.85s29.9,52.82,29.78,67.48-41.07,44-41.07,44l-6.9-5.68s19.4-28.54,26.16-35.94c3.38-3.7-20.81-21.85-24.48-39.31S251.64,287.34,251.64,287.34Z" transform="translate(-26.95 -50.48)"/><path class="cls-10" d="M191.06,382.51s-20.61,15.19-19.75,10.93,6.05-13,7.35-13.95,8.34-4.61,8.34-4.61Z" transform="translate(-26.95 -50.48)"/><path class="cls-6" d="M224.23,306.05,254,288.77s1.19,60-6,73S190.4,383,190.4,383l-3.4-8.07s31.16-18.56,40.72-22.2S224.23,306.05,224.23,306.05Z" transform="translate(-26.95 -50.48)"/><path class="cls-6" d="M242,277s-21.95,7.78-17.75,29.1,11.18,25.31,11.18,25.31L248,310.71l12.64-27L248,282.06Z" transform="translate(-26.95 -50.48)"/><path class="cls-3" d="M252.43,227.6a34.78,34.78,0,0,1,16.16,29.52s-2,23.33-5.38,28.43a31.18,31.18,0,0,1-12.15,0c-7.07-1.39-13.91-6.36-13.91-6.36l-5.52-28.56L227.33,234l2.33-.76,12.15-1.34S240.07,250,253.64,241c2.86-1.9-3.56-11.36-3.56-11.36Z" transform="translate(-26.95 -50.48)"/><polygon class="cls-2" points="235.37 99.79 269.25 119.55 288.31 83.56 256.55 65.91 235.37 99.79"/><polygon class="cls-2" points="282.5 272.11 306.74 257.11 286.72 222.17 264.57 236.53 282.5 272.11"/><path class="cls-9" d="M190.15,173.69a10,10,0,0,1,2,2,42,42,0,0,1,4.39,6.34,46,46,0,0,1,4.37,10.61c1.18,4.14,2,8.8,3.8,13.28a29.54,29.54,0,0,0,3.45,6.11,33.13,33.13,0,0,0,4.47,4.79,32.26,32.26,0,0,0,9.56,5.63,31.53,31.53,0,0,0,7.34,1.75,14,14,0,0,1,2.79.34,9.34,9.34,0,0,1-2.83.19,26.17,26.17,0,0,1-7.62-1.37,31.14,31.14,0,0,1-10.06-5.58,33.78,33.78,0,0,1-4.73-4.94,29.61,29.61,0,0,1-3.64-6.4c-1.9-4.68-2.65-9.38-3.75-13.47a49.65,49.65,0,0,0-4-10.47,53.37,53.37,0,0,0-4-6.48A13.7,13.7,0,0,1,190.15,173.69Z" transform="translate(-26.95 -50.48)"/><path class="cls-9" d="M231.78,150.57c.24,0,.49,3.3,2.35,8.23a36.91,36.91,0,0,0,4.31,8.12,39.23,39.23,0,0,0,3.44,4.21c1.28,1.4,2.69,2.82,4,4.41a62.7,62.7,0,0,1,6.21,9.77,39.58,39.58,0,0,1,3.76,8.68,16.13,16.13,0,0,1,.54,6.39,5.39,5.39,0,0,1-.68,2.26,13.45,13.45,0,0,1,.14-2.3,17.61,17.61,0,0,0-.93-6.07,43.48,43.48,0,0,0-3.94-8.34,68,68,0,0,0-6.16-9.51c-1.27-1.53-2.65-2.95-4-4.38a39.42,39.42,0,0,1-3.48-4.4,34.63,34.63,0,0,1-4.18-8.51,31.23,31.23,0,0,1-1.4-6.22A6.34,6.34,0,0,1,231.78,150.57Z" transform="translate(-26.95 -50.48)"/><path class="cls-3" d="M242.16,216c0-.09.54-.18,1.06-.79a1,1,0,0,0,.24-.47.71.71,0,0,0-.25-.48.66.66,0,0,0-.57-.19c-.25,0-.54.14-.93.19a2.44,2.44,0,0,1-2-.75,7.25,7.25,0,0,1-1-1.2c-.5-.75-.66-1.29-.58-1.33s.39.4,1,1a8.87,8.87,0,0,0,1.07,1,2,2,0,0,0,1.45.56c.27,0,.58-.16,1-.19a1.38,1.38,0,0,1,1.07.42,1.24,1.24,0,0,1,.37,1,1.33,1.33,0,0,1-.46.75C242.82,216.21,242.14,216.1,242.16,216Z" transform="translate(-26.95 -50.48)"/><path class="cls-2" d="M246.17,216.57l-6.51,2.37S245.18,223.77,246.17,216.57Z" transform="translate(-26.95 -50.48)"/><path class="cls-11" d="M239,216.17c.26.5-.12,1.21-.86,1.6s-1.54.3-1.8-.2.12-1.2.86-1.59S238.75,215.68,239,216.17Z" transform="translate(-26.95 -50.48)"/><path class="cls-11" d="M246.72,212.22c.22.51-.23,1.19-1,1.5s-1.56.16-1.78-.36.24-1.19,1-1.5S246.51,211.7,246.72,212.22Z" transform="translate(-26.95 -50.48)"/><path class="cls-12" d="M239.85,225.38a12.16,12.16,0,0,0,5-.25,6.88,6.88,0,0,1-3.6,1.64A3.85,3.85,0,0,0,239.85,225.38Z" transform="translate(-26.95 -50.48)"/><path class="cls-9" d="M242.08,210.76a.57.57,0,0,1,.06.81.56.56,0,0,1-.81.07.58.58,0,0,1-.07-.82A.58.58,0,0,1,242.08,210.76Z" transform="translate(-26.95 -50.48)"/><path class="cls-9" d="M237.7,213.27a.58.58,0,0,1,.07.82.59.59,0,0,1-.82.07.58.58,0,0,1-.06-.82A.56.56,0,0,1,237.7,213.27Z" transform="translate(-26.95 -50.48)"/><path class="cls-9" d="M242.1,208.34c-.06.18-.6.17-1.2.35s-1.06.46-1.2.33.2-.75,1-1S242.18,208.16,242.1,208.34Z" transform="translate(-26.95 -50.48)"/><path class="cls-9" d="M234.55,212.9c-.15-.11.08-.73.64-1.36s1.28-.84,1.35-.67-.35.58-.85,1.14S234.71,213,234.55,212.9Z" transform="translate(-26.95 -50.48)"/><path class="cls-10" d="M232.09,217.73S230,216,229,217.56s4.5,2.42,4.5,2.42Z" transform="translate(-26.95 -50.48)"/><path class="cls-6" d="M181.91,377.57a19.56,19.56,0,0,0-3.77,2.08c-.78.78-7.93,13.14-7,14.7s8.08-3.73,8.08-3.73-6,1.13,2.71-13.05" transform="translate(-26.95 -50.48)"/><path class="cls-6" d="M240.3,393.91a15.56,15.56,0,0,0-2.46,3.36c-.32,1.05-.91,15.32.62,16.28s5.72-6.92,5.72-6.92-5,3.92-3.88-12.68" transform="translate(-26.95 -50.48)"/></g></svg>