<svg xmlns="http://www.w3.org/2000/svg" xmlns:xlink="http://www.w3.org/1999/xlink" viewBox="0 0 483.2 484.32"><defs><style>.cls-1{fill:none;}.cls-2{isolation:isolate;}.cls-3{clip-path:url(#clip-path);}.cls-4{fill:#a64c00;}.cls-5{fill:#c17729;}.cls-6{fill:#f58220;}.cls-7{fill:#494d4d;}.cls-8{fill:#e06f1a;}.cls-9{fill:#e9b42b;}.cls-10{fill:#f5dd49;}.cls-11{fill:#dcdcdc;}.cls-12,.cls-20{fill:#fbfbfb;}.cls-13{fill:#db4610;}.cls-14{fill:#8d9493;}.cls-15{fill:silver;mix-blend-mode:multiply;}.cls-16{fill:#efeaea;}.cls-17{fill:#a0dae0;}.cls-18{fill:#80adb2;}.cls-19{fill:#7f7f7f;}.cls-20{opacity:0.5;mix-blend-mode:screen;}.cls-21{fill:#fff;}.cls-22{fill:#666;}.cls-23{fill:#f4dab6;}.cls-24{fill:#2d2f2f;}.cls-25{fill:#e1c9a7;}.cls-26{fill:#66352b;}.cls-27{fill:#c8370d;}.cls-28{fill:#e06f44;}.cls-29{fill:#c7e2df;}.cls-30{fill:#faf2e6;}.cls-31{fill:#a4632f;}.cls-32{fill:#730;}</style><clipPath id="clip-path" transform="translate(20.88 -33.02)"><rect class="cls-1" width="500" height="500"/></clipPath></defs><title>rocket</title><g class="cls-2"><g id="bg_persons" data-name="bg persons"><g class="cls-3"><polygon class="cls-4" points="361.39 195.13 390.03 230.54 338.69 268.97 328.58 255.26 301.76 249.76 208.25 311.47 198.04 296.58 172.93 288.44 19.88 378.36 13.04 415.23 455.83 241.44 483.2 204.39 457.51 191.41 361.39 195.13"/><polygon class="cls-5" points="417.04 265.69 461.09 290.24 455.83 241.44 417.04 265.69"/><polygon class="cls-6" points="416.43 229.94 346.64 279.76 328.58 255.26 218.75 326.79 198.04 296.58 13.04 415.23 0 484.32 185.28 364.71 204.33 388.2 313.79 318.62 331.57 340.23 440.89 265.81 461.09 290.24 483.2 204.39 396.3 207.44 416.43 229.94"/><path class="cls-7" d="M346.76,109.42c-6.57-.51-53.4,33.92-53.4,33.92s1,6.1,6.42,5,40.55-28.29,44.05-28.29,6.28,17,5.52,19.47c5.76.36,6.43.3,6.43.3S353.32,109.93,346.76,109.42Z" transform="translate(20.88 -33.02)"/><path class="cls-7" d="M296.69,93.09l.55,7.78c24.18-4.75,57.69-38.11,57.69-38.11a41.91,41.91,0,0,0-6.1-8.56C336.63,68.49,296.69,93.09,296.69,93.09Z" transform="translate(20.88 -33.02)"/><path class="cls-8" d="M232.54,234.09l0-.05V234l0,0-6.28-6.49s-25.74-11.12-54.08,23.81L144,286l-.29.18.18,0-.12.14.3-.17L188,278.39c44.3-7.74,47.12-35.64,47.12-35.64l-2.61-8.65Z" transform="translate(20.88 -33.02)"/><path class="cls-9" d="M229.34,236l0,0,0,0h0l-4.76-5.37S206,220.28,188.85,245.06l-17,24.57-.19.12.12,0-.07.1.19-.11,29.77-2.92c30-2.95,30.08-24.06,30.08-24.06L229.33,236Z" transform="translate(20.88 -33.02)"/><path class="cls-10" d="M227.43,237.06h0l0,0v0h0L224,232.62s-11.9-9.43-18.95,6.15l-7,15.45-.1.06H198l0,.06.1-.05,16.9,1.42c17,1.43,14.6-13.56,14.6-13.56Z" transform="translate(20.88 -33.02)"/><polygon class="cls-11" points="237.1 189.63 255.21 220.47 281.77 213.08 253.35 172.29 237.1 189.63"/><polygon class="cls-12" points="242.61 199.03 245.95 204.72 267.38 192.42 262.06 184.79 242.61 199.03"/><polygon class="cls-12" points="247.67 207.64 249.29 210.4 271.01 197.64 269.18 195.01 247.67 207.64"/><path class="cls-13" d="M259.18,243.19s7.52,8.53-14,34.12c68.5,4,63.45-57.31,63.45-57.31A157.28,157.28,0,0,0,259.18,243.19Z" transform="translate(20.88 -33.02)"/><path class="cls-13" d="M234.63,203.88a1.46,1.46,0,0,0-2-.55l-6.36,3.74a1.46,1.46,0,0,0-.5,2l25.28,43a1.46,1.46,0,0,0,2,.55l6.36-3.74a1.46,1.46,0,0,0,.5-2Z" transform="translate(20.88 -33.02)"/><path class="cls-11" d="M228.64,204.27l28.11,47.86S376,227,431.88,116.49C431.88,116.49,310.47,109.85,228.64,204.27Z" transform="translate(20.88 -33.02)"/><path class="cls-13" d="M377.79,121.28c7.42,8.67,18.49,23.41,24.6,40.19a240.89,240.89,0,0,0,29.49-45S409.65,115.27,377.79,121.28Z" transform="translate(20.88 -33.02)"/><path class="cls-14" d="M228.64,204.27l28.11,47.86s6.37-1.35,16.85-4.78l-32.9-56Q234.55,197.47,228.64,204.27Z" transform="translate(20.88 -33.02)"/><path class="cls-15" d="M245.84,233.56l10.91,18.57s116.5-24.6,173.16-131.83C359.06,206.88,245.84,233.56,245.84,233.56Z" transform="translate(20.88 -33.02)"/><path class="cls-15" d="M330,160.42a20.16,20.16,0,1,0,27.6,7.17A20.17,20.17,0,0,0,330,160.42Z" transform="translate(20.88 -33.02)"/><path class="cls-16" d="M330,158.32a20.16,20.16,0,1,0,27.59,7.18A20.16,20.16,0,0,0,330,158.32Z" transform="translate(20.88 -33.02)"/><path class="cls-17" d="M332.62,162.77a15,15,0,1,0,20.53,5.34A15,15,0,0,0,332.62,162.77Z" transform="translate(20.88 -33.02)"/><path class="cls-18" d="M332.62,162.77a15,15,0,0,0-7.28,11,15,15,0,0,1,28.81,7.48,15,15,0,0,0-21.53-18.48Z" transform="translate(20.88 -33.02)"/><path class="cls-19" d="M376,124a1.22,1.22,0,1,0,1.67.44A1.22,1.22,0,0,0,376,124Z" transform="translate(20.88 -33.02)"/><path class="cls-19" d="M248.93,198.65a1.22,1.22,0,1,0,1.68.44A1.23,1.23,0,0,0,248.93,198.65Z" transform="translate(20.88 -33.02)"/><path class="cls-19" d="M251.79,203.52a1.22,1.22,0,1,0,1.67.43A1.22,1.22,0,0,0,251.79,203.52Z" transform="translate(20.88 -33.02)"/><path class="cls-19" d="M254.65,208.38a1.22,1.22,0,1,0,1.67.44A1.22,1.22,0,0,0,254.65,208.38Z" transform="translate(20.88 -33.02)"/><path class="cls-19" d="M257.5,213.24a1.22,1.22,0,1,0,1.68.44A1.23,1.23,0,0,0,257.5,213.24Z" transform="translate(20.88 -33.02)"/><path class="cls-19" d="M260.36,218.11a1.22,1.22,0,0,0-.44,1.67,1.22,1.22,0,1,0,2.11-1.24A1.22,1.22,0,0,0,260.36,218.11Z" transform="translate(20.88 -33.02)"/><path class="cls-19" d="M263.22,223a1.22,1.22,0,1,0,1.67.44A1.22,1.22,0,0,0,263.22,223Z" transform="translate(20.88 -33.02)"/><path class="cls-19" d="M266.07,227.83a1.23,1.23,0,0,0-.43,1.68,1.22,1.22,0,0,0,2.11-1.24A1.24,1.24,0,0,0,266.07,227.83Z" transform="translate(20.88 -33.02)"/><path class="cls-19" d="M379.43,128.54a1.22,1.22,0,1,0,1.68.44A1.22,1.22,0,0,0,379.43,128.54Z" transform="translate(20.88 -33.02)"/><path class="cls-19" d="M383,133.63a1.22,1.22,0,1,0,1.24,2.11,1.22,1.22,0,0,0-1.24-2.11Z" transform="translate(20.88 -33.02)"/><path class="cls-19" d="M386.73,138.55a1.22,1.22,0,1,0,1.67.43A1.22,1.22,0,0,0,386.73,138.55Z" transform="translate(20.88 -33.02)"/><path class="cls-19" d="M390.06,144.21a1.22,1.22,0,1,0,1.67.44A1.22,1.22,0,0,0,390.06,144.21Z" transform="translate(20.88 -33.02)"/><path class="cls-19" d="M393.11,149.41a1.22,1.22,0,1,0,1.68.44A1.24,1.24,0,0,0,393.11,149.41Z" transform="translate(20.88 -33.02)"/><path class="cls-19" d="M395.36,154.67a1.22,1.22,0,0,0,1.24,2.11,1.22,1.22,0,1,0-1.24-2.11Z" transform="translate(20.88 -33.02)"/><path class="cls-19" d="M397.89,160a1.22,1.22,0,1,0,1.68.43A1.22,1.22,0,0,0,397.89,160Z" transform="translate(20.88 -33.02)"/><path class="cls-15" d="M266.17,238.55c-1.88,2.72-3.82,5.45-5.79,8.16.38,3.48-.54,9.78-7.2,20,34.5-13.38,48.84-25.61,54.74-34a59.78,59.78,0,0,0,.69-12.67A155.94,155.94,0,0,0,266.17,238.55Z" transform="translate(20.88 -33.02)"/><path class="cls-13" d="M266.09,234.42c-7,15-13.31,20.62-29.07,29,67.47-25.71,69.4-44.1,69.4-44.1C300.63,218,275.6,226.6,266.09,234.42Z" transform="translate(20.88 -33.02)"/><path class="cls-20" d="M231.85,209.74l4.49,7.64c26.25-28.63,85.72-82.11,176.61-100.54-4.62.29-10,.75-15.92,1.47C353.54,127.35,285.34,150.51,231.85,209.74Z" transform="translate(20.88 -33.02)"/><path class="cls-15" d="M252.46,186.55c-13.11,10.57-21.87,21.45-19.57,24.31s14.8-3.41,27.91-14,21.87-21.46,19.57-24.31S265.58,176,252.46,186.55Z" transform="translate(20.88 -33.02)"/><path class="cls-13" d="M199.16,199c32.84-6.36,36.63,4.36,36.63,4.36a157.17,157.17,0,0,0,44.32-31.88S229,137.21,199.16,199Z" transform="translate(20.88 -33.02)"/><path class="cls-7" d="M314.69,101.43c-.69-12-9.22-21.05-11.54-18.89,0,0-33.4,27.54-21.28,75.92,12.26,3.6,31.78-14.84,35.71-19.05C311.61,122.88,309.46,110.16,314.69,101.43Z" transform="translate(20.88 -33.02)"/><polygon class="cls-21" points="324.44 50.1 329.77 55.7 336.45 50.89 331.04 43.64 324.44 50.1"/><path class="cls-21" d="M303.15,82.54a52,52,0,0,1,7.33,28.3c1.38-10.5,1.61-18.52-1.37-23Z" transform="translate(20.88 -33.02)"/><path class="cls-22" d="M304.07,95.36a8.7,8.7,0,0,1,3.07,3.91l-1.81.76a63.91,63.91,0,0,1,5.38,15.78c-.48-12.24-.38-25.16-7.58-33.54C303.13,82.27,305.2,90.77,304.07,95.36Z" transform="translate(20.88 -33.02)"/><path class="cls-23" d="M334.59,114.4a2.26,2.26,0,0,0-.54.17A4,4,0,0,0,334.59,114.4Z" transform="translate(20.88 -33.02)"/><path class="cls-23" d="M333.29,110.32l-.17.16Z" transform="translate(20.88 -33.02)"/><path class="cls-23" d="M334.59,114.4a4,4,0,0,1-.54.17,2.26,2.26,0,0,1,.54-.17c.89-.36,2.47-1.39,1.14-4-.7-1.36-2-.47-2.44-.09l-.17.16.17-.16c.57-.53,2.3-2.42.41-4.15-1.18-1.08-3.37.87-3.37.87s-1.8-1.37-5-.39-.57,8.7-.57,8.7l1.43,3.32a50.75,50.75,0,0,0,6.32.87c2.39.08,4.79-3.12,3.82-4.41A1.73,1.73,0,0,0,334.59,114.4Z" transform="translate(20.88 -33.02)"/><polygon class="cls-21" points="344.1 82.33 346.35 87.03 348.15 85.58 345.62 81.07 344.1 82.33"/><path class="cls-7" d="M323.32,114.31h0C323.44,114.25,323.32,114.31,323.32,114.31Z" transform="translate(20.88 -33.02)"/><path class="cls-7" d="M308.78,122.91c-16.3,9.52-11.57-21.4-11.57-21.4l-8.91,16.33a16.9,16.9,0,0,0,11.86,13.94C311.3,135.57,326.31,120,326.31,120l-3-5.67C323,114.53,320.86,115.85,308.78,122.91Z" transform="translate(20.88 -33.02)"/><path class="cls-24" d="M291.62,125.84c.51,2.44,7.16,19.12,23.57,2.85C315.19,128.69,300.11,141.89,291.62,125.84Z" transform="translate(20.88 -33.02)"/><path class="cls-24" d="M301.05,122.67c-5.22-1.46-4.36-15.88-4.36-15.88s-1.82,11.81,3,16.37,14.35-3.3,14.35-3.3S306.27,124.13,301.05,122.67Z" transform="translate(20.88 -33.02)"/><path class="cls-25" d="M325.34,110.47l5-3.43s-.87.27-2.29.83A7.54,7.54,0,0,0,325.34,110.47Z" transform="translate(20.88 -33.02)"/><path class="cls-26" d="M308.18,76.93l-.34.73S308.81,77.82,308.18,76.93Z" transform="translate(20.88 -33.02)"/><path class="cls-26" d="M311.19,45.14c-6.83,5-19.64,19.78-9.81,26.43,4.54,3.07,6.26,4.6,6.8,5.36L321.26,49.3S318,40.14,311.19,45.14Z" transform="translate(20.88 -33.02)"/><path class="cls-23" d="M314.21,47.76S303.32,63,306.55,64.43c-2.17-.59-4.24,3.81-3.13,5.36s4.23,1.33,4.23,1.33-2.1,4.65,1.87,10.27c6.88,9.74,23.68,3.44,23.68,3.44l-1.13-11.61s2.36.16,3.73-4C340.48,50.56,314.21,47.76,314.21,47.76Z" transform="translate(20.88 -33.02)"/><path class="cls-27" d="M320.76,73.82c-6.74-3-1.85,11.72,12.21,8.7l-.7-7.24A20.36,20.36,0,0,1,320.76,73.82Z" transform="translate(20.88 -33.02)"/><path class="cls-26" d="M314.1,45.6,307,51.74s-7.72,13-2.63,12.34,4.17,5.72,4.17,5.72l.63,0a58.91,58.91,0,0,0-.44-13.45c6.36-.77,12.51-7,12.51-7Z" transform="translate(20.88 -33.02)"/><path class="cls-28" d="M324,78.21a7.74,7.74,0,0,0-3.83,1.26,13,13,0,0,0,10,3.42,3,3,0,0,0,.11-1C330.19,79.62,327.37,78,324,78.21Z" transform="translate(20.88 -33.02)"/><path class="cls-26" d="M318.54,57.18a1.48,1.48,0,1,0,1.59,1.37A1.49,1.49,0,0,0,318.54,57.18Z" transform="translate(20.88 -33.02)"/><path class="cls-26" d="M325.37,53.73a1.48,1.48,0,0,0,.21,3,1.48,1.48,0,1,0-.21-3Z" transform="translate(20.88 -33.02)"/><path class="cls-26" d="M304.85,46.91c-4.85,1-6,7.42-5,12.33,1.1.39.78.31.28.16l.23.1.71.23c4.89.93,17.34-6.51,20-8.89,2.93-2.61,3.38-12.3-1-17.82C323,37.6,313.48,45.1,304.85,46.91Z" transform="translate(20.88 -33.02)"/><path class="cls-26" d="M299.93,59.37l0,0C299.31,59.16,298.7,59,299.93,59.37Z" transform="translate(20.88 -33.02)"/><path class="cls-26" d="M299.9,59.34l.2.06a1.87,1.87,0,0,1-.28-.16Z" transform="translate(20.88 -33.02)"/><path class="cls-25" d="M327.19,71.85c-5.06-.76,1.09.67,4.89,1.38h0s2.36.16,3.73-4a16.87,16.87,0,0,0,.52-5.18C336.13,64.67,333.42,72.8,327.19,71.85Z" transform="translate(20.88 -33.02)"/><path class="cls-25" d="M307.13,73.6a11.85,11.85,0,0,0,2.39,7.79c6.88,9.74,23.68,3.44,23.68,3.44l0-.31C316.5,89,309.13,77.57,307.13,73.6Z" transform="translate(20.88 -33.02)"/><path d="M354.9,62.79l0,0a41.91,41.91,0,0,0-6.1-8.56S347.81,61.32,354.9,62.79Z" transform="translate(20.88 -33.02)"/><path class="cls-29" d="M351.39,52.9" transform="translate(20.88 -33.02)"/><path class="cls-23" d="M362.8,53.24a2.26,2.26,0,0,0-.54.17A2.79,2.79,0,0,0,362.8,53.24Z" transform="translate(20.88 -33.02)"/><path class="cls-23" d="M361.51,49.16l-.18.16Z" transform="translate(20.88 -33.02)"/><path class="cls-23" d="M362.8,53.24a2.79,2.79,0,0,1-.54.17,2.26,2.26,0,0,1,.54-.17c.89-.36,2.47-1.39,1.14-4-.7-1.37-2-.48-2.43-.1l-.18.16.18-.16c.56-.53,2.29-2.42.41-4.14-1.19-1.09-3.38.86-3.38.86s-1.8-1.37-5-.39-2.18,7.41-2.18,7.41l3,4.61a50.48,50.48,0,0,0,6.31.87c2.39.08,4.79-3.12,3.82-4.4A1.72,1.72,0,0,0,362.8,53.24Z" transform="translate(20.88 -33.02)"/><path d="M348.78,54.84l.38-.28-.33-.36A5.08,5.08,0,0,0,348.78,54.84Z" transform="translate(20.88 -33.02)"/><path class="cls-21" d="M349.16,54.56l-.38.28a7.91,7.91,0,0,0,2.57,6.31L353,59.58l2.08-1.93-3.72-4.75Z" transform="translate(20.88 -33.02)"/><path class="cls-25" d="M358.54,45.88s1.43,2.45.51,3.78-2.82.83-4.53-.3c.83,1.07,0,2.88-.23,4.45,1.27-1.18,1.26-2.33.71-3.8,1.16,2.11,4.85,1.22,5-.73A4.37,4.37,0,0,0,358.54,45.88Z" transform="translate(20.88 -33.02)"/><path class="cls-25" d="M356.12,50.75c1.55,2.39,4.82-1,4.82-1A5,5,0,0,1,356.12,50.75Z" transform="translate(20.88 -33.02)"/><path class="cls-25" d="M358.45,53.51c-1.1-.4.15-2.28.15-2.28s-2.33,1.57-.53,2.6,4.34-.46,4.34-.46S359.54,53.92,358.45,53.51Z" transform="translate(20.88 -33.02)"/><path class="cls-25" d="M357.8,55.64c-.67-1,1.42-1.8,1.42-1.8s-2.81,0-1.91,1.85,3.83,2.08,3.83,2.08S358.47,56.59,357.8,55.64Z" transform="translate(20.88 -33.02)"/><path class="cls-30" d="M357,48.4c1.1,2,1.1,1.9,1.56,1.77,0,0,1.82-.92.15-4C358.67,46.13,357.23,46.16,357,48.4Z" transform="translate(20.88 -33.02)"/><path class="cls-30" d="M359.78,51.46l-1.52.39s-.79,1.76.67,1.77,1.32-.77,1.32-.77Z" transform="translate(20.88 -33.02)"/><path class="cls-30" d="M358.81,54.48a1.24,1.24,0,0,0-.59,1.46c1,.81,1.63.49,1.87-.13S359.07,54.55,358.81,54.48Z" transform="translate(20.88 -33.02)"/><path class="cls-7" d="M336.58,122.23c-6.57-.5-53.4,33.92-53.4,33.92s1,6.11,6.42,5.06,40.54-28.3,44-28.3,6.28,17,5.52,19.47c5.76.36,6.42.3,6.42.3S343.14,122.74,336.58,122.23Z" transform="translate(20.88 -33.02)"/><path class="cls-7" d="M356.85,147.68c-4.18,2.43-17.68,4.7-17.68,4.7l1,5.26,7.8.29.5-1.8s15.7-1.25,15.71-2.81S361,145.26,356.85,147.68Z" transform="translate(20.88 -33.02)"/><path class="cls-27" d="M306,85.22s-6.82-6.71-32.41-7c-21.91,4.32-1,7.5-1,7.5s22.18-5.29,32.45.42S306,85.22,306,85.22Z" transform="translate(20.88 -33.02)"/><path class="cls-15" d="M287.25,159.3s-3-.41,2.35,1.91S329,151.12,336,150.78a10.28,10.28,0,0,1,5.53,1.23C328.62,129.14,287.25,159.3,287.25,159.3Z" transform="translate(20.88 -33.02)"/><path class="cls-15" d="M341.53,152c.23.42.46.86.68,1.32C344.52,155.39,344.1,153.46,341.53,152Z" transform="translate(20.88 -33.02)"/><path class="cls-31" d="M252.06,312.12c9.34,2.19,37.7-17.71,48.17-25.38l-6.7-1.37C276.11,297.21,241.91,309.74,252.06,312.12Z" transform="translate(20.88 -33.02)"/><path class="cls-32" d="M350.8,230.19l22.56,35.14-53,40.15,3.38,4.59,59.88-45.72s-20.12-29.06-19-29.72,78.39.59,75.45-3.18S350.8,230.19,350.8,230.19Z" transform="translate(20.88 -33.02)"/></g></g></g></svg>