<svg id="Layer_1" data-name="Layer 1" xmlns="http://www.w3.org/2000/svg" viewBox="0 0 914.43 746.93"><defs><style>.cls-1{fill:#faeeb6;}.cls-2,.cls-68,.cls-8{fill:#fff;}.cls-2{opacity:0.23;}.cls-3{fill:#af5033;}.cls-4{fill:#f8f9e0;}.cls-5{fill:#813e27;}.cls-6{fill:#c5c6b4;}.cls-7{fill:#d08988;}.cls-9{fill:#9b6666;}.cls-10{fill:#cbccd1;}.cls-11{fill:#ada86f;}.cls-12{fill:#817f54;}.cls-13{fill:#adb3d4;}.cls-14{fill:#f9fcfe;}.cls-15{fill:#7e819d;}.cls-16{fill:#c6c9d0;}.cls-17{fill:#c3493b;}.cls-18{fill:none;}.cls-19{fill:#a03d32;}.cls-20{fill:#cb644b;}.cls-21{fill:#cc675c;}.cls-22{fill:#a94134;}.cls-23{fill:#3e4960;}.cls-24{fill:#2c3445;}.cls-25{fill:#6e79a2;}.cls-26{fill:#c3c6c3;}.cls-27{fill:#f0f5f2;}.cls-28{fill:#848582;}.cls-29{fill:#aeb0ad;}.cls-30{fill:#49678f;}.cls-31{fill:#2c2e25;}.cls-32{fill:#9a9a97;}.cls-33{fill:#c38651;}.cls-34{fill:#655335;}.cls-35{fill:#a18053;}.cls-36{fill:#6a5737;}.cls-37{fill:#bb9761;}.cls-38{fill:#473b24;}.cls-39{fill:#ddd;}.cls-40{fill:#fafafa;}.cls-41{fill:#726657;}.cls-42{fill:#5c5345;}.cls-43{fill:#474134;}.cls-44{fill:#eaeaea;}.cls-45{fill:#c2c1c0;}.cls-46{fill:#1b1a10;}.cls-47{fill:#54452b;}.cls-48{fill:#322d23;}.cls-49{fill:#5a5249;}.cls-50{fill:#1d1b12;}.cls-51{fill:#bab9b8;}.cls-52{fill:#e0ae80;}.cls-53{fill:#efeede;}.cls-54{fill:#365373;}.cls-55{fill:#2d4963;}.cls-56{fill:#3a5778;}.cls-57{fill:#d3cfa9;}.cls-58{fill:#e5b78c;}.cls-59{fill:#d39a67;}.cls-60{fill:#4e3e2a;}.cls-61{fill:#a98667;}.cls-62{fill:#3f2b14;}.cls-63{fill:#302311;}.cls-64{fill:#ba7b45;}.cls-65{fill:#805120;}.cls-66{fill:#f2ddca;}.cls-67{fill:#534c43;}.cls-68{opacity:0.47;}.cls-69{fill:#3c2c17;}.cls-70{fill:#d4934d;}.cls-71{fill:#a3723a;}.cls-72{fill:#939491;}.cls-73{fill:#9e9f9d;}.cls-74{fill:#737573;}.cls-75{fill:#afb1af;}.cls-76{fill:#a26148;}.cls-77{fill:#844e3a;}.cls-78{fill:#be7656;}.cls-79{fill:#6475a4;}.cls-80{fill:#3a455e;}.cls-81{fill:#8ca1ce;}.cls-82{fill:#4e5d82;}.cls-83{fill:#4c5c83;}.cls-84{fill:#6e80b3;}</style></defs><title>students</title><ellipse id="_Caminho_" data-name="&lt;Caminho&gt;" class="cls-1" cx="457.22" cy="727.18" rx="457.22" ry="19.74"/><g id="_Grupo_" data-name="&lt;Grupo&gt;"><polygon id="_Caminho_2" data-name="&lt;Caminho&gt;" class="cls-2" points="273.31 106.39 317.22 371.17 788.74 371.04 353.41 50.98 273.31 106.39"/><g id="_Grupo_2" data-name="&lt;Grupo&gt;"><g id="_Grupo_3" data-name="&lt;Grupo&gt;"><rect id="_Retângulo_" data-name="&lt;Retângulo&gt;" class="cls-3" x="156.34" y="349.4" width="119.07" height="21.77"/><rect id="_Retângulo_2" data-name="&lt;Retângulo&gt;" class="cls-4" x="156.34" y="351.45" width="72.93" height="17.68"/><rect id="_Retângulo_3" data-name="&lt;Retângulo&gt;" class="cls-5" x="232.61" y="349.4" width="42.81" height="21.77"/><path id="_Caminho_3" data-name="&lt;Caminho&gt;" class="cls-3" d="M485,521.14H465a4.84,4.84,0,0,1-4.82-4.82h0A4.84,4.84,0,0,1,465,511.5h20a4.84,4.84,0,0,1,4.82,4.82h0A4.84,4.84,0,0,1,485,521.14Z" transform="translate(-220.13 -156.07)"/><rect id="_Retângulo_4" data-name="&lt;Retângulo&gt;" class="cls-6" x="156.34" y="355.42" width="68.02" height="2.69"/><rect id="_Retângulo_5" data-name="&lt;Retângulo&gt;" class="cls-6" x="156.34" y="362.38" width="68.02" height="2.69"/></g><g id="_Grupo_4" data-name="&lt;Grupo&gt;"><rect id="_Retângulo_6" data-name="&lt;Retângulo&gt;" class="cls-7" x="159.53" y="284.29" width="119.07" height="21.77"/><rect id="_Retângulo_7" data-name="&lt;Retângulo&gt;" class="cls-8" x="159.53" y="286.34" width="72.93" height="17.68"/><rect id="_Retângulo_8" data-name="&lt;Retângulo&gt;" class="cls-9" x="235.8" y="284.29" width="42.81" height="21.77"/><rect id="_Retângulo_9" data-name="&lt;Retângulo&gt;" class="cls-7" x="243.2" y="290.31" width="29.67" height="9.65" rx="4.82" ry="4.82"/><rect id="_Retângulo_10" data-name="&lt;Retângulo&gt;" class="cls-10" x="159.53" y="290.31" width="68.02" height="2.69"/><rect id="_Retângulo_11" data-name="&lt;Retângulo&gt;" class="cls-10" x="159.53" y="297.27" width="68.02" height="2.69"/></g><g id="_Grupo_5" data-name="&lt;Grupo&gt;"><rect id="_Retângulo_12" data-name="&lt;Retângulo&gt;" class="cls-11" x="147.19" y="327.83" width="119.07" height="21.77"/><rect id="_Retângulo_13" data-name="&lt;Retângulo&gt;" class="cls-4" x="147.19" y="329.87" width="72.93" height="17.68"/><rect id="_Retângulo_14" data-name="&lt;Retângulo&gt;" class="cls-12" x="223.46" y="327.83" width="42.81" height="21.77"/><rect id="_Retângulo_15" data-name="&lt;Retângulo&gt;" class="cls-11" x="230.86" y="333.85" width="29.67" height="9.65" rx="4.82" ry="4.82"/><rect id="_Retângulo_16" data-name="&lt;Retângulo&gt;" class="cls-6" x="147.19" y="333.85" width="68.02" height="2.69"/><rect id="_Retângulo_17" data-name="&lt;Retângulo&gt;" class="cls-6" x="147.19" y="340.8" width="68.02" height="2.69"/></g><g id="_Grupo_6" data-name="&lt;Grupo&gt;"><rect id="_Retângulo_18" data-name="&lt;Retângulo&gt;" class="cls-13" x="152.94" y="306.06" width="119.07" height="21.77"/><rect id="_Retângulo_19" data-name="&lt;Retângulo&gt;" class="cls-14" x="152.94" y="308.11" width="72.93" height="17.68"/><rect id="_Retângulo_20" data-name="&lt;Retângulo&gt;" class="cls-15" x="229.2" y="306.06" width="42.81" height="21.77"/><rect id="_Retângulo_21" data-name="&lt;Retângulo&gt;" class="cls-13" x="236.61" y="312.08" width="29.67" height="9.65" rx="4.82" ry="4.82"/><rect id="_Retângulo_22" data-name="&lt;Retângulo&gt;" class="cls-16" x="152.94" y="312.08" width="68.02" height="2.69"/><rect id="_Retângulo_23" data-name="&lt;Retângulo&gt;" class="cls-16" x="152.94" y="319.03" width="68.02" height="2.69"/></g></g><g id="_Grupo_7" data-name="&lt;Grupo&gt;"><g id="_Grupo_8" data-name="&lt;Grupo&gt;"><path id="_Caminho_4" data-name="&lt;Caminho&gt;" class="cls-17" d="M917.88,376.05h-156a14.91,14.91,0,0,0-14.47,18.53c5.17,20.86,5.93,64.77-17.37,156.63,0,0-17.5,67.62,0,115.2h37.18s-2.1-8.61-4.43-22.42h138Z" transform="translate(-220.13 -156.07)"/><g id="_Grupo_9" data-name="&lt;Grupo&gt;"><polygon id="_Caminho_5" data-name="&lt;Caminho&gt;" class="cls-18" points="697.76 219.98 680.68 487.91 691.5 487.91 708.58 219.98 697.76 219.98"/><path id="_Caminho_6" data-name="&lt;Caminho&gt;" class="cls-18" d="M767.24,666.41h10.83S776,657.8,773.63,644H762.81C765.14,657.8,767.24,666.41,767.24,666.41Z" transform="translate(-220.13 -156.07)"/><path id="_Caminho_7" data-name="&lt;Caminho&gt;" class="cls-19" d="M772.73,376.05a14.91,14.91,0,0,0-14.48,18.53c5.17,20.86,5.93,64.77-17.37,156.63,0,0-17.5,67.62,0,115.2h26.36s-2.1-8.61-4.43-22.42h138l17.08-267.94Z" transform="translate(-220.13 -156.07)"/></g><path id="_Caminho_8" data-name="&lt;Caminho&gt;" class="cls-20" d="M923.22,666.41s-14.22-58.14-9.84-115.2,36.35-175.16,4.5-175.16H885.27s31.71,16.4.77,175.16c0,0-9.53,67.62,8,115.2Z" transform="translate(-220.13 -156.07)"/><rect id="_Retângulo_24" data-name="&lt;Retângulo&gt;" class="cls-21" x="430.36" y="487.91" width="272.74" height="44.84" rx="22.42" ry="22.42"/><rect id="_Retângulo_25" data-name="&lt;Retângulo&gt;" class="cls-22" x="442.71" y="487.91" width="260.39" height="44.84" rx="21.91" ry="21.91"/><rect id="_Retângulo_26" data-name="&lt;Retângulo&gt;" class="cls-20" x="591.78" y="487.91" width="111.32" height="44.84" rx="22.42" ry="22.42"/></g><g id="_Grupo_10" data-name="&lt;Grupo&gt;"><path id="_Caminho_9" data-name="&lt;Caminho&gt;" class="cls-23" d="M829.24,700.86v8.87a4.83,4.83,0,0,1-.09,1.14,13.72,13.72,0,0,1-13.65,12.6h-46a13.73,13.73,0,0,1-13.66-12.6,5.42,5.42,0,0,1-.08-1.14v-8.87a13.78,13.78,0,0,1,13.74-13.74h46a13.78,13.78,0,0,1,13.74,13.74Z" transform="translate(-220.13 -156.07)"/><path id="_Caminho_10" data-name="&lt;Caminho&gt;" class="cls-24" d="M829.24,700.86v8.87a4.83,4.83,0,0,1-.09,1.14H755.84a5.42,5.42,0,0,1-.08-1.14v-8.87a13.67,13.67,0,0,1,3.38-9h66.72A13.73,13.73,0,0,1,829.24,700.86Z" transform="translate(-220.13 -156.07)"/><path id="_Caminho_11" data-name="&lt;Caminho&gt;" class="cls-25" d="M761.27,710.87a5.42,5.42,0,0,1-.08-1.14v-8.87a13.78,13.78,0,0,1,13.74-13.74H769.5a13.78,13.78,0,0,0-13.74,13.74v8.87a5.42,5.42,0,0,0,.08,1.14,13.73,13.73,0,0,0,13.66,12.6h5.43A13.73,13.73,0,0,1,761.27,710.87Z" transform="translate(-220.13 -156.07)"/><path id="_Caminho_12" data-name="&lt;Caminho&gt;" class="cls-23" d="M883.45,690.24v3.29a7.94,7.94,0,0,1-.13,1.41,9.17,9.17,0,0,1-9.05,7.77H710.72a9.15,9.15,0,0,1-9-7.77,7.1,7.1,0,0,1-.14-1.41v-3.29a9.24,9.24,0,0,1,9.18-9.22H874.27A9.24,9.24,0,0,1,883.45,690.24Z" transform="translate(-220.13 -156.07)"/><path id="_Caminho_13" data-name="&lt;Caminho&gt;" class="cls-24" d="M883.45,690.24v3.29a7.94,7.94,0,0,1-.13,1.41H701.68a7.1,7.1,0,0,1-.14-1.41v-3.29a9.24,9.24,0,0,1,9.18-9.22H874.27A9.24,9.24,0,0,1,883.45,690.24Z" transform="translate(-220.13 -156.07)"/><rect id="_Retângulo_27" data-name="&lt;Retângulo&gt;" class="cls-26" x="561.79" y="567.4" width="24.14" height="63.78"/><rect id="_Retângulo_28" data-name="&lt;Retângulo&gt;" class="cls-27" x="561.79" y="567.4" width="4.94" height="63.78"/><rect id="_Retângulo_29" data-name="&lt;Retângulo&gt;" class="cls-28" x="581" y="567.4" width="4.94" height="63.78"/><path id="_Caminho_14" data-name="&lt;Caminho&gt;" class="cls-24" d="M811.9,785.63V827H776.08V785.63a10.4,10.4,0,0,1,10.4-10.41h15A10.4,10.4,0,0,1,811.9,785.63Z" transform="translate(-220.13 -156.07)"/><path id="_Caminho_15" data-name="&lt;Caminho&gt;" class="cls-25" d="M802.2,785.63V827H776.08V785.63a10.4,10.4,0,0,1,10.4-10.41h5.31A10.41,10.41,0,0,1,802.2,785.63Z" transform="translate(-220.13 -156.07)"/><path id="_Caminho_16" data-name="&lt;Caminho&gt;" class="cls-23" d="M792.06,775.25a10.38,10.38,0,0,0-10.14,10.38V827H802.2V785.63A10.39,10.39,0,0,0,792.06,775.25Z" transform="translate(-220.13 -156.07)"/><polygon id="_Caminho_17" data-name="&lt;Caminho&gt;" class="cls-29" points="555.95 670.9 449.86 689.38 449.86 701.45 572.37 689.38 572.37 670.9 555.95 670.9"/><circle id="_Caminho_18" data-name="&lt;Caminho&gt;" class="cls-30" cx="447.24" cy="706.27" r="17.98"/><polygon id="_Caminho_19" data-name="&lt;Caminho&gt;" class="cls-26" points="572.37 670.9 520.14 688.29 520.14 706.27 572.37 689.38 572.37 670.9"/><circle id="_Caminho_20" data-name="&lt;Caminho&gt;" class="cls-31" cx="520.14" cy="706.27" r="17.98"/><polygon id="_Caminho_21" data-name="&lt;Caminho&gt;" class="cls-32" points="588.79 670.9 694.88 689.38 694.88 701.45 572.37 689.38 572.37 670.9 588.79 670.9"/><circle id="_Caminho_22" data-name="&lt;Caminho&gt;" class="cls-31" cx="697.5" cy="706.27" r="17.98"/><polygon id="_Caminho_23" data-name="&lt;Caminho&gt;" class="cls-26" points="572.37 670.9 624.6 688.29 624.6 706.27 572.37 689.38 572.37 670.9"/><circle id="_Caminho_24" data-name="&lt;Caminho&gt;" class="cls-31" cx="624.6" cy="706.27" r="17.98"/><polygon id="_Caminho_25" data-name="&lt;Caminho&gt;" class="cls-28" points="585.93 567.4 561.79 567.4 561.79 582.32 585.93 578.43 585.93 567.4"/></g></g><g id="_Grupo_11" data-name="&lt;Grupo&gt;"><path id="_Caminho_26" data-name="&lt;Caminho&gt;" class="cls-33" d="M712.58,529.69l-62.1-15.41s-11.2,0-15.59-2.78S637.2,473,660.2,485.94l67.43,15.41Z" transform="translate(-220.13 -156.07)"/><path id="_Caminho_27" data-name="&lt;Caminho&gt;" class="cls-33" d="M617.87,484.73a36.7,36.7,0,0,1-.36-18.56C620.06,456.74,629.67,481.81,617.87,484.73Z" transform="translate(-220.13 -156.07)"/><g id="_Grupo_12" data-name="&lt;Grupo&gt;"><polygon id="_Caminho_28" data-name="&lt;Caminho&gt;" class="cls-34" points="378.88 670.92 376.77 686.37 374.31 704.76 337.83 696.25 340.77 679.39 342.97 666.97 378.88 670.92"/><path id="_Caminho_29" data-name="&lt;Caminho&gt;" class="cls-35" d="M606.46,873a9.52,9.52,0,0,1-7.46,7.38H484.26a23.16,23.16,0,0,1-2.72-7.38,19.21,19.21,0,0,1,2.37-14.09,23.21,23.21,0,0,1,5.31-5.84l50.83-14.35,6-6.1,8.65,1.71,9.83,1.93s-2.19,22.17,39.51,20.24C604.05,856.45,608.13,865.84,606.46,873Z" transform="translate(-220.13 -156.07)"/><path id="_Caminho_30" data-name="&lt;Caminho&gt;" class="cls-36" d="M606.46,873a9.52,9.52,0,0,1-7.46,7.38H484.26a23.16,23.16,0,0,1-2.72-7.38Z" transform="translate(-220.13 -156.07)"/><path id="_Caminho_31" data-name="&lt;Caminho&gt;" class="cls-37" d="M554.71,834.28,544,844.64l-60.09,14.22a23.21,23.21,0,0,1,5.31-5.84l50.83-14.35,6-6.1Z" transform="translate(-220.13 -156.07)"/><polygon id="_Caminho_32" data-name="&lt;Caminho&gt;" class="cls-38" points="378.88 670.92 376.77 686.37 340.77 679.39 342.97 666.97 378.88 670.92"/></g><polygon id="_Caminho_33" data-name="&lt;Caminho&gt;" class="cls-39" points="528 232.3 509.48 341.29 499.14 341.29 491.06 380.37 548.26 387.89 561.92 272.63 528 232.3"/><polygon id="_Caminho_34" data-name="&lt;Caminho&gt;" class="cls-40" points="522.61 309.56 527.99 232.31 512.96 312.82 522.61 309.56"/><path id="_Caminho_35" data-name="&lt;Caminho&gt;" class="cls-41" d="M884.72,603.17c-.66,4.91-1.1,7.64-1.1,7.64L754,597.86l-5.83-.57a662.53,662.53,0,0,0,8.47-102.9c.35-53.5-5.8-91.52-7.82-102.62-.39-2.24-.65-3.38-.65-3.38l32.65-24.23.35-.27,39.07-7.42,9.62,3.6,39,14.62c.71,1.62,1.37,3.25,2,4.92a221.2,221.2,0,0,1,8.6,27.48C898.28,482,888.23,576,884.72,603.17Z" transform="translate(-220.13 -156.07)"/><path id="_Caminho_36" data-name="&lt;Caminho&gt;" class="cls-42" d="M884.85,602c0,.39-.09.79-.13,1.14l-5.05-.22L754,597.86l-5.83-.57c.7-4.26,1.31-8.48,1.88-12.65l0,0a664.85,664.85,0,0,0,6.54-90.21l2.19-6.23,50.61,2.77-1.31-8.83,30.86,1.54c10.18-21.42,7.24-74,7.24-74l33.18-2.54c5.93,23.48,9,48.85,10.36,73.43C892.58,533.29,887.35,582.54,884.85,602Z" transform="translate(-220.13 -156.07)"/><path id="_Caminho_37" data-name="&lt;Caminho&gt;" class="cls-43" d="M884.85,602l-5.18.92L754,597.86l-5.83-.57c.7-4.26,1.31-8.48,1.88-12.65l0,0,95.69-14.75,13-96,31,6.63C892.58,533.29,887.35,582.54,884.85,602Z" transform="translate(-220.13 -156.07)"/><path id="_Caminho_38" data-name="&lt;Caminho&gt;" class="cls-43" d="M780.77,364.16l-1.31,7.9-30.69,19.71c-.39-2.24-.65-3.38-.65-3.38Z" transform="translate(-220.13 -156.07)"/><path id="_Caminho_39" data-name="&lt;Caminho&gt;" class="cls-43" d="M870.76,379.61l-5,4.47-37.4-17.55,1.41-6.46,39,14.62C869.49,376.31,870.15,377.94,870.76,379.61Z" transform="translate(-220.13 -156.07)"/><path id="_Caminho_40" data-name="&lt;Caminho&gt;" class="cls-44" d="M894.11,527.23l-19.31-.05-33-.08s5.45-9.22,9-27.22c3.95-19.71,5.58-49.95-4.65-90.25,0,0,1-19.18,11.67-29.28a21.85,21.85,0,0,1,10.93-5.66S905,408.49,894.11,527.23Z" transform="translate(-220.13 -156.07)"/><path id="_Caminho_41" data-name="&lt;Caminho&gt;" class="cls-8" d="M853.47,501.07l-2.64-1.19c3.95-19.71,5.58-49.95-4.65-90.25C846.18,409.63,872.47,448.13,853.47,501.07Z" transform="translate(-220.13 -156.07)"/><path id="_Caminho_42" data-name="&lt;Caminho&gt;" class="cls-45" d="M894.11,527.23l-19.31-.05-2.15-5.7c25.72-93.06-14.8-141.13-14.8-141.13a21.85,21.85,0,0,1,10.93-5.66S905,408.49,894.11,527.23Z" transform="translate(-220.13 -156.07)"/><path id="_Caminho_43" data-name="&lt;Caminho&gt;" class="cls-46" d="M748.12,587.91H886.47s8.41,40.14-11.12,54.39H733.08Z" transform="translate(-220.13 -156.07)"/><g id="_Grupo_13" data-name="&lt;Grupo&gt;"><polygon id="_Caminho_44" data-name="&lt;Caminho&gt;" class="cls-34" points="518.24 670.92 517.54 686.19 516.66 704.76 480.19 696.25 480.63 685.58 481.42 666.97 518.24 670.92"/><polygon id="_Caminho_45" data-name="&lt;Caminho&gt;" class="cls-47" points="518.24 670.92 517.54 686.19 480.63 685.58 481.42 666.97 518.24 670.92"/><path id="_Caminho_46" data-name="&lt;Caminho&gt;" class="cls-35" d="M748.82,873a9.54,9.54,0,0,1-7.46,7.38H626.61a23.16,23.16,0,0,1-2.72-7.38,20.34,20.34,0,0,1,.31-9.44A20.73,20.73,0,0,1,631.57,853l50.83-14.35,6-6.1,4.26.83,14.22,2.81s-2.2,22.17,39.5,20.24C746.4,856.45,750.49,865.84,748.82,873Z" transform="translate(-220.13 -156.07)"/><path id="_Caminho_47" data-name="&lt;Caminho&gt;" class="cls-36" d="M748.82,873a9.54,9.54,0,0,1-7.46,7.38H626.61a23.16,23.16,0,0,1-2.72-7.38Z" transform="translate(-220.13 -156.07)"/><path id="_Caminho_48" data-name="&lt;Caminho&gt;" class="cls-37" d="M692.68,833.4l-7.82,11.24L624.2,863.51A20.73,20.73,0,0,1,631.57,853l50.83-14.35,6-6.1Z" transform="translate(-220.13 -156.07)"/></g><polygon id="_Caminho_49" data-name="&lt;Caminho&gt;" class="cls-46" points="528 431.83 401.5 441.69 410.28 498.7 527.19 488.48 528 431.83"/><path id="_Caminho_50" data-name="&lt;Caminho&gt;" class="cls-48" d="M886.47,587.89l-11.1,54.39-120,8-7.28,185.94H686.35s1.85-159.12,6.24-203c3.55-35.29,37.62-39.42,50.87-39.72l75.15-5.58Z" transform="translate(-220.13 -156.07)"/><path id="_Caminho_51" data-name="&lt;Caminho&gt;" class="cls-49" d="M746.58,593.47c-40.78,3.25-45,39.33-45,39.33l-3.77,201.61.26,1.8H686.35s1.85-159.12,6.24-203C696.45,594.7,736.75,593.25,746.58,593.47Z" transform="translate(-220.13 -156.07)"/><path id="_Caminho_52" data-name="&lt;Caminho&gt;" class="cls-50" d="M886.47,587.89l-11.1,54.39-120,8-7.28,185.94h-9.75l14-214.87,3.38,17.87,83.89-6.41s22-13.35,9.87-44.91Z" transform="translate(-220.13 -156.07)"/><polygon id="_Caminho_53" data-name="&lt;Caminho&gt;" class="cls-44" points="559.33 203.86 551.69 223.76 573.52 245.36 565.39 218.26 559.33 203.86"/><polygon id="_Caminho_54" data-name="&lt;Caminho&gt;" class="cls-51" points="551.69 223.76 551.69 238.88 559.33 231.32 551.69 223.76"/><polygon id="_Caminho_55" data-name="&lt;Caminho&gt;" class="cls-51" points="608.27 191.92 588.64 191.92 603.62 212.13 608.27 191.92"/><polygon id="_Caminho_56" data-name="&lt;Caminho&gt;" class="cls-52" points="603.62 206.5 584.75 225.9 573.51 245.35 573.25 244.69 562.62 220.28 561.04 207.95 557.53 199.61 554.63 192.63 559.46 190.3 590.37 175.56 596.73 190.39 603.62 206.5"/><g id="_Grupo_14" data-name="&lt;Grupo&gt;"><path id="_Caminho_57" data-name="&lt;Caminho&gt;" class="cls-53" d="M615.21,424.18s38.22-37.4,89-27.68l-6.42,9.05s-50.08-4.56-78.83,31.21c0,0-8.8,3-12.69-3.8,0,0,4.35-17-20.46-17.37l8.57-6.38S612.62,407,615.21,424.18Z" transform="translate(-220.13 -156.07)"/><path id="_Caminho_58" data-name="&lt;Caminho&gt;" class="cls-54" d="M697.76,405.55S648.53,399,618.93,429.4v4.69s27.18-25.17,76.91-24.54Z" transform="translate(-220.13 -156.07)"/><path id="_Caminho_59" data-name="&lt;Caminho&gt;" class="cls-30" d="M618.93,434.09l63.83,89.56s28.47-27.21,68.58-23.6l-55.5-90.5S646.67,404.43,618.93,434.09Z" transform="translate(-220.13 -156.07)"/><polygon id="_Caminho_60" data-name="&lt;Caminho&gt;" class="cls-54" points="531.22 343.98 534.15 342.27 477.63 249.48 475.71 253.47 531.22 343.98"/><path id="_Caminho_61" data-name="&lt;Caminho&gt;" class="cls-55" d="M580.37,418.21l66.52,95A28.64,28.64,0,0,1,667,524.49l-59.54-87.73S609.58,410.86,580.37,418.21Z" transform="translate(-220.13 -156.07)"/><path id="_Caminho_62" data-name="&lt;Caminho&gt;" class="cls-56" d="M682.76,523.65s-8.4,6.52-15.79.84l-62.25-86.88s6.43,1.5,14.21-3.52Z" transform="translate(-220.13 -156.07)"/><path id="_Caminho_63" data-name="&lt;Caminho&gt;" class="cls-54" d="M618.93,429.4s-7.44,5.25-12.69,3.56l-1.52,4.65s8,2.26,14.21-3.52Z" transform="translate(-220.13 -156.07)"/><path id="_Caminho_64" data-name="&lt;Caminho&gt;" class="cls-56" d="M606.24,433s.29-20.41-25.87-14.75l3.38-3s24.48-6.28,25.83,18C609.58,433.23,607.54,434.87,606.24,433Z" transform="translate(-220.13 -156.07)"/><polygon id="_Caminho_65" data-name="&lt;Caminho&gt;" class="cls-57" points="484.05 240.43 537.38 331.8 531.54 337.99 477.63 249.48 484.05 240.43"/></g><path id="_Caminho_66" data-name="&lt;Caminho&gt;" class="cls-33" d="M823.75,362.58,804.87,382l-11.23,19.44L814.13,363l-5.35-12.33c-14.4,8.78-31.08,4.91-31.08,4.91l1.89-9.17,30.9-14.75,6.37,14.84Z" transform="translate(-220.13 -156.07)"/><g id="_Grupo_15" data-name="&lt;Grupo&gt;"><path id="_Caminho_67" data-name="&lt;Caminho&gt;" class="cls-58" d="M792.45,352.57A126.51,126.51,0,0,1,780,355.2c-1.44.26-2.28.35-2.28.35-37.44,5.18-54.61-12.86-50.57-36,4.52-25.94-8.78-43.68-8.78-43.68-11.8-23.92-16.15-52.28,13.48-69.44,6.63-3.86,15-7.16,25.42-9.7,27.12-6.67,43.5,5.18,53.24,19.31,10.58,15.36,13.26,33.45,13.26,33.45S846.18,338.43,792.45,352.57Z" transform="translate(-220.13 -156.07)"/><path id="_Caminho_68" data-name="&lt;Caminho&gt;" class="cls-59" d="M792.45,352.57A126.51,126.51,0,0,1,780,355.2c7.82-1.49,32.84-8.56,33.23-38.54.53-35.56-7.94-64.26-25.9-62.33s-55,14.35-69.83-10.05c0,0-4.83,10.44.87,31.6-11.8-23.92-16.15-52.28,13.48-69.44h49.29l29.37,9.61c10.58,15.36,13.26,33.45,13.26,33.45S846.18,338.43,792.45,352.57Z" transform="translate(-220.13 -156.07)"/><path id="_Caminho_69" data-name="&lt;Caminho&gt;" class="cls-60" d="M740.61,302.32h0a5.73,5.73,0,0,1-7.05-3.94l-2.22-7.86a5.73,5.73,0,0,1,3.95-7h0a5.73,5.73,0,0,1,7.05,3.94l2.21,7.85A5.72,5.72,0,0,1,740.61,302.32Z" transform="translate(-220.13 -156.07)"/><path id="_Caminho_70" data-name="&lt;Caminho&gt;" class="cls-60" d="M776.34,295h0a5.74,5.74,0,0,1-6.56-4.72l-1.32-8.05a5.74,5.74,0,0,1,4.72-6.56h0a5.72,5.72,0,0,1,6.55,4.71l1.32,8.06A5.73,5.73,0,0,1,776.34,295Z" transform="translate(-220.13 -156.07)"/><path id="_Caminho_71" data-name="&lt;Caminho&gt;" class="cls-61" d="M740.67,289.26a2.94,2.94,0,1,1-2.94-2.95A2.94,2.94,0,0,1,740.67,289.26Z" transform="translate(-220.13 -156.07)"/><path id="_Caminho_72" data-name="&lt;Caminho&gt;" class="cls-61" d="M777.7,280.39a2.94,2.94,0,1,1-2.94-2.94A2.95,2.95,0,0,1,777.7,280.39Z" transform="translate(-220.13 -156.07)"/><path id="_Caminho_73" data-name="&lt;Caminho&gt;" class="cls-62" d="M762.55,266.54s8.13-11.09,21.87-4.3l2.91-7.92s-19.1-8.15-29.68,7.24Z" transform="translate(-220.13 -156.07)"/><path id="_Caminho_74" data-name="&lt;Caminho&gt;" class="cls-62" d="M741.66,271.74s-11.17-6.47-17.66,4.9l-5.92-5.77s9.64-14.68,24.66-5.42Z" transform="translate(-220.13 -156.07)"/><path id="_Caminho_75" data-name="&lt;Caminho&gt;" class="cls-62" d="M840.6,259.77c-4.3-3.55-11.23-2.5-12.11-2.32h-.09c-14.7,5.31-12.73,19.88-12.73,19.88,0,3.64-4.56.13-4.56.13-.66-26.38-26.78-28.53-56.23-27.26-27.62,1.19-37.23-19.4-38.33-21.9a1.25,1.25,0,0,0-.08-.26c-10.06,20.45,1.27,46.44,1.84,47.8l0,0s-26.77-4-26.86-36.12c-.09-28.49,14.13-36,15-36.48l0-.05c28.22-56.93,98.1-33.4,98.1-33.4s-6.54-12.42,5.89-11.11c11.58,1.23,3.81,13.22,2.76,14.84,1.41-1.23,10.05-8.21,14.22.18,4.57,9.17-7,6.54-7,6.54C861,197.83,840.6,259.77,840.6,259.77Z" transform="translate(-220.13 -156.07)"/><path id="_Caminho_76" data-name="&lt;Caminho&gt;" class="cls-63" d="M840.6,259.77c-4.3-3.55-11.23-2.5-12.11-2.32,3.11-12.65,4.69-38.91-19.72-58.09-32.31-25.37-80-21.63-102.22,3.87,28.22-56.93,98.1-33.4,98.1-33.4s-6.54-12.42,5.89-11.11c11.58,1.23,3.81,13.22,2.76,14.84,1.41-1.23,10.05-8.21,14.22.18,4.57,9.17-7,6.54-7,6.54C861,197.83,840.6,259.77,840.6,259.77Z" transform="translate(-220.13 -156.07)"/><path id="_Caminho_77" data-name="&lt;Caminho&gt;" class="cls-59" d="M816,269.1S820.33,248.69,838,258s4.09,46.38-14.19,40.81C823.77,298.78,813.56,291.36,816,269.1Z" transform="translate(-220.13 -156.07)"/><path id="_Caminho_78" data-name="&lt;Caminho&gt;" class="cls-64" d="M830.9,285.29s-6.25.1-3.9-9.41,8.46-9.09,11.32-6.24S836.55,284.21,830.9,285.29Z" transform="translate(-220.13 -156.07)"/><path id="_Caminho_79" data-name="&lt;Caminho&gt;" class="cls-33" d="M748.56,314.4s4.76,6,14-1.21l1.52,2.69s-10,8.71-16.77,1.11Z" transform="translate(-220.13 -156.07)"/><path id="_Caminho_80" data-name="&lt;Caminho&gt;" class="cls-33" d="M748.39,330.64s17.26,6.36,31-4.38l2.7,3.39s-14.18,12.92-34.83,4.5Z" transform="translate(-220.13 -156.07)"/><path id="_Caminho_81" data-name="&lt;Caminho&gt;" class="cls-65" d="M811.11,277.46c-.66-26.38-26.78-28.53-56.23-27.26-27.62,1.19-37.23-19.4-38.33-21.9a.7.7,0,0,1-.08-.26c-3.12-12.73,0-21.6,0-21.6,3.82,44.82,48.94,33.36,77.17,38.8S811.11,277.46,811.11,277.46Z" transform="translate(-220.13 -156.07)"/><path id="_Caminho_82" data-name="&lt;Caminho&gt;" class="cls-65" d="M718.35,275.88s-26.77-4-26.86-36.12c-.09-28.49,14.13-36,15-36.48-22.91,45,10.23,71.33,11.81,72.56Z" transform="translate(-220.13 -156.07)"/></g><path id="_Caminho_83" data-name="&lt;Caminho&gt;" class="cls-46" d="M644.08,648.16l-37,190.51L558,831.12l-11.9-1.85s24.8-149.68,36.26-196.47v-.13c.26-1.1.53-2.11.79-3.08,11-42.71,61.5-30.64,61.5-30.64C661.38,603.87,644.08,648.16,644.08,648.16Z" transform="translate(-220.13 -156.07)"/><path id="_Caminho_84" data-name="&lt;Caminho&gt;" class="cls-8" d="M867.56,496.49l-31.44-4.56-3.29,35.18,48.5.14S883.78,500.25,867.56,496.49Z" transform="translate(-220.13 -156.07)"/><path id="_Caminho_85" data-name="&lt;Caminho&gt;" class="cls-52" d="M812.2,520.61l-50.83-7c-54.2,10.82-65.23-25.36-65.51-26.35,0,0,0,0,0,0l.73-1.31L694,482.17l1.81-1.72-3.33-3.37c1.36-1.88,7.45-5.9,11.67-2.19,4,3.47,10.9,6.56,11.76,6.92-6.76-3.91-14.47-15.38-14.47-15.38s7.11-6.08,16.89,4.41,31.15,11,31.15,11c.67-5.94-1-4.58-5.75-11s2.85-10.74,2.85-10.74c3,6.53,7.66,8.79,7.66,8.79,11.35,6,12.81,19.73,12.81,19.73l36.63,4.22,10.52,1.22C815.53,504.76,812.2,520.61,812.2,520.61Z" transform="translate(-220.13 -156.07)"/><path id="_Caminho_86" data-name="&lt;Caminho&gt;" class="cls-44" d="M813.57,486.23a110.12,110.12,0,0,1-2.89,41h41.51s12.35-17.09,3.08-35.32C855.27,491.93,834.7,484.38,813.57,486.23Z" transform="translate(-220.13 -156.07)"/><polygon id="_Caminho_87" data-name="&lt;Caminho&gt;" class="cls-44" points="608.27 191.92 584.76 225.92 596.73 245.36 616.67 204.32 608.27 191.92"/><path id="_Caminho_88" data-name="&lt;Caminho&gt;" class="cls-66" d="M777.7,355.55c-37.44,5.18-54.61-12.86-50.57-36,4.52-25.94-8.78-43.68-8.78-43.68,22.32,21.89,8.83,35.22,15.54,59.38C740.3,358.33,777.7,355.55,777.7,355.55Z" transform="translate(-220.13 -156.07)"/><path id="_Caminho_89" data-name="&lt;Caminho&gt;" class="cls-66" d="M753.92,314.38s-4.69-2.77-2.13-9.16C751.79,305.22,743.74,312.89,753.92,314.38Z" transform="translate(-220.13 -156.07)"/><polygon id="_Caminho_90" data-name="&lt;Caminho&gt;" class="cls-66" points="573.51 244.21 573.25 244.69 562.62 220.28 561.04 207.95 557.53 199.61 557.58 199.48 564.38 208.26 565.74 215.37 573.51 244.21"/><path id="_Caminho_91" data-name="&lt;Caminho&gt;" class="cls-67" d="M582.32,632.8,558,831.12l-11.9-1.85S570.86,679.59,582.32,632.8Z" transform="translate(-220.13 -156.07)"/><path id="_Caminho_92" data-name="&lt;Caminho&gt;" class="cls-33" d="M812.2,520.61l-50.83-7c-54.2,10.82-65.23-25.36-65.51-26.35,21,32.49,66.5,19.31,66.5,19.31l40.83,5.86c2.27-5.7,1.25-14.94.52-19.61l10.52,1.22C815.53,504.76,812.2,520.61,812.2,520.61Z" transform="translate(-220.13 -156.07)"/><path id="_Caminho_93" data-name="&lt;Caminho&gt;" class="cls-52" d="M617.87,484.73s4.49-13.25,10.37-10.45,2.25,6.48,2.25,6.48,3.36-3.61,5.6,0,1.4,8.49,1.4,8.49,2.53-2.45,4.49,1.1,0,7.33,0,7.33,2.24-1.53,3.36,1.55,1.4,7-5,12.2S614.64,495,617.87,484.73Z" transform="translate(-220.13 -156.07)"/><g id="_Grupo_16" data-name="&lt;Grupo&gt;"><path id="_Caminho_94" data-name="&lt;Caminho&gt;" class="cls-68" d="M723.25,295a14.41,14.41,0,0,0,6,10.41s7.79,1.13,19.52-2.9c0,0,1.59-4.91.61-13.28C749.38,289.26,731,288.56,723.25,295Z" transform="translate(-220.13 -156.07)"/><path id="_Caminho_95" data-name="&lt;Caminho&gt;" class="cls-68" d="M758.25,287.63s1.08,8.54,3.92,13.2c0,0,11.53,1.68,26.21-3.49,0,0,2.62-4.44.87-15.09A71,71,0,0,0,758.25,287.63Z" transform="translate(-220.13 -156.07)"/><path id="_Caminho_composto_" data-name="&lt;Caminho composto&gt;" class="cls-69" d="M789.75,278.17s-19.37.08-31.5,6.43h0a17.82,17.82,0,0,1-7.67,1.4c-20.83-1.41-29,6.9-29,6.9l-.29.19a2.77,2.77,0,0,0-1,3.34,28.28,28.28,0,0,0,7.81,11,49.3,49.3,0,0,0,22.12-3.16s2.94-4.92,2.4-13.53a2.53,2.53,0,0,1,3-.94c1.75,8.88,5.12,13.47,5.12,13.47a75.41,75.41,0,0,0,29.18-3.92,5.45,5.45,0,0,0,1.75-2.85,31.94,31.94,0,0,0,1-9.66,6.07,6.07,0,0,1,4.43-6l17.65-4.92v-4.05Zm-60.5,27.27c-6.42-5.48-6-10.41-6-10.41,8.42-6.14,26.13-5.77,26.13-5.77s.74,8.31-.61,13.28A56.27,56.27,0,0,1,729.25,305.44Zm32.92-4.61c-2.5-4.16-3.92-13.2-3.92-13.2a72.33,72.33,0,0,1,31-5.38s1.67,11.26-.87,15.09A78.25,78.25,0,0,1,762.17,300.83Z" transform="translate(-220.13 -156.07)"/></g></g><g id="_Grupo_17" data-name="&lt;Grupo&gt;"><rect id="_Retângulo_30" data-name="&lt;Retângulo&gt;" class="cls-70" x="123.5" y="371.04" width="665.23" height="21.97"/><rect id="_Retângulo_31" data-name="&lt;Retângulo&gt;" class="cls-71" x="621.71" y="371.04" width="167.03" height="21.97"/><rect id="_Retângulo_32" data-name="&lt;Retângulo&gt;" class="cls-26" x="158.41" y="393" width="17.46" height="331.24"/><rect id="_Retângulo_33" data-name="&lt;Retângulo&gt;" class="cls-72" x="158.41" y="393" width="17.46" height="20.77"/><rect id="_Retângulo_34" data-name="&lt;Retângulo&gt;" class="cls-73" x="255.39" y="393" width="17.46" height="331.24"/><rect id="_Retângulo_35" data-name="&lt;Retângulo&gt;" class="cls-74" x="255.39" y="393" width="17.46" height="20.77"/><rect id="_Retângulo_36" data-name="&lt;Retângulo&gt;" class="cls-75" x="175.87" y="650.26" width="96.97" height="16.71"/><rect id="_Retângulo_37" data-name="&lt;Retângulo&gt;" class="cls-26" x="645.66" y="393" width="17.46" height="331.24"/><rect id="_Retângulo_38" data-name="&lt;Retângulo&gt;" class="cls-72" x="645.66" y="393" width="17.46" height="20.77"/><rect id="_Retângulo_39" data-name="&lt;Retângulo&gt;" class="cls-73" x="742.63" y="393" width="17.46" height="331.24"/><rect id="_Retângulo_40" data-name="&lt;Retângulo&gt;" class="cls-74" x="742.63" y="393" width="17.46" height="20.77"/><rect id="_Retângulo_41" data-name="&lt;Retângulo&gt;" class="cls-75" x="663.11" y="650.26" width="96.97" height="16.71"/></g><g id="_Grupo_18" data-name="&lt;Grupo&gt;"><g id="_Grupo_19" data-name="&lt;Grupo&gt;"><rect id="_Retângulo_42" data-name="&lt;Retângulo&gt;" class="cls-3" x="660.97" y="349.4" width="119.07" height="21.77"/><rect id="_Retângulo_43" data-name="&lt;Retângulo&gt;" class="cls-4" x="660.97" y="351.45" width="72.93" height="17.68"/><rect id="_Retângulo_44" data-name="&lt;Retângulo&gt;" class="cls-5" x="737.24" y="349.4" width="42.81" height="21.77"/><path id="_Caminho_96" data-name="&lt;Caminho&gt;" class="cls-3" d="M989.62,521.14h-20a4.84,4.84,0,0,1-4.82-4.82h0a4.84,4.84,0,0,1,4.82-4.82h20a4.84,4.84,0,0,1,4.83,4.82h0A4.84,4.84,0,0,1,989.62,521.14Z" transform="translate(-220.13 -156.07)"/><rect id="_Retângulo_45" data-name="&lt;Retângulo&gt;" class="cls-6" x="660.97" y="355.42" width="68.02" height="2.69"/><rect id="_Retângulo_46" data-name="&lt;Retângulo&gt;" class="cls-6" x="660.97" y="362.38" width="68.02" height="2.69"/></g><g id="_Grupo_20" data-name="&lt;Grupo&gt;"><rect id="_Retângulo_47" data-name="&lt;Retângulo&gt;" class="cls-3" x="659.69" y="262.53" width="119.07" height="21.77"/><rect id="_Retângulo_48" data-name="&lt;Retângulo&gt;" class="cls-4" x="659.69" y="264.57" width="72.93" height="17.68"/><rect id="_Retângulo_49" data-name="&lt;Retângulo&gt;" class="cls-5" x="735.96" y="262.53" width="42.81" height="21.77"/><rect id="_Retângulo_50" data-name="&lt;Retângulo&gt;" class="cls-3" x="743.37" y="268.54" width="29.67" height="9.65" rx="4.82" ry="4.82"/><rect id="_Retângulo_51" data-name="&lt;Retângulo&gt;" class="cls-6" x="659.69" y="268.54" width="68.02" height="2.69"/><rect id="_Retângulo_52" data-name="&lt;Retângulo&gt;" class="cls-6" x="659.69" y="275.5" width="68.02" height="2.69"/></g><g id="_Grupo_21" data-name="&lt;Grupo&gt;"><rect id="_Retângulo_53" data-name="&lt;Retângulo&gt;" class="cls-7" x="664.16" y="284.29" width="119.07" height="21.77"/><rect id="_Retângulo_54" data-name="&lt;Retângulo&gt;" class="cls-8" x="664.16" y="286.34" width="72.93" height="17.68"/><rect id="_Retângulo_55" data-name="&lt;Retângulo&gt;" class="cls-9" x="740.43" y="284.29" width="42.81" height="21.77"/><rect id="_Retângulo_56" data-name="&lt;Retângulo&gt;" class="cls-7" x="747.84" y="290.31" width="29.67" height="9.65" rx="4.82" ry="4.82"/><rect id="_Retângulo_57" data-name="&lt;Retângulo&gt;" class="cls-10" x="664.16" y="290.31" width="68.02" height="2.69"/><rect id="_Retângulo_58" data-name="&lt;Retângulo&gt;" class="cls-10" x="664.16" y="297.27" width="68.02" height="2.69"/></g><g id="_Grupo_22" data-name="&lt;Grupo&gt;"><rect id="_Retângulo_59" data-name="&lt;Retângulo&gt;" class="cls-11" x="651.83" y="327.83" width="119.07" height="21.77"/><rect id="_Retângulo_60" data-name="&lt;Retângulo&gt;" class="cls-4" x="651.83" y="329.87" width="72.93" height="17.68"/><rect id="_Retângulo_61" data-name="&lt;Retângulo&gt;" class="cls-12" x="728.09" y="327.83" width="42.81" height="21.77"/><rect id="_Retângulo_62" data-name="&lt;Retângulo&gt;" class="cls-11" x="735.5" y="333.85" width="29.67" height="9.65" rx="4.82" ry="4.82"/><rect id="_Retângulo_63" data-name="&lt;Retângulo&gt;" class="cls-6" x="651.83" y="333.85" width="68.02" height="2.69"/><rect id="_Retângulo_64" data-name="&lt;Retângulo&gt;" class="cls-6" x="651.83" y="340.8" width="68.02" height="2.69"/></g><g id="_Grupo_23" data-name="&lt;Grupo&gt;"><rect id="_Retângulo_65" data-name="&lt;Retângulo&gt;" class="cls-13" x="657.57" y="306.06" width="119.07" height="21.77"/><rect id="_Retângulo_66" data-name="&lt;Retângulo&gt;" class="cls-14" x="657.57" y="308.11" width="72.93" height="17.68"/><rect id="_Retângulo_67" data-name="&lt;Retângulo&gt;" class="cls-15" x="733.84" y="306.06" width="42.81" height="21.77"/><rect id="_Retângulo_68" data-name="&lt;Retângulo&gt;" class="cls-13" x="741.25" y="312.08" width="29.67" height="9.65" rx="4.82" ry="4.82"/><rect id="_Retângulo_69" data-name="&lt;Retângulo&gt;" class="cls-16" x="657.57" y="312.08" width="68.02" height="2.69"/><rect id="_Retângulo_70" data-name="&lt;Retângulo&gt;" class="cls-16" x="657.57" y="319.03" width="68.02" height="2.69"/></g></g><g id="_Grupo_24" data-name="&lt;Grupo&gt;"><path id="_Caminho_composto_2" data-name="&lt;Caminho composto&gt;" class="cls-76" d="M852.92,466.17H826.2A15.25,15.25,0,0,0,811,481.42V499a15.25,15.25,0,0,0,15.25,15.25h26.72A15.25,15.25,0,0,0,868.17,499V481.42A15.25,15.25,0,0,0,852.92,466.17Zm4.89,33.44a6,6,0,0,1-6,5.95H827.28a6,6,0,0,1-6-5.95V480.84a6,6,0,0,1,6-5.95h24.57a6,6,0,0,1,6,5.95Z" transform="translate(-220.13 -156.07)"/><rect id="_Retângulo_71" data-name="&lt;Retângulo&gt;" class="cls-76" x="564.64" y="297.27" width="57.22" height="73.77"/><rect id="_Retângulo_72" data-name="&lt;Retângulo&gt;" class="cls-77" x="606.97" y="297.27" width="14.9" height="73.77"/><rect id="_Retângulo_73" data-name="&lt;Retângulo&gt;" class="cls-78" x="564.64" y="297.27" width="14.27" height="73.77"/></g><g id="_Grupo_25" data-name="&lt;Grupo&gt;"><g id="_Grupo_26" data-name="&lt;Grupo&gt;"><rect id="_Retângulo_74" data-name="&lt;Retângulo&gt;" class="cls-79" x="379.87" y="317.2" width="13.74" height="165.95" transform="translate(-334.88 2.83) rotate(-20.29)"/><rect id="_Retângulo_75" data-name="&lt;Retângulo&gt;" class="cls-79" x="409.07" y="180.41" width="13.74" height="165.95" transform="translate(82.34 -371.75) rotate(44.33)"/><g id="_Grupo_27" data-name="&lt;Grupo&gt;"><circle id="_Caminho_97" data-name="&lt;Caminho&gt;" class="cls-80" cx="417.82" cy="485.16" r="19.84" transform="translate(-440.81 281.47) rotate(-45)"/><circle id="_Caminho_98" data-name="&lt;Caminho&gt;" class="cls-81" cx="417.82" cy="485.16" r="7.58" transform="translate(-440.81 281.47) rotate(-45)"/></g><g id="_Grupo_28" data-name="&lt;Grupo&gt;"><circle id="_Caminho_99" data-name="&lt;Caminho&gt;" class="cls-80" cx="359.74" cy="319.96" r="19.84" transform="translate(-253.89 441.27) rotate(-76.83)"/><circle id="_Caminho_100" data-name="&lt;Caminho&gt;" class="cls-81" cx="359.74" cy="319.96" r="7.58" transform="translate(-254.23 440.79) rotate(-76.76)"/></g><g id="_Grupo_29" data-name="&lt;Grupo&gt;"><circle id="_Caminho_101" data-name="&lt;Caminho&gt;" class="cls-80" cx="473.34" cy="205.32" r="19.84" transform="translate(-54.54 463.36) rotate(-76.83)"/><circle id="_Caminho_102" data-name="&lt;Caminho&gt;" class="cls-81" cx="253.21" cy="49.24" r="7.58"/></g><path id="_Caminho_103" data-name="&lt;Caminho&gt;" class="cls-79" d="M468.14,527.25H363.73a18.48,18.48,0,0,1,18.48-18.48h67.45a18.48,18.48,0,0,1,18.48,18.48Z" transform="translate(-220.13 -156.07)"/><rect id="_Retângulo_76" data-name="&lt;Retângulo&gt;" class="cls-82" x="167.03" y="330.16" width="61.33" height="22.53"/><g id="_Grupo_30" data-name="&lt;Grupo&gt;"><path id="_Caminho_104" data-name="&lt;Caminho&gt;" class="cls-83" d="M573.53,207.19l-80.1,55.41a48.7,48.7,0,0,1,80.1-55.41Z" transform="translate(-220.13 -156.07)"/><path id="_Caminho_105" data-name="&lt;Caminho&gt;" class="cls-79" d="M573.53,207.19l-67.21,46.5c-12.56-18.16-4.8-45.24,17.33-60.55a57.76,57.76,0,0,1,13.14-6.82A48.56,48.56,0,0,1,573.53,207.19Z" transform="translate(-220.13 -156.07)"/><rect id="_Retângulo_77" data-name="&lt;Retângulo&gt;" class="cls-79" x="481.24" y="159.05" width="19.23" height="28.04" transform="translate(-231.42 153.9) rotate(-34.67)"/><path id="_Retângulo_78" data-name="&lt;Retângulo&gt;" class="cls-84" d="M492.68,177.93h19a11.79,11.79,0,0,1,11.79,11.79v11.64a0,0,0,0,1,0,0H480.89a0,0,0,0,1,0,0V189.72A11.79,11.79,0,0,1,492.68,177.93Z" transform="translate(-238.84 163.28) rotate(-34.67)"/><path id="_Caminho_106" data-name="&lt;Caminho&gt;" class="cls-81" d="M548.79,194.6c5.51,3.26,8,9.31,5.47,13.52s-9,5-14.48,1.71-8-9.31-5.47-13.52S543.28,191.34,548.79,194.6Z" transform="translate(-220.13 -156.07)"/></g></g></g></g></svg>