<svg xmlns="http://www.w3.org/2000/svg" viewBox="0 0 384.93 329.28"><defs><style>.cls-1{fill:#ffe5d2;}.cls-2{fill:#3a6642;}.cls-10,.cls-11,.cls-12,.cls-13,.cls-14,.cls-15,.cls-16,.cls-17,.cls-18,.cls-19,.cls-2,.cls-22,.cls-23,.cls-24,.cls-25,.cls-26,.cls-27,.cls-28,.cls-29,.cls-3,.cls-30,.cls-31,.cls-32,.cls-33,.cls-34,.cls-35,.cls-36,.cls-37,.cls-39,.cls-4,.cls-40,.cls-5,.cls-6,.cls-7,.cls-8,.cls-9{fill-rule:evenodd;}.cls-3{fill:#392111;}.cls-4{fill:#ba703a;}.cls-5{fill:#dac8b4;}.cls-6{fill:#de811e;}.cls-7{fill:#581f10;}.cls-8{fill:#321e0f;}.cls-9{fill:#402a15;}.cls-10{fill:#e9b78c;}.cls-11{fill:#e6aa7d;}.cls-12{fill:#63ae8e;}.cls-13{fill:#e4a575;}.cls-14{fill:#441408;}.cls-15{fill:#e09764;}.cls-16{fill:#db8f5b;}.cls-17{fill:#e6aa7b;}.cls-18{fill:#751910;}.cls-19,.cls-21{fill:#fff;}.cls-20{fill:#40719f;}.cls-22{fill:#8c4820;}.cls-23{fill:#86411d;}.cls-24{fill:#693c1e;}.cls-25{fill:#2c170a;}.cls-26{fill:#b2622d;}.cls-27{fill:#569775;}.cls-28{fill:#6d2d18;}.cls-29{fill:#4f1b0d;}.cls-30{fill:#523d23;}.cls-31{fill:#7b6253;}.cls-32{fill:#4b3b2a;}.cls-33{fill:#372a1c;}.cls-34{fill:#241107;}.cls-35{fill:#de9863;}.cls-36{fill:#d6781c;}.cls-37{fill:#e29b66;}.cls-38{fill:#de822a;}.cls-39{fill:#6a5241;}.cls-40{fill:#311f11;}</style></defs><title>students</title><g id="bg_persons" data-name="bg persons"><circle class="cls-1" cx="230.93" cy="175.28" r="154"/></g><g id="person"><path class="cls-2" d="M656,467.77c1.71,1.72,16.41,15.88,23,14s3.24-9-4.23-16.79-15.41-9.77-17.3-9.43C647.3,457.35,651.19,462.91,656,467.77Z" transform="translate(-338.07 -251.72)"/><path class="cls-3" d="M681.43,422.64c-1.64-1.77-21.14-14.31-21.14-14.31a33.92,33.92,0,0,0,3.43-1.3c-8,1.55-28.38,8.1-27.6,18.21.12,1.53,17.82,33,23.09,33.73s27.41-9.84,28.76-11.77S681.43,422.64,681.43,422.64Z" transform="translate(-338.07 -251.72)"/><path class="cls-4" d="M655.74,414.58c4.94-17.53,35.84,5.65,36.33,5.23.71-.59-.88-2-2-2.88-11.9-9.38-22.1-15.83-36.69-9.7-8.82,3.71-13.87,7.7-13.64,9.53s.38,3.59,1,3.53S655.74,414.58,655.74,414.58Z" transform="translate(-338.07 -251.72)"/><path class="cls-5" d="M680,476.67c-1.8-6.16-11.52-14.26-15.51-16.82a72.63,72.63,0,0,0-7.86-4.17l.81-.12c1.89-.34,9.83,1.69,17.3,9.43,6.95,7.21,10.3,13.94,5.44,16.33A7.48,7.48,0,0,0,680,476.67Z" transform="translate(-338.07 -251.72)"/><path class="cls-6" d="M663,463a.87.87,0,0,0,.18-1.21.85.85,0,0,0-1.2-.17,25.38,25.38,0,0,0-2.17,3,14.28,14.28,0,0,0-1.26,2.39,12.75,12.75,0,0,0-.81,3.31.87.87,0,0,0,.82.9.85.85,0,0,0,.89-.82,11.07,11.07,0,0,1,.71-2.79,12.54,12.54,0,0,1,1.1-2.08C662.12,464.24,663,463.07,663,463Z" transform="translate(-338.07 -251.72)"/><path class="cls-6" d="M660.5,472.42a.86.86,0,1,0,1.66.44,16.69,16.69,0,0,1,1.69-4.15,24.83,24.83,0,0,1,2.68-3.68.86.86,0,1,0-1.3-1.12,26.18,26.18,0,0,0-2.86,3.94A18.18,18.18,0,0,0,660.5,472.42Z" transform="translate(-338.07 -251.72)"/><path class="cls-6" d="M663.65,474.52a.86.86,0,1,0,1.71.15,14,14,0,0,1,1.58-3.56,12.75,12.75,0,0,1,2.17-3.08.85.85,0,0,0,.21-1.19.84.84,0,0,0-1.19-.21,13.42,13.42,0,0,0-2.68,3.63A14.76,14.76,0,0,0,663.65,474.52Z" transform="translate(-338.07 -251.72)"/><path class="cls-7" d="M625.49,345c-15.68-16.91-23.08-49.31-2.59-67.14,13.18-11.46,21.79-12.56,30.44-4.82,48,5.86,27.27,48.42,42.11,60.71,4,3.34-14.56,14-20.56,16.4s-14.2,1.76-24.93-1.89S632.56,343,625.49,345Z" transform="translate(-338.07 -251.72)"/><path class="cls-8" d="M616.92,493.55c.33-1.83,1-5.47,10.83-17.32S655,456,655,456l4.07,4.54s-25.48,46.65-30,48.52S616.92,493.55,616.92,493.55Z" transform="translate(-338.07 -251.72)"/><path class="cls-2" d="M693.83,462.37c1.71,1.73,16.41,15.88,22.95,14s3.24-9.05-4.22-16.79-15.41-9.77-17.3-9.43C685.13,452,689,457.52,693.83,462.37Z" transform="translate(-338.07 -251.72)"/><path class="cls-5" d="M717.81,471.28c-1.79-6.17-11.51-14.27-15.5-16.82a71.8,71.8,0,0,0-7.86-4.17l.81-.12c1.89-.34,9.83,1.69,17.3,9.43,7,7.21,10.3,13.93,5.44,16.33A7.5,7.5,0,0,0,717.81,471.28Z" transform="translate(-338.07 -251.72)"/><path class="cls-6" d="M700.85,457.64a.86.86,0,0,0,.18-1.2.87.87,0,0,0-1.21-.18,29.39,29.39,0,0,0-2.17,3,15,15,0,0,0-1.25,2.39,12.77,12.77,0,0,0-.81,3.32.86.86,0,0,0,1.71.08,10.55,10.55,0,0,1,.71-2.8,12.18,12.18,0,0,1,1.1-2.08C699.94,458.85,700.8,457.68,700.85,457.64Z" transform="translate(-338.07 -251.72)"/><path class="cls-6" d="M698.33,467a.85.85,0,1,0,1.65.44,16.94,16.94,0,0,1,1.7-4.16,24,24,0,0,1,2.67-3.68.86.86,0,0,0-.09-1.21.87.87,0,0,0-1.21.1,25.42,25.42,0,0,0-2.85,3.94A18,18,0,0,0,698.33,467Z" transform="translate(-338.07 -251.72)"/><path class="cls-6" d="M701.48,469.13a.86.86,0,1,0,1.71.15,13.68,13.68,0,0,1,1.58-3.56,12.27,12.27,0,0,1,2.17-3.08.87.87,0,0,0,.21-1.2.86.86,0,0,0-1.2-.21,13.52,13.52,0,0,0-2.67,3.64A14.37,14.37,0,0,0,701.48,469.13Z" transform="translate(-338.07 -251.72)"/><path class="cls-9" d="M651.72,492.79c.33-1.83,2.9-7.85,12.75-19.7s26.15-20.74,26.15-20.74c3.57-.63,6.1,6.42,3.21,10-7.66,9.55-24.26,42-28,43.55C661.31,507.8,651.72,492.79,651.72,492.79Z" transform="translate(-338.07 -251.72)"/><path class="cls-9" d="M604.81,424a90.67,90.67,0,0,0-.66,22.33c1.23,11.51,7.16,48.24,18,60.07s9-6.17,9.52-24.43-5.79-48.47-5.79-48.47Z" transform="translate(-338.07 -251.72)"/><path class="cls-9" d="M620.7,423.6c.26,5.15,11.83,50.66,25.45,68.66s22.63,20.82,22.12,0-16.73-65.14-16.73-65.14Z" transform="translate(-338.07 -251.72)"/><path class="cls-10" d="M668.78,365.22,679,385.39l18.77-26.88a6.24,6.24,0,0,1,0-.88c-.51-3-1.11-8.08-1-8.59.08-.71,2.27-8.61,2.94-7.52,1.41,2.31-.06,5.15.22,8.42.49-1.24,1-2.32,1.29-3,1.22-2.49,5.8-12.87,7.21-12s-3.52,12.63-3.17,12.74,10-14.08,12-12.83-9,14.68-8.47,15,9.71-11.12,11.25-9.61-8.81,12.25-7.84,12.23,9.36-7.85,10.51-6.2-9.21,9.36-9.21,9.36-3.69,4.53-6.51,6.3-2.69,1.38-2.69,1.37S684.92,399.38,680,401s-21.75-21.28-21.75-21.28l10.55-14.52Zm35.54-1.94Z" transform="translate(-338.07 -251.72)"/><path class="cls-10" d="M601.44,350.28l-20.19,10.21.74-33.26-8.08.49s-5.67,40.59-2.66,44.83,30.12-4.32,30.12-4.32Z" transform="translate(-338.07 -251.72)"/><path class="cls-11" d="M577.11,327.53l-3.2.19s-5.67,40.59-2.66,44.83,30.12-4.32,30.12-4.32l0-3.45c-3.64,1.6-7.21,2.9-8.31,2.47-2.47-.94-5.7-7.7-5.7-7.7s1.58,7.59-1.48,9.59-10.58,1.88-11.4.23,4.12-40.2,3-41.2A2.29,2.29,0,0,1,577.11,327.53Z" transform="translate(-338.07 -251.72)"/><path class="cls-12" d="M675.81,377.32l-11.13,12.23L652,375.89c-.17-.18-17.33,13.41-11.49,36.42,1.11,4.38,7.68,8.08,10.54,13.46,6.06,11.43-39.85,19.74-46.91,20.56-1.42-2.58-2.93-16.39.83-23.9,9.91-19.8-2.86-41.89-1.8-51.39,0,0-13.55,2.91-13.31,1.25s-3.73-15-2.3-15c1,0,20.73-12.26,24.81-12.5,4.39-.25,9.34-.49,13.11.19,8.92,1.62,15.22,4.06,23.18,4.47,2.76.71,8,2.16,11.26,5C666.79,360.41,672,370.56,675.81,377.32Z" transform="translate(-338.07 -251.72)"/><path class="cls-13" d="M625.49,345c.79.14,2.33.16,3.09.3,4.77.88,8.31,2,14.28,2.93,1.95.3,3.83,1.1,5.81,1.24a5.54,5.54,0,0,1,.18,1.4c0,4.76-6,8.62-13.49,8.62s-13.48-3.86-13.48-8.62C621.88,348.58,623.25,346.52,625.49,345Z" transform="translate(-338.07 -251.72)"/><path class="cls-13" d="M645.64,336.53c-.59,1.91-3.32,16-3.32,16s-6.9,3.09-10.94.6S627,349,627,349l5.94-13.9Z" transform="translate(-338.07 -251.72)"/><path class="cls-10" d="M651.09,277.07c-16.1-3.47-28.59,9.63-32.56,28s2.11,35.12,18.21,38.58,29.23-9.11,33.2-27.5S667.18,280.54,651.09,277.07Z" transform="translate(-338.07 -251.72)"/><path class="cls-14" d="M655.18,308.26c-1.49,0-3,2-3.41,4.49s.5,4.5,2,4.5,3-2,3.41-4.5S656.68,308.26,655.18,308.26Z" transform="translate(-338.07 -251.72)"/><path class="cls-14" d="M630.23,300.56c-1.5,0-3,2-3.41,4.49s.5,4.5,2,4.5,3-2,3.41-4.5S631.72,300.56,630.23,300.56Z" transform="translate(-338.07 -251.72)"/><path class="cls-15" d="M643,311.26c0,.72-7.34,5.34-7.34,5.34-1.33,2.17,5.46,6.51,7.16,4.45a7,7,0,0,1-5.76-4.11C638.51,316.05,643.15,313.17,643,311.26Z" transform="translate(-338.07 -251.72)"/><path class="cls-10" d="M671.51,312.82c-3,0-6,3.2-6.64,7.15s1.2,7.16,4.19,7.16,6-3.2,6.63-7.16S674.5,312.82,671.51,312.82Z" transform="translate(-338.07 -251.72)"/><path class="cls-10" d="M617.1,298.64c-3,0-5.6,3.2-5.83,7.16s2,7.15,5,7.15,5.6-3.2,5.83-7.15S620.09,298.64,617.1,298.64Z" transform="translate(-338.07 -251.72)"/><path class="cls-7" d="M651.66,305.63c4.19-1.77,10.24-.43,11,4.76.38,2.59,1.35,1.36,1.27-.28-.26-6-9.18-9.32-12.58-6.58C650.61,304.14,651.22,305.63,651.66,305.63Z" transform="translate(-338.07 -251.72)"/><path class="cls-16" d="M670.94,315.28c4,0,3.87,7.21-.55,9.13-2.36,1-2.71-1.06-2.28-1.73s1.53-.36,2.28-1.81-.45-1.06-.63-2.67A4,4,0,0,1,670.94,315.28Z" transform="translate(-338.07 -251.72)"/><path class="cls-16" d="M618.38,301c-3.37-2.13-7.12,4-4.41,8,1.44,2.12,2.86.55,2.85-.25s-1.11-1.12-1-2.74.95-.66,2-1.93A3.92,3.92,0,0,0,618.38,301Z" transform="translate(-338.07 -251.72)"/><path class="cls-17" d="M644.6,341.12c9.27-.66,17.09-6.57,22.1-15.51l.13.12c-4.72,10.48-12.93,17.61-22.85,18.44a24.6,24.6,0,0,1-7.24-.5,24.06,24.06,0,0,1-6.46-2.36c-9.34-5.06-13.62-16-12.83-28.53l.23-.07c0,11.54,4.61,21.31,13.78,25.84a25.18,25.18,0,0,0,6,2.06A26,26,0,0,0,644.6,341.12Z" transform="translate(-338.07 -251.72)"/><path class="cls-18" d="M630.57,322.19a10.56,10.56,0,0,0-.67,1.53,9.79,9.79,0,0,0,5.93,12.58A9.93,9.93,0,0,0,648.31,330a10.73,10.73,0,0,0,.42-1.62Z" transform="translate(-338.07 -251.72)"/><path class="cls-19" d="M647,327.78l-.59,1.63a1.27,1.27,0,0,1-1.62.77L632,325.6a1.28,1.28,0,0,1-.77-1.62l.5-1.38Z" transform="translate(-338.07 -251.72)"/><path class="cls-12" d="M637.72,362.26a14.65,14.65,0,0,0-10.57,4.51,14.64,14.64,0,0,0-10.84-4.8,15,15,0,0,0,0,30,14.63,14.63,0,0,0,10.57-4.51,14.66,14.66,0,0,0,10.84,4.8,15,15,0,0,0,0-30Z" transform="translate(-338.07 -251.72)"/><path class="cls-7" d="M646.44,275.58c.89,14.32,12.49,32.47,28,35.55,12.2,2.43-6-25.9-8.93-28.61C658.2,275.67,646.44,275.58,646.44,275.58Z" transform="translate(-338.07 -251.72)"/><path class="cls-7" d="M653.06,277.23c-2.81,3.16-3.63,8.1-16.33,11.16s-19.05,8.34-19.05,8.34.57-10.59,11.76-17.63S653.06,277.23,653.06,277.23Z" transform="translate(-338.07 -251.72)"/><path class="cls-7" d="M626.73,288.35c-.69.7-5.11,5.92-6.65,11.13s-2.39,13.17-2.49,12.63-1.29-10.24.45-15a64.32,64.32,0,0,1,2.83-6.86Z" transform="translate(-338.07 -251.72)"/><path class="cls-7" d="M668.35,299.11c.23,1,1.23,7.73-.21,13s-4.92,12.45-4.55,12,6.5-8,7.54-13a62.81,62.81,0,0,0,1.21-7.32Z" transform="translate(-338.07 -251.72)"/><path class="cls-7" d="M637.68,301.36c-2.07-4-7.58-6.89-11.5-3.4-1.95,1.74-1.9.18-.79-1,4.05-4.44,13-1.27,13.86,3C639.44,300.9,638,301.65,637.68,301.36Z" transform="translate(-338.07 -251.72)"/><path class="cls-10" d="M574.42,328.57c1,.19,5.36,1.46,7.8.28s5.22-10,5.92-13,4-15.14,2.18-15.29-5.85,13.49-6.24,13.37,1.2-18.88-1.5-19.07-2.51,18.76-3.18,18.73-.65-16.05-3.08-15.69-.93,16.5-1.77,15.87-2.66-12.92-4.84-12.19,1.47,14.18,1.47,14.18,0,6.38,1.25,9.74S574.42,328.57,574.42,328.57Z" transform="translate(-338.07 -251.72)"/><path class="cls-10" d="M573.65,315.39s-1,1.74.53,6.15a29.64,29.64,0,0,0,2.29,4.95,27.46,27.46,0,0,0,1.82,2.79,33.13,33.13,0,0,1-3.87-.71s-.34.14-.93-.76a10.75,10.75,0,0,1-1.06-2.29c-1.22-3.36-1.25-9.74-1.25-9.74s-3.65-13.44-1.47-14.18a.46.46,0,0,1,.23,0,28.31,28.31,0,0,0,.79,7.74A22.59,22.59,0,0,0,573.65,315.39Z" transform="translate(-338.07 -251.72)"/><rect class="cls-20" x="549.07" y="273.19" width="65.81" height="45.86" transform="translate(-377.4 -156.51) rotate(-9.05)"/><rect class="cls-21" x="601.94" y="277.9" width="4.3" height="27.88" transform="translate(-372.39 -166.12) rotate(-7.88)"/><path class="cls-10" d="M580.6,329.29c.42-.41,1.36,0,2.36-1a86.35,86.35,0,0,0,6.65-8.39c.44-.62,4.1-9.11,2.74-8.55-3.6,1.45-3.81,6.5-8.51,9.23C578.59,323.63,576.92,328.33,580.6,329.29Z" transform="translate(-338.07 -251.72)"/><path class="cls-11" d="M576.47,326.49a29.64,29.64,0,0,1-2.29-4.95c-.11-.32-.21-.62-.3-.91l-2.38.38a21.11,21.11,0,0,0,.93,4.51,8.2,8.2,0,0,0,1.37,2.69c.28.32,3.83,1.35,3.87,1C577.76,328.34,576.47,326.49,576.47,326.49Z" transform="translate(-338.07 -251.72)"/><path class="cls-22" d="M660.29,408.45c1.63-.22,3-4.2,16.47,2.54s27.12,21.06,26,23.58c0,0-8.39,10.86-16.25,13.27-3.86,1.19-25.61-23.82-28.08-29.9S660.29,408.45,660.29,408.45Z" transform="translate(-338.07 -251.72)"/><path class="cls-23" d="M660.29,408.45c1.63-.22,3-4.2,16.47,2.54s27.12,21.06,26,23.58a62.12,62.12,0,0,1-6,6.52,33.2,33.2,0,0,1,1.05-5.88c1.41-5-15.31-20.9-25.05-22.33-8.75-1.29-12.3,4-13.71,6.29a11.52,11.52,0,0,1-.61-1.23C656,411.86,660.29,408.45,660.29,408.45Z" transform="translate(-338.07 -251.72)"/><path class="cls-24" d="M611,345.1s3.47,30.45,14.75,49.5c7.51,12.68,32.35,14.7,42.35,27.46,0,0,7.85-4.16,6.63-5.6-17-20.21-49.1-8.94-55-61.83a32.69,32.69,0,0,1,.08-10.09A8.91,8.91,0,0,0,611,345.1Z" transform="translate(-338.07 -251.72)"/><path class="cls-25" d="M651.51,416.23c2.63,9.12,12.81,22.93,17.17,32a60.17,60.17,0,0,1,3,7.31c-2.25.92-4.46,1.74-6.42,2.35a26,26,0,0,0-4.33-1.78c-4.5-15.54-9.41-29-9.41-29a4.77,4.77,0,0,0-.48-1.35c-1.43-2.68-3.78-4.95-5.91-7.09Z" transform="translate(-338.07 -251.72)"/><path class="cls-26" d="M651.51,416.23l-6.36,2.45a38.83,38.83,0,0,1-2.89-3.14,13.5,13.5,0,0,1-.93-1.34,33.52,33.52,0,0,1,7.28-4.76l2.42,1.08c0,.14,0,.27,0,.4a11.78,11.78,0,0,0,.18,3.89C651.25,415.27,651.37,415.74,651.51,416.23Z" transform="translate(-338.07 -251.72)"/><path class="cls-27" d="M648.85,432.52a29.48,29.48,0,0,1-6.71,4,101.58,101.58,0,0,1-14.77,5l-2.3.61a191.94,191.94,0,0,1-20.92,4.2,12.15,12.15,0,0,1-.93-3.35c-.91-5.25-1.14-14.76,1.76-20.55,5.85-11.7,3.79-24.19,1.35-34.42,2.63,2.45,8.06,3.94,10,3.94,1.23,0-.52,16.58-.53,31.05,0,8.1-8.53,19.44-5.31,20.09C619.33,444.87,644,432.86,648.85,432.52Z" transform="translate(-338.07 -251.72)"/><path class="cls-27" d="M605.42,382.72c2.24,5.87,10.89,9.23,10.89,9.23a14.58,14.58,0,0,1-10-3.94A15,15,0,0,1,601.54,377a15.22,15.22,0,0,1,1.15-5.82,15,15,0,0,1,5.86-6.93c-1.24,2.12-2.69,4.57-3.48,6C603.42,373.13,603.19,376.84,605.42,382.72Z" transform="translate(-338.07 -251.72)"/><path class="cls-27" d="M602.69,371.14c-2.41.5-13,2.62-12.82,1.15a4.15,4.15,0,0,0,0-.86c-.3-2.14-1.61-7.15-2.23-10.59-.11-.79-.21-1.29-.21-1.29s3.23,6.76,5.7,7.7c1.1.43,4.67-.87,8.31-2.47,4.46-1.95,9-4.35,9.32-4.58s-.82,1.7-2.16,4A15,15,0,0,0,602.69,371.14Z" transform="translate(-338.07 -251.72)"/><path class="cls-11" d="M704.32,363.28S684.92,399.38,680,401c-2.8.94-9.41-6-14.61-12.23l7-7.71a60,60,0,0,0-2.12,6.35c0,.7,5.64,8.4,8.93,8.64s21.52-31.16,21.81-31.72-1.06-4-1.23-4.29,2.52,1.47,4.05,1.85,5.5-4,6.41-5.14.68-3.62.68-3.62l1.76,1.39,10.05-8.29c1.16,1.65-9.21,9.36-9.21,9.36s-3.69,4.53-6.51,6.3S704.32,363.29,704.32,363.28Z" transform="translate(-338.07 -251.72)"/><path class="cls-27" d="M647.18,384.38a17.85,17.85,0,0,0,2.5-6.48,65,65,0,0,0,1.18-7.53c.34-3.27.42-5.75.42-5.75s4.62,7.27,8.6,12.85c2.13,3,4.07,5.48,5,6.14,2.76,1.88,7.82-3.47,7.82-3.47l-.35.94-7,7.71-.69.76-12.21-13.16c0,.28,0,.57,0,.86a15,15,0,0,1-11.39,14.59,34.2,34.2,0,0,0-1.09,4.05,40.79,40.79,0,0,1-4.87-3.88c-6-5.55-10.95-13.73-13.78-27.19,1.18,3,2.65,6.52,4.22,9.56a97.12,97.12,0,0,0,10.81,15.93c.34.26,3.15-.27,6.08-1.93A15.47,15.47,0,0,0,647.18,384.38Z" transform="translate(-338.07 -251.72)"/><path class="cls-27" d="M617.69,375.81a104.29,104.29,0,0,0,5.67,14.34c.76,1.53,1.56,3,2.4,4.45,2.75,4.64,7.82,7.85,13.63,10.68a39.42,39.42,0,0,0,1.13,7,7,7,0,0,0,.81,1.89,13.5,13.5,0,0,0,.93,1.34,38.83,38.83,0,0,0,2.89,3.14c2.13,2.14,4.48,4.41,5.91,7.09a4.77,4.77,0,0,1,.48,1.35,4.48,4.48,0,0,1-.85,3.42l-3.56-3.92c-1.91-2.11-4-4.41-5.84-6.51L640,418.65c-.22-.25-.42-.49-.61-.73-4.76-6-2.22-10.33-2.22-10.33s-7.76-4.35-11.35-9.58a39.25,39.25,0,0,1-3.33-7.43C620.81,386,619,380.34,617.69,375.81Z" transform="translate(-338.07 -251.72)"/><path class="cls-28" d="M652,280.46c2.71,11.41,8.43,21.33,17.64,28.69C659,304.2,652,292.1,652,280.46Z" transform="translate(-338.07 -251.72)"/><path class="cls-29" d="M658,278.69c1.12,11.67,9,21.16,18.69,27.28C666.16,302.34,655.86,290.49,658,278.69Z" transform="translate(-338.07 -251.72)"/><path class="cls-29" d="M664.12,282.46c2.84,2.93,18.55,18.24,16.46,22.22a.74.74,0,0,1-.18-.38v.06C674.67,295.77,669.68,291.27,664.12,282.46Z" transform="translate(-338.07 -251.72)"/><path class="cls-29" d="M678.47,309.38c1.63,5.17,6.65,19.71,10.11,24.46C682.13,331.34,678.85,314.6,678.47,309.38Z" transform="translate(-338.07 -251.72)"/><path class="cls-28" d="M674.94,328.66c2.64,4.08,5.34,7.63,8.35,11.53C680.06,338.41,672.84,330.82,674.94,328.66Z" transform="translate(-338.07 -251.72)"/><path class="cls-29" d="M666.24,332.31c2.11,3.82,5.26,9.21,9,11.4C672.8,345.45,665.82,337.9,666.24,332.31Z" transform="translate(-338.07 -251.72)"/><path class="cls-29" d="M658.83,343.12c-.6-.33-.7-1.49,5,3a34,34,0,0,0,4.84,3.12c-4.07.36-8.53-2.75-9.86-6.14l0,0Zm.07-.11a.12.12,0,0,0,.09-.13h0A.6.6,0,0,0,658.9,343Z" transform="translate(-338.07 -251.72)"/><path class="cls-28" d="M649.66,345.83c4.25,1.68,7.85,2.42,12.23,3.88C657.06,350.2,652.62,350.19,649.66,345.83Z" transform="translate(-338.07 -251.72)"/><path class="cls-28" d="M660.48,338.77c4.56,2.17,6.53,4.05,10.58,6.35C666.38,345.74,663.16,342.09,660.48,338.77Z" transform="translate(-338.07 -251.72)"/><path class="cls-28" d="M649.66,275.05c-3.09,10.21-13.81,11.36-22.51,12.29C637.49,283.64,642.45,284.13,649.66,275.05Z" transform="translate(-338.07 -251.72)"/><path class="cls-29" d="M642.37,274.46c-6.37,4-21.76,11.63-25.24,18.85a.45.45,0,0,0,0,.08c-.06,0-.17.06-.21,0C613.79,287.15,640.84,275.1,642.37,274.46Z" transform="translate(-338.07 -251.72)"/><path class="cls-28" d="M640,270.82c-10,6.62-4.91,3.47-15.24,9.44l0,0a1.42,1.42,0,0,1-.71.33C625.67,275.43,636,272.4,640,270.82Z" transform="translate(-338.07 -251.72)"/><path class="cls-29" d="M648,274c-7.87,6.42-3.62,4-12.64,7.47C643.07,275.78,638.88,278.31,648,274Z" transform="translate(-338.07 -251.72)"/><path class="cls-30" d="M450.68,375.83a31.09,31.09,0,0,0-1.34,9.74c.32,2.21,4,14.89,4,14.89a9.43,9.43,0,0,0,2.08,1.05c1.32.49,11.5-11.65,10.79-15.61S450.68,375.83,450.68,375.83Z" transform="translate(-338.07 -251.72)"/><path class="cls-31" d="M450.78,383c-1.24,1.91,1.47,13.86,2.56,17.44.17.56-16.15-29.07.16-43.15,2.85-2.46,10.91-3.67,17.26-4.22,5.95-.51,25.53-.67,26.21-.35C497.09,352.79,459.62,369.37,450.78,383Z" transform="translate(-338.07 -251.72)"/><path class="cls-32" d="M466,363.08c-5.86,3.16-9.34,7.6-11.88,16.31s2.69,5.23-.16,20.12-.79,30.41,5.86,37.06,42.29,5.7,51.16-3.8-5.74-65.44-14.91-70.57S466,363.08,466,363.08Z" transform="translate(-338.07 -251.72)"/><path class="cls-33" d="M473.06,359.43c-5.86,3.17-9.35,7.61-11.88,16.32s2.69,5.22-.16,20.11-2.38,30.89,4.28,37.54,38.34,6.24,47.21-3.26-.21-66.45-9.38-71.59S473.06,359.43,473.06,359.43Z" transform="translate(-338.07 -251.72)"/><path class="cls-13" d="M451.6,358.42c-11.47-.87-7,.74-23.79-4.3.67.51-17.71-11-30.52-35.37l-6.46,5.62c11.49,21.44,23,34.81,38.69,43.83,4.89,2.81,9.64,2.89,14.67,4.74Z" transform="translate(-338.07 -251.72)"/><path class="cls-34" d="M519.22,533c-.87,1-4.91,4.76-4.91,4.76L510,543s4.59,8.87,7.76,13.15,14.49,8.32,15.92,4-7.29-10-8.55-14.1a24.35,24.35,0,0,1-1-7.84Z" transform="translate(-338.07 -251.72)"/><path class="cls-34" d="M436.31,538.87s-6.5,8.08-6.81,10.3-3.41,20.75-9.27,23-7.36-4.91-6.1-14.73,6-15.68,7.61-16.48,12.83-7.28,12.83-7.28Z" transform="translate(-338.07 -251.72)"/><path class="cls-9" d="M477.18,439.06c-3.12,7.9-17,60.05-17,60.05l-34.05,38.53s2.38,11.71,6.21,8.36c2-1.78,37.14-29.33,45.09-36.53,4.64-4.19,19.79-38,20.79-38.11,2.16-.24,35.47,21,35.47,21s-18.09,41.8-18.31,43.93,4.62,5.11,8.68,3.92,32.78-45.15,31.35-49-36.85-52.16-36.85-52.16Z" transform="translate(-338.07 -251.72)"/><path class="cls-13" d="M516.14,375.34c6,2.78,6.08,4.15,18.53,5.75-.61-.47,19.83,15.12,39.05,24.1l2.87-4.86c-12.34-10.05-26.89-23.1-36.73-29.21-7.05-4.39-10.9-4.34-18-7Z" transform="translate(-338.07 -251.72)"/><path class="cls-13" d="M571.52,401.33l2.2,3.86s4.61,15.7,5.33,14.75,0-9.7,0-9.7,9.13,4.92,10.87,6.59,5.94,5.58,5.58,4.27-5.51-8-5.51-8,3.77,3.22,4.2,3.73,2.87,3,3,1.41c.13-2.06-10.74-13.19-13.17-14.14-2-.8-7.41-3.73-7.41-3.73Z" transform="translate(-338.07 -251.72)"/><path class="cls-13" d="M579.05,409.18c1.81,1.74,7.07,6,7.14,6.23s3.37,8.37,3.73,7.14-1.27-7.75-1.41-8-6-5.61-6.27-5.65S579.05,409.18,579.05,409.18Z" transform="translate(-338.07 -251.72)"/><path class="cls-13" d="M583.7,405.71a3.28,3.28,0,0,0,2.19.45l10.28,8.62s.44.51-1,.43-10.77-7.64-10.77-7.64Z" transform="translate(-338.07 -251.72)"/><path class="cls-35" d="M534.67,381.09c-.61-.47,19.83,15.12,39.05,24.1l-1.79-3.14L538.56,379l1-8C539.39,372.24,536.7,377.15,534.67,381.09Z" transform="translate(-338.07 -251.72)"/><path class="cls-13" d="M571.93,402.05l1.79,3.14s4.12,14,5.18,14.76h.15l-3.69-15.76-.76-.47Z" transform="translate(-338.07 -251.72)"/><path class="cls-6" d="M432,355.37l-3.16,22.85,34,6.07s4,55.35,4.07,69.42c0,8.75,47.87,2.67,61.2-6.87l-14.42-65.46s18.68,7.75,18.45,6.07,9.06-17.08,7.63-17.08c-1,0-28.56-17.22-32.67-17.46-4.42-.26-9.4-.5-13.2.19-9,1.63-15.62,5.61-23.34,4.5C465,356.13,448.64,356.83,432,355.37Z" transform="translate(-338.07 -251.72)"/><path class="cls-36" d="M522.23,420.31l-8.57-38.93s18.68,7.75,18.45,6.07c-.22-1.52,7.49-14.46,7.77-16.73L530.4,380l-14.89-9.9-7.24-13.85-9.75-3.54c-.46,0-.92,0-1.37.06l11.77,37.62s7.19,19.45,7.2,20.41C516.13,411.2,519.07,415.69,522.23,420.31Z" transform="translate(-338.07 -251.72)"/><path class="cls-13" d="M493.87,353.1c-.8.13-2.34.15-3.11.29-4.8.9-8.36,2.05-14.38,3-1.66.25-4,1.11-5.85,1.25a6,6,0,0,0-.18,1.4c0,4.79,6.08,8.68,13.58,8.68s13.58-3.89,13.58-8.68C497.51,356.72,496.13,354.65,493.87,353.1Z" transform="translate(-338.07 -251.72)"/><path class="cls-13" d="M473.58,344.59c.6,1.91,3.35,16.15,3.35,16.15s6.94,3.11,11,.6,4.43-4.19,4.43-4.19l-6-14Z" transform="translate(-338.07 -251.72)"/><path class="cls-7" d="M450.52,329.23c-2.12-3.24-3.49-4.86-8.29-16.35S445.8,295,445.8,295A23.09,23.09,0,0,1,449,282.22c3.79-6,5.47-7.58,5.13-6.36s.11,2.79.34,1.9,7.25-7.36,7.25-7.36.72,3.23,1.11,2.84,1.23-2.06,11.38-4.9,18.51-3.24,17.84-2.74-3.79,3.35-3.13,3.13,8.81,0,12.44-.62,5.3-1.39,4.51-1-3.68,7.75-5.52,9.7a14.86,14.86,0,0,1-1.89,1.9s.78-.73,6.75,1.84,7.91,5.18,7.58,5S502,286.57,502,286.57s3.29,12.15,2.73,15.72-2.9,15-3.62,15.14Z" transform="translate(-338.07 -251.72)"/><path class="cls-10" d="M468.1,284.72c16.21-3.49,28.79,9.7,32.78,28.22s-2.13,35.35-18.33,38.84-29.44-9.18-33.43-27.7S451.9,288.21,468.1,284.72Z" transform="translate(-338.07 -251.72)"/><path class="cls-37" d="M448.07,311.51c.5-9.13,3.91-17.11,10-22.07,6.17.4,25.32,3.88,25.32,3.88s5.63,4.28,6.1,4.28-.71.71-5.38,1.26-18.06-1.1-18.54-1.26S471.4,304,471.4,304s-2,.56-8.79-1.27a23,23,0,0,1-8.6-4.85c-1,1.91-2.23,4.35-3.36,6.52A34.46,34.46,0,0,0,448.07,311.51Z" transform="translate(-338.07 -251.72)"/><path class="cls-7" d="M449.19,290.49c3,2.76,6.91,6.47,16.83,8.14s11.6.9,11.6.9-5.35-4.58-3.9-4.13,8.81,1,14.27,1.12,5.13-.23,5.13-.23-6.24-3.79-4.91-3.79,10.26-1,10.26-1-5.68-11.93-17.06-13.05S449.19,290.49,449.19,290.49Z" transform="translate(-338.07 -251.72)"/><path class="cls-14" d="M461.74,315c1.5,0,3,2,3.43,4.52s-.51,4.53-2,4.53-3-2-3.43-4.53S460.23,315,461.74,315Z" transform="translate(-338.07 -251.72)"/><path class="cls-14" d="M487.49,308.59c1.51,0,3,2,3.44,4.53s-.51,4.52-2,4.52-3-2-3.43-4.52S486,308.59,487.49,308.59Z" transform="translate(-338.07 -251.72)"/><path class="cls-15" d="M474.11,317.89c0,.89,9,6.58,9,6.58,1.63,2.66-6.71,8-8.81,5.46a8.58,8.58,0,0,0,7.08-5.05C479.64,323.78,473.94,320.24,474.11,317.89Z" transform="translate(-338.07 -251.72)"/><path class="cls-13" d="M391.61,324.37c1-.43,5.42-1.89,6.81-4.32s-1.4-11.56-2.56-14.52-5.43-15.25-7.09-14.3,2.91,14.91,2.51,15-10-16.77-12.44-15.36,8.84,17.45,8.26,17.82-10-13.29-11.81-11.56,8.87,14.59,7.78,14.55-9.83-9.45-11.26-7.55,9.55,11.22,9.55,11.22,3.76,5.41,6.77,7.56S391.61,324.37,391.61,324.37Z" transform="translate(-338.07 -251.72)"/><path class="cls-13" d="M383.24,313.6s.16,2.08,4.05,4.93a30.65,30.65,0,0,0,4.85,2.87,29,29,0,0,0,3.18,1.32,33.59,33.59,0,0,1-3.71,1.65s-.21.32-1.24-.1a11.59,11.59,0,0,1-2.24-1.33c-3-2.15-6.77-7.56-6.77-7.56s-11-9.32-9.55-11.22A.55.55,0,0,1,372,304a29.25,29.25,0,0,0,5.2,6.13A23.44,23.44,0,0,0,383.24,313.6Z" transform="translate(-338.07 -251.72)"/><rect class="cls-38" x="345.04" y="268.62" width="68.01" height="47.39" transform="translate(-435.16 89.84) rotate(-43.54)"/><rect class="cls-21" x="393.16" y="261.31" width="4.44" height="28.82" transform="translate(-420.61 86.79) rotate(-42.37)"/><path class="cls-13" d="M397.29,321.37c.12-.6,1.17-.78,1.42-2.24a89.54,89.54,0,0,0,.76-11c0-.8-1.84-10.16-2.68-8.9-2.21,3.34.56,7.77-1.83,12.85C392.27,317.73,393.6,322.71,397.29,321.37Z" transform="translate(-338.07 -251.72)"/><path class="cls-10" d="M447.19,320.3c3,0,6,3.22,6.68,7.2s-1.2,7.21-4.21,7.21-6-3.23-6.69-7.21S444.18,320.3,447.19,320.3Z" transform="translate(-338.07 -251.72)"/><path class="cls-10" d="M502.32,306.44c3,0,5.64,3.22,5.87,7.2s-2,7.21-5,7.21-5.64-3.23-5.88-7.21S499.31,306.44,502.32,306.44Z" transform="translate(-338.07 -251.72)"/><path class="cls-5" d="M416.67,568.93c-2.06-5.55.67-16.87,2.21-20.95a66.59,66.59,0,0,1,3.52-7.4l-.66.35c-1.59.8-6.34,6.66-7.61,16.48-1.18,9.14.05,16,4.95,15.05A6.87,6.87,0,0,1,416.67,568.93Z" transform="translate(-338.07 -251.72)"/><path class="cls-6" d="M421.71,549.53a.79.79,0,0,1,0-1.58,25.67,25.67,0,0,1,3.26,1,12.65,12.65,0,0,1,2.24,1.08,12.09,12.09,0,0,1,2.42,2,.8.8,0,0,1-.11,1.11.78.78,0,0,1-1.11-.11,10.36,10.36,0,0,0-2.06-1.68,12.06,12.06,0,0,0-2-.93C423,549.92,421.76,549.53,421.71,549.53Z" transform="translate(-338.07 -251.72)"/><path class="cls-6" d="M428.73,555.08a.79.79,0,0,1-1,1.24,14.86,14.86,0,0,0-3.54-2.14,22.33,22.33,0,0,0-4-1.25.79.79,0,0,1-.59-.95.78.78,0,0,1,.94-.59,23.8,23.8,0,0,1,4.28,1.34A17.09,17.09,0,0,1,428.73,555.08Z" transform="translate(-338.07 -251.72)"/><path class="cls-6" d="M427.55,558.36a.8.8,0,0,1-.06,1.12.79.79,0,0,1-1.12-.07,12.86,12.86,0,0,0-3.12-1.76,12,12,0,0,0-3.3-1.09.79.79,0,1,1,0-1.57,12.21,12.21,0,0,1,4,1.21A13.6,13.6,0,0,1,427.55,558.36Z" transform="translate(-338.07 -251.72)"/><path class="cls-6" d="M521.75,546.09a.53.53,0,1,1-.58-.88l.31-.19h0a4.63,4.63,0,0,1,2.41-.53,2.56,2.56,0,0,1,2,1l.08.14a.52.52,0,1,1-.92.5l0-.06a1.56,1.56,0,0,0-1.21-.54,3.58,3.58,0,0,0-1.84.41h0Z" transform="translate(-338.07 -251.72)"/><path class="cls-5" d="M529.93,559.44c-10.42-1.61-14.43-11.68-18.5-18.21L510,543s4.59,8.87,7.76,13.15,14.49,8.32,15.92,4a3.31,3.31,0,0,0,.16-1A8.56,8.56,0,0,1,529.93,559.44Z" transform="translate(-338.07 -251.72)"/><path class="cls-6" d="M523.61,549.42a.53.53,0,0,1-.73-.15.52.52,0,0,1,.15-.73l.31-.19h0a4.63,4.63,0,0,1,2.41-.53,2.53,2.53,0,0,1,2,1,.66.66,0,0,1,.08.13.53.53,0,1,1-.92.51l0-.06a1.53,1.53,0,0,0-1.21-.54,3.6,3.6,0,0,0-1.84.4l0,0Z" transform="translate(-338.07 -251.72)"/><path class="cls-6" d="M526,552.47a.53.53,0,1,1-.58-.88l.32-.19,0,0a4.69,4.69,0,0,1,2.4-.52,2.56,2.56,0,0,1,2,1l.08.14a.53.53,0,0,1-.93.51l0-.06a1.51,1.51,0,0,0-1.21-.54,3.61,3.61,0,0,0-1.85.4l0,0Z" transform="translate(-338.07 -251.72)"/><path class="cls-39" d="M462.3,356.71s-1.91,34.4-1.28,44.54,3.4,14.9,5,12.36,8-53.19,7.47-56.57S462.22,354.42,462.3,356.71Z" transform="translate(-338.07 -251.72)"/><path class="cls-39" d="M507.07,352.91s11.54,31.22,12.79,41.36-.62,14.9-2.67,12.37-12-46-20.22-53.9C496,350.25,505.85,348.71,507.07,352.91Z" transform="translate(-338.07 -251.72)"/><path class="cls-7" d="M467.48,311.45c-2.84.26-10.22,1.53-12.21,2.4s-2.28-2.43-.47-3,8.78-2.23,11.25-2.61S468.26,311.61,467.48,311.45Z" transform="translate(-338.07 -251.72)"/><path class="cls-7" d="M481.43,308.4c2.55-1.26,9.48-4.07,11.64-4.38s.66-3.26-1.21-2.83-8.63,2.72-10.93,3.7S480.85,309,481.43,308.4Z" transform="translate(-338.07 -251.72)"/><path class="cls-29" d="M451.32,287.82c-.85-4.95,9.42-12.93,13.7-11.33C459.89,278.86,454.44,283.08,451.32,287.82Z" transform="translate(-338.07 -251.72)"/><path class="cls-29" d="M458.53,284.65c12.92-8.79,12.53-6.75,27.63-5C475.05,282.77,476.94,277.23,458.53,284.65Z" transform="translate(-338.07 -251.72)"/><path class="cls-28" d="M469.38,273.33c14.45-4.06,21.94,7.85,28.43,1.18.54,1.17-1.94,2.28-2.62,2.53C486.67,280.16,482.62,273.32,469.38,273.33Z" transform="translate(-338.07 -251.72)"/><path class="cls-29" d="M475.47,269.84c4.49-2.24,4.91-2.72,9.82-1.58C481,269.89,480.1,270.7,475.47,269.84Z" transform="translate(-338.07 -251.72)"/><path class="cls-28" d="M456.94,289.4c3.39,2.85,10.71,5.82,15.05,6.26C472.21,298.07,457.41,295.25,456.94,289.4Z" transform="translate(-338.07 -251.72)"/><path class="cls-29" d="M463.59,286.47c4.09,2.48,16.9,4.88,21.86,4.91C481.64,294.68,463.57,290.13,463.59,286.47Z" transform="translate(-338.07 -251.72)"/><path class="cls-28" d="M468.5,284.65c20.7-4.27,23.88-1.53,33.11,15.05C487.1,284.05,493.52,284.84,468.5,284.65Z" transform="translate(-338.07 -251.72)"/><path class="cls-29" d="M489.41,281.32c5.68,1.71,13.25,1.21,17,2.38C503,286.17,489.4,284.27,489.41,281.32Z" transform="translate(-338.07 -251.72)"/><path class="cls-29" d="M484.11,270.16c5.34.72,12.84,1.9,18.13.24C499.1,276.17,487.91,272.12,484.11,270.16Z" transform="translate(-338.07 -251.72)"/><path class="cls-28" d="M449.69,296.29c-1.79,5.4-4.36,10.49-3.78,16.27l-.06,0,0,0c0,.11,0,.06,0,.14a.11.11,0,0,1-.13,0C440.93,309.19,447.86,298.81,449.69,296.29Z" transform="translate(-338.07 -251.72)"/><path class="cls-29" d="M444.59,299.5c-.65,3.09-1.65,6.08-2,9.22l-.05-.09c0,.2,0,.09,0,.33C441.21,309.12,439.74,302.16,444.59,299.5Z" transform="translate(-338.07 -251.72)"/><path class="cls-40" d="M449.93,290.67c6.3,1.09,3.55-.15,8.36,3.48C452.3,293.19,455.11,294.3,449.93,290.67Z" transform="translate(-338.07 -251.72)"/><path class="cls-35" d="M392.14,321.4a30.65,30.65,0,0,1-4.85-2.87c-.28-.2-.54-.41-.79-.6l-1.8,1.71a21,21,0,0,0,3.43,3.3,9,9,0,0,0,2.74,1.5c.6.14.74-.07.74-.07.31-.13,1-.37,1.76-.71-.22-.38-.4-.72-.56-1C392.38,321.86,392.14,321.4,392.14,321.4Z" transform="translate(-338.07 -251.72)"/><path class="cls-35" d="M393.37,323.66c-.8.34-1.45.58-1.76.71,0,0-.14.21-.74.07,11.47,21.39,23,34.75,38.65,43.76l.64.35.74-5.34s-14.23-8.63-22.78-18C401.64,338,395.81,328.07,393.37,323.66Z" transform="translate(-338.07 -251.72)"/><path class="cls-36" d="M446.25,375.5a24.18,24.18,0,0,1-4.36-3.3,67.26,67.26,0,0,1-10.4-13.27l-.59,4.28-.74,5.34-1.34,9.67,18,3.21,2.66.48,1.85.33,2.15.38,7.65,1.37c0-.26,0-.52,0-.78,0-.7.05-1.4.07-2.1.07-2.08.15-4.17.23-6.21,0-.74.06-1.48.09-2.2.11-2.42.21-4.72.31-6.79.13-2.85.26-5.25.34-6.88l-.57,7.09-.56,6.94-.41,5-.16,2s-.46,0-1.33-.18a38.67,38.67,0,0,1-4.78-1.18h0c-1.2-.37-2.57-.84-4.1-1.44-.82-.32-1.68-.67-2.59-1.07A15.07,15.07,0,0,1,446.25,375.5Z" transform="translate(-338.07 -251.72)"/><path class="cls-36" d="M464.87,414.26c.43,6.62.86,13.53,1.21,19.81.1,1.88.2,3.71.29,5.46.31,6,.5,11.09.51,14.18,0,1.69,1.79,2.83,4.78,3.49,11.55,2.58,41-1.93,53.77-8.74.61-.33,1.19-.66,1.73-1-.82,0-1.68-.1-2.59-.18a87.23,87.23,0,0,1-29.44-7.8l-.89-.42c-1-.48-2-1-2.92-1.46-18.58-9.71-21.76-20.06-22.06-22.44s3.06-42.69,3.66-49.9c.06-.71.1-1.1.1-1.1,0,.36-.08.73-.11,1.11-1.55,15.32-5.68,46.37-6.91,48.34C465.67,414.15,465.28,414.36,464.87,414.26Z" transform="translate(-338.07 -251.72)"/><path class="cls-16" d="M447.76,322.78c-4,0-3.9,7.26.55,9.19,2.38,1,2.73-1.07,2.3-1.74s-1.55-.36-2.3-1.83.46-1.06.64-2.69A4,4,0,0,0,447.76,322.78Z" transform="translate(-338.07 -251.72)"/><path class="cls-16" d="M501,308.86c3.4-2.15,7.17,4.05,4.45,8.06-1.46,2.14-2.89.55-2.88-.25s1.12-1.13,1-2.77-.95-.65-2-1.93A4,4,0,0,1,501,308.86Z" transform="translate(-338.07 -251.72)"/><path class="cls-7" d="M447.48,313s5.38,14.26,4.79,14.38S447,319,447,319Z" transform="translate(-338.07 -251.72)"/><path class="cls-7" d="M497.57,300.94s1.42,15.17,2,15,1.08-9.88,1.08-9.88Z" transform="translate(-338.07 -251.72)"/><path class="cls-3" d="M468.07,505.8c3.33-4.12,13.94-39.91,13.94-39.91s8.71-.79,27.4-7.76a82.59,82.59,0,0,0,16.85-8.52l-.83-1.15c-12.77,6.81-42.22,11.32-53.77,8.74-5.08,17.91-11.47,41.91-11.47,41.91l-34.05,38.53s.05.28.17.75a31.22,31.22,0,0,0,1.3,4.2l7.67-6.8C447.64,524.83,465.89,508.5,468.07,505.8Z" transform="translate(-338.07 -251.72)"/><path class="cls-3" d="M498.23,471.36c2.16-.24,35.47,21,35.47,21s-18.09,41.8-18.31,43.93a1.44,1.44,0,0,0,0,.46c.22,1.08,1.56,2.29,3.32,3l2-5.13,16.07-41.18,10.3-1.59-7-4.91L505.6,466Z" transform="translate(-338.07 -251.72)"/><path class="cls-17" d="M474.63,349.21c-9.32-.66-17.21-6.62-22.25-15.62l-.12.12c4.75,10.56,13,17.73,23,18.57a25,25,0,0,0,7.29-.5,24.44,24.44,0,0,0,6.51-2.38c9.4-5.09,13.7-16.07,12.9-28.72l-.22-.07c0,11.61-4.65,21.44-13.87,26a25.3,25.3,0,0,1-6.06,2.07A26,26,0,0,1,474.63,349.21Z" transform="translate(-338.07 -251.72)"/><path class="cls-18" d="M488.76,330.15a10.09,10.09,0,0,1,.67,1.54,9.86,9.86,0,0,1-6,12.67A10,10,0,0,1,470.9,338a9.53,9.53,0,0,1-.42-1.63Z" transform="translate(-338.07 -251.72)"/><path class="cls-19" d="M472.21,335.77l.59,1.65a1.28,1.28,0,0,0,1.63.77l12.85-4.61a1.28,1.28,0,0,0,.77-1.63l-.5-1.39Z" transform="translate(-338.07 -251.72)"/></g></svg>