<svg xmlns="http://www.w3.org/2000/svg" xmlns:xlink="http://www.w3.org/1999/xlink" viewBox="0 0 791.62 549.41"><defs><style>.cls-1{fill:none;}.cls-2{isolation:isolate;}.cls-3{clip-path:url(#clip-path);}.cls-4{fill:#8bc8e1;}.cls-5,.cls-6,.cls-9{fill:#fff;}.cls-5{opacity:0.2;}.cls-21,.cls-6{opacity:0.5;}.cls-19,.cls-7{fill:#e7f4f9;}.cls-20,.cls-7,.cls-8{opacity:0.3;}.cls-21,.cls-8{mix-blend-mode:multiply;}.cls-10{fill:#eee;}.cls-11{fill:#ddd;}.cls-12{fill:#ccc;}.cls-13{fill:#bbb;}.cls-14{fill:#aaa;}.cls-15{fill:#999;}.cls-16{fill:#888;}.cls-17{fill:#777;}.cls-18{fill:#666;}</style><clipPath id="clip-path" transform="translate(109.68 -40.35)"><rect class="cls-1" x="77.44" y="40.35" width="450" height="450"/></clipPath></defs><title>ceu</title><g class="cls-2"><g id="Camada_1" data-name="Camada 1"><g class="cls-3"><rect class="cls-4" x="187.13" width="450" height="450"/><path class="cls-5" d="M500.14,100.46A3.09,3.09,0,0,0,499,98.39a1.06,1.06,0,0,0-.88-.71c-1.09-1.05-3.65-1.16-5.1-.24h-.17l-.28-.67a2.8,2.8,0,0,0-.45-1.15.47.47,0,0,0-.22-.46,4.86,4.86,0,0,0-2.3-2.53c-.26-.44-.85-.32-1.15-.69h-2.3c-.46.43-1.19.41-1.6.92h0a3.82,3.82,0,0,0-1.64,1.36l1,.49L485,93.56c0-.3,0-.61-.35-.67.36.06.35.37.35.67a4.56,4.56,0,0,1,2.3.7c.41-.36.51-.45.76-.29-.25-.16-.35-.07-.76.29l1.34,1.15h.5a1.54,1.54,0,0,0,.3,0,1.54,1.54,0,0,1-.3,0h-.5c.4.69.79,1.39,1.18,2.08h0v.12c.46,2.08.46,2.08,2.36,1.11,1.46-.75,3.81.15,4.83,1.82a12,12,0,0,1,.85,2.22,2.11,2.11,0,0,1,1.42,1.38,2.11,2.11,0,0,0-1.42-1.38c-.15,1.86-.41,3.65-2.51,4.39.09.14.15.31.25.44-.1-.13-.16-.3-.25-.44a4.72,4.72,0,0,0-3.06.72c-.46.29-.77.67-.58,1.23a9.36,9.36,0,0,1,.18,2.84h0c-.17.37-.35.74-.51,1.12-.69,1.52-2,1.48-3.39,1.46.15.14.42.21.57.35a.28.28,0,0,1,.09.1.28.28,0,0,0-.09-.1c-.15-.14-.42-.21-.57-.35a7.49,7.49,0,0,1-4.05-2.39,1.2,1.2,0,0,0-1.85-.22,7.45,7.45,0,0,0-1.72,1.64h0c-2.69,1.55-6.11-1.18-6.41-3.6-.11-.88-.57-1.53-1.48-1.39-2.24.35-3.7-.77-5-2.35h0c-.15-.38-.3-.77-.46-1.15h0c-.07-.31-.13-.62-.2-.92h0a4.26,4.26,0,0,1,.44-2.3h0a2.28,2.28,0,0,1,2.93-1.23c2.6.59,3.71-.26,3.77-2.91h0l.69-2.14a1.53,1.53,0,0,1,1.14-1.11h0a4,4,0,0,1,2.77,1.18l.08-.1-.08.1c.59.64,1.18,1.27,1.76,1.92a.68.68,0,0,0,.91.19c.77-.4,1.61-.72,1.92-1.65a4,4,0,0,0,.76-1.37l-1-.49c-.6.79-1.19.73-1.78,0a3.86,3.86,0,0,0-4.89-.92,4.93,4.93,0,0,0-2.54,1.58,4.85,4.85,0,0,0-1.77,2.58c-.15,1.14-.91,1.46-1.93,1.69a7.26,7.26,0,0,0-3.15,1.57l.14.36-.14-.36-.23.21a4.55,4.55,0,0,0-1.84,2.28.41.41,0,0,0,0,.19c-.15.16-.29.33-.43.5v2.53l.43.5.19.44a1.55,1.55,0,0,0,.53.88,4.46,4.46,0,0,0,3.87,2c1.29,0,2,.25,2.12,1.62,0,.09.12.19.18.28a4.1,4.1,0,0,0,2.55,2.79c2.39,1.29,4.58.63,6.68-.74.31-.1.61-.4.94-.07a11.46,11.46,0,0,0,3.43,1.91H488c.15-.23.4-.18.61-.24a8.31,8.31,0,0,0,5.14-3.89,2.92,2.92,0,0,0,.73-1.88,2.18,2.18,0,0,1,1.59-2.26,6.65,6.65,0,0,0,3.42-3c.54-.4.4-1.2.93-1.6v-2.53Zm-10-3.51a.32.32,0,0,0-.28.19.32.32,0,0,1,.28-.19.8.8,0,0,1,.29,0A.8.8,0,0,0,490.16,97Zm-11.52-1.43a.26.26,0,0,1,.34,0A.26.26,0,0,0,478.64,95.52Zm-5.22,2.36a1.32,1.32,0,0,1-.39-.06A1.32,1.32,0,0,0,473.42,97.88Zm-6.26,8.4a.22.22,0,0,0-.17.14A.22.22,0,0,1,467.16,106.28Zm.2,0-.13,0Zm13.26,7.39a.46.46,0,0,1,.22.37A.46.46,0,0,0,480.62,113.62Zm-.12-.05h0Z" transform="translate(109.68 -40.35)"/><path class="cls-5" d="M147.9,263.87a3,3,0,0,0-1.16-2.06,1.08,1.08,0,0,0-.88-.72c-1.09-1-3.64-1.15-5.1-.23a.42.42,0,0,0-.16,0h0l-.29-.68a2.8,2.8,0,0,0-.44-1.14.47.47,0,0,0-.23-.46,4.86,4.86,0,0,0-2.3-2.53c-.26-.44-.85-.32-1.15-.69h-2.3c-.46.42-1.18.4-1.6.92h0a3.75,3.75,0,0,0-1.64,1.36l1,.49c.36-.39.72-.78,1.09-1.16,0-.31,0-.61-.36-.68.36.07.36.37.36.68a4.55,4.55,0,0,1,2.29.7c.41-.36.52-.46.76-.29-.24-.17-.35-.07-.76.29l1.35,1.14h.49a2.91,2.91,0,0,0,.31,0,2.91,2.91,0,0,1-.31,0h-.49l1.17,2.09h0a.37.37,0,0,0,0,.11c.46,2.08.46,2.08,2.35,1.11,1.46-.75,3.81.16,4.84,1.82a12,12,0,0,1,.84,2.23,2.09,2.09,0,0,1,1.42,1.38,2.09,2.09,0,0,0-1.42-1.38c-.15,1.85-.41,3.64-2.51,4.38a4.79,4.79,0,0,0,.25.45,4.79,4.79,0,0,1-.25-.45,4.78,4.78,0,0,0-3.06.72c-.46.29-.77.68-.58,1.23a9.39,9.39,0,0,1,.19,2.84h0l-.52,1.12c-.69,1.52-2,1.49-3.39,1.46.15.15.42.21.58.35l.08.1-.08-.1c-.16-.14-.43-.2-.58-.35a7.35,7.35,0,0,1-4-2.38,1.2,1.2,0,0,0-1.86-.22,7.65,7.65,0,0,0-1.72,1.64h0c-2.69,1.54-6.11-1.18-6.41-3.61-.1-.88-.57-1.53-1.48-1.38-2.23.35-3.7-.77-5-2.36h0c-.16-.38-.31-.76-.46-1.15h0l-.21-.92h0a4.26,4.26,0,0,1,.44-2.3h0a2.28,2.28,0,0,1,2.93-1.22c2.6.59,3.71-.27,3.78-2.92h0c.22-.71.45-1.42.68-2.13a1.53,1.53,0,0,1,1.15-1.11h0a4,4,0,0,1,2.76,1.17l.09-.09-.09.09,1.77,1.92a.66.66,0,0,0,.9.2c.77-.41,1.61-.73,1.92-1.66a3.9,3.9,0,0,0,.76-1.36l-1-.49c-.59.78-1.19.72-1.78,0a3.86,3.86,0,0,0-4.88-.91,7.44,7.44,0,0,0-4.32,4.16c-.15,1.13-.91,1.46-1.93,1.68a7.25,7.25,0,0,0-3.14,1.58l.13.36-.13-.36-.24.21a4.57,4.57,0,0,0-1.84,2.27.65.65,0,0,0,0,.19l-.43.5v2.53l.43.5c.06.15.13.3.19.44a1.58,1.58,0,0,0,.53.89,4.47,4.47,0,0,0,3.87,2c1.29,0,2,.25,2.13,1.62,0,.1.11.19.17.29a4.1,4.1,0,0,0,2.55,2.79c2.4,1.29,4.58.63,6.69-.74.3-.11.61-.4.93-.08a11.71,11.71,0,0,0,3.43,1.92h2.76c.15-.23.4-.18.61-.24a8.37,8.37,0,0,0,5.15-3.9,2.88,2.88,0,0,0,.72-1.87,2.19,2.19,0,0,1,1.59-2.26,6.65,6.65,0,0,0,3.43-3c.54-.4.39-1.19.92-1.6V264.1Zm-10-3.51a.31.31,0,0,0-.28.2.31.31,0,0,1,.28-.2.72.72,0,0,1,.3.05A.72.72,0,0,0,137.92,260.36Zm-11.52-1.42a.26.26,0,0,1,.34,0A.26.26,0,0,0,126.4,258.94Zm-5.22,2.35a1,1,0,0,1-.38-.06A1,1,0,0,0,121.18,261.29Zm-6.26,8.4a.27.27,0,0,0-.17.14A.27.27,0,0,1,114.92,269.69Zm.2,0-.13,0ZM128.39,277a.43.43,0,0,1,.21.37A.43.43,0,0,0,128.39,277Zm-.12-.05h0Z" transform="translate(109.68 -40.35)"/><path class="cls-6" d="M132.11,287.58a1.13,1.13,0,0,0,0,2.25A1.13,1.13,0,0,0,132.11,287.58Z" transform="translate(109.68 -40.35)"/><path class="cls-6" d="M201.1,244.27a1.13,1.13,0,0,0,0,2.25A1.13,1.13,0,0,0,201.1,244.27Z" transform="translate(109.68 -40.35)"/><path class="cls-6" d="M98.17,173.21a1.13,1.13,0,0,0,0,2.25A1.13,1.13,0,0,0,98.17,173.21Z" transform="translate(109.68 -40.35)"/><path class="cls-6" d="M202,141a1.13,1.13,0,0,0,0,2.25A1.13,1.13,0,0,0,202,141Z" transform="translate(109.68 -40.35)"/><path class="cls-6" d="M501.46,249.9a1.13,1.13,0,0,0,0,2.25A1.13,1.13,0,0,0,501.46,249.9Z" transform="translate(109.68 -40.35)"/><path class="cls-6" d="M414.84,153.9a1.13,1.13,0,0,0,0,2.25A1.13,1.13,0,0,0,414.84,153.9Z" transform="translate(109.68 -40.35)"/><path class="cls-6" d="M482.34,119.4a1.13,1.13,0,0,0,0,2.25A1.13,1.13,0,0,0,482.34,119.4Z" transform="translate(109.68 -40.35)"/><path class="cls-6" d="M441.09,74.4a1.13,1.13,0,0,0,0,2.25A1.13,1.13,0,0,0,441.09,74.4Z" transform="translate(109.68 -40.35)"/><path class="cls-6" d="M342.85,253.27a1.13,1.13,0,0,0,0,2.25A1.13,1.13,0,0,0,342.85,253.27Z" transform="translate(109.68 -40.35)"/><path class="cls-6" d="M290,184.65a1.13,1.13,0,0,0,0,2.25A1.13,1.13,0,0,0,290,184.65Z" transform="translate(109.68 -40.35)"/><path class="cls-6" d="M273.47,53.77a1.13,1.13,0,0,0,0,2.25A1.13,1.13,0,0,0,273.47,53.77Z" transform="translate(109.68 -40.35)"/><path class="cls-6" d="M254,320.77a1.13,1.13,0,0,0,0,2.25A1.13,1.13,0,0,0,254,320.77Z" transform="translate(109.68 -40.35)"/><path class="cls-6" d="M337.41,100.65a1.13,1.13,0,0,0,0,2.25A1.13,1.13,0,0,0,337.41,100.65Z" transform="translate(109.68 -40.35)"/><path class="cls-6" d="M148.79,88.66a1.13,1.13,0,0,0,0,2.25A1.13,1.13,0,0,0,148.79,88.66Z" transform="translate(109.68 -40.35)"/><path class="cls-7" d="M623.23,311.17c-4.29-22.24-29.67-62.53-29.67-62.53l-12.88-.27a18.51,18.51,0,0,0-36.63-4.74,26.59,26.59,0,0,0-32.22-3.31,18.3,18.3,0,0,0-1.06-6.18A18.5,18.5,0,0,0,481,226.53a26.56,26.56,0,1,0-50.85,15.07,27.07,27.07,0,0,0,2.86,5.72,18.5,18.5,0,0,0-22.75,24,19,19,0,0,0,2.3,4.4A18.52,18.52,0,0,0,404,295.37a26.54,26.54,0,0,0-30.22,32.76,18.5,18.5,0,0,0-24.68,26.69,27.06,27.06,0,0,0-3.24.93,26.64,26.64,0,0,0-9,5.4,26.29,26.29,0,0,0-3.2-6.11l8.82,179.43c65-24.09,186.65-69.22,188.22-70.45,2.14-1.68,109.48-74.8,112-83S627.53,333.4,623.23,311.17Z" transform="translate(109.68 -40.35)"/><g class="cls-8"><path class="cls-9" d="M669.1,333.4l-12-4.59A18.51,18.51,0,0,0,624.16,312a26.58,26.58,0,0,0-29.22-14,18.49,18.49,0,0,0-24.35-23.35,28.45,28.45,0,0,0,.16-2.93,26.56,26.56,0,1,0-52.35,6.34,18.48,18.48,0,0,0-28.8,19.82,18.53,18.53,0,0,0-14.75,15.64,26.56,26.56,0,0,0-39.48,20.67,18.51,18.51,0,0,0-32.23,16.83,26.37,26.37,0,0,0-13.64,1.85,26.55,26.55,0,0,0-43.33-20.32,18.5,18.5,0,0,0-34.9.44,26.56,26.56,0,0,0-46.44,25.77,18.5,18.5,0,0,0-13.49,17.81v.11a18.51,18.51,0,0,0-19.58,30.95l-70.57,96.16,132.57,14.64s241-2.58,243.63-3.44,128.27-33.58,133.43-40.47,1.73-49.93,5.17-72.31S669.1,333.4,669.1,333.4Z" transform="translate(109.68 -40.35)"/><path class="cls-10" d="M669.69,333.9l-12.05-4.59a18.51,18.51,0,0,0-32.9-16.79,26.57,26.57,0,0,0-29.21-14,18.48,18.48,0,0,0-17.44-24.7,18.31,18.31,0,0,0-6.92,1.35,25.89,25.89,0,0,0,.17-2.93A26.56,26.56,0,1,0,519,278.62a18.49,18.49,0,0,0-28.81,19.82,18.5,18.5,0,0,0-14.74,15.64A26.57,26.57,0,0,0,436,334.75a18.51,18.51,0,0,0-32.23,16.83,26.37,26.37,0,0,0-13.64,1.85,26.55,26.55,0,0,0-43.33-20.32,18.5,18.5,0,0,0-34.9.44,26.56,26.56,0,0,0-46.43,25.77,18.5,18.5,0,0,0-13.5,17.81.41.41,0,0,0,0,.11,18.51,18.51,0,0,0-19.58,30.95l-70.58,96.16L294.35,519s241-2.58,243.62-3.44S666.24,482,671.41,475.08s1.72-49.93,5.16-72.31S669.69,333.9,669.69,333.9Z" transform="translate(109.68 -40.35)"/><path class="cls-11" d="M670.27,334.4l-12-4.59A18.51,18.51,0,0,0,625.33,313a26.58,26.58,0,0,0-29.22-14,18.49,18.49,0,0,0-24.35-23.35,28.45,28.45,0,0,0,.16-2.93,26.56,26.56,0,1,0-52.35,6.34A18.5,18.5,0,0,0,490.09,294a18.14,18.14,0,0,0,.68,4.91A18.5,18.5,0,0,0,476,314.58a26.57,26.57,0,0,0-39.49,20.67,18.51,18.51,0,0,0-33,11.52,18.24,18.24,0,0,0,.79,5.31,26.86,26.86,0,0,0-3.37-.22,26.42,26.42,0,0,0-10.27,2.07,26.55,26.55,0,0,0-43.34-20.32,18.5,18.5,0,0,0-34.9.44A26.56,26.56,0,0,0,266,359.82a18.5,18.5,0,0,0-13.5,17.81s0,.07,0,.11a18.51,18.51,0,0,0-19.58,30.95l-70.57,96.16,132.57,14.64s241-2.58,243.63-3.44S666.83,482.47,672,475.58s1.72-49.93,5.17-72.31S670.27,334.4,670.27,334.4Z" transform="translate(109.68 -40.35)"/><path class="cls-12" d="M670.85,334.9l-12-4.59a18.51,18.51,0,0,0-32.9-16.79,26.58,26.58,0,0,0-29.22-14,18.49,18.49,0,0,0-24.35-23.35,28.45,28.45,0,0,0,.16-2.93,26.56,26.56,0,1,0-52.35,6.34,18.48,18.48,0,0,0-28.8,19.82,18.53,18.53,0,0,0-14.75,15.64,26.56,26.56,0,0,0-39.48,20.67,18.51,18.51,0,0,0-32.23,16.83,26.37,26.37,0,0,0-13.64,1.85,26.55,26.55,0,0,0-43.33-20.32,18.5,18.5,0,0,0-34.9.44,26.56,26.56,0,0,0-46.44,25.77,18.5,18.5,0,0,0-13.49,17.81v.11a18.51,18.51,0,0,0-19.58,30.95l-70.57,96.16L295.51,520s241-2.58,243.63-3.44S667.41,483,672.57,476.08s1.73-49.93,5.17-72.31S670.85,334.9,670.85,334.9Z" transform="translate(109.68 -40.35)"/><path class="cls-13" d="M671.44,335.4l-12.05-4.59A18.51,18.51,0,0,0,626.49,314a26.57,26.57,0,0,0-29.21-14,18.48,18.48,0,0,0-17.44-24.7,18.31,18.31,0,0,0-6.92,1.35,25.89,25.89,0,0,0,.17-2.93,26.56,26.56,0,1,0-52.35,6.34,18.49,18.49,0,0,0-28.81,19.82,18.5,18.5,0,0,0-14.74,15.64,26.57,26.57,0,0,0-39.49,20.67,18.51,18.51,0,0,0-32.23,16.83,26.37,26.37,0,0,0-13.64,1.85,26.55,26.55,0,0,0-43.33-20.32,18.5,18.5,0,0,0-34.9.44,26.56,26.56,0,0,0-46.43,25.77,18.5,18.5,0,0,0-13.5,17.81.41.41,0,0,0,0,.11,18.51,18.51,0,0,0-19.58,30.95l-70.58,96.16L296.1,520.49s241-2.58,243.62-3.44S668,483.47,673.16,476.58s1.72-49.93,5.16-72.31S671.44,335.4,671.44,335.4Z" transform="translate(109.68 -40.35)"/><path class="cls-14" d="M672,335.9l-12-4.59a18.51,18.51,0,0,0-32.9-16.79,26.58,26.58,0,0,0-29.22-14,18.49,18.49,0,0,0-24.35-23.35,28.45,28.45,0,0,0,.16-2.93,26.56,26.56,0,1,0-52.35,6.34,18.5,18.5,0,0,0-29.48,14.91,18.14,18.14,0,0,0,.68,4.91,18.5,18.5,0,0,0-14.75,15.64,26.57,26.57,0,0,0-39.49,20.67,18.51,18.51,0,0,0-33,11.52,18.24,18.24,0,0,0,.79,5.31,26.86,26.86,0,0,0-3.37-.22,26.42,26.42,0,0,0-10.27,2.07,26.55,26.55,0,0,0-43.34-20.32,18.5,18.5,0,0,0-34.9.44,26.56,26.56,0,0,0-46.43,25.77,18.5,18.5,0,0,0-13.5,17.81s0,.07,0,.11a18.51,18.51,0,0,0-19.58,30.95l-70.57,96.16L296.68,521s241-2.58,243.63-3.44S668.58,484,673.74,477.08s1.72-49.93,5.17-72.31S672,335.9,672,335.9Z" transform="translate(109.68 -40.35)"/><path class="cls-15" d="M672.6,336.4l-12-4.59A18.51,18.51,0,0,0,627.66,315a26.58,26.58,0,0,0-29.22-14,18.49,18.49,0,0,0-24.35-23.35,28.45,28.45,0,0,0,.16-2.93,26.56,26.56,0,1,0-52.35,6.34,18.48,18.48,0,0,0-28.8,19.82,18.53,18.53,0,0,0-14.75,15.64,26.56,26.56,0,0,0-39.48,20.67,18.51,18.51,0,0,0-32.23,16.83A26.37,26.37,0,0,0,393,355.93a26.55,26.55,0,0,0-43.33-20.32,18.5,18.5,0,0,0-34.9.44,26.56,26.56,0,0,0-46.44,25.77,18.5,18.5,0,0,0-13.49,17.81v.11a18.51,18.51,0,0,0-19.58,30.95l-70.57,96.16,132.57,14.64s241-2.58,243.63-3.44,128.27-33.58,133.43-40.47,1.73-49.93,5.17-72.31S672.6,336.4,672.6,336.4Z" transform="translate(109.68 -40.35)"/><path class="cls-16" d="M673.19,336.9l-12.05-4.59a18.51,18.51,0,0,0-32.9-16.79,26.57,26.57,0,0,0-29.21-14,18.48,18.48,0,0,0-17.44-24.7,18.31,18.31,0,0,0-6.92,1.35,25.89,25.89,0,0,0,.17-2.93,26.56,26.56,0,1,0-52.35,6.34,18.49,18.49,0,0,0-28.81,19.82,18.5,18.5,0,0,0-14.74,15.64,26.57,26.57,0,0,0-39.49,20.67,18.51,18.51,0,0,0-32.23,16.83,26.37,26.37,0,0,0-13.64,1.85,26.55,26.55,0,0,0-43.33-20.32,18.5,18.5,0,0,0-34.9.44,26.56,26.56,0,0,0-46.43,25.77,18.5,18.5,0,0,0-13.5,17.81.41.41,0,0,0,0,.11,18.51,18.51,0,0,0-19.58,30.95l-70.58,96.16L297.85,522s241-2.58,243.62-3.44S669.74,485,674.91,478.08s1.72-49.93,5.16-72.31S673.19,336.9,673.19,336.9Z" transform="translate(109.68 -40.35)"/><path class="cls-17" d="M673.77,337.4l-12-4.59A18.51,18.51,0,0,0,628.83,316a26.58,26.58,0,0,0-29.22-14,18.49,18.49,0,0,0-24.35-23.35,28.45,28.45,0,0,0,.16-2.93,26.56,26.56,0,1,0-52.35,6.34A18.5,18.5,0,0,0,493.59,297a18.14,18.14,0,0,0,.68,4.91,18.5,18.5,0,0,0-14.75,15.64A26.57,26.57,0,0,0,440,338.25a18.51,18.51,0,0,0-33,11.52,18.24,18.24,0,0,0,.79,5.31,26.86,26.86,0,0,0-3.37-.22,26.42,26.42,0,0,0-10.27,2.07,26.55,26.55,0,0,0-43.34-20.32,18.5,18.5,0,0,0-34.9.44,26.56,26.56,0,0,0-46.43,25.77A18.5,18.5,0,0,0,256,380.63s0,.07,0,.11a18.51,18.51,0,0,0-19.58,30.95l-70.57,96.16,132.57,14.64s241-2.58,243.63-3.44,128.27-33.58,133.43-40.47,1.72-49.93,5.17-72.31S673.77,337.4,673.77,337.4Z" transform="translate(109.68 -40.35)"/><path class="cls-18" d="M674.35,337.9l-12-4.59a18.51,18.51,0,0,0-32.9-16.79,26.58,26.58,0,0,0-29.22-14,18.49,18.49,0,0,0-24.35-23.35,28.45,28.45,0,0,0,.16-2.93,26.56,26.56,0,1,0-52.35,6.34,18.48,18.48,0,0,0-28.8,19.82,18.53,18.53,0,0,0-14.75,15.64,26.56,26.56,0,0,0-39.48,20.67,18.51,18.51,0,0,0-32.23,16.83,26.37,26.37,0,0,0-13.64,1.85,26.55,26.55,0,0,0-43.33-20.32,18.5,18.5,0,0,0-34.9.44,26.56,26.56,0,0,0-46.44,25.77,18.5,18.5,0,0,0-13.49,17.81v.11A18.51,18.51,0,0,0,237,412.19l-70.57,96.16L299,523s241-2.58,243.63-3.44S670.91,486,676.07,479.08s1.73-49.93,5.17-72.31S674.35,337.9,674.35,337.9Z" transform="translate(109.68 -40.35)"/></g><path class="cls-19" d="M535.77,431.74q.08-46.62,1.88-93.24,1.71-44,5.07-87.92a26.55,26.55,0,0,0-19.07,32,18.48,18.48,0,0,0-28.8,19.82,18.53,18.53,0,0,0-14.75,15.64,26.56,26.56,0,0,0-39.48,20.67,18.51,18.51,0,0,0-32.23,16.83,26.37,26.37,0,0,0-13.64,1.85,26.55,26.55,0,0,0-43.33-20.32,18.5,18.5,0,0,0-34.9.44,26.56,26.56,0,0,0-46.44,25.77,18.5,18.5,0,0,0-13.49,17.81v.11A18.51,18.51,0,0,0,237,412.19l-70.57,96.16L299,523s201.88-2.16,238.11-3.19Q535.69,475.79,535.77,431.74Z" transform="translate(109.68 -40.35)"/><g class="cls-8"><path class="cls-9" d="M562.84,480.93a17.62,17.62,0,0,0-11.75-30.77c-.59,0-1.18,0-1.76.09a17.62,17.62,0,0,0-31.88-14.31,25.29,25.29,0,0,0-46.58-2.82,17.64,17.64,0,0,0-22.82-8.79,25.3,25.3,0,0,0-29.85-37.88A17.63,17.63,0,0,0,392.89,366a17.64,17.64,0,0,0-34.82-1.92,25.29,25.29,0,0,0-47,17.4,17.62,17.62,0,0,0-27.2,14.81c0,.61,0,1.22.09,1.82a17.53,17.53,0,0,0-16.19-2.94c0-.55.06-1.1.06-1.65a25.3,25.3,0,0,0-50-5.34A17.64,17.64,0,0,0,189,401.82c0,.34,0,.67,0,1a17.59,17.59,0,0,0-30,7.44,25.33,25.33,0,0,0-23.22-3.84A25.28,25.28,0,0,0,96.53,386.3a17.88,17.88,0,0,0,.26-2.95,17.63,17.63,0,0,0-27.6-14.54,24.62,24.62,0,0,0,.18-3,25.29,25.29,0,1,0-50.58,0c0,.26,0,.52,0,.78a25.31,25.31,0,0,0-34,23.75,25.16,25.16,0,0,0,.49,4.94,17.52,17.52,0,0,0-9.52-2.8,17.59,17.59,0,0,0-14.1,7.07A25.25,25.25,0,0,0-60,387.21a25.3,25.3,0,0,0-25.29,25.3,25.29,25.29,0,0,0,2.39,10.75,17,17,0,0,0-2.88-.26,17.63,17.63,0,0,0-17.63,17.64,17.63,17.63,0,0,0,17.63,17.63c.6,0,1.18,0,1.76-.08l-21.5,42.08V537s122.63,36.16,126,36.16S486.1,585,520,586.73s67.81-54.82,67.81-54.82Z" transform="translate(109.68 -40.35)"/><path class="cls-10" d="M562.38,481.26a17.61,17.61,0,0,0-11.75-30.76,16.8,16.8,0,0,0-1.75.09A17.62,17.62,0,0,0,517,436.27a25.3,25.3,0,0,0-46.59-2.82,17.62,17.62,0,0,0-16-10.17,17.44,17.44,0,0,0-6.86,1.39,25.29,25.29,0,0,0-29.85-37.88,17.63,17.63,0,0,0-25.31-20.46,17.63,17.63,0,0,0-34.82-1.92,25.3,25.3,0,0,0-47,17.4A17.46,17.46,0,0,0,301,379a17.63,17.63,0,0,0-17.64,17.63,15.49,15.49,0,0,0,.1,1.82,17.64,17.64,0,0,0-16.2-2.94c0-.55.06-1.09.06-1.65a25.29,25.29,0,0,0-50-5.33,17.63,17.63,0,0,0-28.81,13.64c0,.34,0,.67.05,1a17.59,17.59,0,0,0-30,7.45,25.3,25.3,0,0,0-23.22-3.85,25.29,25.29,0,0,0-39.28-20.12,17.85,17.85,0,0,0,.26-2.94,17.63,17.63,0,0,0-27.6-14.55,24.62,24.62,0,0,0,.19-3,25.3,25.3,0,0,0-50.59,0c0,.26,0,.52,0,.78a25.3,25.3,0,0,0-34,23.76,25,25,0,0,0,.48,4.93,17.6,17.6,0,0,0-9.52-2.8,17.56,17.56,0,0,0-14.09,7.07A25.28,25.28,0,0,0-60.5,387.55a25.29,25.29,0,0,0-25.29,25.29,25.26,25.26,0,0,0,2.39,10.75,18,18,0,0,0-2.87-.26A17.64,17.64,0,0,0-103.91,441a17.64,17.64,0,0,0,17.64,17.64,17,17,0,0,0,1.75-.09L-106,500.6v36.73S16.61,573.5,20,573.5s465.64,11.86,499.55,13.56,67.81-54.82,67.81-54.82Z" transform="translate(109.68 -40.35)"/><path class="cls-11" d="M561.92,481.6a17.62,17.62,0,0,0-11.75-30.77,17,17,0,0,0-1.75.09,17.62,17.62,0,0,0-31.88-14.32A25.29,25.29,0,0,0,470,433.79,17.62,17.62,0,0,0,447.13,425a25.3,25.3,0,0,0-29.85-37.88A17.63,17.63,0,0,0,392,366.66a17.64,17.64,0,0,0-34.82-1.92,25.29,25.29,0,0,0-47.61,11.9,25.54,25.54,0,0,0,.6,5.5A17.62,17.62,0,0,0,282.94,397c0,.61,0,1.22.1,1.82a17.61,17.61,0,0,0-16.2-2.95c0-.54.06-1.09.06-1.64a25.29,25.29,0,0,0-50-5.34,17.64,17.64,0,0,0-28.81,13.64c0,.34,0,.67.05,1a17.59,17.59,0,0,0-30,7.44,25.24,25.24,0,0,0-23.22-3.84A25.29,25.29,0,0,0,95.61,387a17.62,17.62,0,0,0-27.33-17.49,26.64,26.64,0,0,0,.18-3,25.3,25.3,0,1,0-50.59,0c0,.26,0,.52,0,.78A25.3,25.3,0,0,0-16.1,391a25.94,25.94,0,0,0,.48,4.94,17.52,17.52,0,0,0-9.52-2.81,17.58,17.58,0,0,0-14.09,7.07A25.28,25.28,0,0,0-61,387.88a25.29,25.29,0,0,0-25.29,25.29,25.09,25.09,0,0,0,2.4,10.75,18.25,18.25,0,0,0-2.88-.25,17.63,17.63,0,0,0-17.64,17.63,17.64,17.64,0,0,0,17.64,17.64,16.8,16.8,0,0,0,1.75-.09l-21.49,42.08v36.73s122.62,36.17,126,36.17,465.64,11.87,499.55,13.56,67.81-54.81,67.81-54.81Z" transform="translate(109.68 -40.35)"/><path class="cls-12" d="M561.46,481.93a17.62,17.62,0,0,0-11.74-30.77c-.6,0-1.18,0-1.76.09a17.62,17.62,0,0,0-31.88-14.31,25.29,25.29,0,0,0-46.58-2.82,17.65,17.65,0,0,0-22.83-8.79,25.29,25.29,0,0,0-20.92-39.5,25.4,25.4,0,0,0-8.93,1.62A17.63,17.63,0,0,0,391.51,367a17.64,17.64,0,0,0-34.82-1.92A25.29,25.29,0,0,0,309.08,377a24.92,24.92,0,0,0,.61,5.5,17.62,17.62,0,0,0-27.2,14.81c0,.61,0,1.22.09,1.82a17.58,17.58,0,0,0-10.87-3.77,17.38,17.38,0,0,0-5.33.83q.06-.82.06-1.65a25.3,25.3,0,0,0-50-5.34,17.63,17.63,0,0,0-28.8,13.65c0,.34,0,.67,0,1a17.6,17.6,0,0,0-30,7.44,25.33,25.33,0,0,0-23.22-3.84A25.28,25.28,0,0,0,95.15,387.3a17.88,17.88,0,0,0,.27-2.95,17.63,17.63,0,0,0-27.6-14.54,26.82,26.82,0,0,0,.18-3,25.3,25.3,0,0,0-50.59,0c0,.26,0,.52,0,.78a25.3,25.3,0,0,0-34,23.75,25.94,25.94,0,0,0,.48,4.94,17.46,17.46,0,0,0-9.51-2.8,17.57,17.57,0,0,0-14.1,7.07,25.27,25.27,0,0,0-21.73-12.35,25.3,25.3,0,0,0-25.29,25.3,25.15,25.15,0,0,0,2.4,10.75,17.14,17.14,0,0,0-2.88-.26,17.64,17.64,0,0,0-17.64,17.64,17.63,17.63,0,0,0,17.64,17.63c.59,0,1.18,0,1.76-.08l-21.5,42.08V538s122.62,36.16,126,36.16S484.73,586,518.63,587.73s67.81-54.82,67.81-54.82Z" transform="translate(109.68 -40.35)"/><path class="cls-13" d="M561,482.26a17.61,17.61,0,0,0-11.74-30.76,17,17,0,0,0-1.76.09,17.62,17.62,0,0,0-31.88-14.32A25.29,25.29,0,0,0,469,434.45a17.62,17.62,0,0,0-22.83-8.78,25.29,25.29,0,0,0-29.85-37.88,17.63,17.63,0,0,0-25.31-20.46,17.63,17.63,0,0,0-34.82-1.92,25.29,25.29,0,0,0-47.61,11.9,24.92,24.92,0,0,0,.61,5.5,17.62,17.62,0,0,0-27.2,14.8,18,18,0,0,0,.09,1.82,17.64,17.64,0,0,0-16.2-2.94c0-.55.06-1.09.06-1.65a25.29,25.29,0,0,0-50-5.33,17.63,17.63,0,0,0-28.81,13.64c0,.34,0,.67.05,1a17.6,17.6,0,0,0-30,7.45A25.3,25.3,0,0,0,134,407.75a25.29,25.29,0,0,0-39.28-20.12,17.86,17.86,0,0,0,.27-2.94,17.63,17.63,0,0,0-27.6-14.55,26.82,26.82,0,0,0,.18-3,25.29,25.29,0,0,0-50.58,0c0,.26,0,.52,0,.78a25.31,25.31,0,0,0-34,23.76,25,25,0,0,0,.49,4.93,17.6,17.6,0,0,0-9.52-2.8,17.59,17.59,0,0,0-14.1,7.07,25.27,25.27,0,0,0-21.72-12.34,25.3,25.3,0,0,0-25.3,25.29,25.12,25.12,0,0,0,2.4,10.75,18.25,18.25,0,0,0-2.88-.26A17.63,17.63,0,0,0-105.28,442a17.63,17.63,0,0,0,17.63,17.64,17.14,17.14,0,0,0,1.76-.09l-21.5,42.08v36.73s122.63,36.17,126,36.17,465.64,11.86,499.54,13.56S586,533.24,586,533.24Z" transform="translate(109.68 -40.35)"/><path class="cls-14" d="M560.55,482.6a17.63,17.63,0,0,0-11.75-30.77,17.14,17.14,0,0,0-1.76.09,17.62,17.62,0,0,0-31.88-14.32,25.29,25.29,0,0,0-46.58-2.81A17.62,17.62,0,0,0,445.75,426a25.3,25.3,0,0,0-29.84-37.88,17.64,17.64,0,0,0-25.32-20.46,17.64,17.64,0,0,0-34.82-1.92,25.29,25.29,0,0,0-47.61,11.9,25.54,25.54,0,0,0,.61,5.5A17.62,17.62,0,0,0,281.57,398c0,.61,0,1.22.09,1.82a17.59,17.59,0,0,0-16.19-2.95c0-.54,0-1.09,0-1.64a25.29,25.29,0,0,0-50-5.34,17.64,17.64,0,0,0-28.81,13.64c0,.34,0,.67.05,1a17.59,17.59,0,0,0-30,7.44,25.26,25.26,0,0,0-23.23-3.84A25.29,25.29,0,0,0,94.23,388,16.65,16.65,0,0,0,94.5,385a17.64,17.64,0,0,0-27.6-14.55,24.46,24.46,0,0,0,.18-3,25.29,25.29,0,1,0-50.58,0c0,.26,0,.52,0,.78a25.31,25.31,0,0,0-34,23.75A25.16,25.16,0,0,0-17,397a17.52,17.52,0,0,0-9.52-2.81,17.62,17.62,0,0,0-14.1,7.07,25.27,25.27,0,0,0-21.72-12.34,25.3,25.3,0,0,0-25.3,25.29,25.23,25.23,0,0,0,2.4,10.75,18.14,18.14,0,0,0-2.88-.25,17.63,17.63,0,0,0-17.63,17.63,17.63,17.63,0,0,0,17.63,17.64,17,17,0,0,0,1.76-.09l-21.5,42.08v36.73s122.63,36.17,126,36.17,465.64,11.87,499.54,13.56,67.82-54.81,67.82-54.81Z" transform="translate(109.68 -40.35)"/><path class="cls-15" d="M560.09,482.93a17.62,17.62,0,0,0-11.75-30.77c-.59,0-1.18,0-1.76.09a17.62,17.62,0,0,0-31.88-14.31,25.29,25.29,0,0,0-46.58-2.82,17.64,17.64,0,0,0-22.82-8.79,25.3,25.3,0,0,0-29.85-37.88A17.63,17.63,0,0,0,390.14,368a17.64,17.64,0,0,0-34.82-1.92,25.29,25.29,0,0,0-47,17.4,17.62,17.62,0,0,0-27.2,14.81c0,.61,0,1.22.09,1.82A17.53,17.53,0,0,0,265,397.16c0-.55.06-1.1.06-1.65a25.3,25.3,0,0,0-50-5.34,17.64,17.64,0,0,0-28.81,13.65c0,.34,0,.67,0,1a17.59,17.59,0,0,0-30,7.44,25.33,25.33,0,0,0-23.22-3.84A25.28,25.28,0,0,0,93.78,388.3a17.88,17.88,0,0,0,.26-2.95,17.63,17.63,0,0,0-27.6-14.54,24.62,24.62,0,0,0,.18-3,25.29,25.29,0,1,0-50.58,0c0,.26,0,.52,0,.78a25.31,25.31,0,0,0-34,23.75,25.16,25.16,0,0,0,.49,4.94,17.52,17.52,0,0,0-9.52-2.8,17.59,17.59,0,0,0-14.1,7.07,25.25,25.25,0,0,0-21.72-12.35,25.3,25.3,0,0,0-25.29,25.3,25.29,25.29,0,0,0,2.39,10.75,17,17,0,0,0-2.88-.26,17.63,17.63,0,0,0-17.63,17.64,17.63,17.63,0,0,0,17.63,17.63c.6,0,1.18,0,1.76-.08l-21.5,42.08V539s122.63,36.16,126,36.16S483.35,587,517.26,588.73s67.81-54.82,67.81-54.82Z" transform="translate(109.68 -40.35)"/><path class="cls-16" d="M559.63,483.26a17.61,17.61,0,0,0-11.75-30.76,16.8,16.8,0,0,0-1.75.09,17.62,17.62,0,0,0-31.88-14.32,25.3,25.3,0,0,0-46.59-2.82,17.62,17.62,0,0,0-16-10.17,17.44,17.44,0,0,0-6.86,1.39A25.29,25.29,0,0,0,415,388.79a17.63,17.63,0,0,0-25.31-20.46,17.63,17.63,0,0,0-34.82-1.92,25.3,25.3,0,0,0-47,17.4,17.46,17.46,0,0,0-9.56-2.83,17.63,17.63,0,0,0-17.64,17.63,15.49,15.49,0,0,0,.1,1.82,17.64,17.64,0,0,0-16.2-2.94c0-.55.06-1.09.06-1.65a25.29,25.29,0,0,0-50-5.33,17.63,17.63,0,0,0-28.81,13.64c0,.34,0,.67.05,1a17.59,17.59,0,0,0-30,7.45,25.3,25.3,0,0,0-23.22-3.85,25.29,25.29,0,0,0-39.28-20.12,17.85,17.85,0,0,0,.26-2.94A17.63,17.63,0,0,0,66,371.14a24.62,24.62,0,0,0,.19-3,25.3,25.3,0,0,0-50.59,0c0,.26,0,.52,0,.78a25.3,25.3,0,0,0-34,23.76,25,25,0,0,0,.48,4.93,17.6,17.6,0,0,0-9.52-2.8,17.56,17.56,0,0,0-14.09,7.07,25.28,25.28,0,0,0-21.73-12.34,25.29,25.29,0,0,0-25.29,25.29,25.26,25.26,0,0,0,2.39,10.75,18,18,0,0,0-2.87-.26A17.64,17.64,0,0,0-106.66,443,17.64,17.64,0,0,0-89,460.61a17,17,0,0,0,1.75-.09l-21.5,42.08v36.73s122.63,36.17,126,36.17,465.64,11.86,499.55,13.56,67.81-54.82,67.81-54.82Z" transform="translate(109.68 -40.35)"/><path class="cls-17" d="M559.17,483.6a17.62,17.62,0,0,0-11.75-30.77,17,17,0,0,0-1.75.09,17.62,17.62,0,0,0-31.88-14.32,25.29,25.29,0,0,0-46.58-2.81A17.62,17.62,0,0,0,444.38,427a25.3,25.3,0,0,0-29.85-37.88,17.63,17.63,0,0,0-25.31-20.46,17.64,17.64,0,0,0-34.82-1.92,25.29,25.29,0,0,0-47.61,11.9,25.54,25.54,0,0,0,.6,5.5A17.62,17.62,0,0,0,280.19,399c0,.61,0,1.22.1,1.82a17.61,17.61,0,0,0-16.2-2.95c0-.54.06-1.09.06-1.64a25.29,25.29,0,0,0-50-5.34,17.64,17.64,0,0,0-28.81,13.64c0,.34,0,.67.05,1a17.59,17.59,0,0,0-30,7.44,25.24,25.24,0,0,0-23.22-3.84A25.29,25.29,0,0,0,92.86,389a17.62,17.62,0,0,0-27.33-17.49,26.64,26.64,0,0,0,.18-3,25.3,25.3,0,1,0-50.59,0c0,.26,0,.52,0,.78a25.3,25.3,0,0,0-34,23.75,25.94,25.94,0,0,0,.48,4.94,17.52,17.52,0,0,0-9.52-2.81A17.58,17.58,0,0,0-42,402.22a25.28,25.28,0,0,0-21.73-12.34A25.29,25.29,0,0,0-89,415.17a25.09,25.09,0,0,0,2.4,10.75,18.25,18.25,0,0,0-2.88-.25,17.63,17.63,0,0,0-17.64,17.63,17.64,17.64,0,0,0,17.64,17.64,16.8,16.8,0,0,0,1.75-.09l-21.49,42.08v36.73s122.62,36.17,126,36.17,465.64,11.87,499.55,13.56,67.81-54.81,67.81-54.81Z" transform="translate(109.68 -40.35)"/><path class="cls-18" d="M558.71,483.93A17.62,17.62,0,0,0,547,453.16c-.6,0-1.18,0-1.76.09a17.62,17.62,0,0,0-31.88-14.31,25.29,25.29,0,0,0-46.58-2.82,17.65,17.65,0,0,0-22.83-8.79A25.29,25.29,0,0,0,423,387.83a25.4,25.4,0,0,0-8.93,1.62A17.63,17.63,0,0,0,388.76,369a17.64,17.64,0,0,0-34.82-1.92A25.29,25.29,0,0,0,306.33,379a24.92,24.92,0,0,0,.61,5.5,17.62,17.62,0,0,0-27.2,14.81c0,.61,0,1.22.09,1.82A17.58,17.58,0,0,0,269,397.33a17.38,17.38,0,0,0-5.33.83q.06-.82.06-1.65a25.3,25.3,0,0,0-50-5.34,17.63,17.63,0,0,0-28.8,13.65c0,.34,0,.67,0,1a17.6,17.6,0,0,0-30,7.44,25.33,25.33,0,0,0-23.22-3.84A25.28,25.28,0,0,0,92.4,389.3a17.88,17.88,0,0,0,.27-2.95,17.63,17.63,0,0,0-27.6-14.54,26.82,26.82,0,0,0,.18-3,25.3,25.3,0,0,0-50.59,0c0,.26,0,.52,0,.78a25.3,25.3,0,0,0-34,23.75,25.94,25.94,0,0,0,.48,4.94,17.46,17.46,0,0,0-9.51-2.8,17.57,17.57,0,0,0-14.1,7.07,25.27,25.27,0,0,0-21.73-12.35,25.3,25.3,0,0,0-25.29,25.3,25.15,25.15,0,0,0,2.4,10.75,17.14,17.14,0,0,0-2.88-.26,17.64,17.64,0,0,0-17.64,17.64,17.63,17.63,0,0,0,17.64,17.63c.59,0,1.18,0,1.76-.08l-21.5,42.08V540s122.62,36.16,126,36.16S482,588,515.88,589.73s67.81-54.82,67.81-54.82Z" transform="translate(109.68 -40.35)"/></g><path class="cls-9" d="M68.43,424.42c1.33,23.4,1.61,46.85,1.32,70.28-.27,22.19-1.06,44.36-2,66.52q45.85.24,91.68,2.32c45.05,2,89.92,5.7,134.8,9.45q21.45-.3,42.89-.71c67.75-1.26,135.49-3.21,203.22-5.13.57-36.65,2-73.3,5.64-109.8,0-1.39,0-2.78.09-4.16l-.84.06a17.62,17.62,0,0,0-31.88-14.31,25.29,25.29,0,0,0-46.58-2.82,17.65,17.65,0,0,0-22.83-8.79A25.29,25.29,0,0,0,423,387.83a25.4,25.4,0,0,0-8.93,1.62A17.63,17.63,0,0,0,388.76,369a17.64,17.64,0,0,0-34.82-1.92A25.29,25.29,0,0,0,306.33,379a24.92,24.92,0,0,0,.61,5.5,17.62,17.62,0,0,0-27.2,14.81c0,.61,0,1.22.09,1.82A17.58,17.58,0,0,0,269,397.33a17.38,17.38,0,0,0-5.33.83q.06-.82.06-1.65a25.3,25.3,0,0,0-50-5.34,17.63,17.63,0,0,0-28.8,13.65c0,.34,0,.67,0,1a17.6,17.6,0,0,0-30,7.44,25.33,25.33,0,0,0-23.22-3.84A25.28,25.28,0,0,0,92.4,389.3a17.88,17.88,0,0,0,.27-2.95,17.63,17.63,0,0,0-27.6-14.54,26.82,26.82,0,0,0,.18-3,25.25,25.25,0,0,0-4.08-13.77c1.62,11.75,3.23,23.51,4.5,35.29Q67.5,407.35,68.43,424.42Z" transform="translate(109.68 -40.35)"/><rect class="cls-1" x="187.5" y="151.88" width="449.62" height="297.75"/><g class="cls-20"><path class="cls-9" d="M155.59,373.88c-.3.06-.6.1-.89.13-4.23.39-8.31-2.21-9.43-5.9a10.71,10.71,0,0,1-2.67.87,9.76,9.76,0,0,1-6.88-1.18,8.43,8.43,0,0,1-3.74-9.23,7.39,7.39,0,0,1,5.66-5,6.45,6.45,0,0,1,2.19,0c0-.11,0-.22,0-.33a6.32,6.32,0,0,1-.11-1.43c.16-3.46,3.25-6.33,7.68-7.15a13.86,13.86,0,0,1,3.1-.2,11.94,11.94,0,0,1,8,3.32,4.78,4.78,0,0,1,3.39-2.22,8.27,8.27,0,0,1,5.31.94c2.81,1.49,4.51,4.2,4.21,6.6a9.66,9.66,0,0,1,2.41.94,3.49,3.49,0,0,1,1.39,1,8.21,8.21,0,0,1,3,6.3,8.68,8.68,0,0,1-7.36,8.27h0a10.13,10.13,0,0,1-1.83.17,9.66,9.66,0,0,1-5.29-1.57A12.89,12.89,0,0,1,155.59,373.88Z" transform="translate(109.68 -40.35)"/></g><path class="cls-9" d="M198.25,321.33a4.13,4.13,0,0,1-.49.07,5,5,0,0,1-5.18-3.23,5.66,5.66,0,0,1-1.46.47,5.35,5.35,0,0,1-3.77-.64,4.63,4.63,0,0,1-2.06-5.07,4.08,4.08,0,0,1,3.11-2.75,3.46,3.46,0,0,1,1.2,0c0-.06,0-.12,0-.18a3.46,3.46,0,0,1-.06-.78c.09-1.9,1.78-3.48,4.21-3.93a8.11,8.11,0,0,1,1.71-.11,6.6,6.6,0,0,1,4.39,1.82,2.59,2.59,0,0,1,1.85-1.21,4.51,4.51,0,0,1,2.92.51,3.91,3.91,0,0,1,2.31,3.62,5.42,5.42,0,0,1,1.32.52,1.92,1.92,0,0,1,.76.52,4.52,4.52,0,0,1,1.67,3.46,4.77,4.77,0,0,1-4,4.54h0a5.63,5.63,0,0,1-1,.09,5.26,5.26,0,0,1-2.91-.86A7.05,7.05,0,0,1,198.25,321.33Z" transform="translate(109.68 -40.35)"/><g class="cls-21"><path class="cls-9" d="M515.67,252.85c10.67,0,20.43-6.62,23.51-15.66a29.68,29.68,0,0,0,13.3,3.19,25.9,25.9,0,0,0,13-3.36c8.76-5.08,13.5-15.9,11-25.18a20.2,20.2,0,0,0-19-14.64,17,17,0,0,0-2.26.15c0-.28,0-.55,0-.83a16.45,16.45,0,0,0,.4-3.93c-.22-11.84-12.7-21.11-28.41-21.11h-.74c-8.77.17-16.92,3.31-22.25,8.5-2.32-4.23-7.2-6.73-13.16-6.73a24.32,24.32,0,0,0-10.72,2.61c-7.84,3.88-12.72,11.2-12.11,17.84a26.34,26.34,0,0,0-6.66,2.4,9.65,9.65,0,0,0-3.91,2.54,22.59,22.59,0,0,0-8.82,17.14c-.33,12.87,10.75,23.62,24.69,24h.7a26.44,26.44,0,0,0,13.95-3.89c5.93,9.39,15,15.63,24.58,16.79A23.32,23.32,0,0,0,515.67,252.85Z" transform="translate(109.68 -40.35)"/><path class="cls-10" d="M515.94,253.17c10.67,0,20.44-6.62,23.51-15.65a29.81,29.81,0,0,0,13.3,3.19,25.91,25.91,0,0,0,13-3.37c8.76-5.07,13.5-15.9,11-25.18a20.2,20.2,0,0,0-19-14.64,17.08,17.08,0,0,0-2.27.15c0-.27,0-.55,0-.83a16.45,16.45,0,0,0,.4-3.93c-.22-11.83-12.7-21.1-28.41-21.1h-.74c-8.77.16-16.92,3.3-22.25,8.49-2.32-4.22-7.2-6.73-13.16-6.73a24.32,24.32,0,0,0-10.72,2.61c-7.84,3.89-12.72,11.2-12.11,17.84a26.34,26.34,0,0,0-6.66,2.4,9.76,9.76,0,0,0-3.91,2.54,22.6,22.6,0,0,0-8.82,17.15c-.33,12.86,10.75,23.62,24.69,24h.7a26.36,26.36,0,0,0,13.95-3.9c5.93,9.4,15,15.64,24.58,16.8A25.41,25.41,0,0,0,515.94,253.17Z" transform="translate(109.68 -40.35)"/><path class="cls-11" d="M516.21,253.49c10.67,0,20.44-6.61,23.51-15.65A29.68,29.68,0,0,0,553,241a25.9,25.9,0,0,0,13-3.36c8.76-5.08,13.5-15.9,11-25.18a20.21,20.21,0,0,0-18.95-14.65,17.08,17.08,0,0,0-2.27.16c0-.28,0-.56,0-.84a16.32,16.32,0,0,0,.4-3.92c-.22-11.84-12.7-21.11-28.41-21.11H527c-8.77.17-16.92,3.31-22.25,8.5-2.32-4.23-7.2-6.73-13.16-6.73a24.32,24.32,0,0,0-10.72,2.61c-7.84,3.88-12.72,11.19-12.11,17.84a26,26,0,0,0-6.66,2.4,9.65,9.65,0,0,0-3.91,2.54,22.59,22.59,0,0,0-8.82,17.14c-.33,12.87,10.75,23.62,24.69,24h.7a26.44,26.44,0,0,0,14-3.89c5.93,9.39,15,15.63,24.58,16.79A23.32,23.32,0,0,0,516.21,253.49Z" transform="translate(109.68 -40.35)"/><path class="cls-12" d="M516.48,253.82c10.67,0,20.44-6.62,23.51-15.66a29.69,29.69,0,0,0,13.3,3.2,25.91,25.91,0,0,0,13-3.37c8.76-5.07,13.5-15.9,11-25.18a20.2,20.2,0,0,0-18.95-14.64,17.08,17.08,0,0,0-2.27.15c0-.27,0-.55,0-.83a16.45,16.45,0,0,0,.4-3.93c-.22-11.83-12.7-21.1-28.41-21.1h-.74c-8.77.17-16.92,3.31-22.25,8.5-2.32-4.22-7.2-6.73-13.16-6.73a24.32,24.32,0,0,0-10.72,2.61c-7.84,3.89-12.72,11.2-12.11,17.84a26.48,26.48,0,0,0-6.66,2.4,9.76,9.76,0,0,0-3.91,2.54,22.59,22.59,0,0,0-8.82,17.14c-.33,12.87,10.75,23.63,24.69,24h.7a26.36,26.36,0,0,0,13.95-3.9c5.93,9.4,15,15.64,24.58,16.8A25.41,25.41,0,0,0,516.48,253.82Z" transform="translate(109.68 -40.35)"/><path class="cls-13" d="M516.75,254.14c10.67,0,20.44-6.61,23.52-15.65a29.61,29.61,0,0,0,13.29,3.19,25.81,25.81,0,0,0,13-3.37c8.76-5.07,13.5-15.89,11-25.17a20.21,20.21,0,0,0-18.95-14.65,15.65,15.65,0,0,0-2.27.16c0-.28,0-.56,0-.84a16.88,16.88,0,0,0,.41-3.93c-.23-11.83-12.71-21.1-28.42-21.1h-.74c-8.77.16-16.92,3.3-22.25,8.5-2.32-4.23-7.2-6.74-13.16-6.74a24.46,24.46,0,0,0-10.72,2.61c-7.84,3.89-12.72,11.2-12.11,17.85a25.89,25.89,0,0,0-6.65,2.4,9.52,9.52,0,0,0-3.92,2.54,22.59,22.59,0,0,0-8.82,17.14c-.33,12.87,10.75,23.62,24.69,24h.7a26.48,26.48,0,0,0,14-3.89c5.92,9.39,15,15.63,24.57,16.79A23.32,23.32,0,0,0,516.75,254.14Z" transform="translate(109.68 -40.35)"/><path class="cls-14" d="M517,254.47c10.67,0,20.44-6.62,23.52-15.66a29.65,29.65,0,0,0,13.29,3.2,25.91,25.91,0,0,0,13-3.37c8.76-5.07,13.5-15.9,11-25.18a20.2,20.2,0,0,0-19-14.64,17.19,17.19,0,0,0-2.27.15c0-.27,0-.55,0-.83a17,17,0,0,0,.41-3.93c-.23-11.83-12.71-21.1-28.42-21.1h-.74c-8.77.17-16.91,3.31-22.25,8.5-2.32-4.22-7.2-6.73-13.16-6.73a24.25,24.25,0,0,0-10.71,2.61c-7.85,3.89-12.73,11.2-12.12,17.84a26.26,26.26,0,0,0-6.65,2.4,9.72,9.72,0,0,0-3.92,2.54,22.59,22.59,0,0,0-8.82,17.14c-.33,12.87,10.75,23.63,24.69,24h.7a26.48,26.48,0,0,0,14-3.9c5.92,9.4,15,15.64,24.57,16.79A23.32,23.32,0,0,0,517,254.47Z" transform="translate(109.68 -40.35)"/><path class="cls-15" d="M517.29,254.79c10.67,0,20.44-6.61,23.52-15.65a29.77,29.77,0,0,0,13.29,3.19,25.81,25.81,0,0,0,13-3.37c8.76-5.07,13.5-15.89,11-25.18a20.21,20.21,0,0,0-19-14.64,15.65,15.65,0,0,0-2.27.16c0-.28,0-.56,0-.84a17,17,0,0,0,.41-3.93c-.23-11.83-12.71-21.1-28.42-21.1h-.74c-8.77.16-16.91,3.3-22.25,8.49-2.32-4.22-7.2-6.73-13.16-6.73A24.38,24.38,0,0,0,482,177.81c-7.84,3.89-12.73,11.2-12.12,17.85a25.89,25.89,0,0,0-6.65,2.4,9.52,9.52,0,0,0-3.92,2.54,22.58,22.58,0,0,0-8.82,17.14c-.33,12.87,10.75,23.62,24.69,24h.7a26.48,26.48,0,0,0,14-3.89c5.93,9.39,15,15.63,24.57,16.79A25.41,25.41,0,0,0,517.29,254.79Z" transform="translate(109.68 -40.35)"/><path class="cls-16" d="M517.56,255.12c10.67,0,20.44-6.62,23.52-15.66a29.64,29.64,0,0,0,13.29,3.19,25.9,25.9,0,0,0,13-3.36c8.76-5.07,13.5-15.9,11-25.18a20.2,20.2,0,0,0-19-14.64,17.19,17.19,0,0,0-2.27.15c0-.28,0-.55,0-.83a17,17,0,0,0,.41-3.93c-.23-11.84-12.71-21.1-28.42-21.1h-.74c-8.77.17-16.91,3.31-22.25,8.5-2.32-4.23-7.2-6.73-13.16-6.73a24.28,24.28,0,0,0-10.71,2.61c-7.84,3.88-12.73,11.2-12.12,17.84a26.26,26.26,0,0,0-6.65,2.4,9.68,9.68,0,0,0-3.92,2.54,22.59,22.59,0,0,0-8.82,17.14c-.33,12.87,10.75,23.63,24.69,24h.7a26.48,26.48,0,0,0,14-3.9c5.93,9.39,15,15.63,24.57,16.79A23.32,23.32,0,0,0,517.56,255.12Z" transform="translate(109.68 -40.35)"/><path class="cls-17" d="M517.83,255.44c10.67,0,20.44-6.61,23.52-15.65A29.77,29.77,0,0,0,554.64,243a25.91,25.91,0,0,0,13-3.37c8.76-5.07,13.5-15.89,11-25.18a20.21,20.21,0,0,0-18.95-14.64,17.19,17.19,0,0,0-2.27.15c0-.27,0-.55,0-.83a16.46,16.46,0,0,0,.41-3.93c-.23-11.83-12.71-21.1-28.42-21.1h-.74c-8.77.16-16.91,3.3-22.25,8.49-2.32-4.22-7.2-6.73-13.16-6.73a24.28,24.28,0,0,0-10.71,2.61c-7.84,3.89-12.73,11.2-12.12,17.85a25.89,25.89,0,0,0-6.65,2.4,9.66,9.66,0,0,0-3.92,2.53A22.64,22.64,0,0,0,451,218.39c-.33,12.87,10.75,23.62,24.69,24h.7a26.48,26.48,0,0,0,14-3.89c5.93,9.39,15,15.63,24.57,16.79A25.41,25.41,0,0,0,517.83,255.44Z" transform="translate(109.68 -40.35)"/><path class="cls-18" d="M518.1,255.77c10.67,0,20.44-6.62,23.52-15.66a29.64,29.64,0,0,0,13.29,3.19,26,26,0,0,0,13-3.36c8.75-5.08,13.49-15.9,11-25.18A20.2,20.2,0,0,0,560,200.12a17.19,17.19,0,0,0-2.27.15c0-.28,0-.55,0-.83a16.46,16.46,0,0,0,.41-3.93c-.23-11.84-12.71-21.11-28.42-21.11h-.74c-8.77.17-16.91,3.31-22.25,8.5-2.32-4.23-7.2-6.73-13.16-6.73a24.28,24.28,0,0,0-10.71,2.61c-7.84,3.88-12.73,11.2-12.12,17.84A26.26,26.26,0,0,0,464,199a9.68,9.68,0,0,0-3.92,2.54,22.62,22.62,0,0,0-8.82,17.14c-.33,12.87,10.75,23.62,24.69,24h.7a26.48,26.48,0,0,0,14-3.89c5.93,9.39,15,15.63,24.57,16.79A23.32,23.32,0,0,0,518.1,255.77Z" transform="translate(109.68 -40.35)"/></g><path class="cls-9" d="M518.1,255.28c10.67,0,20.44-6.62,23.52-15.66a29.65,29.65,0,0,0,13.29,3.2,26,26,0,0,0,13-3.37c8.75-5.07,13.49-15.9,11-25.18A20.2,20.2,0,0,0,560,199.63a17.19,17.19,0,0,0-2.27.15c0-.27,0-.55,0-.83a16.46,16.46,0,0,0,.41-3.93c-.23-11.83-12.71-21.1-28.42-21.1h-.74c-8.77.17-16.91,3.31-22.25,8.5-2.32-4.22-7.2-6.73-13.16-6.73a24.28,24.28,0,0,0-10.71,2.61c-7.84,3.89-12.73,11.2-12.12,17.84a26.26,26.26,0,0,0-6.65,2.4,9.79,9.79,0,0,0-3.92,2.54,22.62,22.62,0,0,0-8.82,17.14c-.33,12.87,10.75,23.63,24.69,24h.7a26.39,26.39,0,0,0,14-3.9c5.93,9.4,15,15.64,24.57,16.8A25.41,25.41,0,0,0,518.1,255.28Z" transform="translate(109.68 -40.35)"/><g class="cls-21"><path class="cls-9" d="M84.65,348.42c-7.53,0-14.42-4.67-16.6-11.05a20.91,20.91,0,0,1-9.38,2.25,18.3,18.3,0,0,1-9.16-2.37C43.33,333.67,40,326,41.73,319.48a14.27,14.27,0,0,1,13.38-10.33,12.17,12.17,0,0,1,1.6.1,5.63,5.63,0,0,1,0-.58,12,12,0,0,1-.29-2.78c.16-8.35,9-14.89,20.06-14.89H77c6.19.11,11.93,2.33,15.7,6,1.64-3,5.08-4.75,9.29-4.75a17.25,17.25,0,0,1,7.56,1.84c5.53,2.75,9,7.91,8.55,12.6a18.11,18.11,0,0,1,4.69,1.69,6.85,6.85,0,0,1,2.77,1.79,15.93,15.93,0,0,1,6.22,12.1c.23,9.08-7.59,16.67-17.42,16.92h-.5a18.69,18.69,0,0,1-9.85-2.74c-4.18,6.63-10.6,11-17.34,11.85A17.36,17.36,0,0,1,84.65,348.42Z" transform="translate(109.68 -40.35)"/><path class="cls-10" d="M84.46,348.65c-7.53,0-14.42-4.67-16.6-11a20.91,20.91,0,0,1-9.38,2.25,18.3,18.3,0,0,1-9.16-2.37c-6.18-3.58-9.52-11.22-7.78-17.77a14.27,14.27,0,0,1,13.38-10.33,12.17,12.17,0,0,1,1.6.1,5.63,5.63,0,0,1,0-.58,11.48,11.48,0,0,1-.29-2.78c.16-8.35,9-14.89,20.06-14.89h.51c6.2.11,11.94,2.33,15.71,6,1.64-3,5.08-4.75,9.29-4.75a17.25,17.25,0,0,1,7.56,1.84c5.53,2.75,9,7.91,8.55,12.6a18.11,18.11,0,0,1,4.69,1.69,6.85,6.85,0,0,1,2.77,1.79,16,16,0,0,1,6.22,12.1c.23,9.08-7.59,16.67-17.42,16.92h-.5a18.61,18.61,0,0,1-9.85-2.75c-4.18,6.63-10.6,11-17.34,11.85A15.46,15.46,0,0,1,84.46,348.65Z" transform="translate(109.68 -40.35)"/><path class="cls-11" d="M84.27,348.88c-7.53,0-14.42-4.67-16.6-11.05a20.94,20.94,0,0,1-9.38,2.25,18.3,18.3,0,0,1-9.16-2.37c-6.18-3.58-9.53-11.22-7.78-17.77A14.28,14.28,0,0,1,54.73,309.6a12.17,12.17,0,0,1,1.6.11c0-.19,0-.39,0-.59a11.35,11.35,0,0,1-.29-2.77c.16-8.35,9-14.89,20.05-14.89h.52c6.2.12,11.94,2.34,15.71,6,1.64-3,5.08-4.75,9.29-4.75a17.28,17.28,0,0,1,7.56,1.84c5.53,2.75,9,7.91,8.55,12.59a18.51,18.51,0,0,1,4.69,1.7,6.85,6.85,0,0,1,2.77,1.79,16,16,0,0,1,6.22,12.1c.23,9.08-7.59,16.67-17.42,16.92h-.5a18.61,18.61,0,0,1-9.85-2.75c-4.18,6.63-10.6,11-17.34,11.85A15.46,15.46,0,0,1,84.27,348.88Z" transform="translate(109.68 -40.35)"/><path class="cls-12" d="M84.08,349.11c-7.53,0-14.43-4.67-16.6-11.05a20.94,20.94,0,0,1-9.38,2.25,18.3,18.3,0,0,1-9.16-2.37c-6.18-3.58-9.53-11.22-7.78-17.77a14.28,14.28,0,0,1,13.38-10.34,12.17,12.17,0,0,1,1.6.11c0-.19,0-.39,0-.59a11.84,11.84,0,0,1-.28-2.77c.16-8.35,9-14.89,20.05-14.89h.52c6.2.12,11.94,2.34,15.71,6,1.64-3,5.08-4.75,9.29-4.75a17.28,17.28,0,0,1,7.56,1.84c5.53,2.74,9,7.9,8.54,12.59a18.58,18.58,0,0,1,4.7,1.7,6.85,6.85,0,0,1,2.77,1.79,16,16,0,0,1,6.22,12.1c.23,9.08-7.59,16.67-17.42,16.91h-.5a18.67,18.67,0,0,1-9.85-2.75c-4.18,6.63-10.6,11-17.34,11.85A17.36,17.36,0,0,1,84.08,349.11Z" transform="translate(109.68 -40.35)"/><path class="cls-13" d="M83.89,349.33c-7.53,0-14.43-4.66-16.6-11a20.94,20.94,0,0,1-9.38,2.25,18.2,18.2,0,0,1-9.16-2.38C42.57,334.58,39.22,327,41,320.4a14.26,14.26,0,0,1,13.38-10.34,12.29,12.29,0,0,1,1.6.11c0-.19,0-.39,0-.59a11.84,11.84,0,0,1-.28-2.77c.16-8.35,9-14.89,20-14.89h.52c6.19.12,11.94,2.34,15.71,6,1.63-3,5.08-4.75,9.29-4.75a17.2,17.2,0,0,1,7.55,1.84c5.54,2.74,9,7.9,8.55,12.59a18.58,18.58,0,0,1,4.7,1.7,6.85,6.85,0,0,1,2.77,1.79,16,16,0,0,1,6.22,12.1c.23,9.08-7.59,16.67-17.43,16.91h-.49a18.67,18.67,0,0,1-9.85-2.75c-4.18,6.63-10.6,11-17.34,11.85A17.36,17.36,0,0,1,83.89,349.33Z" transform="translate(109.68 -40.35)"/><path class="cls-14" d="M83.7,349.56c-7.53,0-14.43-4.67-16.6-11a21.07,21.07,0,0,1-9.38,2.25,18.2,18.2,0,0,1-9.16-2.38c-6.19-3.58-9.53-11.22-7.78-17.77a14.25,14.25,0,0,1,13.38-10.33,12,12,0,0,1,1.59.11l0-.59A11.84,11.84,0,0,1,55.5,307c.16-8.35,9-14.89,20-14.89h.52c6.19.12,11.94,2.33,15.7,6,1.64-3,5.09-4.75,9.29-4.75a17.08,17.08,0,0,1,7.56,1.84c5.54,2.74,9,7.9,8.55,12.59a19,19,0,0,1,4.7,1.69,6.88,6.88,0,0,1,2.76,1.8,16,16,0,0,1,6.23,12.09c.23,9.09-7.59,16.68-17.43,16.92h-.49a18.67,18.67,0,0,1-9.85-2.75c-4.18,6.63-10.6,11-17.34,11.85A17.36,17.36,0,0,1,83.7,349.56Z" transform="translate(109.68 -40.35)"/><path class="cls-15" d="M83.5,349.79c-7.52,0-14.42-4.67-16.59-11A21.07,21.07,0,0,1,57.53,341a18.27,18.27,0,0,1-9.17-2.38c-6.18-3.58-9.52-11.22-7.77-17.77A14.25,14.25,0,0,1,54,310.52a12,12,0,0,1,1.59.11l0-.59a11.84,11.84,0,0,1-.28-2.77c.15-8.35,9-14.89,20-14.89h.52c6.19.12,11.94,2.33,15.7,6,1.64-3,5.09-4.75,9.29-4.75a17.08,17.08,0,0,1,7.56,1.84c5.54,2.74,9,7.9,8.55,12.59a18.56,18.56,0,0,1,4.7,1.69,6.88,6.88,0,0,1,2.76,1.8,16,16,0,0,1,6.23,12.09c.23,9.08-7.59,16.67-17.43,16.92h-.49a18.67,18.67,0,0,1-9.85-2.75c-4.18,6.63-10.6,11-17.34,11.85A17.53,17.53,0,0,1,83.5,349.79Z" transform="translate(109.68 -40.35)"/><path class="cls-16" d="M83.31,350c-7.52,0-14.42-4.67-16.59-11a21,21,0,0,1-9.38,2.26,18.27,18.27,0,0,1-9.17-2.38c-6.18-3.58-9.52-11.22-7.77-17.77a14.25,14.25,0,0,1,13.38-10.33,12,12,0,0,1,1.59.11l0-.59a11.9,11.9,0,0,1-.28-2.77c.15-8.35,9-14.9,20.05-14.9h.52c6.19.12,11.94,2.33,15.7,6,1.64-3,5.09-4.75,9.29-4.75a17.08,17.08,0,0,1,7.56,1.84c5.53,2.74,9,7.9,8.55,12.59a18.56,18.56,0,0,1,4.7,1.69,6.86,6.86,0,0,1,2.76,1.79,16,16,0,0,1,6.23,12.1c.23,9.08-7.59,16.67-17.43,16.92h-.49a18.67,18.67,0,0,1-9.85-2.75c-4.19,6.63-10.6,11-17.34,11.85A17.66,17.66,0,0,1,83.31,350Z" transform="translate(109.68 -40.35)"/><path class="cls-17" d="M83.12,350.25c-7.53,0-14.42-4.67-16.59-11.05a21,21,0,0,1-9.38,2.26A18.34,18.34,0,0,1,48,339.08c-6.18-3.58-9.52-11.22-7.77-17.77A14.25,14.25,0,0,1,53.58,311a10.58,10.58,0,0,1,1.6.11l0-.59a11.38,11.38,0,0,1-.28-2.77c.15-8.35,9-14.9,20.05-14.9h.52c6.19.12,11.94,2.33,15.7,6,1.64-3,5.08-4.75,9.29-4.75a17.09,17.09,0,0,1,7.56,1.85c5.53,2.74,9,7.9,8.55,12.59a18.18,18.18,0,0,1,4.7,1.69,6.86,6.86,0,0,1,2.76,1.79,16,16,0,0,1,6.23,12.1c.23,9.08-7.59,16.67-17.43,16.92h-.5a18.66,18.66,0,0,1-9.84-2.75c-4.19,6.63-10.6,11-17.34,11.85A17.66,17.66,0,0,1,83.12,350.25Z" transform="translate(109.68 -40.35)"/><path class="cls-18" d="M82.93,350.48c-7.53,0-14.42-4.67-16.59-11.05A21,21,0,0,1,57,341.68a18.34,18.34,0,0,1-9.17-2.37c-6.18-3.58-9.52-11.22-7.77-17.77a14.25,14.25,0,0,1,13.37-10.33,12.17,12.17,0,0,1,1.6.1l0-.58a11.46,11.46,0,0,1-.28-2.78c.15-8.35,9-14.89,20.05-14.89h.52c6.19.11,11.94,2.33,15.7,6,1.64-3,5.08-4.75,9.29-4.75a17.09,17.09,0,0,1,7.56,1.85c5.53,2.74,9,7.9,8.55,12.59a18.32,18.32,0,0,1,4.7,1.69,6.82,6.82,0,0,1,2.76,1.79,16,16,0,0,1,6.23,12.1c.22,9.08-7.59,16.67-17.43,16.92h-.5a18.66,18.66,0,0,1-9.84-2.74c-4.19,6.63-10.6,11-17.34,11.85A17.66,17.66,0,0,1,82.93,350.48Z" transform="translate(109.68 -40.35)"/></g><path class="cls-9" d="M82.93,350.14c-7.53,0-14.42-4.67-16.59-11.05A21,21,0,0,1,57,341.34,18.34,18.34,0,0,1,47.79,339c-6.18-3.58-9.52-11.22-7.77-17.77a14.26,14.26,0,0,1,13.37-10.34A12.17,12.17,0,0,1,55,311l0-.59a11.33,11.33,0,0,1-.28-2.77c.15-8.35,9-14.89,20.05-14.89h.52c6.19.12,11.94,2.34,15.7,6,1.64-3,5.08-4.75,9.29-4.75a17.21,17.21,0,0,1,7.56,1.84c5.53,2.74,9,7.91,8.55,12.59a18.72,18.72,0,0,1,4.7,1.7,6.82,6.82,0,0,1,2.76,1.79A16,16,0,0,1,130.1,324c.22,9.08-7.59,16.67-17.43,16.92h-.5a18.66,18.66,0,0,1-9.84-2.75c-4.19,6.63-10.6,11-17.34,11.85A17.66,17.66,0,0,1,82.93,350.14Z" transform="translate(109.68 -40.35)"/><g class="cls-21"><path class="cls-9" d="M410.06,293.23c-5.48,0-10.5-3.4-12.08-8.05a15.17,15.17,0,0,1-6.83,1.64,13.27,13.27,0,0,1-6.68-1.73,11.94,11.94,0,0,1-5.66-12.93,10.4,10.4,0,0,1,9.74-7.53,9.2,9.2,0,0,1,1.17.08c0-.14,0-.28,0-.43a8.64,8.64,0,0,1-.21-2c.11-6.08,6.53-10.85,14.6-10.85h.38a16.94,16.94,0,0,1,11.43,4.36c1.19-2.17,3.7-3.46,6.76-3.46a12.59,12.59,0,0,1,5.51,1.34c4,2,6.54,5.76,6.22,9.17a13.44,13.44,0,0,1,3.42,1.24,4.94,4.94,0,0,1,2,1.3,11.64,11.64,0,0,1,4.53,8.81c.16,6.61-5.53,12.14-12.69,12.32h-.36a13.62,13.62,0,0,1-7.17-2c-3.05,4.83-7.72,8-12.63,8.63A12.29,12.29,0,0,1,410.06,293.23Z" transform="translate(109.68 -40.35)"/><path class="cls-10" d="M409.81,293.41c-5.48,0-10.5-3.4-12.08-8A15.31,15.31,0,0,1,390.9,287a13.31,13.31,0,0,1-6.67-1.73c-4.5-2.61-6.94-8.17-5.67-12.94a10.39,10.39,0,0,1,9.74-7.52,9.2,9.2,0,0,1,1.17.08c0-.14,0-.28,0-.43a8.67,8.67,0,0,1-.21-2c.11-6.08,6.53-10.84,14.6-10.84h.38A17,17,0,0,1,415.69,256c1.2-2.17,3.7-3.46,6.77-3.46a12.45,12.45,0,0,1,5.5,1.34c4,2,6.54,5.76,6.22,9.17a13.28,13.28,0,0,1,3.42,1.23,5,5,0,0,1,2,1.31,11.64,11.64,0,0,1,4.53,8.81c.16,6.61-5.53,12.13-12.69,12.31h-.36a13.62,13.62,0,0,1-7.17-2c-3.05,4.82-7.72,8-12.62,8.62A12.45,12.45,0,0,1,409.81,293.41Z" transform="translate(109.68 -40.35)"/><path class="cls-11" d="M409.56,293.6c-5.48,0-10.5-3.4-12.08-8a15.27,15.27,0,0,1-6.83,1.64,13.31,13.31,0,0,1-6.67-1.73c-4.5-2.61-6.94-8.17-5.66-12.94a10.37,10.37,0,0,1,9.73-7.52,7.58,7.58,0,0,1,1.17.08c0-.15,0-.29,0-.43a8.67,8.67,0,0,1-.21-2c.12-6.08,6.53-10.84,14.6-10.84H404a17,17,0,0,1,11.43,4.37c1.2-2.17,3.7-3.46,6.77-3.46a12.45,12.45,0,0,1,5.5,1.34c4,2,6.54,5.75,6.22,9.17a13.28,13.28,0,0,1,3.42,1.23,5.08,5.08,0,0,1,2,1.3,11.67,11.67,0,0,1,4.53,8.81c.17,6.61-5.53,12.14-12.69,12.32h-.36a13.53,13.53,0,0,1-7.17-2c-3,4.83-7.72,8-12.62,8.63A12.45,12.45,0,0,1,409.56,293.6Z" transform="translate(109.68 -40.35)"/><path class="cls-12" d="M409.31,293.79c-5.48,0-10.5-3.4-12.08-8.05a15.14,15.14,0,0,1-6.83,1.64,13.21,13.21,0,0,1-6.67-1.73,11.92,11.92,0,0,1-5.66-12.93,10.38,10.38,0,0,1,9.74-7.53,8.92,8.92,0,0,1,1.16.08c0-.14,0-.28,0-.43a8.64,8.64,0,0,1-.21-2c.12-6.08,6.53-10.85,14.6-10.85h.38a16.94,16.94,0,0,1,11.43,4.36c1.2-2.17,3.7-3.46,6.77-3.46a12.46,12.46,0,0,1,5.5,1.35c4,2,6.54,5.75,6.23,9.16a13.37,13.37,0,0,1,3.41,1.24,4.87,4.87,0,0,1,2,1.3,11.64,11.64,0,0,1,4.53,8.81c.17,6.61-5.52,12.14-12.69,12.32h-.36a13.62,13.62,0,0,1-7.17-2c-3,4.83-7.72,8-12.62,8.63A12.45,12.45,0,0,1,409.31,293.79Z" transform="translate(109.68 -40.35)"/><path class="cls-13" d="M409.06,294c-5.48,0-10.5-3.4-12.08-8a15.27,15.27,0,0,1-6.83,1.64,13.31,13.31,0,0,1-6.67-1.73,11.94,11.94,0,0,1-5.66-12.94,10.38,10.38,0,0,1,9.74-7.52,8.92,8.92,0,0,1,1.16.08c0-.14,0-.28,0-.43a8.67,8.67,0,0,1-.21-2c.12-6.08,6.53-10.84,14.6-10.84h.38a17,17,0,0,1,11.43,4.37c1.2-2.17,3.71-3.46,6.77-3.46a12.45,12.45,0,0,1,5.5,1.34c4,2,6.54,5.76,6.23,9.17a13.56,13.56,0,0,1,3.42,1.23,5,5,0,0,1,2,1.31,11.61,11.61,0,0,1,4.53,8.81c.17,6.61-5.52,12.13-12.69,12.31h-.36a13.62,13.62,0,0,1-7.17-2c-3,4.82-7.71,8-12.62,8.62A12.33,12.33,0,0,1,409.06,294Z" transform="translate(109.68 -40.35)"/><path class="cls-14" d="M408.81,294.16c-5.48,0-10.5-3.4-12.08-8a15.27,15.27,0,0,1-6.83,1.64,13.31,13.31,0,0,1-6.67-1.73,12,12,0,0,1-5.66-12.94,10.37,10.37,0,0,1,9.74-7.52,7.45,7.45,0,0,1,1.16.08c0-.14,0-.29,0-.43a8.67,8.67,0,0,1-.21-2c.12-6.08,6.53-10.84,14.6-10.84h.38a17,17,0,0,1,11.44,4.37c1.19-2.17,3.7-3.46,6.76-3.46a12.45,12.45,0,0,1,5.5,1.34c4,2,6.54,5.75,6.23,9.17a13.56,13.56,0,0,1,3.42,1.23,5,5,0,0,1,2,1.3,11.64,11.64,0,0,1,4.53,8.81c.17,6.61-5.52,12.14-12.69,12.32h-.36a13.53,13.53,0,0,1-7.17-2c-3,4.83-7.71,8-12.62,8.63A12.33,12.33,0,0,1,408.81,294.16Z" transform="translate(109.68 -40.35)"/><path class="cls-15" d="M408.56,294.35c-5.48,0-10.5-3.4-12.08-8.05a15.14,15.14,0,0,1-6.83,1.64,13.21,13.21,0,0,1-6.67-1.73,11.94,11.94,0,0,1-5.66-12.93,10.39,10.39,0,0,1,9.74-7.53,8.92,8.92,0,0,1,1.16.08c0-.14,0-.28,0-.42a8.2,8.2,0,0,1-.2-2c.11-6.08,6.52-10.85,14.6-10.85H403a17,17,0,0,1,11.44,4.36c1.19-2.17,3.7-3.46,6.76-3.46a12.46,12.46,0,0,1,5.5,1.35c4,2,6.54,5.75,6.23,9.16a13.58,13.58,0,0,1,3.42,1.24,4.94,4.94,0,0,1,2,1.3,11.58,11.58,0,0,1,4.53,8.81c.17,6.61-5.52,12.14-12.68,12.32h-.37a13.56,13.56,0,0,1-7.16-2c-3.05,4.83-7.72,8-12.63,8.63A12.33,12.33,0,0,1,408.56,294.35Z" transform="translate(109.68 -40.35)"/><path class="cls-16" d="M408.32,294.53c-5.49,0-10.51-3.4-12.09-8a15.27,15.27,0,0,1-6.83,1.64,13.31,13.31,0,0,1-6.67-1.73,12,12,0,0,1-5.66-12.94,10.39,10.39,0,0,1,9.74-7.52A8.92,8.92,0,0,1,388,266c0-.14,0-.28,0-.43a8.15,8.15,0,0,1-.2-2c.11-6.08,6.52-10.84,14.6-10.84h.37a17,17,0,0,1,11.44,4.37c1.19-2.17,3.7-3.46,6.76-3.46a12.58,12.58,0,0,1,5.5,1.34c4,2,6.54,5.76,6.23,9.17a13.56,13.56,0,0,1,3.42,1.23,5,5,0,0,1,2,1.31,11.58,11.58,0,0,1,4.53,8.81c.17,6.61-5.52,12.13-12.68,12.31h-.36a13.56,13.56,0,0,1-7.17-2c-3.05,4.82-7.72,8-12.63,8.63A14.72,14.72,0,0,1,408.32,294.53Z" transform="translate(109.68 -40.35)"/><path class="cls-17" d="M408.07,294.72c-5.48,0-10.5-3.4-12.09-8a15.27,15.27,0,0,1-6.83,1.64,13.34,13.34,0,0,1-6.67-1.73,12,12,0,0,1-5.66-12.94,10.38,10.38,0,0,1,9.74-7.52,7.45,7.45,0,0,1,1.16.08c0-.14,0-.29,0-.43a8.15,8.15,0,0,1-.2-2c.11-6.08,6.52-10.84,14.6-10.84h.38A17,17,0,0,1,414,257.29c1.19-2.17,3.7-3.46,6.76-3.46a12.49,12.49,0,0,1,5.51,1.34c4,2,6.53,5.75,6.22,9.17a13.56,13.56,0,0,1,3.42,1.23,5,5,0,0,1,2,1.31,11.57,11.57,0,0,1,4.53,8.8c.17,6.61-5.52,12.14-12.68,12.32h-.36a13.51,13.51,0,0,1-7.17-2c-3.05,4.83-7.72,8-12.63,8.63A12.29,12.29,0,0,1,408.07,294.72Z" transform="translate(109.68 -40.35)"/><path class="cls-18" d="M407.82,294.91c-5.48,0-10.5-3.4-12.09-8.05a15.14,15.14,0,0,1-6.83,1.64,13.33,13.33,0,0,1-6.67-1.72,12,12,0,0,1-5.66-12.94,10.39,10.39,0,0,1,9.74-7.53,8.92,8.92,0,0,1,1.16.08c0-.14,0-.28,0-.42a9.29,9.29,0,0,1-.2-2c.11-6.08,6.53-10.85,14.6-10.85h.38a16.94,16.94,0,0,1,11.43,4.36c1.19-2.17,3.7-3.45,6.76-3.45a12.49,12.49,0,0,1,5.51,1.34c4,2,6.53,5.75,6.22,9.16a13.44,13.44,0,0,1,3.42,1.24,4.94,4.94,0,0,1,2,1.3,11.64,11.64,0,0,1,4.54,8.81c.16,6.61-5.53,12.14-12.69,12.32h-.36a13.59,13.59,0,0,1-7.17-2c-3.05,4.83-7.72,8-12.63,8.63A12.29,12.29,0,0,1,407.82,294.91Z" transform="translate(109.68 -40.35)"/></g><path class="cls-9" d="M407.82,294.91c-5.48,0-10.5-3.4-12.09-8.05a15.14,15.14,0,0,1-6.83,1.64,13.33,13.33,0,0,1-6.67-1.72,12,12,0,0,1-5.66-12.94,10.39,10.39,0,0,1,9.74-7.53,8.92,8.92,0,0,1,1.16.08c0-.14,0-.28,0-.42a9.29,9.29,0,0,1-.2-2c.11-6.08,6.53-10.85,14.6-10.85h.38a16.94,16.94,0,0,1,11.43,4.36c1.19-2.17,3.7-3.45,6.76-3.45a12.49,12.49,0,0,1,5.51,1.34c4,2,6.53,5.75,6.22,9.16a13.44,13.44,0,0,1,3.42,1.24,4.94,4.94,0,0,1,2,1.3,11.64,11.64,0,0,1,4.54,8.81c.16,6.61-5.53,12.14-12.69,12.32h-.36a13.59,13.59,0,0,1-7.17-2c-3.05,4.83-7.72,8-12.63,8.63A12.29,12.29,0,0,1,407.82,294.91Z" transform="translate(109.68 -40.35)"/><g class="cls-21"><path class="cls-9" d="M465.6,129.17a8,8,0,0,1-7.57-5,9.64,9.64,0,0,1-4.28,1,8.36,8.36,0,0,1-4.19-1.09A7.48,7.48,0,0,1,446,116a6.5,6.5,0,0,1,6.1-4.71,5.84,5.84,0,0,1,.73,0c0-.09,0-.18,0-.27a5.48,5.48,0,0,1-.13-1.27c.07-3.81,4.09-6.79,9.15-6.79h.24a10.62,10.62,0,0,1,7.17,2.74,4.62,4.62,0,0,1,4.23-2.17,7.83,7.83,0,0,1,3.45.84c2.53,1.25,4.1,3.61,3.91,5.75a8.41,8.41,0,0,1,2.14.77,3.06,3.06,0,0,1,1.26.82,7.27,7.27,0,0,1,2.84,5.52c.1,4.14-3.46,7.6-7.95,7.72h-.23a8.51,8.51,0,0,1-4.49-1.25,11.27,11.27,0,0,1-7.91,5.4A7.42,7.42,0,0,1,465.6,129.17Z" transform="translate(109.68 -40.35)"/><path class="cls-10" d="M465.44,129.29a8,8,0,0,1-7.57-5,9.51,9.51,0,0,1-4.28,1,8.32,8.32,0,0,1-4.18-1.08,7.49,7.49,0,0,1-3.55-8.11,6.5,6.5,0,0,1,6.1-4.71,5.85,5.85,0,0,1,.73,0c0-.08,0-.17,0-.26a5,5,0,0,1-.13-1.27c.07-3.81,4.09-6.79,9.15-6.79H462a10.62,10.62,0,0,1,7.17,2.73,4.64,4.64,0,0,1,4.24-2.16,7.83,7.83,0,0,1,3.45.84c2.52,1.25,4.09,3.6,3.9,5.74a8.44,8.44,0,0,1,2.14.78,3.07,3.07,0,0,1,1.26.81,7.24,7.24,0,0,1,2.84,5.52c.11,4.15-3.46,7.61-7.95,7.72h-.22a8.58,8.58,0,0,1-4.5-1.26,11.24,11.24,0,0,1-7.91,5.41A7.3,7.3,0,0,1,465.44,129.29Z" transform="translate(109.68 -40.35)"/><path class="cls-11" d="M465.29,129.4a8,8,0,0,1-7.58-5,9.51,9.51,0,0,1-4.28,1,8.45,8.45,0,0,1-4.18-1.08,7.51,7.51,0,0,1-3.55-8.11,6.52,6.52,0,0,1,6.11-4.72,6,6,0,0,1,.73,0,2.44,2.44,0,0,1,0-.27,5.4,5.4,0,0,1-.13-1.26c.07-3.81,4.09-6.8,9.15-6.8h.24a10.59,10.59,0,0,1,7.16,2.73,4.65,4.65,0,0,1,4.24-2.17,7.83,7.83,0,0,1,3.45.84c2.53,1.26,4.1,3.61,3.9,5.75a8.35,8.35,0,0,1,2.15.77A3.23,3.23,0,0,1,484,112a7.3,7.3,0,0,1,2.84,5.52c.1,4.14-3.46,7.61-7.95,7.72h-.23a8.51,8.51,0,0,1-4.49-1.25,11.31,11.31,0,0,1-7.92,5.41C465.92,129.38,465.6,129.4,465.29,129.4Z" transform="translate(109.68 -40.35)"/><path class="cls-12" d="M465.13,129.52a8,8,0,0,1-7.57-5,9.64,9.64,0,0,1-4.28,1,8.32,8.32,0,0,1-4.18-1.09,7.49,7.49,0,0,1-3.55-8.11,6.51,6.51,0,0,1,6.1-4.71,5.84,5.84,0,0,1,.73.05c0-.09,0-.18,0-.27a6.06,6.06,0,0,1-.13-1.26c.08-3.81,4.1-6.8,9.15-6.8h.24a10.67,10.67,0,0,1,7.17,2.74,4.65,4.65,0,0,1,4.24-2.17,7.86,7.86,0,0,1,3.45.84c2.52,1.25,4.09,3.61,3.9,5.75a8.41,8.41,0,0,1,2.14.77,3.16,3.16,0,0,1,1.26.82,7.27,7.27,0,0,1,2.84,5.52c.11,4.14-3.46,7.6-7.95,7.72h-.23a8.53,8.53,0,0,1-4.49-1.25,11.27,11.27,0,0,1-7.91,5.4A7.3,7.3,0,0,1,465.13,129.52Z" transform="translate(109.68 -40.35)"/><path class="cls-13" d="M465,129.64a8,8,0,0,1-7.57-5,9.63,9.63,0,0,1-4.28,1,8.32,8.32,0,0,1-4.18-1.08,7.49,7.49,0,0,1-3.55-8.11,6.5,6.5,0,0,1,6.11-4.71,4.36,4.36,0,0,1,.72,0c0-.09,0-.18,0-.27a5,5,0,0,1-.13-1.27c.07-3.81,4.09-6.79,9.15-6.79h.24a10.57,10.57,0,0,1,7.16,2.74A4.65,4.65,0,0,1,472.9,104a7.83,7.83,0,0,1,3.45.84c2.52,1.25,4.1,3.6,3.9,5.74a8.69,8.69,0,0,1,2.14.78,3.17,3.17,0,0,1,1.27.81,7.34,7.34,0,0,1,2.84,5.52c.1,4.15-3.47,7.61-8,7.72h-.22a8.48,8.48,0,0,1-4.5-1.26,11.22,11.22,0,0,1-7.91,5.41A7.3,7.3,0,0,1,465,129.64Z" transform="translate(109.68 -40.35)"/><path class="cls-14" d="M464.82,129.75a8,8,0,0,1-7.57-5,9.52,9.52,0,0,1-4.29,1,8.34,8.34,0,0,1-4.18-1.08,7.49,7.49,0,0,1-3.54-8.11,6.5,6.5,0,0,1,6.1-4.72,6,6,0,0,1,.73,0c0-.09,0-.17,0-.27a5.4,5.4,0,0,1-.13-1.26c.07-3.81,4.09-6.8,9.15-6.8h.24a10.62,10.62,0,0,1,7.17,2.73,4.62,4.62,0,0,1,4.23-2.17,7.84,7.84,0,0,1,3.45.85c2.53,1.25,4.1,3.6,3.9,5.74a8.35,8.35,0,0,1,2.15.77,3.16,3.16,0,0,1,1.26.82,7.27,7.27,0,0,1,2.84,5.52c.1,4.15-3.46,7.61-7.95,7.72h-.23a8.51,8.51,0,0,1-4.49-1.25,11.29,11.29,0,0,1-7.91,5.41A7.4,7.4,0,0,1,464.82,129.75Z" transform="translate(109.68 -40.35)"/><path class="cls-15" d="M464.66,129.87a8,8,0,0,1-7.57-5,9.51,9.51,0,0,1-4.28,1,8.32,8.32,0,0,1-4.18-1.09,7.48,7.48,0,0,1-3.55-8.1,6.51,6.51,0,0,1,6.1-4.72,5.84,5.84,0,0,1,.73,0c0-.09,0-.18,0-.27a4.91,4.91,0,0,1-.13-1.26c.07-3.81,4.09-6.8,9.15-6.8h.23a10.67,10.67,0,0,1,7.17,2.74,4.65,4.65,0,0,1,4.24-2.17,7.83,7.83,0,0,1,3.45.84c2.52,1.25,4.09,3.61,3.9,5.75a8.41,8.41,0,0,1,2.14.77,3.09,3.09,0,0,1,1.26.82,7.27,7.27,0,0,1,2.84,5.52c.11,4.14-3.46,7.61-7.95,7.72H478a8.54,8.54,0,0,1-4.5-1.25,11.3,11.3,0,0,1-7.91,5.41C465.29,129.85,465,129.87,464.66,129.87Z" transform="translate(109.68 -40.35)"/><path class="cls-16" d="M464.51,130a8,8,0,0,1-7.58-5,9.64,9.64,0,0,1-4.28,1,8.35,8.35,0,0,1-4.18-1.09,7.5,7.5,0,0,1-3.55-8.11,6.51,6.51,0,0,1,6.11-4.71,4.48,4.48,0,0,1,.73.05,2.44,2.44,0,0,1,0-.27,5.48,5.48,0,0,1-.13-1.27c.07-3.81,4.09-6.79,9.15-6.79H461a10.6,10.6,0,0,1,7.16,2.74,4.65,4.65,0,0,1,4.24-2.17,7.83,7.83,0,0,1,3.45.84c2.53,1.25,4.1,3.61,3.9,5.75a8.35,8.35,0,0,1,2.15.77,3.12,3.12,0,0,1,1.26.82,7.3,7.3,0,0,1,2.84,5.52c.1,4.14-3.47,7.6-7.95,7.72h-.23a8.43,8.43,0,0,1-4.49-1.26,11.25,11.25,0,0,1-7.92,5.41A7.14,7.14,0,0,1,464.51,130Z" transform="translate(109.68 -40.35)"/><path class="cls-17" d="M464.35,130.11a8,8,0,0,1-7.57-5.05,9.51,9.51,0,0,1-4.28,1,8.32,8.32,0,0,1-4.18-1.08,7.49,7.49,0,0,1-3.55-8.11,6.51,6.51,0,0,1,6.1-4.72,5.84,5.84,0,0,1,.73,0c0-.08,0-.17,0-.26a6.08,6.08,0,0,1-.13-1.27c.08-3.81,4.09-6.79,9.15-6.79h.24a10.62,10.62,0,0,1,7.17,2.73,4.63,4.63,0,0,1,4.24-2.16,7.86,7.86,0,0,1,3.45.84c2.52,1.25,4.09,3.6,3.9,5.74a8.44,8.44,0,0,1,2.14.78,3.13,3.13,0,0,1,1.26.81,7.27,7.27,0,0,1,2.84,5.52c.11,4.15-3.46,7.61-7.95,7.72h-.23a8.54,8.54,0,0,1-4.49-1.26,11.26,11.26,0,0,1-7.91,5.41A7.3,7.3,0,0,1,464.35,130.11Z" transform="translate(109.68 -40.35)"/><path class="cls-18" d="M464.19,130.22a8,8,0,0,1-7.57-5,9.51,9.51,0,0,1-4.28,1,8.42,8.42,0,0,1-4.18-1.08,7.49,7.49,0,0,1-3.55-8.11,6.51,6.51,0,0,1,6.11-4.72,5.81,5.81,0,0,1,.72,0c0-.09,0-.18,0-.27a4.91,4.91,0,0,1-.13-1.26c.07-3.81,4.09-6.8,9.15-6.8h.23a10.67,10.67,0,0,1,7.17,2.74,4.65,4.65,0,0,1,4.24-2.17,7.83,7.83,0,0,1,3.45.84c2.52,1.26,4.1,3.61,3.9,5.75a8.28,8.28,0,0,1,2.14.77,3.09,3.09,0,0,1,1.26.82,7.28,7.28,0,0,1,2.85,5.52c.1,4.14-3.47,7.61-8,7.72h-.22a8.57,8.57,0,0,1-4.5-1.25,11.3,11.3,0,0,1-7.91,5.41C464.82,130.2,464.51,130.22,464.19,130.22Z" transform="translate(109.68 -40.35)"/></g><path class="cls-9" d="M464.19,130.22a8,8,0,0,1-7.57-5,9.51,9.51,0,0,1-4.28,1,8.42,8.42,0,0,1-4.18-1.08,7.49,7.49,0,0,1-3.55-8.11,6.51,6.51,0,0,1,6.11-4.72,5.81,5.81,0,0,1,.72,0c0-.09,0-.18,0-.27a4.91,4.91,0,0,1-.13-1.26c.07-3.81,4.09-6.8,9.15-6.8h.23a10.67,10.67,0,0,1,7.17,2.74,4.65,4.65,0,0,1,4.24-2.17,7.83,7.83,0,0,1,3.45.84c2.52,1.26,4.1,3.61,3.9,5.75a8.28,8.28,0,0,1,2.14.77,3.09,3.09,0,0,1,1.26.82,7.28,7.28,0,0,1,2.85,5.52c.1,4.14-3.47,7.61-8,7.72h-.22a8.57,8.57,0,0,1-4.5-1.25,11.3,11.3,0,0,1-7.91,5.41C464.82,130.2,464.51,130.22,464.19,130.22Z" transform="translate(109.68 -40.35)"/><g class="cls-20"><path class="cls-9" d="M423.92,189.23a6.77,6.77,0,0,1-6.4-4.26,8.07,8.07,0,0,1-3.61.87,7.11,7.11,0,0,1-3.53-.91,6.34,6.34,0,0,1-3-6.85,5.49,5.49,0,0,1,5.16-4,4.17,4.17,0,0,1,.61,0c0-.08,0-.15,0-.23a4.8,4.8,0,0,1-.11-1.07c.06-3.21,3.46-5.74,7.73-5.74h.2a8.94,8.94,0,0,1,6,2.31,3.92,3.92,0,0,1,3.58-1.83,6.5,6.5,0,0,1,2.91.71c2.14,1,3.46,3,3.3,4.85a7.11,7.11,0,0,1,1.81.65,2.56,2.56,0,0,1,1.06.69,6.15,6.15,0,0,1,2.4,4.66,6.63,6.63,0,0,1-6.71,6.52h-.19a7.24,7.24,0,0,1-3.8-1,9.49,9.49,0,0,1-6.68,4.56A7,7,0,0,1,423.92,189.23Z" transform="translate(109.68 -40.35)"/></g></g></g></g></svg>